<svg viewBox="0 0 21 20" fill="none" xmlns="http://www.w3.org/2000/svg"><path fill-rule="evenodd" clip-rule="evenodd" d="M8.362 2.862a.667.667 0 01.471-.195h3.334a.667.667 0 01.666.666V4H8.167v-.667c0-.176.07-.346.195-.471zM6.167 4v-.667A2.667 2.667 0 018.833.667h3.334a2.667 2.667 0 012.666 2.666V4H18a1 1 0 110 2h-.667v10.667a2.667 2.667 0 01-2.666 2.666H6.333a2.667 2.667 0 01-2.666-2.666V6H3a1 1 0 110-2h3.167zm-.5 2v10.667a.667.667 0 00.666.666h8.334a.667.667 0 00.666-.666V6H5.667z" fill="#F44336"/></svg>