<svg fill="none" xmlns="http://www.w3.org/2000/svg" viewBox="0 0 15 15"><path d="M11.876 10.623c-1.031 0-1.87.84-1.87 1.87 0 1.032.839 1.871 1.87 1.871 1.032 0 1.87-.839 1.87-1.87 0-1.031-.838-1.87-1.87-1.87zm0 2.619a.749.749 0 11.002-1.498.749.749 0 01-.002 1.498zm3.004-9.847a.56.56 0 00-.441-.216H3.463l-.505-2.112a.561.561 0 00-.545-.431H.56a.561.561 0 100 1.122h1.41l1.823 7.63c.06.253.287.431.546.431h8.735a.561.561 0 00.544-.426l1.366-5.518a.562.562 0 00-.103-.48zm-2.245 5.302H4.782l-1.05-4.395h9.99l-1.087 4.395zm-7.548 1.926c-1.031 0-1.87.84-1.87 1.87 0 1.032.839 1.871 1.87 1.871 1.031 0 1.87-.839 1.87-1.87 0-1.031-.839-1.87-1.87-1.87zm0 2.619a.749.749 0 11.002-1.498.749.749 0 01-.002 1.498z" fill="#fff"/></svg>