<svg xmlns="http://www.w3.org/2000/svg" fill="none" viewBox="0 0 100 39"><mask id="a" fill="#fff"><path d="M99.901 26.722a.707.707 0 00-.303-.345c-.132-.085-.292-.137-.36-.247-.074-.115-.047-.293-.03-.463.073-.717-.026-1.317-.022-1.952 0-.175.01-.353-.015-.538a.367.367 0 00-.062-.19c-.027-.032-.065-.055-.1-.08-.129-.085-.244-.182-.363-.275-.232-.177-.474-.327-.743-.495-.234-.147-.488-.307-.56-.547a.814.814 0 01-.01-.348c.03-.182.094-.357.147-.532.251-.84.231-1.68.154-2.508a18.766 18.766 0 00-.389-2.4c-.201-.897-.47-1.83-.966-2.587-.389-.593-.915-1.078-1.4-1.578a12.91 12.91 0 01-.364-.38c-.436.075-.858.163-1.294.22-.42.053-.854.08-1.28.098-.21.01-.419.017-.626.025-.934.03-1.871.05-2.81.067-2.203.04-4.416.068-6.618.123-2.711.067-5.407.175-8.113.23-1.637.032-3.277.047-4.916.082-1.288.025-2.577.065-3.867.105.065.1.132.198.2.293.258.362.542.685.794 1.05.546.797.942 1.8 1.109 2.8.13.76.124 1.517.087 2.275a29.061 29.061 0 01-.483 3.907 45.506 45.506 0 01-.947 3.948c-.254.897-.529 1.79-.765 2.69-.068.252-.13.507-.192.777.162-.002.321-.002.48-.005 2.605-.035 5.208-.105 7.815-.175.07-.462.142-.925.236-1.38.187-.892.461-1.767.81-2.612.506-1.23 1.164-2.403 1.991-3.44a12.23 12.23 0 012.482-2.348 11.845 11.845 0 012.985-1.532A12.811 12.811 0 0188.096 18c1.104.212 2.18.58 3.18 1.095.772.4 1.5.89 2.165 1.455a10.95 10.95 0 012.212 2.562c.633 1.025 1.084 2.165 1.393 3.325.207.778.351 1.563.508 2.363.058.285.115.57.245.825.082.162.194.315.319.45.087.092.181.18.274.265-.123.152-.245.302-.337.472-.062.115-.11.24-.16.365.43-.152.793-.265 1.097-.53.212-.185.394-.445.51-.72.21-.485.215-1.025.252-1.54.025-.36.068-.71.133-1.085.034-.2.074-.405.014-.58zm-2.628-7.285c-.087.605-.184.865-.389 1.005-.182.123-.446.15-.685.075-.27-.082-.508-.297-.695-.53-.242-.305-.394-.64-.538-.982-.33-.788-.61-1.618-.905-2.438-.227-.637-.458-1.27-.69-1.895-.182-.49-.366-.977-.369-1.562-.002-.253.03-.52.214-.67.133-.105.35-.15.539-.16.261-.013.478.04.68.12.249.1.47.245.675.4.222.17.421.35.6.577.42.533.718 1.31.925 2.035.154.543.26 1.055.361 1.573.112.567.22 1.14.274 1.715.035.482.02.617.003.737zm.747 10.945c-.127.158-.256.318-.334.498-.054.13-.082.275-.11.417l-.061.023c-.728.297-1.613.817-1.931.455-.17-.193-.177-.635-.197-1.038a12.118 12.118 0 00-.34-2.41c-.288-1.162-.774-2.387-1.457-3.455a9.173 9.173 0 00-2.3-2.462 8.725 8.725 0 00-2.235-1.188 9.316 9.316 0 00-4.034-.465c-1.006.1-1.99.358-2.92.755-1.129.483-2.178 1.17-3.035 2.045-.825.848-1.47 1.873-1.946 2.96-.426.97-.72 1.99-.912 3.025a25.03 25.03 0 00-.319 2.553c-.027.325-.05.652-.082.98l-.047.447c-2.898.01-5.793.023-8.691.038-3.52.02-7.042.045-10.562.052-5.14.015-10.28-.005-15.419.04-2.94.025-5.88.07-8.818.13-.867.018-1.732.038-2.599.058-.04-.445-.077-.89-.117-1.338-.117-1.322-.249-2.65-.57-3.942-.369-1.475-.985-2.905-1.887-4.133a9.899 9.899 0 00-2.867-2.617 10.185 10.185 0 00-3.3-1.243 9.818 9.818 0 00-3.32-.085 8.739 8.739 0 00-2.64.835 9.399 9.399 0 00-2.71 2.093 10.132 10.132 0 00-1.63 2.42 11.5 11.5 0 00-.6 1.54c-.21.657-.372 1.33-.476 2.015a8.65 8.65 0 00-.107 1.775c.032.62.154 1.235.194 1.855.015.202.017.405-.027.607a.993.993 0 01-.262.493c-.304.277-.842.172-1.298 0-.743-.285-1.264-.758-1.906-.928-.519-.135-1.117-.075-1.705-.027-.787.062-1.557.102-2.277-.12a3.078 3.078 0 01-.815-.385c-.127-.278-.254-.555-.24-.88.008-.155.046-.323.143-.41.125-.115.349-.098.56-.085.85.05 1.543 0 2.253-.13.503-.09 1.014-.218 1.505-.468.331-.167.65-.39.895-.667.518-.585.692-1.41.882-2.188.309-1.247.662-2.367 1.208-3.45a12.602 12.602 0 012.778-3.652 11.405 11.405 0 013.459-2.13 12.92 12.92 0 014.729-.89c1.276 0 2.549.187 3.745.597a12.38 12.38 0 012.746 1.373c.882.577 1.706 1.245 2.402 2.027.705.79 1.278 1.695 1.761 2.648a18.727 18.727 0 011.642 4.792c.097.523.17 1.05.14 1.49.884-.017 1.769-.035 2.653-.047 2.9-.048 5.803-.065 8.704-.108 3.722-.052 7.445-.147 11.17-.182 4.25-.04 8.504 0 12.78-.1 1.721-.043 3.446-.105 5.14-.135.311-.005.623-.01.937.005.105-.963.301-1.898.578-2.815.446-1.475 1.109-2.91 2.008-4.175a12.057 12.057 0 013.84-3.483 11.838 11.838 0 014.572-1.452c1.806-.195 3.685.002 5.352.585 1.28.447 2.434 1.12 3.476 1.977.58.48 1.126 1.015 1.595 1.618.483.622.884 1.315 1.216 2.035.269.587.495 1.192.682 1.802.235.765.409 1.54.549 2.348.077.445.142.897.35 1.292.118.223.282.428.46.585zM30.045 12.595c.474.022.947.05 1.42.067.843.028 1.685.018 2.53.008a471.43 471.43 0 012.063-.02c.488.007.974.015 1.46.007.535-.007 1.069-.035 1.754-.07l.319.188c-.075.072-.147.147-.222.22l-.274.032c-.386.038-.773.028-1.159.028-.6-.003-1.196.015-1.794.032a.29.29 0 01-.04.053c-.067.075-.171.122-.266.175a2.845 2.845 0 00-.401.262c-.352.27-.668.603-.927.973-.382.547-.633 1.172-.828 1.812a14.273 14.273 0 00-.468 2.178c-.234 1.637-.274 3.305-.187 4.957.05.918.137 1.833.19 2.75.044.838.062 1.678.12 2.515.034.52.084 1.038.139 1.555 1.375-.022 2.753-.045 4.128-.062 2.592-.035 5.186-.06 7.777-.1 3.54-.053 7.081-.133 10.624-.163 2.823-.022 5.649-.012 8.472-.042.247-.933.493-1.868.738-2.803.555-2.125 1.096-4.252 1.412-6.432.227-1.558.337-3.14.053-4.703-.155-.842-.424-1.68-.902-2.372-.324-.468-.743-.87-1.09-1.325l-.081-.11c-.743.04-1.485.08-2.23.115-2.799.137-5.602.22-8.405.302-2.277.07-4.557.138-6.834.215-1.035.035-2.071.073-3.105.11.097-.2.174-.417.276-.672 1.102.002 2.2.005 3.302-.005 2.257-.025 4.512-.113 6.767-.203 1.971-.077 3.94-.155 5.91-.222 1.331-.043 2.664-.08 3.995-.118.06-1.51.12-3.02.239-4.525.11-1.365.267-2.727.43-4.087.128-.003.255-.003.382-.005a150.494 150.494 0 00-.53 6.533c-.043.68-.083 1.36-.123 2.04.658-.018 1.318-.036 1.976-.048 1.308-.025 2.617-.033 3.922-.055 2.375-.038 4.744-.12 7.116-.183 2.806-.075 5.61-.122 8.415-.197.757-.02 1.515-.043 2.272-.065a71.139 71.139 0 003.1-.063c.894-.045 1.786-.125 2.68-.202a37.642 37.642 0 01-.515-.595 4.667 4.667 0 01-.282.032c-.416.03-.682-.03-.934-.14-.374-.167-.718-.445-1.056-.755a17.37 17.37 0 01-1.314-1.362c-.56-.638-1.053-1.268-1.467-2.07-.157-.31-.304-.643-.334-.978a1.3 1.3 0 01.012-.34c.01-.08.03-.16.055-.242l.01-.013c-.19-.167-.376-.332-.48-.48a.688.688 0 01-.13-.302c-.063-.335.082-.69.453-.888.35-.16.7-.317 1.047-.48.237-.11.473-.222.715-.325.272-.117.55-.22.79-.397a.454.454 0 00.154-.168c.052-.112.045-.28-.022-.362-.07-.085-.202-.08-.332-.078-.75.023-1.422.05-2.115.123-.668.067-1.356.175-2.033.237a16.38 16.38 0 01-2.208.053c-.64-.028-1.268-.09-1.909-.14-2.058-.16-4.228-.188-6.378-.225C72.174.912 68.522.822 64.86.727 60.767.622 56.666.512 52.58.717c-1.694.085-3.386.223-5.083.338-1.328.087-2.656.162-3.962.442-1.034.223-2.053.575-2.962 1.105-.614.358-1.174.793-1.742 1.223-2.001 1.517-4.07 2.952-6.008 4.492a75.71 75.71 0 00-3.276 2.773c-.426.377-.857.767-1.36.955-.551.207-1.187.17-2.121.03.563.3 1.348.382 2.093.43.648.045 1.266.06 1.886.09zm28.722 3.475a.485.485 0 01.147-.208.869.869 0 01.341-.155c.252-.065.5-.085.75-.1.58-.035 1.161-.047 1.75-.067.717-.028 1.447-.07 2.13-.035.343.017.677.055 1.068.092.167.018.344.035.429.153.05.07.067.172.047.26-.03.127-.142.217-.259.282-.124.07-.254.108-.386.14a6.55 6.55 0 01-.665.143c-.24.037-.484.057-.725.077-.025-.07-.05-.142-.1-.175-.047-.03-.12-.025-.192-.022-.463.022-.872.01-1.246 0-.314-.01-.603-.018-1.046-.05-.097-.008-.202-.015-.247.037-.037.045-.035.13-.037.195l-.008.065a7.604 7.604 0 01-.613 0 1.968 1.968 0 00-.276-.16 1.546 1.546 0 00-.444-.095c-.182-.02-.4-.042-.443-.177a.32.32 0 01.025-.2zm6.961-11.42c.048-.515.1-1.03.152-1.545l5.644.067c2.571.033 5.14.068 7.712.103.976.012 1.956.025 2.935.04.339.395.68.79 1.011 1.192.588.71 1.15 1.445 1.702 2.185.673.9 1.336 1.808 1.934 2.758.242.385.47.775.703 1.165-1.418.037-2.836.075-4.254.11-1.966.047-3.934.087-5.903.137-2.559.063-5.118.135-7.676.188-1.478.03-2.956.05-4.433.072.06-1.012.12-2.025.192-3.035.08-1.147.172-2.292.281-3.437zm-22.1 6.617c-.093.075-.332.06-.536.05-.334-.015-.584-.015-.85-.015-.27 0-.558 0-.832.003h-.593c-.115-.003-.245-.003-.307-.04-.042-.023-.055-.063-.052-.115a.248.248 0 01.045-.133.18.18 0 01.07-.06c.022-.01.044-.012.07-.017.238-.033.48-.065.722-.093.503-.052 1.019-.07 1.515-.107.152-.013.304-.025.468-.023.092 0 .187.008.242.055.065.055.075.165.085.26.007.105.01.188-.048.235zm2-6.85c.453-.43.91-.855 1.368-1.277 1.6-.02 3.202-.038 4.804-.048 1.642-.01 3.284-.01 4.926-.01 1.968 0 3.937 0 5.903.018.593.005 1.183.012 1.776.022-.117.965-.231 1.93-.324 2.898-.1 1.015-.172 2.03-.226 3.047-.038.71-.068 1.42-.098 2.13-1.49.043-2.982.085-4.472.138-2.088.072-4.176.162-6.264.242-1.896.07-3.79.133-5.686.15-.974.01-1.951.008-2.928.003.008-.055.015-.11.02-.165.047-.528-.032-1.083-.291-1.55a1.672 1.672 0 00-.586-.643 1.525 1.525 0 00-.47-.182c-.472-.098-.968.015-1.436.162-.26.08-.51.173-.755.278.815-.99 1.627-1.98 2.492-2.925a48.521 48.521 0 012.247-2.288zm-15.005 6.04a71.522 71.522 0 011.56-1.32 62.084 62.084 0 011.806-1.43c.845-.645 1.702-1.27 2.557-1.897.563-.413 1.126-.825 1.687-1.24l1.918-1.423c.416.16.81.253 1.181.315.205.033.404.058.496.18.072.095.082.25.058.388-.045.255-.21.445-.38.622-.263.278-.545.528-.819.785-1.069 1.003-2.038 2.14-3.09 3.16-.747.73-1.537 1.403-2.342 2.115-.349.31-.7.628-1.119.795-.348.138-.742.173-1.13.183-.639.02-1.262-.02-1.884-.085-.394-.04-.79-.093-1.555-.218.351-.31.702-.622 1.056-.93zm55.089 11.065c-4.568 0-8.27 3.715-8.27 8.298 0 4.582 3.702 8.297 8.27 8.297 4.567 0 8.267-3.715 8.267-8.297 0-4.583-3.7-8.298-8.267-8.298zM88.5 24.39a6.079 6.079 0 012.217 1.955l-2.888 2.002a2.587 2.587 0 00-.939-.827l1.61-3.13zm-1.7-.58l-.627 3.465a2.58 2.58 0 00-1.249.082l-1.069-3.355a6.067 6.067 0 012.945-.192zm-.147 6.01a.943.943 0 11-1.884 0 .943.943 0 111.884 0zm-4.407-5.023l1.998 2.895c-.349.243-.63.565-.825.943l-3.122-1.613a6.109 6.109 0 011.949-2.225zm-2.524 3.93l3.453.63c-.077.43-.045.858.082 1.253h-.002l-3.344 1.072a6.125 6.125 0 01-.19-2.955zm3.201 6.525a6.112 6.112 0 01-2.22-1.955l2.888-2.005c.234.34.553.628.94.828l-1.608 3.132zm1.697.578l.628-3.465c.416.077.845.047 1.248-.08l1.072 3.352a6.045 6.045 0 01-2.948.193zm4.555-.985l-1.998-2.898c.348-.242.632-.565.827-.942l3.12 1.612a6.116 6.116 0 01-1.95 2.228zm2.526-3.93l-3.453-.633a2.59 2.59 0 00-.082-1.25l3.344-1.075c.304.955.37 1.97.191 2.958zm-89.625.087c.274.02.548.013.822-.005.407-.025.81-.072 1.206-.147.374-.073.74-.168 1.097-.315.349-.145.685-.338.947-.605.264-.268.45-.613.588-.968.164-.427.254-.872.36-1.315.228-.955.522-1.9.92-2.8.36-.81.8-1.585 1.316-2.305.401-.562.847-1.095 1.338-1.582a11.834 11.834 0 012.88-2.118 12.829 12.829 0 014.356-1.33c.82-.1 1.642-.125 2.464-.07.95.063 1.894.23 2.796.523.732.235 1.437.555 2.118.927 1.313.723 2.529 1.65 3.495 2.785.626.735 1.15 1.56 1.593 2.42.356.685.662 1.393.927 2.115.226.625.42 1.26.59 1.908.152.58.282 1.17.334 1.765.015.15.022.302.03.452l.864-.015c-.012-.9-.12-1.805-.211-2.712a49.513 49.513 0 01-.252-3.433c-.028-.83-.025-1.66-.013-2.492.01-.71.025-1.423.085-2.13.07-.795.195-1.585.381-2.378.227-.965.544-1.935 1.102-2.71.216-.3.468-.572.745-.84.182-.182.379-.36.623-.467l.142-.058c-.705.035-1.408.068-2.11.073-1.366.015-2.734-.068-4.095-.155a93.045 93.045 0 01-1.664-.118c-.675-.055-1.358-.122-2.013-.287a13.78 13.78 0 01-.83-.25 56.868 56.868 0 00-1.6-.013c-1.295.015-2.588.125-3.884.248-1.981.187-3.967.405-5.893.887-1.51.38-2.982.92-4.43 1.48-.598.233-1.191.465-1.792.713-1.355.552-2.75 1.162-3.735 2.225A5.686 5.686 0 002.45 20.03c-.217.687-.297 1.407-.356 2.13-.083 1.027-.125 2.062-.177 3.065-.023.422-.048.837-.105 1.287-.047.385-.122.795-.356 1.05-.087.095-.2.17-.334.253-.23.142-.523.31-.506.52.008.092.077.195.127.3.142.302.112.625.092.94-.027.437-.035.855-.072 1.312-.037.453-.102.943.102 1.303-.017-.108-.037-.213-.042-.32-.008-.13.005-.26.042-.385a.74.74 0 01.192-.335.72.72 0 01.344-.155c.224-.043.451-.008.675.007zm25.335-13.797c.065-.17.2-.29.32-.425.131-.15.249-.323.415-.415.128-.073.282-.103.434-.118.469-.047.92.013 1.373.02.48.008.964-.042 1.458-.05.224-.002.45.005.647.138.162.11.307.305.28.472-.018.12-.12.225-.222.32-.18.173-.352.318-.55.418-.292.145-.644.195-.985.222a14.94 14.94 0 01-1.333.028c-.314.017-.626.035-.937.04-.204.002-.406.002-.61-.068-.118-.04-.235-.102-.29-.205-.057-.105-.044-.255 0-.377zm-22.43 2.752a5.02 5.02 0 01.544-.962 11.3 11.3 0 011.318-1.588 11.428 11.428 0 011.739-1.437c.453-.3.904-.54 1.393-.785.543-.275 1.133-.553 1.702-.7.296-.08.588-.12.954-.118.187.003.394.018.483.128.1.122.055.362 0 .57a3 3 0 01-.373.842c-.337.543-.805 1.068-1.291 1.548a20.508 20.508 0 01-2.26 1.9c-.54.397-1.096.782-1.697 1.08-.463.232-.954.41-1.445.587a3.35 3.35 0 01-.533.133c-.185.025-.391.03-.514-.078-.092-.08-.134-.225-.15-.367-.031-.268.036-.518.13-.753zm-.889 6.41c.287.008.51.435.5.96-.01.525-.248.948-.535.943-.286-.008-.51-.438-.5-.96.01-.525.248-.948.535-.943zm15.124-4.827c-4.567 0-8.27 3.715-8.27 8.297 0 4.583 3.703 8.298 8.27 8.298 4.565 0 8.268-3.715 8.268-8.298 0-4.582-3.703-8.297-8.268-8.297zm2.789 2.865a6.125 6.125 0 012.217 1.955l-2.888 2.005a2.563 2.563 0 00-.94-.828l1.61-3.132zm-1.7-.578l-.628 3.465a2.578 2.578 0 00-1.248.08L17.36 24.02a6.037 6.037 0 012.945-.193zm-.15 6.01a.942.942 0 01-.939.945.943.943 0 01-.942-.945c0-.522.422-.945.942-.945.519 0 .94.423.94.945zm-4.405-5.025l1.999 2.898a2.564 2.564 0 00-.825.942l-3.122-1.612a6.116 6.116 0 011.949-2.228zm-2.526 3.93l3.456.633a2.58 2.58 0 00.082 1.25h-.002L13.416 31.7a6.165 6.165 0 01-.192-2.958zm3.204 6.525a6.066 6.066 0 01-2.22-1.955l2.888-2.002c.234.34.553.627.94.827l-1.608 3.13zm1.697.58l.628-3.465A2.58 2.58 0 0020 32.3l1.07 3.355a6.065 6.065 0 01-2.946.192zm4.555-.987l-1.998-2.895c.348-.243.632-.565.824-.943l3.122 1.613a6.109 6.109 0 01-1.948 2.225zm2.526-3.93l-3.453-.63a2.604 2.604 0 00-.082-1.253l3.344-1.072c.303.955.368 1.97.191 2.955z"/></mask><path d="M99.901 26.722a.707.707 0 00-.303-.345c-.132-.085-.292-.137-.36-.247-.074-.115-.047-.293-.03-.463.073-.717-.026-1.317-.022-1.952 0-.175.01-.353-.015-.538a.367.367 0 00-.062-.19c-.027-.032-.065-.055-.1-.08-.129-.085-.244-.182-.363-.275-.232-.177-.474-.327-.743-.495-.234-.147-.488-.307-.56-.547a.814.814 0 01-.01-.348c.03-.182.094-.357.147-.532.251-.84.231-1.68.154-2.508a18.766 18.766 0 00-.389-2.4c-.201-.897-.47-1.83-.966-2.587-.389-.593-.915-1.078-1.4-1.578a12.91 12.91 0 01-.364-.38c-.436.075-.858.163-1.294.22-.42.053-.854.08-1.28.098-.21.01-.419.017-.626.025-.934.03-1.871.05-2.81.067-2.203.04-4.416.068-6.618.123-2.711.067-5.407.175-8.113.23-1.637.032-3.277.047-4.916.082-1.288.025-2.577.065-3.867.105.065.1.132.198.2.293.258.362.542.685.794 1.05.546.797.942 1.8 1.109 2.8.13.76.124 1.517.087 2.275a29.061 29.061 0 01-.483 3.907 45.506 45.506 0 01-.947 3.948c-.254.897-.529 1.79-.765 2.69-.068.252-.13.507-.192.777.162-.002.321-.002.48-.005 2.605-.035 5.208-.105 7.815-.175.07-.462.142-.925.236-1.38.187-.892.461-1.767.81-2.612.506-1.23 1.164-2.403 1.991-3.44a12.23 12.23 0 012.482-2.348 11.845 11.845 0 012.985-1.532A12.811 12.811 0 0188.096 18c1.104.212 2.18.58 3.18 1.095.772.4 1.5.89 2.165 1.455a10.95 10.95 0 012.212 2.562c.633 1.025 1.084 2.165 1.393 3.325.207.778.351 1.563.508 2.363.058.285.115.57.245.825.082.162.194.315.319.45.087.092.181.18.274.265-.123.152-.245.302-.337.472-.062.115-.11.24-.16.365.43-.152.793-.265 1.097-.53.212-.185.394-.445.51-.72.21-.485.215-1.025.252-1.54.025-.36.068-.71.133-1.085.034-.2.074-.405.014-.58zm-2.628-7.285c-.087.605-.184.865-.389 1.005-.182.123-.446.15-.685.075-.27-.082-.508-.297-.695-.53-.242-.305-.394-.64-.538-.982-.33-.788-.61-1.618-.905-2.438-.227-.637-.458-1.27-.69-1.895-.182-.49-.366-.977-.369-1.562-.002-.253.03-.52.214-.67.133-.105.35-.15.539-.16.261-.013.478.04.68.12.249.1.47.245.675.4.222.17.421.35.6.577.42.533.718 1.31.925 2.035.154.543.26 1.055.361 1.573.112.567.22 1.14.274 1.715.035.482.02.617.003.737zm.747 10.945c-.127.158-.256.318-.334.498-.054.13-.082.275-.11.417l-.061.023c-.728.297-1.613.817-1.931.455-.17-.193-.177-.635-.197-1.038a12.118 12.118 0 00-.34-2.41c-.288-1.162-.774-2.387-1.457-3.455a9.173 9.173 0 00-2.3-2.462 8.725 8.725 0 00-2.235-1.188 9.316 9.316 0 00-4.034-.465c-1.006.1-1.99.358-2.92.755-1.129.483-2.178 1.17-3.035 2.045-.825.848-1.47 1.873-1.946 2.96-.426.97-.72 1.99-.912 3.025a25.03 25.03 0 00-.319 2.553c-.027.325-.05.652-.082.98l-.047.447c-2.898.01-5.793.023-8.691.038-3.52.02-7.042.045-10.562.052-5.14.015-10.28-.005-15.419.04-2.94.025-5.88.07-8.818.13-.867.018-1.732.038-2.599.058-.04-.445-.077-.89-.117-1.338-.117-1.322-.249-2.65-.57-3.942-.369-1.475-.985-2.905-1.887-4.133a9.899 9.899 0 00-2.867-2.617 10.185 10.185 0 00-3.3-1.243 9.818 9.818 0 00-3.32-.085 8.739 8.739 0 00-2.64.835 9.399 9.399 0 00-2.71 2.093 10.132 10.132 0 00-1.63 2.42 11.5 11.5 0 00-.6 1.54c-.21.657-.372 1.33-.476 2.015a8.65 8.65 0 00-.107 1.775c.032.62.154 1.235.194 1.855.015.202.017.405-.027.607a.993.993 0 01-.262.493c-.304.277-.842.172-1.298 0-.743-.285-1.264-.758-1.906-.928-.519-.135-1.117-.075-1.705-.027-.787.062-1.557.102-2.277-.12a3.078 3.078 0 01-.815-.385c-.127-.278-.254-.555-.24-.88.008-.155.046-.323.143-.41.125-.115.349-.098.56-.085.85.05 1.543 0 2.253-.13.503-.09 1.014-.218 1.505-.468.331-.167.65-.39.895-.667.518-.585.692-1.41.882-2.188.309-1.247.662-2.367 1.208-3.45a12.602 12.602 0 012.778-3.652 11.405 11.405 0 013.459-2.13 12.92 12.92 0 014.729-.89c1.276 0 2.549.187 3.745.597a12.38 12.38 0 012.746 1.373c.882.577 1.706 1.245 2.402 2.027.705.79 1.278 1.695 1.761 2.648a18.727 18.727 0 011.642 4.792c.097.523.17 1.05.14 1.49.884-.017 1.769-.035 2.653-.047 2.9-.048 5.803-.065 8.704-.108 3.722-.052 7.445-.147 11.17-.182 4.25-.04 8.504 0 12.78-.1 1.721-.043 3.446-.105 5.14-.135.311-.005.623-.01.937.005.105-.963.301-1.898.578-2.815.446-1.475 1.109-2.91 2.008-4.175a12.057 12.057 0 013.84-3.483 11.838 11.838 0 014.572-1.452c1.806-.195 3.685.002 5.352.585 1.28.447 2.434 1.12 3.476 1.977.58.48 1.126 1.015 1.595 1.618.483.622.884 1.315 1.216 2.035.269.587.495 1.192.682 1.802.235.765.409 1.54.549 2.348.077.445.142.897.35 1.292.118.223.282.428.46.585zM30.045 12.595c.474.022.947.05 1.42.067.843.028 1.685.018 2.53.008a471.43 471.43 0 012.063-.02c.488.007.974.015 1.46.007.535-.007 1.069-.035 1.754-.07l.319.188c-.075.072-.147.147-.222.22l-.274.032c-.386.038-.773.028-1.159.028-.6-.003-1.196.015-1.794.032a.29.29 0 01-.04.053c-.067.075-.171.122-.266.175a2.845 2.845 0 00-.401.262c-.352.27-.668.603-.927.973-.382.547-.633 1.172-.828 1.812a14.273 14.273 0 00-.468 2.178c-.234 1.637-.274 3.305-.187 4.957.05.918.137 1.833.19 2.75.044.838.062 1.678.12 2.515.034.52.084 1.038.139 1.555 1.375-.022 2.753-.045 4.128-.062 2.592-.035 5.186-.06 7.777-.1 3.54-.053 7.081-.133 10.624-.163 2.823-.022 5.649-.012 8.472-.042.247-.933.493-1.868.738-2.803.555-2.125 1.096-4.252 1.412-6.432.227-1.558.337-3.14.053-4.703-.155-.842-.424-1.68-.902-2.372-.324-.468-.743-.87-1.09-1.325l-.081-.11c-.743.04-1.485.08-2.23.115-2.799.137-5.602.22-8.405.302-2.277.07-4.557.138-6.834.215-1.035.035-2.071.073-3.105.11.097-.2.174-.417.276-.672 1.102.002 2.2.005 3.302-.005 2.257-.025 4.512-.113 6.767-.203 1.971-.077 3.94-.155 5.91-.222 1.331-.043 2.664-.08 3.995-.118.06-1.51.12-3.02.239-4.525.11-1.365.267-2.727.43-4.087.128-.003.255-.003.382-.005a150.494 150.494 0 00-.53 6.533c-.043.68-.083 1.36-.123 2.04.658-.018 1.318-.036 1.976-.048 1.308-.025 2.617-.033 3.922-.055 2.375-.038 4.744-.12 7.116-.183 2.806-.075 5.61-.122 8.415-.197.757-.02 1.515-.043 2.272-.065a71.139 71.139 0 003.1-.063c.894-.045 1.786-.125 2.68-.202a37.642 37.642 0 01-.515-.595 4.667 4.667 0 01-.282.032c-.416.03-.682-.03-.934-.14-.374-.167-.718-.445-1.056-.755a17.37 17.37 0 01-1.314-1.362c-.56-.638-1.053-1.268-1.467-2.07-.157-.31-.304-.643-.334-.978a1.3 1.3 0 01.012-.34c.01-.08.03-.16.055-.242l.01-.013c-.19-.167-.376-.332-.48-.48a.688.688 0 01-.13-.302c-.063-.335.082-.69.453-.888.35-.16.7-.317 1.047-.48.237-.11.473-.222.715-.325.272-.117.55-.22.79-.397a.454.454 0 00.154-.168c.052-.112.045-.28-.022-.362-.07-.085-.202-.08-.332-.078-.75.023-1.422.05-2.115.123-.668.067-1.356.175-2.033.237a16.38 16.38 0 01-2.208.053c-.64-.028-1.268-.09-1.909-.14-2.058-.16-4.228-.188-6.378-.225C72.174.912 68.522.822 64.86.727 60.767.622 56.666.512 52.58.717c-1.694.085-3.386.223-5.083.338-1.328.087-2.656.162-3.962.442-1.034.223-2.053.575-2.962 1.105-.614.358-1.174.793-1.742 1.223-2.001 1.517-4.07 2.952-6.008 4.492a75.71 75.71 0 00-3.276 2.773c-.426.377-.857.767-1.36.955-.551.207-1.187.17-2.121.03.563.3 1.348.382 2.093.43.648.045 1.266.06 1.886.09zm28.722 3.475a.485.485 0 01.147-.208.869.869 0 01.341-.155c.252-.065.5-.085.75-.1.58-.035 1.161-.047 1.75-.067.717-.028 1.447-.07 2.13-.035.343.017.677.055 1.068.092.167.018.344.035.429.153.05.07.067.172.047.26-.03.127-.142.217-.259.282-.124.07-.254.108-.386.14a6.55 6.55 0 01-.665.143c-.24.037-.484.057-.725.077-.025-.07-.05-.142-.1-.175-.047-.03-.12-.025-.192-.022-.463.022-.872.01-1.246 0-.314-.01-.603-.018-1.046-.05-.097-.008-.202-.015-.247.037-.037.045-.035.13-.037.195l-.008.065a7.604 7.604 0 01-.613 0 1.968 1.968 0 00-.276-.16 1.546 1.546 0 00-.444-.095c-.182-.02-.4-.042-.443-.177a.32.32 0 01.025-.2zm6.961-11.42c.048-.515.1-1.03.152-1.545l5.644.067c2.571.033 5.14.068 7.712.103.976.012 1.956.025 2.935.04.339.395.68.79 1.011 1.192.588.71 1.15 1.445 1.702 2.185.673.9 1.336 1.808 1.934 2.758.242.385.47.775.703 1.165-1.418.037-2.836.075-4.254.11-1.966.047-3.934.087-5.903.137-2.559.063-5.118.135-7.676.188-1.478.03-2.956.05-4.433.072.06-1.012.12-2.025.192-3.035.08-1.147.172-2.292.281-3.437zm-22.1 6.617c-.093.075-.332.06-.536.05-.334-.015-.584-.015-.85-.015-.27 0-.558 0-.832.003h-.593c-.115-.003-.245-.003-.307-.04-.042-.023-.055-.063-.052-.115a.248.248 0 01.045-.133.18.18 0 01.07-.06c.022-.01.044-.012.07-.017.238-.033.48-.065.722-.093.503-.052 1.019-.07 1.515-.107.152-.013.304-.025.468-.023.092 0 .187.008.242.055.065.055.075.165.085.26.007.105.01.188-.048.235zm2-6.85c.453-.43.91-.855 1.368-1.277 1.6-.02 3.202-.038 4.804-.048 1.642-.01 3.284-.01 4.926-.01 1.968 0 3.937 0 5.903.018.593.005 1.183.012 1.776.022-.117.965-.231 1.93-.324 2.898-.1 1.015-.172 2.03-.226 3.047-.038.71-.068 1.42-.098 2.13-1.49.043-2.982.085-4.472.138-2.088.072-4.176.162-6.264.242-1.896.07-3.79.133-5.686.15-.974.01-1.951.008-2.928.003.008-.055.015-.11.02-.165.047-.528-.032-1.083-.291-1.55a1.672 1.672 0 00-.586-.643 1.525 1.525 0 00-.47-.182c-.472-.098-.968.015-1.436.162-.26.08-.51.173-.755.278.815-.99 1.627-1.98 2.492-2.925a48.521 48.521 0 012.247-2.288zm-15.005 6.04a71.522 71.522 0 011.56-1.32 62.084 62.084 0 011.806-1.43c.845-.645 1.702-1.27 2.557-1.897.563-.413 1.126-.825 1.687-1.24l1.918-1.423c.416.16.81.253 1.181.315.205.033.404.058.496.18.072.095.082.25.058.388-.045.255-.21.445-.38.622-.263.278-.545.528-.819.785-1.069 1.003-2.038 2.14-3.09 3.16-.747.73-1.537 1.403-2.342 2.115-.349.31-.7.628-1.119.795-.348.138-.742.173-1.13.183-.639.02-1.262-.02-1.884-.085-.394-.04-.79-.093-1.555-.218.351-.31.702-.622 1.056-.93zm55.089 11.065c-4.568 0-8.27 3.715-8.27 8.298 0 4.582 3.702 8.297 8.27 8.297 4.567 0 8.267-3.715 8.267-8.297 0-4.583-3.7-8.298-8.267-8.298zM88.5 24.39a6.079 6.079 0 012.217 1.955l-2.888 2.002a2.587 2.587 0 00-.939-.827l1.61-3.13zm-1.7-.58l-.627 3.465a2.58 2.58 0 00-1.249.082l-1.069-3.355a6.067 6.067 0 012.945-.192zm-.147 6.01a.943.943 0 11-1.884 0 .943.943 0 111.884 0zm-4.407-5.023l1.998 2.895c-.349.243-.63.565-.825.943l-3.122-1.613a6.109 6.109 0 011.949-2.225zm-2.524 3.93l3.453.63c-.077.43-.045.858.082 1.253h-.002l-3.344 1.072a6.125 6.125 0 01-.19-2.955zm3.201 6.525a6.112 6.112 0 01-2.22-1.955l2.888-2.005c.234.34.553.628.94.828l-1.608 3.132zm1.697.578l.628-3.465c.416.077.845.047 1.248-.08l1.072 3.352a6.045 6.045 0 01-2.948.193zm4.555-.985l-1.998-2.898c.348-.242.632-.565.827-.942l3.12 1.612a6.116 6.116 0 01-1.95 2.228zm2.526-3.93l-3.453-.633a2.59 2.59 0 00-.082-1.25l3.344-1.075c.304.955.37 1.97.191 2.958zm-89.625.087c.274.02.548.013.822-.005.407-.025.81-.072 1.206-.147.374-.073.74-.168 1.097-.315.349-.145.685-.338.947-.605.264-.268.45-.613.588-.968.164-.427.254-.872.36-1.315.228-.955.522-1.9.92-2.8.36-.81.8-1.585 1.316-2.305.401-.562.847-1.095 1.338-1.582a11.834 11.834 0 012.88-2.118 12.829 12.829 0 014.356-1.33c.82-.1 1.642-.125 2.464-.07.95.063 1.894.23 2.796.523.732.235 1.437.555 2.118.927 1.313.723 2.529 1.65 3.495 2.785.626.735 1.15 1.56 1.593 2.42.356.685.662 1.393.927 2.115.226.625.42 1.26.59 1.908.152.58.282 1.17.334 1.765.015.15.022.302.03.452l.864-.015c-.012-.9-.12-1.805-.211-2.712a49.513 49.513 0 01-.252-3.433c-.028-.83-.025-1.66-.013-2.492.01-.71.025-1.423.085-2.13.07-.795.195-1.585.381-2.378.227-.965.544-1.935 1.102-2.71.216-.3.468-.572.745-.84.182-.182.379-.36.623-.467l.142-.058c-.705.035-1.408.068-2.11.073-1.366.015-2.734-.068-4.095-.155a93.045 93.045 0 01-1.664-.118c-.675-.055-1.358-.122-2.013-.287a13.78 13.78 0 01-.83-.25 56.868 56.868 0 00-1.6-.013c-1.295.015-2.588.125-3.884.248-1.981.187-3.967.405-5.893.887-1.51.38-2.982.92-4.43 1.48-.598.233-1.191.465-1.792.713-1.355.552-2.75 1.162-3.735 2.225A5.686 5.686 0 002.45 20.03c-.217.687-.297 1.407-.356 2.13-.083 1.027-.125 2.062-.177 3.065-.023.422-.048.837-.105 1.287-.047.385-.122.795-.356 1.05-.087.095-.2.17-.334.253-.23.142-.523.31-.506.52.008.092.077.195.127.3.142.302.112.625.092.94-.027.437-.035.855-.072 1.312-.037.453-.102.943.102 1.303-.017-.108-.037-.213-.042-.32-.008-.13.005-.26.042-.385a.74.74 0 01.192-.335.72.72 0 01.344-.155c.224-.043.451-.008.675.007zm25.335-13.797c.065-.17.2-.29.32-.425.131-.15.249-.323.415-.415.128-.073.282-.103.434-.118.469-.047.92.013 1.373.02.48.008.964-.042 1.458-.05.224-.002.45.005.647.138.162.11.307.305.28.472-.018.12-.12.225-.222.32-.18.173-.352.318-.55.418-.292.145-.644.195-.985.222a14.94 14.94 0 01-1.333.028c-.314.017-.626.035-.937.04-.204.002-.406.002-.61-.068-.118-.04-.235-.102-.29-.205-.057-.105-.044-.255 0-.377zm-22.43 2.752a5.02 5.02 0 01.544-.962 11.3 11.3 0 011.318-1.588 11.428 11.428 0 011.739-1.437c.453-.3.904-.54 1.393-.785.543-.275 1.133-.553 1.702-.7.296-.08.588-.12.954-.118.187.003.394.018.483.128.1.122.055.362 0 .57a3 3 0 01-.373.842c-.337.543-.805 1.068-1.291 1.548a20.508 20.508 0 01-2.26 1.9c-.54.397-1.096.782-1.697 1.08-.463.232-.954.41-1.445.587a3.35 3.35 0 01-.533.133c-.185.025-.391.03-.514-.078-.092-.08-.134-.225-.15-.367-.031-.268.036-.518.13-.753zm-.889 6.41c.287.008.51.435.5.96-.01.525-.248.948-.535.943-.286-.008-.51-.438-.5-.96.01-.525.248-.948.535-.943zm15.124-4.827c-4.567 0-8.27 3.715-8.27 8.297 0 4.583 3.703 8.298 8.27 8.298 4.565 0 8.268-3.715 8.268-8.298 0-4.582-3.703-8.297-8.268-8.297zm2.789 2.865a6.125 6.125 0 012.217 1.955l-2.888 2.005a2.563 2.563 0 00-.94-.828l1.61-3.132zm-1.7-.578l-.628 3.465a2.578 2.578 0 00-1.248.08L17.36 24.02a6.037 6.037 0 012.945-.193zm-.15 6.01a.942.942 0 01-.939.945.943.943 0 01-.942-.945c0-.522.422-.945.942-.945.519 0 .94.423.94.945zm-4.405-5.025l1.999 2.898a2.564 2.564 0 00-.825.942l-3.122-1.612a6.116 6.116 0 011.949-2.228zm-2.526 3.93l3.456.633a2.58 2.58 0 00.082 1.25h-.002L13.416 31.7a6.165 6.165 0 01-.192-2.958zm3.204 6.525a6.066 6.066 0 01-2.22-1.955l2.888-2.002c.234.34.553.627.94.827l-1.608 3.13zm1.697.58l.628-3.465A2.58 2.58 0 0020 32.3l1.07 3.355a6.065 6.065 0 01-2.946.192zm4.555-.987l-1.998-2.895c.348-.243.632-.565.824-.943l3.122 1.613a6.109 6.109 0 01-1.948 2.225zm2.526-3.93l-3.453-.63a2.604 2.604 0 00-.082-1.253l3.344-1.072c.303.955.368 1.97.191 2.955z" stroke="url(#paint0_linear)" stroke-width="2" mask="url(#a)"/><defs><linearGradient id="paint0_linear" x1="66.66" y1="2.449" x2="39.544" y2="31.475" gradientUnits="userSpaceOnUse"><stop offset=".156" stop-color="#0ACFCF"/><stop offset="1" stop-color="#743498" stop-opacity=".6"/></linearGradient></defs></svg>