<svg viewBox="0 0 296 115" fill="none" xmlns="http://www.w3.org/2000/svg"><ellipse cx="148" cy="112" rx="148" ry="3" fill="#D7D7DD"/><path d="M59.442 39c-23.2 2.4-37.167 7.333-44.5 11-7.694 3.423-11.547 8.73-13.5 16.5C-.31 73.472.07 88.5.07 90s1.372 6 5.372 6h222l48-3 9-3.5c2.5-1 3.5-4.5 4-7.5 0 0 1.5-9.5 1-11.5-.402-1.607-3-3-3-3l.5-10.5c.167-1.167-.5-5.1-2.5-7.5-.77-.924-2.5-3-7.5-5-4.396-2.771-8-5.5-8-5.5l-27-19.5c-4.167-2.833-15.4-8.5-27-8.5h-97.5c-3 0-8 2.5-8 2.5s-34.5 17.667-50 25.5z" fill="#262425"/><path d="M93.441 85c0-13.255 10.746-24 24-24h2c13.255 0 23 7.5 24 24v4c-1.5 18-9.5 24-24 24h-2c-14.5 0-24-9.5-24-24v-4z" fill="#262425"/><path d="M143.441 87.5c0 15-7.344 25.5-20 25.5-12.656 0-20-10.5-20-25.5s7.344-25.5 20-25.5c12.656 0 20 10.5 20 25.5z" fill="#fff" fill-opacity=".05"/><path d="M136.441 87.5c0 10.294-4.773 17.5-13 17.5-8.226 0-13-7.206-13-17.5s4.774-17.5 13-17.5c8.227 0 13 7.206 13 17.5z" fill="url(#paint0_radial)"/><path d="M136.441 87.5c0 10.294-4.773 17.5-13 17.5-3.7 0-6.702-1.458-8.885-4 0 0 7.885 6.5 14.885.5 6.76-5.793 7-14 7-14z" fill="#77798C"/><path d="M142.441 87.156c0 14.026-6.861 23.844-18.685 23.844-5.633 0-10.14-2.228-13.315-6.078L140.33 75s2.111 7.595 2.111 12.156z" fill="#fff" fill-opacity=".1"/><path d="M20.441 85c0-13.255 9.671-24 21.6-24h1.8c11.93 0 20.7 7.5 21.6 24v4c-1.35 18-8.55 24-21.6 24h-1.8c-13.05 0-21.6-9.5-21.6-24v-4z" fill="#262425"/><path opacity=".1" d="M59.141 87.5c0 10.294-4.296 17.5-11.7 17.5-3.33 0-6.032-1.458-7.997-4 0 0 7.097 6.5 13.397.5 6.084-5.793 6.3-14 6.3-14z" fill="#77798C"/><path d="M148.441 85c0-13.255 9.671-24 21.6-24h1.8c11.93 0 20.7 7.5 21.6 24v4c-1.35 18-8.55 24-21.6 24h-1.8c-13.05 0-21.6-9.5-21.6-24v-4z" fill="#262425"/><path opacity=".1" d="M187.141 87.5c0 10.294-4.296 17.5-11.7 17.5-3.33 0-6.032-1.458-7.997-4 0 0 7.097 6.5 13.397.5 6.084-5.793 6.3-14 6.3-14z" fill="#77798C"/><path d="M223.441 85c0-13.255 10.746-24 24-24h2c13.255 0 23 7.5 24 24v4c-1.5 18-9.5 24-24 24h-2c-14.5 0-24-9.5-24-24v-4z" fill="#262425"/><path d="M273.441 87.5c0 15-7.344 25.5-20 25.5-12.656 0-20-10.5-20-25.5s7.344-25.5 20-25.5c12.656 0 20 10.5 20 25.5z" fill="#fff" fill-opacity=".05"/><path d="M266.441 87.5c0 10.294-4.773 17.5-13 17.5-8.226 0-13-7.206-13-17.5s4.774-17.5 13-17.5c8.227 0 13 7.206 13 17.5z" fill="url(#paint1_radial)"/><path d="M266.441 87.5c0 10.294-4.773 17.5-13 17.5-3.7 0-6.702-1.458-8.885-4 0 0 7.885 6.5 14.885.5 6.76-5.793 7-14 7-14z" fill="#77798C"/><path d="M272.441 87.156c0 14.026-6.861 23.844-18.685 23.844-5.633 0-10.14-2.228-13.315-6.078L270.33 75s2.111 7.595 2.111 12.156z" fill="#fff" fill-opacity=".1"/><path d="M59.442 39c-23.2 2.4-37.167 7.333-44.5 11-7.694 3.423-11.547 8.73-13.5 16.5C-.31 73.472.07 88.5.07 90s1.372 6 5.372 6h93c1 0 3-.6 3-3V82c.167-7.667 7-22.5 22-22.5s21.833 15 22 22.5v11c0 1 0 3 3 3h79c2 0 3-.6 3-3V82c0-7 7.2-22.5 22-22.5 15.5 0 21.5 15 22 22.5l1 11 9-3.5c2.5-1 3.5-4.5 4-7.5 0 0 1.5-9.5 1-11.5-.402-1.607-3-3-3-3l.5-10.5c.167-1.167-.5-5.1-2.5-7.5-.77-.924-2.5-3-7.5-5-4.396-2.771-8-5.5-8-5.5l-27-19.5c-4.167-2.833-15.4-8.5-27-8.5h-97.5c-3 0-8 2.5-8 2.5s-34.5 17.667-50 25.5z" fill="url(#paint2_linear)"/><path d="M1.443 66.501C-.31 73.473.07 88.501.07 90.001s1.373 6 5.373 6H74V86h13c1 0 2.5-1 2.5-3v-5H74V64.969H1.858a42.462 42.462 0 00-.415 1.532z" fill="url(#paint3_linear)"/><path opacity=".3" d="M59.443 39c-23.2 2.4-37.167 7.333-44.5 11-3.053 1.358-5.525 3.036-7.49 5.024 0 0-1.012 2.05 15.49 1.476 17.259-.6 45.81-2.88 75-4l186.5-3c-.771-.924-2.5-3-7.5-5-4.397-2.771-8-5.5-8-5.5l-27-19.5c-4.167-2.833-15.4-8.5-27-8.5h-97.5c-3 0-8 2.5-8 2.5s-34.5 17.667-50 25.5z" fill="#F7F8FA"/><path d="M281.118 49.128l.601-2.128c6.797 4.39 5.093 13 5.093 13h-1.357a.91.91 0 01-.728-.364 18.195 18.195 0 01-3.423-8.128l-.237-1.53a1.998 1.998 0 01.051-.85z" fill="#F44336"/><path opacity=".2" d="M281.859 51.04c.808 3.231 2.961 7.907 3.719 7.968 1.266.101 1.234.992 1.234.992h-1.357a.91.91 0 01-.728-.364 18.189 18.189 0 01-3.379-7.857l-.092-.54c-.076-.443-.217-1.312-.217-1.676.633 0 .633.726.82 1.476z" fill="#262425"/><path opacity=".5" d="M135.942 39H61.5c-31.938 3.875-48.313 11.75-49.688 14.813C10.437 56.875 66 53.03 66 53.03S87.185 51.617 98 51c0 0 9.125-1.25 20-4.5 7.433-2.222 17.942-7.5 17.942-7.5z" fill="#F7F8FA"/><path d="M94.125 39s-35.508 6.016-58.133 15.672C46.282 54.453 98 51 98 51s9.125-1.25 20-4.5c7.434-2.221 17.942-7.5 17.942-7.5H94.125z" fill="url(#paint4_linear)"/><path opacity=".5" d="M153.941 50.5c-.4-4.4-2.333-7.833-3.5-9.5h105l2.988 8.906c-2.82 1.25-8.244 3.956-11.988 5.594-12.407 5.428-20.302 13.375-20.302 26.559v14.004h-72.14c.167-13.167.342-41.163-.058-45.563z" fill="url(#paint5_linear)"/><path fill-rule="evenodd" clip-rule="evenodd" d="M160 65.263A1.25 1.25 0 01161.237 64h6.804a1.25 1.25 0 011.237 1.263 1.25 1.25 0 01-1.237 1.263h-2.165v8.21A1.25 1.25 0 01164.639 76a1.25 1.25 0 01-1.237-1.263v-8.21h-2.165A1.25 1.25 0 01160 65.262z" fill="#C2C2CB"/><path d="M170.515 70c0-3.314 2.631-6 5.877-6 3.245 0 5.876 2.686 5.876 6v3.474h-1.237v1.263h-1.237V70c0-1.918-1.523-3.474-3.402-3.474-1.879 0-3.402 1.556-3.402 3.474 0 1.918 1.523 3.474 3.402 3.474h2.165v1.263h-1.237V76h-.928c-3.246 0-5.877-2.686-5.877-6z" fill="#C2C2CB"/><path d="M178.557 74.737V76h1.237v-1.263h-1.237zm2.474 0h1.237V76h-1.237v-1.263z" fill="#C2C2CB"/><path fill-rule="evenodd" clip-rule="evenodd" d="M184.486 64.37a1.22 1.22 0 011.75 0l4.639 4.737a1.282 1.282 0 010 1.786l-4.639 4.737a1.22 1.22 0 01-1.75 0 1.282 1.282 0 010-1.786L188.25 70l-3.764-3.844a1.282 1.282 0 010-1.786zm11.028 0a1.282 1.282 0 010 1.786l-2.32 2.369a1.219 1.219 0 01-1.749 0 1.282 1.282 0 010-1.787l2.319-2.368a1.22 1.22 0 011.75 0zm-4.069 7.105a1.219 1.219 0 011.749 0l2.32 2.369a1.282 1.282 0 010 1.786 1.22 1.22 0 01-1.75 0l-2.319-2.368a1.282 1.282 0 010-1.787zM197.113 70c0-3.314 2.631-6 5.877-6 3.245 0 5.876 2.686 5.876 6a1.25 1.25 0 01-1.237 1.263h-4.639A1.25 1.25 0 01201.753 70a1.25 1.25 0 011.237-1.263h3.17c-.495-1.294-1.728-2.21-3.17-2.21-1.879 0-3.402 1.555-3.402 3.473s1.523 3.474 3.402 3.474h3.402a1.25 1.25 0 011.237 1.263A1.25 1.25 0 01206.392 76h-3.402c-3.246 0-5.877-2.686-5.877-6zm14.846-6a1.25 1.25 0 011.237 1.263v7.58c0 .348.277.63.618.63h4.949A1.25 1.25 0 01220 74.738 1.25 1.25 0 01218.763 76h-4.949c-1.708 0-3.092-1.414-3.092-3.158v-7.579A1.25 1.25 0 01211.959 64z" fill="#C2C2CB"/><g opacity=".7"><path d="M58.692 82H.063c-.12 1.5-.03 4-.03 4h86.41c2.4 0 3-2 3-3v-5h-27.5l-3.25 4z" fill="url(#paint6_radial)"/><path d="M223.442 90h-67.5l16-5h46l5.5 5z" fill="url(#paint7_radial)"/></g><path opacity=".5" d="M275.03 56l-4.023-6.29L128.441 52l146.589 4z" fill="#D7D7DD"/><path d="M156.422 14h-47.95l-49.03 25h76.073c.272 0 .533-.111.722-.307l21.267-22.154c.915-.954.24-2.539-1.082-2.539zm-6.592 19.504l16.331-17.587A5.986 5.986 0 01170.552 14h41.889c13.6 0 26 6.333 30.5 9.5l20.671 15.728c.759.577.356 1.788-.597 1.796l-109.481.883c-4.384.035-6.688-5.19-3.704-8.403z" fill="#3955FE"/><path d="M156.422 14h-47.95l-49.03 25h76.073c.272 0 .533-.111.722-.307l21.267-22.154c.915-.954.24-2.539-1.082-2.539z" fill="url(#paint8_linear)"/><path d="M156.441 14h-47.977L59.441 39h14.737a.903.903 0 00.47-.116c2.918-1.65 35.971-20.303 39.793-21.384.881-.249.734-.414 4.558-.508h38.078c1.782-1.539.493-2.992-.636-2.992zm14.111 0h41.889c6.142 0 12.04 1.292 17.075 3 6.114 2.075 10.958 4.763 13.425 6.5l11.5 8.75-7 8.914-83.731.745c-4.169.037-6.549-4.744-4.007-8.048l3.738-4.86 10-12h-8.285l1.005-1.084A5.986 5.986 0 01170.552 14z" fill="#3955FE"/><path d="M170.552 14h41.889c6.142 0 12.04 1.292 17.075 3 6.114 2.075 10.958 4.763 13.425 6.5l11.5 8.75 2.566 1.945-1.531 6.891-83.039.914-18.905-.092c-4.384.035-6.687-5.189-3.703-8.402l16.332-17.589A5.986 5.986 0 01170.552 14z" fill="url(#paint9_linear)"/><path d="M158.586 28.713l-4.072 3.393a2 2 0 00-.603 2.21L155.584 39h-6.632l1.47 1.375.663 1.625h21.356l1.609-7.24a2 2 0 00-1.32-2.33l-12.232-4.078a1.999 1.999 0 00-1.912.361z" fill="url(#paint10_linear)"/><path opacity=".2" d="M158.586 28.713l-4.072 3.393a2 2 0 00-.603 2.21L155.584 39h-6.632s.547.89 1.067 1.5c.52.61 1.066 1.5 1.066 1.5h21.356l1.609-7.24a2 2 0 00-1.32-2.33l-12.232-4.078a1.999 1.999 0 00-1.912.361z" fill="#ECECEF"/><path d="M158.586 28.713l-.828.689c-1.378 1.148-.664 3.39 1.124 3.53L172.441 34c.738-.369.662-1.446-.121-1.707l-11.822-3.94a1.999 1.999 0 00-1.912.36z" fill="url(#paint11_linear)"/><path d="M164.941 39l1-2h7.614l-1.114 5h-21.348s-.603-.978-1.179-1.555c-.576-.576-.973-1.445-.973-1.445h16z" fill="url(#paint12_linear)"/><path d="M9.442 56c-1.102 0-1.786-.57-1.993-.98-3.676 3.636-5.21 8.57-5.594 9.98h2.587l1.772 5.316a1 1 0 00.949.684h38.45a2 2 0 001.415-.586L52.442 65h35.765a4 4 0 003.407-1.904l6.317-10.265c.213-.347-.021-.793-.427-.764C90.184 52.592 42.327 56 34.942 56h-25.5z" fill="#ECECEF"/><path d="M9.442 56c-1.102 0-1.786-.57-1.993-.98-3.676 3.636-5.21 8.57-5.594 9.98h2.587l1.772 5.316a1 1 0 00.949.684h38.45a2 2 0 001.415-.586L52.442 65h35.765a4 4 0 003.407-1.904l6.317-10.265c.213-.347-.021-.793-.427-.764C90.184 52.592 42.327 56 34.942 56h-25.5z" fill="url(#paint13_linear)"/><path d="M34.942 56h-25.5s-.919 0-1.544-.484c-1.364 1.41-3.114 5.72-3.456 9.484l1.772 5.316a1 1 0 00.949.684h38.45a2 2 0 001.415-.586L52.442 65s4-4 11-10.584C50.618 55.259 38.384 56 34.942 56z" fill="#262425"/><path opacity=".4" d="M4.442 65l1.772 5.316a1 1 0 00.949.684h14.774c0-7.125 2.125-15 2.125-15H9.443s-.919 0-1.544-.484c-1.364 1.41-3.114 5.72-3.456 9.484z" fill="#000"/><path opacity=".7" d="M9.442 56c-1.262-.047-1.868-.695-1.985-.98 0 0-4.515 3.48 19.485 3.48s70.62-6.438 70.62-6.438S42.943 56 34.943 56c-3.418 0-8.194-.006-12.817 0-6.198.008-11.996.025-12.683 0z" fill="#000"/><path d="M7.107 76.125a2 2 0 012-2h30a2 2 0 012 2v7a2 2 0 01-2 2h-30a2 2 0 01-2-2v-7z" fill="#fff"/><path d="M7.107 76.125a2 2 0 012-2H22s-.281 4.625.5 11H9.107a2 2 0 01-2-2v-7z" fill="#F7F8FA"/><path fill-rule="evenodd" clip-rule="evenodd" d="M10 77.526c0-.29.24-.526.536-.526h2.949c.296 0 .536.236.536.526 0 .291-.24.527-.537.527h-.938v3.42c0 .291-.24.527-.536.527a.531.531 0 01-.536-.526v-3.421h-.938a.531.531 0 01-.536-.527z" fill="#D7D7DD"/><path d="M14.557 79.5c0-1.38 1.14-2.5 2.546-2.5s2.546 1.12 2.546 2.5v1.447h-.536v.527h-.536V79.5c0-.8-.66-1.447-1.474-1.447S15.63 78.7 15.63 79.5s.66 1.447 1.474 1.447h.938v.527h-.536V82h-.402c-1.406 0-2.546-1.12-2.546-2.5z" fill="#D7D7DD"/><path d="M18.041 81.474V82h.536v-.526h-.536zm1.072 0h.537V82h-.537v-.526z" fill="#D7D7DD"/><path fill-rule="evenodd" clip-rule="evenodd" d="M20.61 77.154a.543.543 0 01.759 0l2.01 1.974a.52.52 0 010 .744l-2.01 1.974a.543.543 0 01-.758 0 .52.52 0 010-.745l1.63-1.601-1.63-1.602a.52.52 0 010-.744zm4.78 0a.52.52 0 010 .745l-1.006.986a.543.543 0 01-.758 0 .52.52 0 010-.744l1.005-.987a.543.543 0 01.758 0zm-1.764 2.96a.543.543 0 01.758 0l1.005.987a.52.52 0 010 .745.543.543 0 01-.758 0l-1.005-.987a.52.52 0 010-.744zm2.456-.614c0-1.38 1.14-2.5 2.547-2.5 1.406 0 2.546 1.12 2.546 2.5 0 .29-.24.526-.536.526h-2.01a.531.531 0 01-.536-.526c0-.29.24-.526.536-.526h1.374a1.474 1.474 0 00-1.374-.921c-.814 0-1.474.648-1.474 1.447 0 .8.66 1.447 1.474 1.447h1.474c.296 0 .536.236.536.527 0 .29-.24.526-.536.526H28.63c-1.407 0-2.547-1.12-2.547-2.5zm6.434-2.5a.53.53 0 01.535.526v3.158c0 .145.12.263.269.263h2.144c.296 0 .536.236.536.527 0 .29-.24.526-.536.526H33.32c-.74 0-1.34-.59-1.34-1.316v-3.158c0-.29.24-.526.536-.526z" fill="#D7D7DD"/><path d="M37.969 84.014c1.531 0 2.047-.483 2.047-1.983v-7.688a2 2 0 011.091 1.782v7a2 2 0 01-2 2h-30a2 2 0 01-1.792-1.11H37.97z" fill="#77798C"/><path d="M263.941 45.5h2.5v1.25a1.25 1.25 0 11-2.5 0V45.5zm-2.5-1.25a1.25 1.25 0 012.5 0v1.25h-1.25c-.69 0-1.25-.56-1.25-1.25zm7.5 1.25h1.25a1.25 1.25 0 11-1.25 1.25V45.5zm-2.5-1.25a1.25 1.25 0 012.5 0v1.25h-2.5v-1.25zM143.429 46h-3v1.5a1.5 1.5 0 003 0V46zm3-1.5a1.5 1.5 0 10-3 0V46h1.5a1.5 1.5 0 001.5-1.5zm-9 1.5h-1.5a1.5 1.5 0 101.5 1.5V46zm3-1.5a1.5 1.5 0 10-3 0V46h3v-1.5z" fill="#C2C2CB"/><defs><linearGradient id="paint2_linear" x1="144.79" y1="11" x2="144.79" y2="96" gradientUnits="userSpaceOnUse"><stop stop-color="#ECECEF"/><stop offset="1" stop-color="#D7D7DD"/></linearGradient><linearGradient id="paint10_linear" x1="161.697" y1="28" x2="161.697" y2="42" gradientUnits="userSpaceOnUse"><stop stop-color="#ECECEF"/><stop offset="1" stop-color="#C2C2CB"/></linearGradient><linearGradient id="paint3_linear" x1="98.5" y1="96.001" x2=".035" y2="96.001" gradientUnits="userSpaceOnUse"><stop stop-color="#ECECEF"/><stop offset="1" stop-color="#C2C2CB"/></linearGradient><linearGradient id="paint4_linear" x1="70.25" y1="70.5" x2="148.375" y2="-.625" gradientUnits="userSpaceOnUse"><stop stop-color="#fff"/><stop offset="1" stop-color="#fff" stop-opacity="0"/></linearGradient><linearGradient id="paint5_linear" x1="204.435" y1="41" x2="204.435" y2="96.063" gradientUnits="userSpaceOnUse"><stop stop-color="#F7F8FA"/><stop offset="1" stop-color="#ECECEF"/></linearGradient><linearGradient id="paint8_linear" x1="93.25" y1="14" x2="123.75" y2="44.75" gradientUnits="userSpaceOnUse"><stop stop-color="#3955FE"/><stop offset="1" stop-color="#262425"/></linearGradient><linearGradient id="paint9_linear" x1="265.941" y1="28" x2="154.941" y2="28" gradientUnits="userSpaceOnUse"><stop stop-color="#3955FE"/><stop offset="1" stop-color="#262425"/></linearGradient><linearGradient id="paint13_linear" x1="49.934" y1="52.066" x2="49.934" y2="64.875" gradientUnits="userSpaceOnUse"><stop stop-color="#fff"/><stop offset="1" stop-color="#fff" stop-opacity="0"/></linearGradient><linearGradient id="paint11_linear" x1="155.456" y1="47.946" x2="180.54" y2="30.268" gradientUnits="userSpaceOnUse"><stop stop-color="#fff"/><stop offset="1" stop-color="#fff" stop-opacity="0"/></linearGradient><linearGradient id="paint12_linear" x1="161.248" y1="31.5" x2="161.248" y2="47.25" gradientUnits="userSpaceOnUse"><stop stop-color="#ECECEF"/><stop offset="1" stop-color="#C2C2CB"/></linearGradient><radialGradient id="paint1_radial" cx="0" cy="0" r="1" gradientUnits="userSpaceOnUse" gradientTransform="matrix(22.99997 3 -4.03846 30.96153 250.441 84.5)"><stop stop-color="#C2C2CB"/><stop offset="1" stop-color="#77798C"/></radialGradient><radialGradient id="paint0_radial" cx="0" cy="0" r="1" gradientUnits="userSpaceOnUse" gradientTransform="matrix(22.99997 3 -4.03846 30.96153 120.441 84.5)"><stop stop-color="#C2C2CB"/><stop offset="1" stop-color="#77798C"/></radialGradient><radialGradient id="paint6_radial" cx="0" cy="0" r="1" gradientUnits="userSpaceOnUse" gradientTransform="matrix(0 139 -139 0 111.721 29)"><stop stop-color="#fff"/><stop offset="1" stop-color="#fff" stop-opacity=".3"/></radialGradient><radialGradient id="paint7_radial" cx="0" cy="0" r="1" gradientUnits="userSpaceOnUse" gradientTransform="matrix(0 139 -139 0 111.721 29)"><stop stop-color="#fff"/><stop offset="1" stop-color="#fff" stop-opacity=".3"/></radialGradient></defs></svg>