<svg viewBox="0 0 36 36" fill="none" xmlns="http://www.w3.org/2000/svg"><path fill-rule="evenodd" clip-rule="evenodd" d="M18 .5a1 1 0 00-1 1v.53C8.96 2.528 2.527 8.96 2.03 17H1.5a1 1 0 100 2h.53C2.528 27.04 8.96 33.474 17 33.97v.53a1 1 0 102 0v-.53c8.04-.496 14.474-6.93 14.97-14.97h.53a1 1 0 100-2h-.53C33.473 8.96 27.04 2.527 19 2.03V1.5a1 1 0 00-1-1zm1 31.465c6.935-.49 12.475-6.03 12.965-12.965H27a1 1 0 110-2h4.965C31.475 10.065 25.935 4.525 19 4.035V9a1 1 0 11-2 0V4.035C10.065 4.525 4.525 10.065 4.035 17H9a1 1 0 110 2H4.035c.49 6.935 6.03 12.475 12.965 12.965V27a1 1 0 112 0v4.965z" fill="url(#paint0_linear)"/><defs><linearGradient id="paint0_linear" x1="18" y1=".5" x2="18" y2="35.5" gradientUnits="userSpaceOnUse"><stop stop-color="#18CED6"/><stop offset="1" stop-color="#18AED6"/></linearGradient></defs></svg>