<svg fill="none" xmlns="http://www.w3.org/2000/svg" viewBox="0 0 24 24"><path fill-rule="evenodd" clip-rule="evenodd" d="M12.497 4C8.451 3.99 4.902 7.45 4.9 11.5v.003a7.38 7.38 0 00.793 3.346 1 1 0 01.06.752l-1.197 3.791 3.512-1.235a1 1 0 01.783.05c1.01.51 2.45.796 3.646.793h.003c4.053-.002 7.491-3.42 7.5-7.502C20.009 7.38 16.638 4 12.5 4h-.003zm.004-2C7.376 1.987 2.903 6.315 2.9 11.498a9.38 9.38 0 00.828 3.877l-1.682 5.324a1 1 0 001.286 1.244l5.015-1.764c1.283.554 2.85.824 4.154.821l-.001-1 .003 1H12.5c5.156-.003 9.488-4.313 9.499-9.498.01-5.226-4.258-9.501-9.499-9.502z" fill="#3955FE"/></svg>