<svg xmlns="http://www.w3.org/2000/svg" fill="none" viewBox="0 0 100 40"><mask id="a" fill="#fff"><path d="M99.69 27.727a9.399 9.399 0 00-.04-.837.899.899 0 00-.082-.326c-.08-.144-.232-.245-.385-.332a6.546 6.546 0 00-1.094-.48c-.787-.28-1.608-.525-2.442-.672a21.091 21.091 0 00-1.134-.158 5.589 5.589 0 00-.324-.548 5.76 5.76 0 00-.465-.565c-.027-.562-.058-1.124-.24-1.647a3.26 3.26 0 00-.417-.793 7.187 7.187 0 00-.31-.388c-.07-.227-.139-.452-.222-.674a6.178 6.178 0 00-.493-1c-.104-.175-.218-.342-.329-.51l.07-.117c.25-.025.497-.048.74-.08.218-.03.428-.064.641-.165.051-.025.105-.053.125-.101a.164.164 0 00.014-.076.47.47 0 00-.055-.197c-.065-.15-.135-.305-.255-.406a.955.955 0 00-.324-.163c-.248-.08-.495-.121-.747-.165a5.855 5.855 0 00-.722-.099 5.83 5.83 0 00-.665.016c-.178-.172-.356-.341-.53-.516-1.018-1.016-1.909-2.149-2.885-3.202-.815-.878-1.69-1.7-2.585-2.5-2.562-2.285-5.311-4.388-8.322-6.03a33.596 33.596 0 00-2.096-1.049 31.346 31.346 0 00-3.668-1.431c-2.224-.704-4.531-1.136-6.855-1.432-4.355-.552-8.77-.633-13.126-.312a87.695 87.695 0 00-6.452.741c-1.259.188-2.522.402-3.68.893-.337.144-.666.314-.994.481a30.14 30.14 0 00-5.175 8.221 73.268 73.268 0 00-3.476-.032c-1.814.042-3.626.218-5.433.427-1.315.15-2.627.316-3.925.56a34.388 34.388 0 00-5.69 1.587c-1.438.54-2.84 1.175-4.143 1.982a14.371 14.371 0 00-2.335 1.79c-.35.336-.678.692-1.007 1.047-.395.133-.793.264-1.087.532-.072.065-.134.136-.2.207-.247.064-.495.126-.747.193-.13.034-.264.069-.375.14a.828.828 0 00-.185.174c-.236.291-.303.679-.36 1.057a57.512 57.512 0 00-.204 1.5c-.105.202-.209.402-.276.618a2.049 2.049 0 00-.092.552c-.005.189.016.374.039.56a5.834 5.834 0 00-.773-.037c-.657.012-1.312.113-1.937.395-.53.24-1.037.612-1.233 1.13-.118.317-.12.689-.107 1.024.007.19.019.37.046.56.03.2.08.415.188.577.092.136.224.237.366.329.273.174.585.31.907.403.474.136.967.181 1.462.225a4.06 4.06 0 00-.16.436c-.053.183-.087.39-.009.546.063.126.2.22.334.291.097.048.196.087.293.124.422.133.859.372 1.208.486 1.139.37 1.343-.591 1.516-1.31.257-1.062.451-1.6.715-2.165.364-.777.859-1.603 1.53-2.374a9.81 9.81 0 013.342-2.48c1.099-.488 2.286-.736 3.406-.802a9.045 9.045 0 013.626.488 10.376 10.376 0 013.354 1.96 9.102 9.102 0 012.04 2.607c.542 1.032.92 2.189 1.192 3.67.123.668.227 1.404.567 1.909.206.303.498.523.824.638.266.093.558.114.845.123.602.016 1.192-.032 1.784-.064 2.032-.117 4.085-.066 6.098-.037 4.066.06 7.968.037 12.057.08 6.375.07 13.211.294 19.318.23.148 0 .296-.002.456-.005.389-.006.836-.013 1.12-.107a.93.93 0 00.421-.294c.09-.103.179-.227.257-.397.209-.456.343-1.25.484-1.961.227-1.126.47-2.046.821-2.89a9.382 9.382 0 012.78-3.753 8.739 8.739 0 013.395-1.672 10.615 10.615 0 013.462-.278c1.37.124 2.63.555 3.8 1.223a10.635 10.635 0 012.802 2.308c.766.903 1.321 1.917 1.858 3.215.384.93.76 2.008 1.4 2.64.671.664 1.632.84 2.555.904.666.046 1.312.035 1.976.019l1.458-.04c.081-.002.135-.004.19-.008.641-.05 1.03-.57.266-1.448a4.5 4.5 0 01-.166-.202c-.132-.179-.234-.378-.336-.575l1.289-.232c.548-.101 1.106-.207 1.507-.4a.735.735 0 00.266-.192c.164-.21.166-.599.16-1.092zM56.446 11.04a19.803 19.803 0 01-.051 1.612 1.393 1.393 0 01-.079.415.966.966 0 01-.403.461 1.479 1.479 0 01-.548.168c-.227.027-.451.023-.678.02l-1.65-.018-2.367-.027c-1.47-.016-2.937-.037-4.407-.055a1108.4 1108.4 0 00-3.114-.037 13.683 13.683 0 00-.702 0c-.05.002-.1.002-.92-.019-.54-.013-1.08-.004-1.602-.004a46.72 46.72 0 01-2.266-.048c-.31-.014-.622-.03-.914-.133a1.346 1.346 0 01-.504-.308 1.124 1.124 0 01-.297-.493c-.122-.468.15-.966.426-1.42.452-.75.907-1.376 1.333-2.06.336-.539.65-1.114 1.062-1.617.273-.335.59-.637.954-.867a5.005 5.005 0 011.053-.475 15.342 15.342 0 011.594-.445c.209-.048.417-.091 1.298-.215.72-.067 1.081-.12 1.451-.165 2.578-.324 5.464-.342 8.278-.39l1.474-.03c.264-.005.537-.012.769.087.208.085.386.255.509.45.083.13.14.275.183.424.101.367.101.757.106 1.142.005.443.016.879.02 1.317.012.906-.001 1.821-.008 2.73zm19.244 2.154a2.09 2.09 0 01-.935.731c-.402.16-.84.2-1.277.218-1.264.057-2.509-.037-3.758-.092-1.618-.068-3.247-.07-4.87-.096-1.244-.018-2.487-.05-3.732-.092-.32-.011-.637-.02-.954-.034-.145-.007-.293-.011-.442-.025a1.649 1.649 0 01-.423-.083 1.125 1.125 0 01-.248-.135 1.208 1.208 0 01-.495-.732 3.08 3.08 0 01-.067-.651c-.014-.535-.016-1.074-.018-1.606-.003-.966.004-1.913.006-2.888.003-.344.003-.69 0-1.037-.004-.273-.009-.543.047-.807.053-.241.155-.475.312-.668a1.07 1.07 0 01.329-.275c.127-.062.27-.087.412-.096.083-.007.169-.01.252-.01.932.037 1.865.074 2.795.156 1.579.138 3.15.409 4.689.796a27.01 27.01 0 012.964.92c.727.275 1.44.587 2.134.94.57.292 1.125.613 1.632.996.266.202.518.42.756.656.315.308.609.645.805 1.03.132.257.22.535.294.817.088.34.15.686.132 1.034-.02.363-.132.73-.34 1.033zm4.23 9.08c-4.804 0-8.7 3.861-8.7 8.626 0 4.762 3.896 8.622 8.7 8.622 4.805 0 8.702-3.86 8.702-8.622 0-4.765-3.897-8.625-8.702-8.625zm0 14.787c-3.431 0-6.215-2.76-6.215-6.161 0-3.404 2.784-6.164 6.215-6.164 3.435 0 6.216 2.76 6.216 6.164 0 3.401-2.781 6.16-6.216 6.16zm0-11.88c-3.186 0-5.769 2.56-5.769 5.719 0 3.156 2.583 5.718 5.77 5.718 3.186 0 5.769-2.562 5.769-5.718 0-3.159-2.583-5.719-5.77-5.719zm0 11.22c-3.064 0-5.549-2.464-5.549-5.501 0-3.04 2.486-5.503 5.55-5.503 3.066 0 5.549 2.463 5.549 5.503 0 3.037-2.483 5.5-5.55 5.5zm0-10.043a4.62 4.62 0 00-1.74.34 4.543 4.543 0 00-2.842 4.202c0 .61.123 1.192.343 1.722a4.582 4.582 0 004.24 2.817c.615 0 1.2-.12 1.737-.337 1.669-.68 2.844-2.305 2.844-4.202 0-2.51-2.052-4.542-4.582-4.542zm1.294.743a.313.313 0 01.391-.202l.699.38a.31.31 0 01.097.334.313.313 0 01-.393.2l-.697-.38c-.097-.08-.136-.213-.097-.332zm-2.955-.211l.766-.22a.309.309 0 01.171.583l-.38.11-.384.112a.31.31 0 01-.174-.585zm-2.372 2.337l.382-.69a.314.314 0 01.335-.096c.165.05.257.224.204.387l-.384.693a.31.31 0 01-.334.096.309.309 0 01-.203-.39zm.41 3.45a.312.312 0 01-.422-.133l-.222-.757a.313.313 0 01.59-.17l.065.218.157.54a.308.308 0 01-.169.302zm2.33 2.019a.31.31 0 01-.391.202l-.7-.381a.307.307 0 01-.096-.333.313.313 0 01.393-.2l.697.38c.1.08.136.213.097.332zm2.955.21l-.766.221a.309.309 0 01-.171-.583l.38-.11.383-.11a.315.315 0 01.308.166.31.31 0 01-.134.417zm2.372-2.337l-.382.691a.312.312 0 01-.54-.291l.385-.693a.314.314 0 01.336-.096.309.309 0 01.201.39zm-.41-3.45a.315.315 0 01.422.134l.222.757a.308.308 0 01-.17.302.311.311 0 01-.42-.133l-.222-.757a.308.308 0 01.168-.302zm-2.612 5.001a3.42 3.42 0 01-1.012.152 3.397 3.397 0 01-3.295-2.528 3.38 3.38 0 012.284-4.067c.32-.099.66-.152 1.011-.152 1.88 0 3.402 1.512 3.402 3.375a3.375 3.375 0 01-2.39 3.22zM16.279 22.234c-4.804 0-8.701 3.86-8.701 8.624 0 4.762 3.897 8.623 8.7 8.623 4.805 0 8.702-3.86 8.702-8.623 0-4.764-3.897-8.625-8.701-8.625zm0 14.786c-3.432 0-6.216-2.76-6.216-6.162 0-3.404 2.784-6.16 6.216-6.16 3.434 0 6.216 2.756 6.216 6.16 0 3.402-2.782 6.162-6.216 6.162zm0-11.88c-3.187 0-5.77 2.56-5.77 5.718 0 3.159 2.583 5.719 5.77 5.719 3.186 0 5.769-2.56 5.769-5.719 0-3.158-2.583-5.718-5.77-5.718zm0 11.029c-2.96 0-5.357-2.38-5.357-5.31 0-2.935 2.397-5.31 5.357-5.31 2.96 0 5.357 2.375 5.357 5.31 0 2.93-2.397 5.31-5.357 5.31zm0-9.852c-.616 0-1.204.121-1.74.341a4.536 4.536 0 00-2.842 4.2 4.54 4.54 0 002.818 4.191 4.566 4.566 0 001.764.351c2.532 0 4.582-2.035 4.582-4.542 0-2.51-2.05-4.541-4.582-4.541zm1.293.743a.313.313 0 01.392-.202l.698.38c.098.08.137.212.098.333a.316.316 0 01-.394.202l-.696-.38c-.098-.08-.137-.212-.098-.333zm-2.955-.211l.766-.22a.316.316 0 01.306.165.312.312 0 01-.135.42l-.38.11-.383.11a.31.31 0 01-.174-.585zm-2.372 2.337l.382-.69c.081-.097.215-.136.336-.097.164.05.257.225.203.39l-.384.69c-.08.097-.213.136-.333.097a.308.308 0 01-.204-.39zm.41 3.45a.312.312 0 01-.421-.133l-.223-.757a.307.307 0 01.17-.303.315.315 0 01.42.133l.223.757a.308.308 0 01-.17.303zm2.333 2.019a.314.314 0 01-.394.201l-.699-.378a.31.31 0 01-.097-.333.314.314 0 01.393-.202l.308.168.389.211a.31.31 0 01.1.333zm2.952.21l-.763.223a.31.31 0 01-.174-.585l.764-.22a.309.309 0 01.174.583zm2.372-2.337l-.382.693a.318.318 0 01-.335.096.312.312 0 01-.204-.39l.385-.692a.318.318 0 01.335-.097.309.309 0 01.201.39zm-.41-3.45a.315.315 0 01.422.133l.222.757a.313.313 0 01-.59.17l-.222-.757a.31.31 0 01.169-.303zM16.28 34.23a3.4 3.4 0 01-1.622-.406 3.37 3.37 0 01-1.78-2.966 3.38 3.38 0 012.39-3.223c.32-.098.66-.15 1.012-.15 1.879 0 3.402 1.51 3.402 3.373 0 1.863-1.523 3.372-3.402 3.372z"/></mask><path d="M99.69 27.727a9.399 9.399 0 00-.04-.837.899.899 0 00-.082-.326c-.08-.144-.232-.245-.385-.332a6.546 6.546 0 00-1.094-.48c-.787-.28-1.608-.525-2.442-.672a21.091 21.091 0 00-1.134-.158 5.589 5.589 0 00-.324-.548 5.76 5.76 0 00-.465-.565c-.027-.562-.058-1.124-.24-1.647a3.26 3.26 0 00-.417-.793 7.187 7.187 0 00-.31-.388c-.07-.227-.139-.452-.222-.674a6.178 6.178 0 00-.493-1c-.104-.175-.218-.342-.329-.51l.07-.117c.25-.025.497-.048.74-.08.218-.03.428-.064.641-.165.051-.025.105-.053.125-.101a.164.164 0 00.014-.076.47.47 0 00-.055-.197c-.065-.15-.135-.305-.255-.406a.955.955 0 00-.324-.163c-.248-.08-.495-.121-.747-.165a5.855 5.855 0 00-.722-.099 5.83 5.83 0 00-.665.016c-.178-.172-.356-.341-.53-.516-1.018-1.016-1.909-2.149-2.885-3.202-.815-.878-1.69-1.7-2.585-2.5-2.562-2.285-5.311-4.388-8.322-6.03a33.596 33.596 0 00-2.096-1.049 31.346 31.346 0 00-3.668-1.431c-2.224-.704-4.531-1.136-6.855-1.432-4.355-.552-8.77-.633-13.126-.312a87.695 87.695 0 00-6.452.741c-1.259.188-2.522.402-3.68.893-.337.144-.666.314-.994.481a30.14 30.14 0 00-5.175 8.221 73.268 73.268 0 00-3.476-.032c-1.814.042-3.626.218-5.433.427-1.315.15-2.627.316-3.925.56a34.388 34.388 0 00-5.69 1.587c-1.438.54-2.84 1.175-4.143 1.982a14.371 14.371 0 00-2.335 1.79c-.35.336-.678.692-1.007 1.047-.395.133-.793.264-1.087.532-.072.065-.134.136-.2.207-.247.064-.495.126-.747.193-.13.034-.264.069-.375.14a.828.828 0 00-.185.174c-.236.291-.303.679-.36 1.057a57.512 57.512 0 00-.204 1.5c-.105.202-.209.402-.276.618a2.049 2.049 0 00-.092.552c-.005.189.016.374.039.56a5.834 5.834 0 00-.773-.037c-.657.012-1.312.113-1.937.395-.53.24-1.037.612-1.233 1.13-.118.317-.12.689-.107 1.024.007.19.019.37.046.56.03.2.08.415.188.577.092.136.224.237.366.329.273.174.585.31.907.403.474.136.967.181 1.462.225a4.06 4.06 0 00-.16.436c-.053.183-.087.39-.009.546.063.126.2.22.334.291.097.048.196.087.293.124.422.133.859.372 1.208.486 1.139.37 1.343-.591 1.516-1.31.257-1.062.451-1.6.715-2.165.364-.777.859-1.603 1.53-2.374a9.81 9.81 0 013.342-2.48c1.099-.488 2.286-.736 3.406-.802a9.045 9.045 0 013.626.488 10.376 10.376 0 013.354 1.96 9.102 9.102 0 012.04 2.607c.542 1.032.92 2.189 1.192 3.67.123.668.227 1.404.567 1.909.206.303.498.523.824.638.266.093.558.114.845.123.602.016 1.192-.032 1.784-.064 2.032-.117 4.085-.066 6.098-.037 4.066.06 7.968.037 12.057.08 6.375.07 13.211.294 19.318.23.148 0 .296-.002.456-.005.389-.006.836-.013 1.12-.107a.93.93 0 00.421-.294c.09-.103.179-.227.257-.397.209-.456.343-1.25.484-1.961.227-1.126.47-2.046.821-2.89a9.382 9.382 0 012.78-3.753 8.739 8.739 0 013.395-1.672 10.615 10.615 0 013.462-.278c1.37.124 2.63.555 3.8 1.223a10.635 10.635 0 012.802 2.308c.766.903 1.321 1.917 1.858 3.215.384.93.76 2.008 1.4 2.64.671.664 1.632.84 2.555.904.666.046 1.312.035 1.976.019l1.458-.04c.081-.002.135-.004.19-.008.641-.05 1.03-.57.266-1.448a4.5 4.5 0 01-.166-.202c-.132-.179-.234-.378-.336-.575l1.289-.232c.548-.101 1.106-.207 1.507-.4a.735.735 0 00.266-.192c.164-.21.166-.599.16-1.092zM56.446 11.04a19.803 19.803 0 01-.051 1.612 1.393 1.393 0 01-.079.415.966.966 0 01-.403.461 1.479 1.479 0 01-.548.168c-.227.027-.451.023-.678.02l-1.65-.018-2.367-.027c-1.47-.016-2.937-.037-4.407-.055a1108.4 1108.4 0 00-3.114-.037 13.683 13.683 0 00-.702 0c-.05.002-.1.002-.92-.019-.54-.013-1.08-.004-1.602-.004a46.72 46.72 0 01-2.266-.048c-.31-.014-.622-.03-.914-.133a1.346 1.346 0 01-.504-.308 1.124 1.124 0 01-.297-.493c-.122-.468.15-.966.426-1.42.452-.75.907-1.376 1.333-2.06.336-.539.65-1.114 1.062-1.617.273-.335.59-.637.954-.867a5.005 5.005 0 011.053-.475 15.342 15.342 0 011.594-.445c.209-.048.417-.091 1.298-.215.72-.067 1.081-.12 1.451-.165 2.578-.324 5.464-.342 8.278-.39l1.474-.03c.264-.005.537-.012.769.087.208.085.386.255.509.45.083.13.14.275.183.424.101.367.101.757.106 1.142.005.443.016.879.02 1.317.012.906-.001 1.821-.008 2.73zm19.244 2.154a2.09 2.09 0 01-.935.731c-.402.16-.84.2-1.277.218-1.264.057-2.509-.037-3.758-.092-1.618-.068-3.247-.07-4.87-.096-1.244-.018-2.487-.05-3.732-.092-.32-.011-.637-.02-.954-.034-.145-.007-.293-.011-.442-.025a1.649 1.649 0 01-.423-.083 1.125 1.125 0 01-.248-.135 1.208 1.208 0 01-.495-.732 3.08 3.08 0 01-.067-.651c-.014-.535-.016-1.074-.018-1.606-.003-.966.004-1.913.006-2.888.003-.344.003-.69 0-1.037-.004-.273-.009-.543.047-.807.053-.241.155-.475.312-.668a1.07 1.07 0 01.329-.275c.127-.062.27-.087.412-.096.083-.007.169-.01.252-.01.932.037 1.865.074 2.795.156 1.579.138 3.15.409 4.689.796a27.01 27.01 0 012.964.92c.727.275 1.44.587 2.134.94.57.292 1.125.613 1.632.996.266.202.518.42.756.656.315.308.609.645.805 1.03.132.257.22.535.294.817.088.34.15.686.132 1.034-.02.363-.132.73-.34 1.033zm4.23 9.08c-4.804 0-8.7 3.861-8.7 8.626 0 4.762 3.896 8.622 8.7 8.622 4.805 0 8.702-3.86 8.702-8.622 0-4.765-3.897-8.625-8.702-8.625zm0 14.787c-3.431 0-6.215-2.76-6.215-6.161 0-3.404 2.784-6.164 6.215-6.164 3.435 0 6.216 2.76 6.216 6.164 0 3.401-2.781 6.16-6.216 6.16zm0-11.88c-3.186 0-5.769 2.56-5.769 5.719 0 3.156 2.583 5.718 5.77 5.718 3.186 0 5.769-2.562 5.769-5.718 0-3.159-2.583-5.719-5.77-5.719zm0 11.22c-3.064 0-5.549-2.464-5.549-5.501 0-3.04 2.486-5.503 5.55-5.503 3.066 0 5.549 2.463 5.549 5.503 0 3.037-2.483 5.5-5.55 5.5zm0-10.043a4.62 4.62 0 00-1.74.34 4.543 4.543 0 00-2.842 4.202c0 .61.123 1.192.343 1.722a4.582 4.582 0 004.24 2.817c.615 0 1.2-.12 1.737-.337 1.669-.68 2.844-2.305 2.844-4.202 0-2.51-2.052-4.542-4.582-4.542zm1.294.743a.313.313 0 01.391-.202l.699.38a.31.31 0 01.097.334.313.313 0 01-.393.2l-.697-.38c-.097-.08-.136-.213-.097-.332zm-2.955-.211l.766-.22a.309.309 0 01.171.583l-.38.11-.384.112a.31.31 0 01-.174-.585zm-2.372 2.337l.382-.69a.314.314 0 01.335-.096c.165.05.257.224.204.387l-.384.693a.31.31 0 01-.334.096.309.309 0 01-.203-.39zm.41 3.45a.312.312 0 01-.422-.133l-.222-.757a.313.313 0 01.59-.17l.065.218.157.54a.308.308 0 01-.169.302zm2.33 2.019a.31.31 0 01-.391.202l-.7-.381a.307.307 0 01-.096-.333.313.313 0 01.393-.2l.697.38c.1.08.136.213.097.332zm2.955.21l-.766.221a.309.309 0 01-.171-.583l.38-.11.383-.11a.315.315 0 01.308.166.31.31 0 01-.134.417zm2.372-2.337l-.382.691a.312.312 0 01-.54-.291l.385-.693a.314.314 0 01.336-.096.309.309 0 01.201.39zm-.41-3.45a.315.315 0 01.422.134l.222.757a.308.308 0 01-.17.302.311.311 0 01-.42-.133l-.222-.757a.308.308 0 01.168-.302zm-2.612 5.001a3.42 3.42 0 01-1.012.152 3.397 3.397 0 01-3.295-2.528 3.38 3.38 0 012.284-4.067c.32-.099.66-.152 1.011-.152 1.88 0 3.402 1.512 3.402 3.375a3.375 3.375 0 01-2.39 3.22zM16.279 22.234c-4.804 0-8.701 3.86-8.701 8.624 0 4.762 3.897 8.623 8.7 8.623 4.805 0 8.702-3.86 8.702-8.623 0-4.764-3.897-8.625-8.701-8.625zm0 14.786c-3.432 0-6.216-2.76-6.216-6.162 0-3.404 2.784-6.16 6.216-6.16 3.434 0 6.216 2.756 6.216 6.16 0 3.402-2.782 6.162-6.216 6.162zm0-11.88c-3.187 0-5.77 2.56-5.77 5.718 0 3.159 2.583 5.719 5.77 5.719 3.186 0 5.769-2.56 5.769-5.719 0-3.158-2.583-5.718-5.77-5.718zm0 11.029c-2.96 0-5.357-2.38-5.357-5.31 0-2.935 2.397-5.31 5.357-5.31 2.96 0 5.357 2.375 5.357 5.31 0 2.93-2.397 5.31-5.357 5.31zm0-9.852c-.616 0-1.204.121-1.74.341a4.536 4.536 0 00-2.842 4.2 4.54 4.54 0 002.818 4.191 4.566 4.566 0 001.764.351c2.532 0 4.582-2.035 4.582-4.542 0-2.51-2.05-4.541-4.582-4.541zm1.293.743a.313.313 0 01.392-.202l.698.38c.098.08.137.212.098.333a.316.316 0 01-.394.202l-.696-.38c-.098-.08-.137-.212-.098-.333zm-2.955-.211l.766-.22a.316.316 0 01.306.165.312.312 0 01-.135.42l-.38.11-.383.11a.31.31 0 01-.174-.585zm-2.372 2.337l.382-.69c.081-.097.215-.136.336-.097.164.05.257.225.203.39l-.384.69c-.08.097-.213.136-.333.097a.308.308 0 01-.204-.39zm.41 3.45a.312.312 0 01-.421-.133l-.223-.757a.307.307 0 01.17-.303.315.315 0 01.42.133l.223.757a.308.308 0 01-.17.303zm2.333 2.019a.314.314 0 01-.394.201l-.699-.378a.31.31 0 01-.097-.333.314.314 0 01.393-.202l.308.168.389.211a.31.31 0 01.1.333zm2.952.21l-.763.223a.31.31 0 01-.174-.585l.764-.22a.309.309 0 01.174.583zm2.372-2.337l-.382.693a.318.318 0 01-.335.096.312.312 0 01-.204-.39l.385-.692a.318.318 0 01.335-.097.309.309 0 01.201.39zm-.41-3.45a.315.315 0 01.422.133l.222.757a.313.313 0 01-.59.17l-.222-.757a.31.31 0 01.169-.303zM16.28 34.23a3.4 3.4 0 01-1.622-.406 3.37 3.37 0 01-1.78-2.966 3.38 3.38 0 012.39-3.223c.32-.098.66-.15 1.012-.15 1.879 0 3.402 1.51 3.402 3.373 0 1.863-1.523 3.372-3.402 3.372z" stroke="url(#paint0_linear)" stroke-width="2" mask="url(#a)"/><defs><linearGradient id="paint0_linear" x1="66.5" y1="2.5" x2="15.5" y2="36" gradientUnits="userSpaceOnUse"><stop stop-color="#0ACFCF"/><stop offset="1" stop-color="#743498" stop-opacity=".6"/></linearGradient></defs></svg>