<svg viewBox="0 0 24 24" fill="none" xmlns="http://www.w3.org/2000/svg"><path fill-rule="evenodd" clip-rule="evenodd" d="M1.707.293A1 1 0 00.293 1.707l4.275 4.276a19.45 19.45 0 00-4.45 5.544 1 1 0 00-.012.92L1 12l-.894.448.002.003.003.007.011.022a8.267 8.267 0 00.192.354 20.67 20.67 0 002.831 3.85C5.105 18.774 8.1 21 12 21h.016a11.07 11.07 0 005.81-1.76l4.467 4.467a1 1 0 001.414-1.414l-5.06-5.06-3.816-3.816-.007-.007-4.234-4.234-.007-.007-3.816-3.816-5.06-5.06zm14.664 17.493l-2.321-2.322a4.006 4.006 0 01-3.623.32A4 4 0 018.536 9.95L5.987 7.401a17.45 17.45 0 00-3.844 4.602 18.68 18.68 0 002.462 3.313c1.789 1.909 4.29 3.68 7.387 3.684a9.07 9.07 0 004.38-1.214zm-6.343-6.344a2 2 0 002.53 2.53l-2.53-2.53zm10.725 2.246L12.073 5c3.067.028 5.546 1.789 7.322 3.684a18.681 18.681 0 012.463 3.314 17.497 17.497 0 01-1.105 1.69zm3.141-2.135L23 12l.894-.448-.002-.003-.003-.007-.011-.022a10.615 10.615 0 00-.192-.354 20.675 20.675 0 00-2.831-3.85C18.895 5.226 15.9 3 12 3a10.12 10.12 0 00-2.329.266 1 1 0 00-.48 1.68l10.94 10.95a1 1 0 001.473-.062 19.5 19.5 0 002.277-3.363 1 1 0 00.012-.918zM12.001 3H12v1l.002-1z" fill="#3955FE"/></svg>