<svg viewBox="0 0 24 25" fill="none" xmlns="http://www.w3.org/2000/svg"><path fill-rule="evenodd" clip-rule="evenodd" d="M7.5 3.003a1.5 1.5 0 100 3h3.154a8.208 8.208 0 00-.468-1.018C9.557 3.84 8.694 3.003 7.5 3.003zM4 4.503a3.5 3.5 0 00.338 1.5H2a1 1 0 00-1 1v5a1 1 0 001 1h1v9a1 1 0 001 1h16a1 1 0 001-1v-9h1a1 1 0 001-1v-5a1 1 0 00-1-1h-2.338a3.5 3.5 0 00-3.162-5c-2.306 0-3.693 1.661-4.439 3.018a9.58 9.58 0 00-.061.113 9.58 9.58 0 00-.061-.113C11.193 2.664 9.806 1.003 7.5 1.003a3.5 3.5 0 00-3.5 3.5zm9.346 1.5H16.5a1.5 1.5 0 000-3c-1.194 0-2.057.838-2.686 1.982a8.208 8.208 0 00-.468 1.018zm-.346 2v3h8v-3h-8zm-5.5 0H11v3H3v-3h4.5zm5.5 5h6v8h-6v-8zm-2 0v8H5v-8h6z" fill="#fff"/></svg>