<svg viewBox="0 0 24 24" fill="none" xmlns="http://www.w3.org/2000/svg"><path fill-rule="evenodd" clip-rule="evenodd" d="M9.377 3.388A9.009 9.009 0 003.055 11h2.984c.235-2.951 1.504-5.377 3.338-7.612zM6.039 13H3.055a9.009 9.009 0 006.322 7.612C7.543 18.377 6.274 15.952 6.039 13zm5.962 10C18.076 23 23 18.075 23 12c0-6.074-4.923-10.998-10.997-11H12C5.925 1 1 5.925 1 12c0 6.074 4.923 10.998 10.997 11m2.626-19.612c1.835 2.235 3.103 4.66 3.338 7.612h2.984a9.009 9.009 0 00-6.322-7.612zM17.961 13h2.984a9.009 9.009 0 01-6.322 7.612c1.835-2.235 3.103-4.66 3.338-7.612zm-2.008-2C15.724 8.606 14.67 6.573 13 4.563V11h2.953zM13 13h2.953c-.229 2.394-1.283 4.427-2.953 6.437V13zm-2 0v6.437C9.33 17.427 8.276 15.394 8.047 13H11zm0-2H8.047C8.276 8.606 9.33 6.573 11 4.563V11z" fill="#188ED6"/></svg>