<svg fill="#ccc" xmlns="http://www.w3.org/2000/svg" viewBox="0 0 15 15"><path d="M14.568 11.261L12.4 9.084a1.542 1.542 0 00-1.098-.451c-.433 0-.842.171-1.152.482l-.844.848c-.656-.366-1.527-.87-2.432-1.779-.904-.908-1.405-1.781-1.772-2.444l.845-.847c.628-.633.64-1.647.029-2.261L3.808.454A1.535 1.535 0 002.71 0c-.424 0-.825.164-1.132.462-.186.15-1.12.98-1.469 2.688-.487 2.39.633 4.692 3.866 7.94C7.587 14.719 10.671 15 11.53 15c.179 0 .287-.011.315-.014 1.685-.199 2.288-.95 2.728-1.499.571-.711.57-1.647-.005-2.226zm-.72 1.64c-.413.515-.804 1.002-2.11 1.156-.002 0-.073.008-.208.008-.769 0-3.538-.262-6.897-3.635C1.652 7.433.605 5.378 1.021 3.337c.304-1.49 1.11-2.123 1.141-2.147l.028-.021.024-.025A.697.697 0 012.71.935a.61.61 0 01.44.18l2.168 2.177c.25.25.236.672-.03.939l-.955.959-.016.016c-.249.276-.22.648-.082.89.396.718.938 1.7 1.98 2.748 1.04 1.044 2.017 1.588 2.729 1.985.071.04.218.107.402.107a.743.743 0 00.566-.26l.896-.9a.694.694 0 01.494-.21c.17 0 .326.064.44.179l2.167 2.177c.275.277.162.701-.06.978zM9.087 2.29c.8.093 1.742.58 2.399 1.24.664.667 1.15 1.622 1.237 2.434a.466.466 0 10.925-.1c-.11-1.027-.687-2.174-1.504-2.995-.809-.813-1.94-1.39-2.95-1.507a.467.467 0 00-.106.929zm-.434 1.96c.432.05 1.03.371 1.423.765.395.398.717 1.005.764 1.444a.466.466 0 10.925-.101c-.08-.75-.576-1.547-1.031-2.004-.451-.453-1.237-.948-1.975-1.034a.467.467 0 00-.106.929z"/></svg>