<svg viewBox="0 0 21 20" fill="none" xmlns="http://www.w3.org/2000/svg"><path fill-rule="evenodd" clip-rule="evenodd" d="M3.632 8.048l.412.412.467.467-.245.612c-.504 1.259-.696 2.623-.747 3.396l.525.525.293.293v1.248a1 1 0 11-2 0v-.42l-.54-.54-.293-.293v-.414c0-.696.14-2.294.676-3.91l-.383-.383-.4-.4.137-.55C2.139 5.67 4.834.669 10.837.669h3.51l-.01 1.003v.016a3.491 3.491 0 00.075.54c.083.374.251.877.59 1.386.134.2.366.443.697.731.272.237.568.469.878.71l.19.15c.359.282.749.594 1.05.902.151.156.31.34.435.548.122.204.252.495.252.847v.012c0 .23 0 .909-.28 1.61-.305.762-.945 1.548-2.144 1.848l-.283.07-.276-.091a4.404 4.404 0 01-.829-.4c-.078-.046-.15-.09-.22-.13a10.084 10.084 0 00-.46-.266c-.38-.203-.787-.364-1.307-.397.193.854.854 1.55 1.844 2.494l.135.13c1.193 1.134 2.74 2.607 2.982 5.02l.072.72-.661.294c-4.155 1.846-8.676.457-10.92-.89l-.318-.19-.117-.351c-.902-2.705-.902-6.26 0-8.966a1 1 0 111.897.632c-.726 2.178-.763 5.091-.11 7.344 1.85.998 5.053 1.86 8.027.875-.36-1.249-1.277-2.13-2.368-3.171l-.034-.033c-1.029-.98-2.3-2.194-2.47-4.03a6.174 6.174 0 01-1.087-.396l-.013-.007-.004-.002h-.002V9.23l.446-.895-.447.895a1 1 0 01.894-1.79h-.003.002l.017.008.08.036c.072.032.179.075.307.12.268.094.582.175.863.188l.06.002.051.01c.005-.001.039-.001.13-.01l.051-.007c.113-.013.303-.035.495-.035 1.048 0 1.837.312 2.45.638.211.113.42.239.59.341a21.21 21.21 0 00.338.197.979.979 0 00.485-.547c.105-.264.13-.542.135-.745a1.685 1.685 0 00-.118-.133c-.194-.2-.481-.434-.852-.725-.057-.045-.116-.09-.175-.138-.31-.242-.655-.512-.97-.786-.373-.324-.765-.706-1.048-1.13a6.097 6.097 0 01-.877-2.055h-1.625c-4.282 0-6.483 3.278-7.205 5.38zm12.91-.356l-.003-.004.003.004z" fill="#fff"/></svg>