<svg viewBox="0 0 48 48" fill="none" xmlns="http://www.w3.org/2000/svg"><path fill-rule="evenodd" clip-rule="evenodd" d="M46 9.714C46 7.64 44.365 6 42.4 6H36a1 1 0 110-2h6.4C45.516 4 48 6.582 48 9.714v24.572C48 37.418 45.516 40 42.4 40h-5.953c.375.771.553 1.767.553 3a1 1 0 01-1 1H21a1 1 0 110-2h13.946c-.133-1.09-.483-1.49-.75-1.668-.45-.3-1.11-.332-2.196-.332H16c-1.086 0-1.746.033-2.195.332-.268.179-.618.578-.75 1.668H16a1 1 0 110 2h-4a1 1 0 01-1-1c0-1.233.178-2.229.553-3H5.6C2.484 40 0 37.418 0 34.286V9.714C0 6.582 2.484 4 5.6 4H31a1 1 0 110 2H5.6C3.635 6 2 7.64 2 9.714v24.572C2 36.36 3.635 38 5.6 38h36.8c1.965 0 3.6-1.64 3.6-3.714V9.714z" fill="url(#paint0_linear)"/><defs><linearGradient id="paint0_linear" x1="24" y1="4" x2="24" y2="44" gradientUnits="userSpaceOnUse"><stop stop-color="#18CED6"/><stop offset="1" stop-color="#18AED6"/></linearGradient></defs></svg>