<svg viewBox="0 0 48 48" fill="none" xmlns="http://www.w3.org/2000/svg"><path fill-rule="evenodd" clip-rule="evenodd" d="M35.4 7.8A18.913 18.913 0 0024 4a18.913 18.913 0 00-11.4 3.8 1 1 0 01-1.2-1.6A20.913 20.913 0 0124 2c4.727 0 9.09 1.564 12.6 4.2a1 1 0 11-1.2 1.6zM24 10c2.337 0 4.556.742 6.5 1.866a1 1 0 101-1.732C29.326 8.876 26.764 8 24 8s-5.325.876-7.5 2.134a1 1 0 101 1.732C19.445 10.742 21.664 10 24 10zm17 7.571C41 16.16 39.843 15 38.4 15H35a1 1 0 110-2h3.4c2.533 0 4.6 2.04 4.6 4.571V36c0 1.136-.27 2.166-.827 3H45a1 1 0 011 1v1.429C46 43.96 43.933 46 41.4 46H19a1 1 0 110-2h22.4c1.444 0 2.6-1.159 2.6-2.571V41H4v.429C4 42.84 5.157 44 6.6 44h8.009a1 1 0 110 2H6.6C4.067 46 2 43.96 2 41.429V40a1 1 0 011-1h2.827C5.269 38.166 5 37.136 5 36V17.571C5 15.04 7.067 13 9.6 13H13a1 1 0 110 2H9.6C8.157 15 7 16.159 7 17.571V36c0 1.05.31 1.772.77 2.23.458.46 1.18.77 2.23.77h28c1.05 0 1.772-.31 2.23-.77.46-.458.77-1.18.77-2.23V17.571zM24 16c1.248 0 2.525.325 3.515.874a1 1 0 10.97-1.748C27.18 14.4 25.565 14 24 14c-1.565 0-3.179.4-4.485 1.126a1 1 0 00.97 1.748c.99-.55 2.267-.874 3.515-.874zm1 6a1 1 0 10-2 0 1 1 0 002 0zm-1-3a3 3 0 110 6 3 3 0 010-6z" fill="url(#paint0_linear)"/><defs><linearGradient id="paint0_linear" x1="24" y1="2" x2="24" y2="46" gradientUnits="userSpaceOnUse"><stop stop-color="#18CED6"/><stop offset="1" stop-color="#18AED6"/></linearGradient></defs></svg>