<svg viewBox="0 0 64 64" fill="none" xmlns="http://www.w3.org/2000/svg"><path fill-rule="evenodd" clip-rule="evenodd" d="M49.524 19.217a1 1 0 01.76-1.193l4.5-1a1 1 0 01.433 1.952l-4.5 1a1 1 0 01-1.193-.759zm3.99-10.36a1 1 0 01-1.372-.342l-.985-1.643-1.642.986a1 1 0 01-1.03-1.715l1.643-.986-.986-1.642a1 1 0 011.715-1.03l.986 1.643 1.642-.985a1 1 0 011.03 1.715l-1.643.985.986 1.643a1 1 0 01-.343 1.372zM26.6 2.2a1 1 0 00-1.2 1.6l4 3a1 1 0 001.2-1.6l-4-3zm-1.893 10.593a1 1 0 00-1.414 0l-3 3a1 1 0 000 1.414l3 3a1 1 0 001.414 0l3-3a1 1 0 000-1.414l-3-3zM24 18.086L22.414 16.5 24 14.914l1.586 1.586L24 18.086zm10.057 2.705c1.583-2.789 2.831-6.386 3.827-11.436l4.892 9.44c-.25 1.58-.68 3.19-1.165 4.681-.66 2.037-1.4 3.79-1.857 4.876l-.177.423a1 1 0 001.172 1.353c2.075-.534 4.73-.936 7.347-1.064l7.919 15.282a1 1 0 00.271.528l.001.001.012.013.011.013c.024.027.064.075.113.14.098.134.232.34.355.608.242.532.443 1.314.242 2.314-.19.942-.763 1.635-1.344 2.115a5.19 5.19 0 01-.997.644l-.055.025-.005.002h-.001l-.001.001h-.001a1 1 0 00-.32 1.633v.001h.001c0 .001 0 .002.703-.71l-.702.712.006.007.032.034.026.029a3.716 3.716 0 01.726 1.244c.13.386.184.805.097 1.24-.087.43-.325.945-.892 1.513-.174.173-.59.42-1.361.67-.741.24-1.703.451-2.853.621-2.296.34-5.247.504-8.476.458-6.063-.085-12.971-.907-18.222-2.611.237-.551.53-1.307.823-2.244a29.198 29.198 0 001.296-8.673c0-3.619-.646-6.595-1.296-8.673a23.072 23.072 0 00-.899-2.418 16.223 16.223 0 00-.203-.445l.023-.049a10.4 10.4 0 01.763-1.288c.754-1.103 2.058-2.652 4.226-4.338 2.32-1.805 4.298-3.775 5.943-6.672zm21.958 23.554l.277.535-.277-.535zm-7.918-15.28L47.09 27.12l1.007 1.943zm-3.864-7.456l2.857 5.512a36.483 36.483 0 013.884-.079c1.81.066 3.55.294 4.994.755 1.42.453 2.717 1.185 3.4 2.38 1.163 2.035 1.034 3.842.575 5.142-.138.39-.303.73-.467 1.015a3.863 3.863 0 00-1.069-.58 2.465 2.465 0 00-.14-.044l-.014-.004-.006-.001h-.002l-.001-.001s-.002 0-.244.97l-.707-.707.707.707c-.242.97-.243.97-.244.97h.002l.242-.97c.707.707.708.706.708.706l.003-.003.004-.004.012-.012.013-.014.02-.021c.026-.029.061-.067.103-.116a6.126 6.126 0 00.614-.876c.06.047.12.096.181.15.702.613 1.342 1.631 1.342 3.19 0 2.077-.904 3.456-1.824 4.3a5.95 5.95 0 01-.718.562c.047.09.094.184.14.284.382.84.681 2.051.382 3.537-.31 1.544-1.237 2.608-2.03 3.263a7.148 7.148 0 01-.473.358c.182.302.366.668.506 1.085.216.64.334 1.42.162 2.272-.172.859-.625 1.719-1.438 2.532-.517.517-1.305.882-2.158 1.159-.883.286-1.963.517-3.177.696-2.432.36-5.495.527-8.797.48-6.34-.089-13.697-.966-19.275-2.863-1.871 1.978-4.101 2.937-5.888 3.4-.97.252-1.821.36-2.433.406a11.068 11.068 0 01-.998.029h-.022l-.091-.003a12.688 12.688 0 01-1.43-.142c-.905-.143-2.129-.43-3.365-1.013-1.239-.585-2.517-1.481-3.484-2.852C3.616 55.785 3 53.986 3 51.674c0-4.718.925-13.076 2.025-17.896a1 1 0 111.95.444C5.909 38.896 5 47.105 5 51.674c0 1.938.51 3.326 1.223 4.337.72 1.02 1.693 1.719 2.704 2.196 1.014.479 2.04.723 2.822.846a10.645 10.645 0 001.181.12H13l.045.002h.005l.033.001h.15c.135 0 .338-.006.597-.025a11.927 11.927 0 002.08-.348c1.647-.427 3.655-1.323 5.257-3.193l.018-.035.028-.056c.061-.123.152-.311.263-.561.22-.5.52-1.247.82-2.207a27.198 27.198 0 001.204-8.077c0-3.381-.604-6.155-1.204-8.077-.3-.96-.6-1.707-.82-2.207a13.094 13.094 0 00-.323-.679c-1.508-2.008-3.338-2.89-5.492-3.28-1.804-.327-3.77-.302-5.97-.273H9.69c-.547.007-1.11.014-1.687.016a1 1 0 01-.006-2c.523-.002 1.049-.01 1.574-.016 2.22-.03 4.433-.06 6.446.305 2.122.384 4.088 1.211 5.765 2.916.13-.216.281-.453.455-.707.87-1.273 2.317-2.974 4.65-4.788 2.178-1.695 3.951-3.475 5.43-6.08 1.49-2.623 2.712-6.135 3.7-11.331a1 1 0 01.538-.709c1.389-.69 2.688-.92 3.863-.66 1.184.26 2.097.983 2.768 1.914C44.492 10.83 45 13.578 45 16.16c0 1.788-.32 3.672-.767 5.449zm0 0a38.706 38.706 0 01-.72 2.485 54.99 54.99 0 01-1.349 3.67 41.92 41.92 0 014.926-.643l-2.857-5.512zm0 0l-1.457-2.814c.141-.898.224-1.785.224-2.635 0-2.42-.492-4.663-1.436-5.973-.454-.63-.978-.999-1.576-1.13-.523-.116-1.21-.072-2.104.298l4.892 9.44 1.457 2.814zm3.864 7.455l7.918 15.28a1 1 0 01.662-1.117h.001l.007-.002a.715.715 0 00.06-.024 3.98 3.98 0 001.08-.702c.58-.532 1.175-1.402 1.175-2.825 0-.942-.36-1.424-.658-1.685a1.864 1.864 0 00-.577-.342l-.021-.007a1 1 0 01-.456-1.668v-.001l.007-.007a1.64 1.64 0 00.05-.055 4.174 4.174 0 00.713-1.255c.29-.825.411-2.018-.426-3.484-.317-.554-1.04-1.074-2.272-1.468-1.207-.385-2.748-.599-4.459-.66a33.124 33.124 0 00-2.804.022zM11 52.174a1 1 0 112 0 1 1 0 01-2 0zm1-3a3 3 0 100 6 3 3 0 000-6z" fill="url(#paint0_linear)"/><defs><linearGradient id="paint0_linear" x1="32" y1="2" x2="32" y2="61.177" gradientUnits="userSpaceOnUse"><stop stop-color="#18CED6"/><stop offset="1" stop-color="#18AED6"/></linearGradient></defs></svg>