<svg viewBox="0 0 64 64" fill="none" xmlns="http://www.w3.org/2000/svg"><path fill-rule="evenodd" clip-rule="evenodd" d="M3 40h16a1 1 0 100-2h-6V10a4 4 0 00-8 0v28H1v5c0 8.284 6.716 15 15 15h26a1 1 0 100-2H16C8.82 56 3 50.18 3 43v-3zm8-30v28H7V10a2 2 0 114 0zm9.6 13.8A18.913 18.913 0 0132 20c4.278 0 8.224 1.414 11.4 3.8a1 1 0 001.2-1.6A20.913 20.913 0 0032 18c-4.727 0-9.09 1.564-12.6 4.2a1 1 0 001.2 1.6zM32 26c-2.337 0-4.556.742-6.5 1.866a1 1 0 11-1-1.732C26.674 24.876 29.236 24 32 24s5.325.876 7.5 2.134a1 1 0 11-1 1.732C36.555 26.742 34.336 26 32 26zm-3.515 6.874c.99-.55 2.267-.874 3.515-.874 1.248 0 2.525.325 3.515.874a1 1 0 00.97-1.748C35.18 30.4 33.565 30 32 30c-1.565 0-3.179.4-4.485 1.126a1 1 0 10.97 1.748zM61 43c0 7.18-5.82 13-13 13h-1a1 1 0 100 2h1c8.284 0 15-6.716 15-15v-5h-4V10a4 4 0 00-8 0v28H24a1 1 0 100 2h37v3zm-8-5h4V10a2 2 0 10-4 0v28zM16 48a1 1 0 112 0 1 1 0 01-2 0zm1-3a3 3 0 100 6 3 3 0 000-6zm10 2a1 1 0 100 2 1 1 0 000-2zm-3 1a3 3 0 116 0 3 3 0 01-6 0zm12 0a1 1 0 112 0 1 1 0 01-2 0zm1-3a3 3 0 100 6 3 3 0 000-6zm10 2a1 1 0 100 2 1 1 0 000-2zm-3 1a3 3 0 116 0 3 3 0 01-6 0z" fill="url(#paint0_linear)"/><defs><linearGradient id="paint0_linear" x1="32" y1="6" x2="32" y2="58" gradientUnits="userSpaceOnUse"><stop stop-color="#18CED6"/><stop offset="1" stop-color="#18AED6"/></linearGradient></defs></svg>