<svg viewBox="0 0 62 62" fill="none" xmlns="http://www.w3.org/2000/svg"><path fill-rule="evenodd" clip-rule="evenodd" d="M7 0a7 7 0 00-7 7v48a7 7 0 007 7h48a7 7 0 007-7V7a7 7 0 00-7-7H7zM2 7a5 5 0 015-5h48a5 5 0 015 5v11h-8a1 1 0 100 2h8v35a5 5 0 01-5 5H7a5 5 0 01-5-5V20h45a1 1 0 100-2H2V7zm7 3a1 1 0 112 0 1 1 0 01-2 0zm1-3a3 3 0 100 6 3 3 0 000-6zm9 2a1 1 0 100 2 1 1 0 000-2zm-3 1a3 3 0 116 0 3 3 0 01-6 0zm11 0a1 1 0 112 0 1 1 0 01-2 0zm1-3a3 3 0 100 6 3 3 0 000-6zM8 29a3 3 0 013-3h6a3 3 0 013 3v6a3 3 0 01-3 3h-6a3 3 0 01-3-3v-6zm3-1a1 1 0 00-1 1v6a1 1 0 001 1h6a1 1 0 001-1v-6a1 1 0 00-1-1h-6zm0 14a3 3 0 00-3 3v6a3 3 0 003 3h6a3 3 0 003-3v-6a3 3 0 00-3-3h-6zm-1 3a1 1 0 011-1h6a1 1 0 011 1v6a1 1 0 01-1 1h-6a1 1 0 01-1-1v-6zm15-16a3 3 0 013-3h6a3 3 0 013 3v6a3 3 0 01-3 3h-6a3 3 0 01-3-3v-6zm3-1a1 1 0 00-1 1v6a1 1 0 001 1h6a1 1 0 001-1v-6a1 1 0 00-1-1h-6zm0 14a3 3 0 00-3 3v6a3 3 0 003 3h6a3 3 0 003-3v-6a3 3 0 00-3-3h-6zm-1 3a1 1 0 011-1h6a1 1 0 011 1v6a1 1 0 01-1 1h-6a1 1 0 01-1-1v-6zm15-16a3 3 0 013-3h6a3 3 0 013 3v6a3 3 0 01-3 3h-6a3 3 0 01-3-3v-6zm3-1a1 1 0 00-1 1v6a1 1 0 001 1h6a1 1 0 001-1v-6a1 1 0 00-1-1h-6zm0 14a3 3 0 00-3 3v6a3 3 0 003 3h6a3 3 0 003-3v-6a3 3 0 00-3-3h-6zm-1 3a1 1 0 011-1h6a1 1 0 011 1v6a1 1 0 01-1 1h-6a1 1 0 01-1-1v-6z" fill="url(#paint0_linear)"/><defs><linearGradient id="paint0_linear" x1="31" y1="0" x2="31" y2="62" gradientUnits="userSpaceOnUse"><stop stop-color="#18CED6"/><stop offset="1" stop-color="#18AED6"/></linearGradient></defs></svg>