<svg viewBox="0 0 1238 657" xmlns="http://www.w3.org/2000/svg" fill-rule="evenodd" clip-rule="evenodd" stroke-miterlimit="10"><path d="M646.89 132.88l-43.69-.12-41.88-.12-24.42-.07-59.62-.17-24.43-.07-16.44-.05-25.05-.07-57.98-.16-24.21-.05-6.38 24.16-4.19 15.87-1.7 6.45-2.64 9.98-2.1 7.96h82.06l-3.9 14.99-3.02 11.63-2.5 9.44-57.98-.16-24.12-.07-6.38 24.16 24.09.07 57.98.16 24.98.07 12.13-45.5.04-.15.42-1.57 2.05-7.74h.01l1.42-5.33 4.25-15.93h.03l2.23-8.32h-83.19l.04-.14 4.19-15.81 37.18.1 20.8.06 25.05.07 16.43.05-8.57 32.31-6.03 22.73-5.59 21.07-6.41 24.16 24.43.07 6.41-24.16 5.59-21.07 6.03-22.73 8.56-32.24 10.55 32.3 7.44 22.76 6.9 21.11 7.91 24.2h.23l24.43.07 6.41-24.16 5.59-21.07 6.03-22.72 8.57-32.31 17.45.05-8.57 32.31-6.03 22.73-5.59 21.07-6.41 24.16 24.43.07 43.69.12h.17c-.01.03-.02.06-.02.09-5.59 21.53-11.18 43.06-16.77 64.6h24.04l16.83-64.6c0-.01 0-.02.01-.02 4.06-15.57 8.11-31.14 12.17-46.72v.08l4.76-18.34h-41.87l-5.2 19.53 17.78.05h.1l-.02.08-4.43 16.71c0 .01-.01.03-.01.04l-1.15 4.32-43.69-.12 5.59-21.07 6.03-22.73 8.57-32.31 43.69.12-.02.09-5.19 19.57 24.14.08 5.19-19.65v-.02l6.38-24.16-24.09-.07zm-124.97 56.17l-6.03 22.73h-.21c-2.44-7.59-4.87-15.18-7.31-22.76-3.46-10.79-6.93-21.58-10.39-32.36l32.51.09-8.57 32.3z" fill="url(#_Linear1)" fill-rule="nonzero" stroke="#e6e6e6" stroke-width="2" transform="translate(-890.606 -381.094) scale(3.125)"/><path d="M40.167 557.206v32.017H62.14v-32.017h8.93V631.9h-8.93v-34.91H40.167v34.91h-8.93v-74.694h8.93zm112.35 52.309l-5.225 22.385h-8.597l17.898-74.694h9.893l17.416 74.694h-8.82l-5.224-22.385h-17.341zm16.155-6.853l-4.076-18.959c-1.148-5.33-2.223-11.535-3.15-17.056h-.48c-.927 5.673-2.076 12.069-3.15 17.056l-4.077 18.959h14.933zm83.04 29.238v-74.694h8.486l14.414 35.025c3.26 7.994 7.337 17.969 10.005 26.04h.222c-.704-11.764-1.038-21.396-1.038-34.378v-26.725h8.004v74.694h-8.485l-14.86-35.9c-3.149-7.538-6.52-16.066-9.3-25.393h-.222c.704 9.974.926 19.492.926 35.481v25.812h-8.152v.038zm112.128-73.59c3.483-.99 7.559-1.447 12.08-1.447 8.263 0 14.043 1.98 18.341 5.635 6.04 4.987 10.561 14.619 10.561 30.266 0 17.055-4.41 26.382-9.412 31.484-5.113 5.558-12.561 8.07-21.603 8.07-3.594 0-7.337-.228-10.005-.76V558.31h.037zm8.93 66.623c1.26.229 2.556.229 3.372.229 9.893 0 19.416-6.777 19.416-32.132 0-18.845-6.04-29.162-18.601-29.162-1.408 0-3.039.115-4.187.457v60.608zm224.551-25.164c-.593-9.86-1.149-20.825-.815-29.276h-.445a438.219 438.219 0 01-6.262 25.925l-9.634 35.025h-5.707l-9.19-33.578c-2.556-9.517-4.89-18.73-6.373-27.372h-.333c0 8.756-.482 19.187-.927 29.809l-1.519 31.598h-8.004l4.632-74.694h9.634l9.19 34.15c2.668 9.86 4.632 17.169 6.262 25.697h.334c1.519-8.528 3.26-15.61 5.817-25.698l8.82-34.149h10.004l4.52 74.694h-8.374l-1.63-32.131zm88.894 9.746l-5.224 22.385h-8.597l17.897-74.694h9.894L717.6 631.9h-8.82l-5.224-22.385h-17.342zm16.156-6.853l-4.076-18.959c-1.149-5.33-2.223-11.535-3.15-17.056h-.444c-.927 5.673-2.075 12.069-3.15 17.056l-4.076 18.959h14.896zm83.039-44.352c3.484-.99 7.56-1.447 12.08-1.447 8.264 0 14.044 1.98 18.343 5.635 6.04 4.987 10.56 14.619 10.56 30.266 0 17.055-4.41 26.382-9.412 31.484-5.113 5.558-12.561 8.07-21.603 8.07-3.594 0-7.336-.228-10.004-.76V558.31h.037zm8.968 66.623c1.26.229 2.557.229 3.372.229 9.893 0 19.417-6.777 19.417-32.132 0-18.845-6.04-29.162-18.602-29.162-1.408 0-3.038.115-4.187.457v60.608zm129.432-28.515h-19.676v28.058h22.307v7.424h-31.237v-74.694h29.866v7.424h-20.9v24.593h19.64v7.195z" fill="#a9a6a6" fill-rule="nonzero"/><path d="M295 280h289" fill="none" stroke="#e6e6e6" stroke-width="2" transform="matrix(3.0975 0 0 3.125 -882.497 -381.094)"/><defs><linearGradient id="_Linear1" x1="0" y1="0" x2="1" y2="0" gradientUnits="userSpaceOnUse" gradientTransform="translate(296.323 227) scale(374.655)"><stop offset="0" stop-color="#f15a24"/><stop offset=".09" stop-color="#f15a24"/><stop offset=".75" stop-color="#f4e806"/><stop offset="1" stop-color="#f4e806"/></linearGradient></defs></svg>