<svg viewBox="0 0 64 64" fill="none" xmlns="http://www.w3.org/2000/svg"><path fill-rule="evenodd" clip-rule="evenodd" d="M3 24.5C3 12.626 12.626 3 24.5 3S46 12.626 46 24.5c0 4.191-1.198 8.099-3.27 11.404a21.618 21.618 0 01-6.743 6.773A21.395 21.395 0 0124.5 46C12.626 46 3 36.374 3 24.5zM24.5 1C11.521 1 1 11.521 1 24.5S11.521 48 24.5 48c4.329 0 8.387-1.171 11.871-3.215l5.779 5.779 4.643 4.643a1 1 0 001.414-1.414l-3.936-3.936 5.657-5.657 9.98 9.98a4 4 0 01-5.657 5.657l-2.544-2.544a1 1 0 00-1.414 1.414l2.544 2.544.707-.707-.707.707a6 6 0 008.485-8.485L50.635 42.08l-5.797-5.798A23.396 23.396 0 0048 24.5C48 11.521 37.479 1 24.5 1zm18.357 47.443l-4.768-4.768a23.625 23.625 0 005.645-5.67l4.78 4.78-5.657 5.658zM24.5 11a9.458 9.458 0 00-4.07.914 1 1 0 11-.86-1.807A11.459 11.459 0 0124.5 9C30.851 9 36 14.149 36 20.5c0 4.004-1.846 8.811-4.077 12.573-1.124 1.893-2.375 3.575-3.599 4.798-.61.611-1.236 1.129-1.854 1.5-.608.364-1.281.629-1.97.629-.689 0-1.362-.265-1.97-.63-.618-.37-1.243-.888-1.854-1.499-1.223-1.223-2.475-2.905-3.599-4.798C14.846 29.31 13 24.504 13 20.5c0-2.687.923-5.162 2.468-7.12a1 1 0 111.57 1.24A9.455 9.455 0 0015 20.5c0 3.496 1.654 7.939 3.798 11.552 1.064 1.794 2.218 3.331 3.292 4.405.537.537 1.033.938 1.468 1.198.445.266.756.345.942.345.186 0 .497-.079.942-.345.435-.26.93-.66 1.468-1.198 1.074-1.074 2.228-2.61 3.292-4.405C32.346 28.44 34 23.996 34 20.5a9.5 9.5 0 00-9.5-9.5zm0 7a2.5 2.5 0 100 5 2.5 2.5 0 000-5zM20 20.5a4.5 4.5 0 119 0 4.5 4.5 0 01-9 0z" fill="url(#paint0_linear)"/><defs><linearGradient id="paint0_linear" x1="32.04" y1="1" x2="32.04" y2="63.009" gradientUnits="userSpaceOnUse"><stop stop-color="#18CED6"/><stop offset="1" stop-color="#18AED6"/></linearGradient></defs></svg>