<svg viewBox="0 0 20 20" fill="none" xmlns="http://www.w3.org/2000/svg"><path fill-rule="evenodd" clip-rule="evenodd" d="M7.07 5.461c0-.485.403-.92.965-.92h2.872c.281 0 .595.079.806.362.184.246.215.554.215.81v3.494c.07-.061.158-.145.272-.258.615-.69 1.15-1.577 1.538-2.31a17.969 17.969 0 00.6-1.25l.007-.017.001-.004v-.001l.004-.009c.08-.183.207-.395.424-.559a1.34 1.34 0 01.83-.258h1.827c.339 0 .713.086.936.404.21.3.17.649.1.893-.079.342-.291.786-.527 1.22-.25.458-.556.96-.852 1.424a46.79 46.79 0 01-1.13 1.683l-.017.024c-.042.069-.067.11-.082.143a.82.82 0 00.06.088l.006.007.005.008c.065.09.23.254.486.505.232.227.514.503.744.774.394.443.749.862 1.028 1.24.273.37.503.739.611 1.076l.005.013c.1.344.099.74-.166 1.047-.25.29-.623.369-.947.369h-1.827c-.248 0-.472-.052-.686-.164a2.23 2.23 0 01-.534-.416 13.51 13.51 0 01-.424-.457l-.107-.12a20.89 20.89 0 00-.738-.78c-.97-.934-1.34-1.028-1.444-1.037a2.239 2.239 0 00-.003.125v1.639c0 .268-.041.672-.439.939-.318.214-.785.271-1.366.271-2.135 0-4.4-1.286-5.98-3.554C2.988 10.288 2.25 8.862 1.796 7.77a11.708 11.708 0 01-.48-1.376c-.096-.35-.15-.645-.15-.836 0-.187.033-.473.256-.706.225-.234.542-.31.87-.31H4.12c.31 0 .61.07.857.297.222.205.341.486.432.75.435 1.267 1.019 2.45 1.563 3.31.273.432.528.768.74.99.029.03.057.059.084.084V7.257c-.03-.505-.171-.746-.291-.909a3.746 3.746 0 00-.108-.137l-.004-.006a2.883 2.883 0 01-.13-.17.99.99 0 01-.193-.574zm8.2.29l-.002.004-.009.021-.033.08c-.03.067-.072.165-.128.286-.11.242-.272.58-.476.965-.404.765-.988 1.74-1.686 2.519l-.009.01-.01.008c-.396.4-.733.71-1.204.71-.548 0-.785-.545-.785-1.022v-3.62c0-.077-.005-.133-.01-.17l-.011-.001H8.142l.029.036.007.01c.037.045.084.103.133.169.225.306.445.733.484 1.46v2.717c0 .29-.019.585-.144.811a.723.723 0 01-.337.315.86.86 0 01-.357.07c-.22 0-.41-.095-.546-.185a2.519 2.519 0 01-.423-.366 7.53 7.53 0 01-.86-1.144c-.588-.928-1.205-2.182-1.664-3.52m10.806-.162a.375.375 0 01.107-.156c.028-.02.088-.055.226-.055h1.828c.031 0 .057.001.08.003a.665.665 0 01-.007.025l-.006.018-.004.02c-.041.188-.19.527-.433.973-.233.429-.526.91-.816 1.363A45.632 45.632 0 0115.21 9.49l-.07.1-.018.025-.004.006-.001.002-.01.013-.008.013a1.178 1.178 0 01-.011.019c-.083.132-.216.345-.236.596-.024.302.11.55.272.762.123.169.35.39.555.591l.037.037c.24.235.49.48.685.711l.008.01c.39.437.722.83.975 1.173.256.348.404.606.461.78.015.052.02.088.02.11a.596.596 0 01-.174.02h-1.827a.443.443 0 01-.222-.049 1.277 1.277 0 01-.29-.236c-.109-.11-.227-.241-.38-.41a21.378 21.378 0 00-.894-.951v-.001l-.006-.007c-1.093-1.052-1.684-1.32-2.166-1.32-.194 0-.535.016-.767.304a.923.923 0 00-.18.409 2.2 2.2 0 00-.031.413v1.639a.683.683 0 01-.008.115.698.698 0 01-.19.055c-.138.025-.332.04-.607.04-1.737 0-3.723-1.063-5.162-3.128l-.003-.005C3.848 9.77 3.145 8.41 2.72 7.388a10.72 10.72 0 01-.44-1.257c-.091-.334-.114-.522-.114-.573V5.55a.739.739 0 01.126-.01H4.12c.151 0 .177.03.18.034.026.024.08.098.164.34" fill="#fff"/></svg>