<svg viewBox="0 0 20 20" fill="none" xmlns="http://www.w3.org/2000/svg"><path fill-rule="evenodd" clip-rule="evenodd" d="M5.833 2.167a3.667 3.667 0 00-3.666 3.666v8.334a3.667 3.667 0 003.666 3.666h8.334a3.667 3.667 0 003.666-3.666V5.832a3.667 3.667 0 00-3.666-3.667H5.833zM1.167 5.832a4.667 4.667 0 014.666-4.667h8.334a4.667 4.667 0 014.666 4.667v8.334a4.667 4.667 0 01-4.666 4.666H5.833a4.667 4.667 0 01-4.666-4.666V5.832zm9.285 1.328a2.833 2.833 0 10-.832 5.605 2.833 2.833 0 00.832-5.605zm-2.182-.6a3.833 3.833 0 113.532 6.805A3.833 3.833 0 018.27 6.561zm6.313-1.644a.5.5 0 000 1h.009a.5.5 0 100-1h-.009z" fill="#fff"/></svg>