<svg viewBox="0 0 20 20" fill="none" xmlns="http://www.w3.org/2000/svg"><path fill-rule="evenodd" clip-rule="evenodd" d="M18.653 2.116a.5.5 0 01.168.492l-3.333 15a.5.5 0 01-.8.282l-3.818-3.053-3.016 3.017a.5.5 0 01-.837-.225L5.415 11.62 1.48 10.048a.5.5 0 01-.01-.925L18.138 2.04a.5.5 0 01.515.076zM6.419 11.507l1.086 4.073.763-2.795a.5.5 0 01.116-.21l3.83-4.103-5.795 3.035zm2.059 4.308l2.002-2.002a.5.5 0 01.666-.037l3.54 2.832L17.634 3.34 2.978 9.57l2.827 1.13 8.546-4.476a.5.5 0 01.598.784l-5.75 6.16-.721 2.647z" fill="#fff"/></svg>