<svg viewBox="0 0 15 11" fill="#ccc" xmlns="http://www.w3.org/2000/svg"><path d="M1.318.227h12.364A1.32 1.32 0 0115 1.545v7.91a1.32 1.32 0 01-1.318 1.318H1.318A1.32 1.32 0 010 9.455v-7.91A1.32 1.32 0 011.318.227zm.185.878l5.065 5.039c.249.249.58.386.932.386.352 0 .683-.137.933-.387l5.064-5.038H1.503zm12.618 8.171V1.724l-3.798 3.778 3.798 3.774zm-.625.619L9.7 6.122l-.646.643a2.183 2.183 0 01-1.554.644 2.182 2.182 0 01-1.553-.643L5.3 6.122 1.504 9.895h11.992zM.88 9.276l3.798-3.774L.879 1.724v7.552z"/></svg>