<svg viewBox="0 0 25 24" fill="none" xmlns="http://www.w3.org/2000/svg"><path fill-rule="evenodd" clip-rule="evenodd" d="M6.843 4.343A8 8 0 0120.5 10c0 3.098-2.016 6.104-4.226 8.437a29.403 29.403 0 01-3.774 3.336 29.41 29.41 0 01-3.774-3.335C6.516 16.103 4.5 13.097 4.5 10a8 8 0 012.343-5.657zm5.102 19.489L12.5 23l-.555.832a1 1 0 001.11 0L12.5 23l.555.832h.001l.002-.002.007-.005.023-.015.082-.057c.072-.05.174-.12.302-.214a31.433 31.433 0 004.254-3.727c2.29-2.416 4.774-5.91 4.774-9.812a10 10 0 00-20 0c0 3.902 2.484 7.396 4.774 9.813a31.43 31.43 0 004.254 3.726 18.887 18.887 0 00.384.27l.023.016.007.005.002.001zM10.5 10a2 2 0 114 0 2 2 0 01-4 0zm2-4a4 4 0 100 8 4 4 0 000-8z" fill="#3955FE"/></svg>