<svg fill="none" xmlns="http://www.w3.org/2000/svg" viewBox="0 0 90 60"><path d="M6 46h79" stroke="#E9EFFF" stroke-width="2" stroke-linecap="round" stroke-linejoin="round"/><path d="M41 23l-2 5-2 1-14 1-1 1c5.5.5 8.229 2.985 9 8 3.632 0 7.798-3.822 9.5-8.5.727-2 .5-7.5.5-7.5zm4 0l1.45 4 2 2L69 30s0 2-2 2H50c-2 0-3.668-1.234-4.5-3-.5-1.061-.5-6-.5-6z" fill="#ADC6FE"/><path d="M26.297 21.42l-2.124 1.77A3.097 3.097 0 0120 23l6.133-4.6a7 7 0 014.2-1.4H37a3 3 0 01-3 3h-3.783c-1.432 0-2.82.502-3.92 1.42zM70 20H46v-3h27a3 3 0 01-3 3z" fill="#E9EFFF"/><path d="M19 24l8-7h4.5m0 0H40v7.789a4 4 0 01-.672 2.219l-.228.342a4 4 0 01-3.079 1.774L22 30l-2-3h-3.769a10 10 0 00-2.425.299L7 29l2 2-3 2v4.292a4 4 0 002.514 3.714L11 42v-1s0-8 8-8 8 8 8 8v1h39v-2s0-7 8-7 8 7 8 7v2l1.632-.544A2 2 0 0085 39.558V36h-1l-1-3 1-1-.544-1.633A2 2 0 0081.558 29H80M31.5 17L28 14l.828-.828A4 4 0 0131.657 12h44.16a4 4 0 013.899 3.1L82 25h-1.68a4 4 0 01-3.932-3.263L75.5 17H46v7.789a4 4 0 00.672 2.219l.14.21A4 4 0 0050.142 29H56m0 0v-6m0 6h11m5 0h-5m0 0v-6" stroke="#3955FE" stroke-width="2" stroke-linecap="round" stroke-linejoin="round"/><rect x="-1" y="1" width="10" height="10" rx="5" transform="matrix(-1 0 0 1 78 35)" stroke="#262425" stroke-width="2"/><mask id="a" fill="#fff"><path d="M76 41h-4a2 2 0 104 0z"/></mask><path d="M76 41v-2h2v2h-2zm-4 0h-2v-2h2v2zm2 0h4a4 4 0 01-4 4v-4zm0 0v4a4 4 0 01-4-4h4zm2 2h-4v-4h4v4z" fill="#ADC6FE" mask="url(#a)"/><mask id="b" fill="#fff"><path d="M21 41h-4a2 2 0 104 0z"/></mask><path d="M21 41v-2h2v2h-2zm-4 0h-2v-2h2v2zm2 0h4a4 4 0 01-4 4v-4zm0 0v4a4 4 0 01-4-4h4zm2 2h-4v-4h4v4z" fill="#ADC6FE" mask="url(#b)"/><rect x="-1" y="1" width="10" height="10" rx="5" transform="matrix(-1 0 0 1 23 35)" stroke="#262425" stroke-width="2"/></svg>