<svg xmlns="http://www.w3.org/2000/svg" fill="none" viewBox="0 0 100 41"><mask id="a" fill="#fff"><path d="M89.357 0c-3.253 0-3.418.008-3.844.177-.381.151-.563.17-1.285.132-.462-.024-3.414-.038-6.558-.03-3.145.006-6.247-.002-6.895-.02-1.507-.04-10.547-.04-12.15 0-.67.017-2.363.03-3.762.027A4596.03 4596.03 0 0144.5.276C35.7.262 33.913.344 30.585.914c-1.654.283-2.915.712-4.317 1.47-1.055.568-.977.505-4.049 3.31a122.707 122.707 0 00-7.478 7.45c-1.304 1.418-1.38 1.486-1.493 1.325-.205-.292-.416-.202-.88.377-.41.514-.458.547-.784.547-.272 0-.398.051-.574.235-.124.13-.226.274-.226.32 0 .182-.714.738-2.48 1.93-2.422 1.635-5.04 3.637-5.9 4.512-.63.641-1.24 1.549-1.327 1.974-.03.149-.397 1.014-.55 1.302-.047.085-.029.31.045.589.074.275.1.606.069.849-.047.357-.033.405.132.466l.183.068-.173.157c-.19.173-.232.517-.068.572.058.02-.065.092-.273.161-.409.137-.537.359-.257.448.15.047.173.123.173.561 0 .436-.023.513-.168.551-.146.038-.168.115-.168.568 0 1.047.1 1.823.244 1.877.074.027.273.206.443.398.407.458 1.94 1.137 3.135 1.388.46.096.887.216.947.267.13.107 3.968.015 4.277-.103.142-.054.214-.186.293-.539l.104-.467h.836l-.047.295c-.086.53.223 1.949.6 2.755.53 1.136 1.718 2.413 2.559 2.752.024.01.128.019.285.027a6.192 6.192 0 002.845.699 6.191 6.191 0 002.735-.64h.313l.62-.407c1.299-.851 2.295-2.491 2.552-4.2.07-.472.129-.969.129-1.103 0-.216.033-.248.293-.278.326-.038.327-.037.456.647.043.231.119.524.167.652l.088.231h19.166l.025.4.026.399 5.823.022 5.822.021v-.833l8.05.016c7.366.015 8.078.005 8.361-.124.355-.16.553-.487.628-1.035l.052-.38h.752l-.043.315c-.024.174.012.675.08 1.115.242 1.584 1.332 3.346 2.573 4.162l.513.338.306.002c.869.445 1.83.677 2.806.68a6.192 6.192 0 002.726-.637l.362.003.577-.407c.819-.577 1.63-1.566 2.08-2.532.456-.982.674-2.27.533-3.14-.131-.81-.128-.825.196-.825.28 0 .284.007.39.526.205.995.408 1.526.652 1.703.218.16.363.169 2.837.169 1.433 0 3.127-.03 3.762-.066 1.127-.063 1.157-.06 1.157.106 0 .218.163.219 1.522.01.637-.098 1.234-.245 1.536-.378.272-.12.56-.22.639-.22.407 0 1.16-.832 1.07-1.18-.023-.085.006-.172.063-.194.146-.056.25-1.466.12-1.623-.052-.063-.244-.14-.425-.168l-.329-.053.067-.725c.037-.398.064-3.468.06-6.822-.004-4.862-.033-6.465-.145-7.907-.076-.995-.178-2.433-.225-3.196-.112-1.807-.317-4.53-.42-5.594a93.228 93.228 0 01-.17-2.019 43.978 43.978 0 00-.18-1.9c-.061-.48-.065-.776-.01-.883.097-.187.05-.37-.093-.37-.055 0-.17-.13-.255-.289C96.537.658 95.762.336 94.386.336c-.578 0-.886-.043-1.203-.168C92.78.01 92.558 0 89.357 0z"/></mask><path d="M89.357 0c-3.253 0-3.418.008-3.844.177-.381.151-.563.17-1.285.132-.462-.024-3.414-.038-6.558-.03-3.145.006-6.247-.002-6.895-.02-1.507-.04-10.547-.04-12.15 0-.67.017-2.363.03-3.762.027A4596.03 4596.03 0 0144.5.276C35.7.262 33.913.344 30.585.914c-1.654.283-2.915.712-4.317 1.47-1.055.568-.977.505-4.049 3.31a122.707 122.707 0 00-7.478 7.45c-1.304 1.418-1.38 1.486-1.493 1.325-.205-.292-.416-.202-.88.377-.41.514-.458.547-.784.547-.272 0-.398.051-.574.235-.124.13-.226.274-.226.32 0 .182-.714.738-2.48 1.93-2.422 1.635-5.04 3.637-5.9 4.512-.63.641-1.24 1.549-1.327 1.974-.03.149-.397 1.014-.55 1.302-.047.085-.029.31.045.589.074.275.1.606.069.849-.047.357-.033.405.132.466l.183.068-.173.157c-.19.173-.232.517-.068.572.058.02-.065.092-.273.161-.409.137-.537.359-.257.448.15.047.173.123.173.561 0 .436-.023.513-.168.551-.146.038-.168.115-.168.568 0 1.047.1 1.823.244 1.877.074.027.273.206.443.398.407.458 1.94 1.137 3.135 1.388.46.096.887.216.947.267.13.107 3.968.015 4.277-.103.142-.054.214-.186.293-.539l.104-.467h.836l-.047.295c-.086.53.223 1.949.6 2.755.53 1.136 1.718 2.413 2.559 2.752.024.01.128.019.285.027a6.192 6.192 0 002.845.699 6.191 6.191 0 002.735-.64h.313l.62-.407c1.299-.851 2.295-2.491 2.552-4.2.07-.472.129-.969.129-1.103 0-.216.033-.248.293-.278.326-.038.327-.037.456.647.043.231.119.524.167.652l.088.231h19.166l.025.4.026.399 5.823.022 5.822.021v-.833l8.05.016c7.366.015 8.078.005 8.361-.124.355-.16.553-.487.628-1.035l.052-.38h.752l-.043.315c-.024.174.012.675.08 1.115.242 1.584 1.332 3.346 2.573 4.162l.513.338.306.002c.869.445 1.83.677 2.806.68a6.192 6.192 0 002.726-.637l.362.003.577-.407c.819-.577 1.63-1.566 2.08-2.532.456-.982.674-2.27.533-3.14-.131-.81-.128-.825.196-.825.28 0 .284.007.39.526.205.995.408 1.526.652 1.703.218.16.363.169 2.837.169 1.433 0 3.127-.03 3.762-.066 1.127-.063 1.157-.06 1.157.106 0 .218.163.219 1.522.01.637-.098 1.234-.245 1.536-.378.272-.12.56-.22.639-.22.407 0 1.16-.832 1.07-1.18-.023-.085.006-.172.063-.194.146-.056.25-1.466.12-1.623-.052-.063-.244-.14-.425-.168l-.329-.053.067-.725c.037-.398.064-3.468.06-6.822-.004-4.862-.033-6.465-.145-7.907-.076-.995-.178-2.433-.225-3.196-.112-1.807-.317-4.53-.42-5.594a93.228 93.228 0 01-.17-2.019 43.978 43.978 0 00-.18-1.9c-.061-.48-.065-.776-.01-.883.097-.187.05-.37-.093-.37-.055 0-.17-.13-.255-.289C96.537.658 95.762.336 94.386.336c-.578 0-.886-.043-1.203-.168C92.78.01 92.558 0 89.357 0h0z" stroke="url(#paint0_linear)" stroke-width="2" mask="url(#a)"/><path d="M7.98 24.375l.072-.139 12.987-2.235 68.318.997 2.315 1.404-83.691-.027z" stroke="url(#paint1_linear)"/><path d="M98 18c-.177.21-2.112 1.194-3 3h3v-3z" stroke="url(#paint2_linear)"/><path d="M51.984 5.297v.034h-5.428c-3.752 0-5.55.03-5.822.095-.482.117-.994.575-1.11.996-.11.396-.11 8.189 0 8.586.045.164.207.419.359.566.537.52.545.522 6.557.523h5.444v.005l.26-.005h2.63c2.923 0 3.138-.03 3.649-.526.151-.146.313-.41.36-.585.094-.348.12-8.152.028-8.543-.03-.126-.19-.372-.357-.547-.501-.525-.762-.565-3.726-.565h-2.592v-.034h-.252z" stroke="url(#paint3_linear)"/><path d="M86.233 5.653c3.953.003 5.726.023 5.857.064.192.06.382.217.547.45l.252.356.023 4.034c.015 2.594-.007 4.149-.063 4.357-.055.202-.19.4-.36.53-.15.112-.386.24-.525.282-.15.046-6.317.06-15.36.035l-15.11-.042-.285-.276c-.455-.442-.48-.697-.48-4.729 0-4.031.025-4.287.48-4.728l.285-.276 15.151-.042c4.059-.012 7.216-.017 9.588-.015h0z" stroke="url(#paint4_linear)"/><path d="M34.575 6c1.507.002 1.706.102 1.903.437.136.23.147.392.1 1.486-.053 1.211-.264 3.292-.518 5.096-.24 1.71-.463 2.291-.99 2.595-.554.318-1.993.562-4.795.815l-2.778.25c-.012 0-.378-.364-.378-.364s-6.102.93-6.602.93c-2.236 0 3.5-7 3.5-7s3.81-3.818 3.845-3.856c.163-.179 1.89-.312 4.72-.364.842-.016 1.49-.026 1.993-.025z" stroke="url(#paint5_linear)"/><path d="M2.446 25.155c.017-.027.068-.084.148-.157a2.18 2.18 0 01.245-.192h0c.275-.181.42-.233 1.418-.413l-.039-.212.039.212c.409-.073 2.1-.227 2.897-.274-.087.132-.198.29-.322.46-.324.444-.723.947-.994 1.235-.384.409-.743.686-1.167.887-.427.202-.933.332-1.623.427h0c-.638.088-1.01.129-1.222.13l-.031-.001c.015-.068.036-.155.062-.254.055-.213.131-.478.212-.744.08-.266.164-.53.236-.738a6.584 6.584 0 01.13-.342l.011-.025s0 0 0 0zm0 0l-.208-.136.208.136s0 0 0 0zm5.083-1.299h0z" stroke="url(#paint6_linear)" stroke-width=".5"/><path d="M4.885 28.25h0c-.894.002-1.577.008-2.041.02a13.859 13.859 0 00-.631.028.625.625 0 01-.327.104.21.21 0 00-.055.031l3.054-.183zm0 0c.596 0 1.284 0 2.064.004 0 0 0 0 0 0l4.294.02c-.17.252-.451.772-.699 1.264-.126.25-.246.499-.34.707a3.877 3.877 0 00-.198.492c-.255.955-.553 2.224-.6 2.573l.248.033-.248-.034-.013.093c-.023.17-.038.285-.058.374-.024.102-.043.117-.043.117h0c-.002.002-.022.02-.132.037a5.336 5.336 0 01-.393.034l-.096.006c-.815.055-1.627.09-2.237.103-.306.007-.558.007-.733.002a2.65 2.65 0 01-.182-.01.795.795 0 00-.117-.056 3.197 3.197 0 00-.236-.077 11.495 11.495 0 00-.707-.178c-.405-.09-1.071-.308-1.655-.526a16.047 16.047 0 01-.461-.181c.565-.078.992-.208 1.283-.519.327-.35.433-.878.493-1.601l-.249-.021.25.02v-.01c.02-.232.037-.44.02-.604-.018-.184-.085-.36-.267-.478-.154-.1-.361-.133-.588-.149a15.076 15.076 0 00-.946-.016H1.295l-.018-.4h0l-.02-.464.092-.039s0 0 0 0a1.56 1.56 0 00.254-.137.998.998 0 00.21-.178l3.072-.2z" stroke="url(#paint7_linear)" stroke-width=".5"/><path d="M97.372 29.256l-1.43.016h0l-1.452.017-.011 2.499s0 0 0 0a218.874 218.874 0 00.003 2.503c.185-.023.412-.055.655-.093.819-.127 1.268-.244 1.632-.403.5-.22.718-.384.842-.566h0c.127-.186.206-.464.241-1.036 0 0 0 0 0 0s0 0 0 0l.018-.295a.949.949 0 01-.04-.013l-.458-2.63zm0 0l-.013.752s0 0 0 0c-.006.349-.005.68.002.933.004.127.01.238.017.325h0v.006c.003.03.007.08.015.125a.712.712 0 00.03.119l.004.011.002.006.001.002.001.002v.002l.001.002.002.003.017.038.011.02.012.02a.61.61 0 00.192.185c.053.033.11.059.165.078l-.46-2.63zm.492-.123l.01.048-.002.069h-.016.01l-.002-.117z" stroke="url(#paint8_linear)"/><path d="M95 22l.06 3.098c.006.314.103.924.379.901L98 25.86V22h-3z" stroke="url(#paint9_linear)"/><path d="M25.069 27.578l-.006-.055h47.925a12.36 12.36 0 01-.285.556 7.557 7.557 0 01-.431.708 2.206 2.206 0 01-.169.215l-46.658.496a1.15 1.15 0 01-.064-.146 4.67 4.67 0 01-.195-.831 17.363 17.363 0 01-.117-.943zm.415 1.98l-.002-.002.002.002z" stroke="url(#paint10_linear)"/><path d="M78.68 35.164a1.025 1.025 0 10-.001-2.05 1.025 1.025 0 000 2.05z" fill="#fff"/><path d="M78.653 40.373a6.195 6.195 0 006.194-6.197 6.195 6.195 0 10-12.388 0 6.195 6.195 0 006.194 6.197z" stroke="url(#paint11_linear)" stroke-width=".62"/><path d="M78.653 37.958a3.978 3.978 0 003.978-3.979 3.978 3.978 0 10-3.978 3.979z" stroke="url(#paint12_linear)" stroke-width=".62"/><path d="M78.653 35.27a1.093 1.093 0 100-2.186 1.093 1.093 0 000 2.185z" stroke="url(#paint13_linear)" stroke-width=".62"/><path d="M16.386 35.164a1.025 1.025 0 100-2.05 1.025 1.025 0 000 2.05z" fill="#fff"/><path d="M16.36 38.155a3.978 3.978 0 10-.002-7.96 3.978 3.978 0 00.002 7.96z" stroke="url(#paint14_linear)"/><path d="M16.36 35.27a1.093 1.093 0 100-2.186 1.093 1.093 0 000 2.185z" stroke="url(#paint15_linear)"/><mask id="b" fill="#fff"><path d="M84.446 28.28h9.012v.977h-8.487c-.442-.211-.44-.613-.525-.977z"/></mask><path d="M84.446 28.28v-1h-1.26l.286 1.227.974-.227zm9.012 0h1v-1h-1v1zm0 .977v1h1v-1h-1zm-8.487 0l-.43.902.204.098h.226v-1zm-.525.023h9.012v-2h-9.012v2zm8.012-1v.977h2v-.977h-2zm1-.023h-8.487v2h8.487v-2zm-8.057.097a.26.26 0 01.069.057c.03.035.04.063.04.06a.812.812 0 01-.028-.113l-.025-.13a4.793 4.793 0 00-.037-.176l-1.948.456c.018.074.022.11.05.247.021.107.056.262.117.425.141.372.41.745.902.98l.86-1.806z" fill="url(#paint16_linear)" mask="url(#b)"/><defs><linearGradient id="paint0_linear" x1="65.919" y1="1.968" x2="14.093" y2="35.11" gradientUnits="userSpaceOnUse"><stop stop-color="#0ACFCF"/><stop offset="1" stop-color="#743498" stop-opacity=".6"/></linearGradient><linearGradient id="paint1_linear" x1="64.55" y1="21.667" x2="63.1" y2="31.158" gradientUnits="userSpaceOnUse"><stop stop-color="#0ACFCF"/><stop offset="1" stop-color="#743498" stop-opacity=".6"/></linearGradient><linearGradient id="paint2_linear" x1="96.5" y1="18" x2="90.459" y2="17.536" gradientUnits="userSpaceOnUse"><stop stop-color="#0ACFCF"/><stop offset="1" stop-color="#743498" stop-opacity=".6"/></linearGradient><linearGradient id="paint3_linear" x1="52.46" y1="5.829" x2="40.682" y2="11.295" gradientUnits="userSpaceOnUse"><stop stop-color="#0ACFCF"/><stop offset="1" stop-color="#743498" stop-opacity=".6"/></linearGradient><linearGradient id="paint4_linear" x1="82.133" y1="6.151" x2="67.966" y2="17.783" gradientUnits="userSpaceOnUse"><stop stop-color="#0ACFCF"/><stop offset="1" stop-color="#743498" stop-opacity=".6"/></linearGradient><linearGradient id="paint5_linear" x1="31.041" y1="6.553" x2="20.359" y2="10.625" gradientUnits="userSpaceOnUse"><stop stop-color="#0ACFCF"/><stop offset="1" stop-color="#743498" stop-opacity=".6"/></linearGradient><linearGradient id="paint6_linear" x1="11.5" y1="19.5" x2="1.038" y2="22.932" gradientUnits="userSpaceOnUse"><stop stop-color="#0ACFCF"/><stop offset="1" stop-color="#743498" stop-opacity=".6"/></linearGradient><linearGradient id="paint7_linear" x1="13.5" y1="23" x2=".409" y2="28.723" gradientUnits="userSpaceOnUse"><stop stop-color="#0ACFCF"/><stop offset=".198" stop-color="#743498" stop-opacity=".6"/></linearGradient><linearGradient id="paint8_linear" x1="96.916" y1="29.049" x2="90.64" y2="26.242" gradientUnits="userSpaceOnUse"><stop stop-color="#0ACFCF"/><stop offset="1" stop-color="#743498" stop-opacity=".6"/></linearGradient><linearGradient id="paint9_linear" x1="96.995" y1="22.197" x2="89.701" y2="17.131" gradientUnits="userSpaceOnUse"><stop stop-color="#0ACFCF"/><stop offset="1" stop-color="#743498" stop-opacity=".6"/></linearGradient><linearGradient id="paint10_linear" x1="57.242" y1="27.17" x2="55.355" y2="35.225" gradientUnits="userSpaceOnUse"><stop stop-color="#0ACFCF"/><stop offset="1" stop-color="#743498" stop-opacity=".6"/></linearGradient><linearGradient id="paint11_linear" x1="80.697" y1="28.59" x2="56.937" y2="18.53" gradientUnits="userSpaceOnUse"><stop stop-color="#0ACFCF"/><stop offset="1" stop-color="#743498" stop-opacity=".6"/></linearGradient><linearGradient id="paint12_linear" x1="79.966" y1="30.392" x2="75.716" y2="24.605" gradientUnits="userSpaceOnUse"><stop stop-color="#0ACFCF"/><stop offset="1" stop-color="#743498" stop-opacity=".6"/></linearGradient><linearGradient id="paint13_linear" x1="79.014" y1="33.191" x2="83.133" y2="34.069" gradientUnits="userSpaceOnUse"><stop stop-color="#0ACFCF"/><stop offset="1" stop-color="#743498" stop-opacity=".6"/></linearGradient><linearGradient id="paint14_linear" x1="32.5" y1="23" x2="15.705" y2="20.846" gradientUnits="userSpaceOnUse"><stop stop-color="#0ACFCF"/><stop offset="1" stop-color="#743498" stop-opacity=".6"/></linearGradient><linearGradient id="paint15_linear" x1="27" y1="28.5" x2="17.942" y2="26.125" gradientUnits="userSpaceOnUse"><stop stop-color="#0ACFCF"/><stop offset="1" stop-color="#743498" stop-opacity=".6"/></linearGradient><linearGradient id="paint16_linear" x1="90.439" y1="28.328" x2="88.248" y2="33.368" gradientUnits="userSpaceOnUse"><stop stop-color="#0ACFCF"/><stop offset="1" stop-color="#743498" stop-opacity=".6"/></linearGradient></defs></svg>