<svg viewBox="0 0 25 24" fill="none" xmlns="http://www.w3.org/2000/svg"><path fill-rule="evenodd" clip-rule="evenodd" d="M7.842 2.294A1.215 1.215 0 007.039 2H3.71a1.216 1.216 0 00-1.148.823 1.204 1.204 0 00-.059.487 20.82 20.82 0 003.24 9.124l.004.007c1.62 2.543 3.78 4.7 6.33 6.316l.007.005a20.919 20.919 0 009.1 3.234 1.217 1.217 0 001.213-.72c.068-.155.102-.32.101-.489v-.12l-.002-.321a625.32 625.32 0 01-.003-1.014c-.001-.752-.002-1.598.006-1.886a1.205 1.205 0 00-1.039-1.225 15.229 15.229 0 01-3.322-.827h-.002a1.217 1.217 0 00-1.28.272l-1.401 1.398a1 1 0 01-1.2.162 18.681 18.681 0 01-7.012-6.998 1 1 0 01.162-1.203l1.403-1.4a1.207 1.207 0 00.27-1.271v-.003c-.4-1.07-.679-2.183-.829-3.316a1.207 1.207 0 00-.408-.742zM7.024 0a3.215 3.215 0 013.207 2.759l.001.009c.13.985.372 1.951.72 2.882a3.203 3.203 0 01-.724 3.384l-.004.004-.852.85a16.68 16.68 0 005.222 5.21l.854-.852.004-.004a3.213 3.213 0 013.386-.721c.933.347 1.902.588 2.89.718h.008a3.214 3.214 0 012.763 3.257 114.68 114.68 0 00-.005 1.832l.003 1.01.002.32v.121a3.205 3.205 0 01-2.183 3.052 3.217 3.217 0 01-1.318.156l-.018-.002a22.919 22.919 0 01-9.978-3.541 22.548 22.548 0 01-6.938-6.925A22.82 22.82 0 01.514 3.514v-.016a3.204 3.204 0 011.9-3.224c.408-.18.849-.272 1.294-.273h3.315z" fill="#3955FE"/></svg>