<svg viewBox="0 0 24 25" fill="none" xmlns="http://www.w3.org/2000/svg"><path fill-rule="evenodd" clip-rule="evenodd" d="M14.5 2.003a4.5 4.5 0 100 9 4.5 4.5 0 000-9zM8 6.503A6.5 6.5 0 1120.364 9.31C22.456 10.754 24 12.946 24 15.573a7.151 7.151 0 01-1.028 3.664c-.224.37-.807 1.418-1.348 2.4-.268.485-.52.947-.707 1.286l-.222.407-.061.112-.016.03-.004.007-.001.002-.879-.478.878.478a1 1 0 01-.878.522h-2.578a1 1 0 01-.95-.689l-.364-1.11c-1.224.237-2.607.227-4-.005a6.566 6.566 0 01-.436 1.228l-.007.014-.003.005v.002l-.001.001-.895-.446.894.447a1 1 0 01-.894.553H7.216a1 1 0 01-1-1V21.93c-2.145-.61-4.28-1.657-5.905-3.203A1 1 0 010 18.003v-4.267a1 1 0 01.995-1H1l.046-.002a4.34 4.34 0 00.946-.172c.466-.14.967-.378 1.38-.779l-.82-2.464a1 1 0 011.191-1.286l3.564.89.94-.64A6.505 6.505 0 018 6.502zm6.5 6.5a6.482 6.482 0 004.732-2.044C20.952 12.148 22 13.79 22 15.573c0 .906-.263 1.844-.738 2.627-.25.414-.859 1.508-1.39 2.472-.269.487-.523.95-.71 1.291l-.02.04H17.88l-.43-1.312a1 1 0 00-1.267-.637c-1.273.424-3.07.446-4.942-.021a1 1 0 00-1.242.97c0 .328-.08.688-.18 1H8.216v-.846a1 1 0 00-.77-.973C5.431 19.707 3.466 18.828 2 17.56v-2.94a6.27 6.27 0 00.57-.144c.846-.255 1.945-.784 2.741-1.888a1 1 0 00.138-.901l-.424-1.272 2.232.558a1 1 0 00.807-.144L9.1 10.12a6.493 6.493 0 005.4 2.882zm-6.5 2a1 1 0 11-2 0 1 1 0 012 0zm5-8a2 2 0 012-2 1 1 0 100-2 4 4 0 00-4 4 1 1 0 102 0z" fill="#B0BEC5"/></svg>