<svg viewBox="0 0 24 24" fill="none" xmlns="http://www.w3.org/2000/svg"><path fill-rule="evenodd" clip-rule="evenodd" d="M3.332 2.332C3.097 2.567 3 2.825 3 3v4.5h18V3c0-.175-.098-.433-.332-.668C20.433 2.097 20.175 2 20 2H4c-.175 0-.433.097-.668.332zM21 9.5H3v5h18v-5zm0 7H3V21a1 1 0 001 1h16a1 1 0 001-1v-4.5zM1.918.918C2.433.403 3.175 0 4 0h16c.825 0 1.567.403 2.082.918C22.597 1.433 23 2.175 23 3v18a3 3 0 01-3 3H4a3 3 0 01-3-3V3c0-.825.403-1.567.918-2.082zM5 5a1 1 0 011-1h.01a1 1 0 010 2H6a1 1 0 01-1-1zm1 6a1 1 0 100 2h.01a1 1 0 100-2H6zm-1 8a1 1 0 011-1h.01a1 1 0 110 2H6a1 1 0 01-1-1z" fill="#188ED6"/></svg>