<svg viewBox="0 0 46 46" fill="none" xmlns="http://www.w3.org/2000/svg"><path d="M38 20l-2.848-4.985A4 4 0 0031.679 13H14.32a4 4 0 00-3.473 2.015L8 20H7c0-1.759-.773-1.97-3-1.997A.994.994 0 003 19v1.404a1 1 0 00.525.88L5 22.08c-.738.591-1.468 1.256-2 1.92-1.6 2-2 4-2 4v13a2 2 0 002 2h6a2 2 0 002-2v-2h24v2a2 2 0 002 2h6a2 2 0 002-2V28s-.5-2-2-4c-.443-.664-1.144-1.329-1.882-1.92l1.38-.792a1 1 0 00.502-.867V19a.994.994 0 00-1-.997c-2.227.026-3 .238-3 1.997h-1z" fill="#fff"/><path d="M38.477 20l-2.598-4.88a4 4 0 00-3.53-2.12H17.82a4 4 0 00-3.473 2.015L11.5 20 9 22s2.5 3 1 5c-1.105 1.474-6 1-6 1v13a2 2 0 002 2h2.318a2 2 0 002-2v-2h25.364v2a2 2 0 002 2H43a2 2 0 002-2V28s-.466-2-1.864-4c-.412-.664-1.065-1.329-1.753-1.92l1.278-.787a1 1 0 00.475-.851V19a.992.992 0 00-1-.996c-2.022.03-2.727.257-2.727 1.996h-.932z" fill="#ADC6FE"/><path d="M35 20l-2.848-4.985A4 4 0 0028.679 13H17.32a4 4 0 00-3.473 2.015L11 20l-2.5 2S6.82 23.057 6 24c-.356.409-1 1-1 1l5 1.5c0 1.5-5.284-.34-5.35-.19A18.94 18.94 0 004 28v11H1v2a2 2 0 002 2h3a2 2 0 002-2v-1l2.636-1H12.5s.5-1 1-1.5S16 37 16 37h19l.364 2v2a2 2 0 002 2H40a2 2 0 002-2V28h-5v-.5l5-.5s-1.277-2.305-1.727-3c-.063-.109-6.773 3-7.273 3.5-2 .5-9.878 1.602-10 1.5-.075-.062 8.5-3 8.5-3s1.906-1.703 2.5-2c.594-.297 5.276-.956 5.215-1-.436-.319-.9-.628-1.215-.92L35 20z" fill="#E9EFFF"/><path d="M28 13a5 5 0 01-10 0s-8-3-6.5-6c2-4 7.5-7 11.5-7s9.5 3 11.5 7c1.5 3-6.5 6-6.5 6z" fill="#fff"/><path d="M38 20l-2.848-4.985A4 4 0 0031.679 13H28.5m9.5 7h1c0-1.759.773-1.97 3-1.997A.994.994 0 0143 19v1.421a1 1 0 01-.502.867l-1.38.792M38 20s1.635.892 3.118 2.08M38 20H8m0 0l2.848-4.985A4 4 0 0114.321 13H17.5M8 20H7c0-1.759-.773-1.97-3-1.997A.994.994 0 003 19v1.404a1 1 0 00.525.88L5 22.08M8 20s-1.516.892-3 2.08M3 24c-1.6 2-2 4-2 4m2-4l8 2m-8-2c.532-.664 1.262-1.329 2-1.92M43 24c1.5 2 2 4 2 4m-2-4l-8 2m8-2c-.443-.664-1.144-1.329-1.882-1.92M1 28l1.155.578a4 4 0 001.79.422h2.914a4 4 0 003.329-1.781L11 26M1 28v4m44-4l-1.155.578a4 4 0 01-1.79.422h-2.914a4 4 0 01-3.328-1.781L35 26m10 2v4m0 7v-7m0 7v2a2 2 0 01-2 2h-6a2 2 0 01-2-2v-2m10 0h-9M1 39v-7m0 7v2a2 2 0 002 2h6a2 2 0 002-2v-2M1 39h9m1-13l2 2 10 2 10-2 2-2M1 32h3m0 0h2.172a2 2 0 011.414.586v0a2 2 0 010 2.828v0A2 2 0 016.172 36h-.05A2.121 2.121 0 014 33.879V32zm41 0h-3m0 0h-2.172a2 2 0 00-1.414.586v0a2 2 0 000 2.828v0a2 2 0 001.414.586h.05C41.05 36 42 35.05 42 33.879V32zm-31 7h-1m1 0h3m21 0h1m-1 0H18m-8 0l.342-.683A6 6 0 0115.708 35h14.584a6 6 0 015.366 3.317L36 39" stroke="#3955FE" stroke-width="2" stroke-linecap="round" stroke-linejoin="round"/><circle cx="23" cy="13" r="2" stroke="#3955FE" stroke-width="2"/><path d="M28.197 10A5.998 5.998 0 0023 7a5.998 5.998 0 00-5.197 3" stroke="#3955FE" stroke-width="2" stroke-linecap="round"/><path d="M31.662 8A9.996 9.996 0 0023 3a9.996 9.996 0 00-8.662 5" stroke="#3955FE" stroke-width="2" stroke-linecap="round"/></svg>