<svg viewBox="0 0 46 46" fill="none" xmlns="http://www.w3.org/2000/svg"><path d="M28 3H6a2 2 0 00-2 2v36a2 2 0 002 2h22a2 2 0 002-2v-5a2 2 0 012-2h8a2 2 0 002-2V18a2 2 0 00-2-2h-8a2 2 0 01-2-2V5a2 2 0 00-2-2z" fill="#fff"/><path d="M7.606 43H28a2 2 0 002-2v-5a2 2 0 012-2h8a2 2 0 002-2V18a2 2 0 00-2-2H23a2 2 0 00-2 2v1.5a1.5 1.5 0 01-3 0V17a2 2 0 012-2h8a2 2 0 002-2V5a2 2 0 00-2-2h-7.5A1.5 1.5 0 0019 4.5 1.5 1.5 0 0117.5 6H9a2 2 0 00-2 2v31.225a2 2 0 01-2.632 1.898L4 41l2.496 1.664a2 2 0 001.11.336z" fill="#E9EFFF"/><path d="M14.5 43H28a2 2 0 002-2v-6a1 1 0 001-1v-1a2 2 0 00-2-2H19a1 1 0 00-1 1v.414c0 .375.149.735.414 1l1.172 1.172c.265.265.414.625.414 1 0 .78.633 1.414 1.414 1.414H26.5a1.5 1.5 0 010 3H7a2 2 0 00-2 2v1h9.5zM30 16V5.414a1 1 0 00-.293-.707c-.63-.63-1.707-.184-1.707.707V15h-7.5a2 2 0 00-1.6.8l-.5.667a2 2 0 00-.4 1.2V23.5a.5.5 0 001 0v-5.793A1.707 1.707 0 0120.707 16H30z" fill="#ADC6FE"/><path d="M22 3h4a4 4 0 014 4v5m-8-9v1a2 2 0 01-2 2h-6a2 2 0 01-2-2V3m10 0H12m0 0H8a4 4 0 00-4 4v32a4 4 0 004 4h18a4 4 0 004-4v-1" stroke="#3955FE" stroke-width="2" stroke-linecap="round" stroke-linejoin="round"/><path d="M19 39h-4m-5-16H9m5 4h-1m6 0h-1m6 0h-1m-9-4h-1" stroke="#3955FE" stroke-width="2" stroke-linecap="round"/><path d="M17 24a1 1 0 102 0h-2zm2 6a1 1 0 10-2 0h2zm21 3H20v2h20v-2zM20 17h20v-2H20v2zm21 5v10h2V22h-2zm1-1H18v2h24v-2zm-23 1v-2h-2v2h2zm0-2v-2h-2v2h2zm22-2v2h2v-2h-2zm0 2v2h2v-2h-2zm-23 1h24v-2H18v2zm2 12a1 1 0 01-1-1h-2a3 3 0 003 3v-2zm20 2a3 3 0 003-3h-2a1 1 0 01-1 1v2zm0-18a1 1 0 011 1h2a3 3 0 00-3-3v2zm-20-2a3 3 0 00-3 3h2a1 1 0 011-1v-2zm-1 9v-2h-2v2h2zm0 8v-2h-2v2h2z" fill="#3955FE"/><circle cx="36" cy="28" r="3" fill="#ADC6FE"/><path d="M32 28a1 1 0 011.166-.986A3.01 3.01 0 0134.5 25.4a3 3 0 100 5.197 3.01 3.01 0 01-1.334-1.612A1 1 0 0132 28zm3.834-.986a2.995 2.995 0 010 1.972 1 1 0 010-1.972z" fill="#3955FE"/></svg>