<svg viewBox="0 0 46 46" fill="none" xmlns="http://www.w3.org/2000/svg"><path d="M4 23C4 12.507 12.507 4 23 4s19 8.507 19 19-8.507 19-19 19S4 33.493 4 23z" fill="#fff"/><path d="M33 32V17a2 2 0 00-2-2h-7c-4 0-7.5 2-8 7h-3v10a2 2 0 002 2h16a2 2 0 002-2z" fill="#E9EFFF"/><path d="M37.557 12.411a1 1 0 10-1.616 1.178l1.616-1.178zM16.42 37.59a1 1 0 00-.823 1.822l.823-1.822zm-.564 1.937a1 1 0 00.795-1.835l-.794 1.835zm4.32-.774a1 1 0 00-.35 1.969l.35-1.97zM39 23c0 8.837-7.163 16-16 16v2c9.941 0 18-8.059 18-18h-2zm-3.059-9.411A15.923 15.923 0 0139 23h2c0-3.956-1.278-7.617-3.443-10.589l-1.616 1.178zM16.65 37.69a15.815 15.815 0 01-.23-.102l-.824 1.822c.086.04.173.078.26.115l.794-1.835zM23 39c-.965 0-1.909-.085-2.825-.248l-.35 1.969c1.031.183 2.092.279 3.175.279v-2z" fill="#ADC6FE"/><path d="M8.443 33.589a1 1 0 101.616-1.178L8.443 33.59zM29.588 8.415a1 1 0 00.824-1.823l-.824 1.823zm-3.763-1.167a1 1 0 00.35-1.969l-.35 1.97zm4.312-.778a1 1 0 10-.794 1.836l.794-1.836zM7 23c0-8.837 7.163-16 16-16V5C13.059 5 5 13.059 5 23h2zm3.059 9.411A15.923 15.923 0 017 23H5c0 3.956 1.278 7.617 3.443 10.589l1.616-1.178zM23 7c.965 0 1.909.085 2.825.248l.35-1.969A18.103 18.103 0 0023 5v2zm6.343 1.306l.245.109.824-1.823a17.953 17.953 0 00-.275-.122l-.794 1.836z" fill="#E9EFFF"/><path d="M32 32V19a2 2 0 00-2 2v6a4 4 0 01-4 4H13v1c0 1.105-.105 2 1 2h16a2 2 0 002-2z" fill="#ADC6FE"/><path d="M33 32V14a2 2 0 00-2-2h-7c-6.075 0-11 4.925-11 11v9a2 2 0 002 2h16a2 2 0 002-2z" stroke="#3955FE" stroke-width="2"/><path d="M33 22H14m15-9v5M13 30h4v4m0-4v-3a1 1 0 011-1h2a1 1 0 011 1v2a1 1 0 01-1 1h-3zm4 3v-3h4v3a1 1 0 01-1 1h-2a1 1 0 01-1-1zm4-3v-3a1 1 0 011-1h2a1 1 0 011 1v2a1 1 0 01-1 1h-3z" stroke="#3955FE" stroke-width="2" stroke-linecap="round"/><path d="M37 10.155l.207-.979a1 1 0 00-1.175.727l.968.252zM32.473 7.69a1 1 0 001.054-1.7l-1.054 1.7zM13.527 38.31a1 1 0 00-1.054 1.7l1.054-1.7zM9.144 36l-.235.972a1 1 0 001.212-.763L9.144 36zm1.834-3.79a1 1 0 10-1.956-.42l1.956.42zm-5.743 1.818a1 1 0 10-.47 1.944l.47-1.944zm29.797-20.28a1 1 0 001.936.504l-1.936-.504zm5.761-1.77a1 1 0 00.414-1.956l-.414 1.956zM41 23c0 9.941-8.059 18-18 18v2c11.046 0 20-8.954 20-20h-2zM5 23c0-9.941 8.059-18 18-18V3C11.954 3 3 11.954 3 23h2zm31.263-12.17A17.932 17.932 0 0141 23h2c0-5.213-1.996-9.962-5.263-13.522l-1.474 1.353zM23 5c3.478 0 6.722.985 9.473 2.691l1.054-1.7A19.911 19.911 0 0023 3v2zm0 36a17.91 17.91 0 01-9.473-2.691l-1.054 1.7A19.911 19.911 0 0023 43v-2zM9.873 35.316A17.934 17.934 0 015 23H3a19.934 19.934 0 005.414 13.684l1.459-1.368zm.248.893l.857-4-1.956-.418-.856 4 1.955.418zm-.743-1.181l-4.143-1-.47 1.944 4.144 1 .47-1.944zM36.032 9.903l-1 3.845 1.936.504 1-3.846-1.936-.503zm.761 1.23l4 .845.414-1.956-4-.846-.414 1.957z" fill="#3955FE"/></svg>