<svg viewBox="0 0 46 46" fill="none" xmlns="http://www.w3.org/2000/svg"><rect x="1" y="1" width="44" height="44" rx="22" fill="#fff"/><rect x="3" y="5" width="40" height="40" rx="20" fill="#E9EFFF"/><path d="M9.573 33.428C12.683 37.427 17.54 40 23 40c9.389 0 17-7.611 17-17 0-5.459-2.573-10.317-6.573-13.427A16.927 16.927 0 0137 20c0 9.389-7.611 17-17 17-3.93 0-7.548-1.333-10.427-3.572z" fill="#ADC6FE"/><path d="M3 26a1 1 0 100-2v2zm-1 0h1v-2H2v2zm4-12a1 1 0 100-2v2zm-1 0h1v-2H5v2zm-1 4a1 1 0 100-2v2zm-1 0h1v-2H3v2zm0 4a1 1 0 100-2v2zm-1 0h1v-2H2v2zm2 8a1 1 0 100-2v2zm-1 0h1v-2H3v2zm3 4a1 1 0 100-2v2zm-1 0h1v-2H5v2zm38-14a1 1 0 100 2v-2zm1 0h-1v2h1v-2zm-4 12a1 1 0 100 2v-2zm1 0h-1v2h1v-2zm1-4a1 1 0 100 2v-2zm1 0h-1v2h1v-2zm0-4a1 1 0 100 2v-2zm1 0h-1v2h1v-2zm-2-8a1 1 0 100 2v-2zm1 0h-1v2h1v-2zm-3-4a1 1 0 100 2v-2zm1 0h-1v2h1v-2z" fill="#3955FE"/><rect x="2" y="2" width="42" height="42" rx="21" stroke="#3955FE" stroke-width="2"/><path d="M35.236 33.31a1 1 0 001.528 1.29l-1.528-1.29zm-2.706 4.963a1 1 0 00-1.06-1.696l1.06 1.696zM23 39c-8.837 0-16-7.163-16-16H5c0 9.941 8.059 18 18 18v-2zm0-32c8.837 0 16 7.163 16 16h2c0-9.941-8.059-18-18-18v2zm0-2C13.059 5 5 13.059 5 23h2c0-8.837 7.163-16 16-16V5zm16 18c0 3.93-1.415 7.525-3.764 10.31l1.528 1.29A17.932 17.932 0 0041 23h-2zm-7.53 13.577A15.921 15.921 0 0123 39v2a17.92 17.92 0 009.53-2.727l-1.06-1.696z" fill="#3955FE"/><path d="M19 34a2 2 0 012-2h4a2 2 0 110 4h-4a2 2 0 01-2-2z" stroke="#3955FE" stroke-width="2"/><rect x="10" y="24" width="4" height="4" rx="2" stroke="#3955FE" stroke-width="2"/><path d="M12 20c0-4.756 3.383-8.766 8-10m14 10c0-4.756-3.383-8.766-8-10" stroke="#3955FE" stroke-width="2" stroke-linecap="round" stroke-linejoin="round"/><rect x="32" y="24" width="4" height="4" rx="2" stroke="#3955FE" stroke-width="2"/><path d="M21.91 15L23 16.09m0 0L24.09 15M23 16.09v2.183m0 0l-2.182 1.09M23 18.274l2.182 1.09m-4.364 0v3.273m0-3.272l-2.182-1.091m2.182 4.363L23 23.727m-2.182-1.09l-2.182 1.09m4.364 0l2.182-1.09M23 23.726v2.182m2.182-3.273v-3.272m0 3.272l2.114 1.057m-2.114-4.33l2.182-1.09m0 0l.545-1.637m-.545 1.637l1.636.545m-6 7.091L21.91 27M23 25.91L24.09 27m-5.454-3.273L17 23.182m1.636.545l-.545 1.637m.545-7.091l-.545-1.637m.545 1.637L17 18.818m10.91 6.546l-.546-1.637-.069-.034m0 0L29 23.182" stroke="#3955FE" stroke-width="2" stroke-linecap="round" stroke-linejoin="round"/></svg>