<svg viewBox="0 0 46 46" fill="none" xmlns="http://www.w3.org/2000/svg"><path fill-rule="evenodd" clip-rule="evenodd" d="M41 20V8c0-2.63-1.359-5-4-5H5C2.359 3 1 5.37 1 8v19c0 2.63 2.359 4 5 4h4v5c0 .5.5.5 1 0l6-5h4v4c0 2.63 1.359 4 4 4h7l7 3.5c.623.331 1 .209 1-.5v-3c2.641 0 5-1.941 5-4.571V23.952C45 21.65 43 20 41 20z" fill="#fff"/><path fill-rule="evenodd" clip-rule="evenodd" d="M41 20V8c0-3-2-5-5-5H9C6 3 4 5 4 8v19c0 3 2 4 5 4h1v5c0 .5.5.5 1 0l6-5h4v4c0 2.63 3.359 4 6 4h5l7 3.5c.623.331 1 .209 1-.5v-3c2.641 0 5-1.941 5-4.571V23.952C45 21.65 43 20 41 20z" fill="#E9EFFF"/><path fill-rule="evenodd" clip-rule="evenodd" d="M41 20V8c0-2.27-1.144-3.966-3-4.658v22.61C38 27 37 28 36 28H16l-6 8 7-5h6v4c0 2 1 4 3.5 4h5.307c.128 0 .254.024.372.072L37 41l3 2v-4c2.641 0 5-1.941 5-4.571V23.952C45 21.65 43 20 41 20z" fill="#ADC6FE"/><path d="M21 35a4 4 0 004 4h7.5l7.5 4v-4h1a4 4 0 004-4V24a4 4 0 00-4-4" stroke="#3955FE" stroke-width="2" stroke-linecap="round" stroke-linejoin="round"/><path d="M17 3h8m-8 0v11m0-11H6.455M25 3v11m0-11h10.545M17 14H1m16 0L6.455 3M1 14V7a4 4 0 014-4h1.455M1 14v5.838M25 14L35.545 3M25 14h6m10 0v6m0-6V7a4 4 0 00-4-4h-1.455M41 14h-5m5 6H25m16 0v7a4 4 0 01-4 4h-1.455M25 20v11m0-11l10.545 11M25 31h10.545M25 31l-8-.04M1 19.837L17 20m-16-.162V27a4 4 0 004 4h1.455M17 20v10.96M17 20L6.455 31M17 30.96L10 37v-6H6.455" stroke="#3955FE" stroke-width="2" stroke-linecap="round" stroke-linejoin="round"/></svg>