<svg viewBox="0 0 46 46" fill="none" xmlns="http://www.w3.org/2000/svg"><path fill-rule="evenodd" clip-rule="evenodd" d="M15.533 1.017c-2.612.216-4.666 2.458-4.666 5.19V8.13c0 1.85 1.462 3.348 3.266 3.348.8 0 1.533-.294 2.1-.783.123.14.146.19.165.249.02.06.043 1.17.055 1.42l.005.114C12.338 12.483 9 15.908 9 20.13v5.261c0 2.063 1.416 3.787 3.307 4.207 1.011.711 1.445 2.365 1.653 3.118a2.739 2.739 0 00-.76-.107h-.467c-1.546 0-2.8 1.284-2.8 2.87v3.658c0 3.215 2.485 5.863 5.6 5.863h14.934c3.115 0 5.6-2.648 5.6-5.863v-3.659c0-1.585-1.254-2.87-2.8-2.87H32.8c-.263 0-.518.038-.76.108.208-.753.642-2.407 1.653-3.118 1.89-.42 3.307-2.144 3.307-4.207v-5.26c0-4.224-3.338-7.648-7.458-7.653l.005-.114c.012-.25.036-1.36.055-1.42.02-.06.042-.109.164-.25.568.49 1.3.784 2.1.784 1.805 0 3.267-1.499 3.267-3.348V6.208c0-2.733-2.054-4.975-4.666-5.19V1H15.533v.017z" fill="#fff"/><path d="M36 38v-3.487c0-.836-.716-1.513-1.6-1.513h-.8c-.884 0-1.6.677-1.6 1.513v3.025L36 38z" fill="#ADC6FE"/><path d="M36.53 41.144l.44-2.232a1.618 1.618 0 00-.325-1.328A1.556 1.556 0 0035.43 37h-.44a3.9 3.9 0 01-.557.544C33.327 38.456 30.374 40.2 24 40.2V45h7.914c2.244 0 4.175-1.614 4.616-3.856z" fill="#ADC6FE"/><path d="M33.97 39.284s-.102 1.32-.405 2.096c-.796 2.033-2.19 3.62-4.262 3.62H16.698c-2.072 0-3.466-1.587-4.262-3.62-.304-.776-.406-2.096-.406-2.096A1.515 1.515 0 0112.363 38c1.022.856 3.747 2.493 9.633 2.493.348 0 .681-.007 1.008-.014.319.007.652.014 1 .014 5.886 0 8.611-1.637 9.633-2.493.301.349.425.825.333 1.284z" fill="#E9EFFF"/><path d="M33 38s-2.143 2-10 2-10-2-10-2h20z" fill="#E9EFFF"/><path d="M35 5.466v2.267a2.2 2.2 0 01-.702 1.604A2.47 2.47 0 0132.6 10c-.881-.006-1.594-.679-1.6-1.511V1c2.31.366 4.001 2.254 4 4.466z" fill="#ADC6FE"/><path d="M34 10h-3c-1 0-1.5 1-1.5 2v1h-13v-1c0-1-.5-2-1.5-2h-2.5A1.488 1.488 0 0014 8.5V1h18v7.5c.002.827 1.148 1.498 2 1.5z" fill="#E9EFFF"/><path d="M37 19.27v6.776c0 .57-.718 3.147-2.334 3.764-.88.336-1.615.251-2.41.068C31.111 29.576 30 28.62 30 26.046c0-5.225 1.524-5.27.801-11.865L30.778 14h.777a5.532 5.532 0 013.851 1.543A5.18 5.18 0 0137 19.27z" fill="#ADC6FE"/><path d="M34 18.884v6.503c0 .555-.643 3.556-2.408 3.612-1.804.058-2.592-2.511-2.592-3.612 0-5.014 1.573-5.058.827-11.387 2.462.585 4.177 2.591 4.173 4.884zm-22 0v6.503c0 .555.514 3.556 1.926 3.612C15.37 29.057 16 26.488 16 25.387c0-5.014-1.258-5.058-.661-11.387-1.97.585-3.342 2.591-3.339 4.884z" fill="#E9EFFF"/><path d="M34 29.516c-.008 0-.008.008-.016.008a4.024 4.024 0 01-.578.296 3.127 3.127 0 00-1.826 2.907V38H17l-3-2v-3.5s3.5-.18 4 1.32c.025-1.246-.416-2.393-1-3.82-.33-.808-1-2-1-2 .438-.56.747-1.172.747-2.5 0-5.469-1.562-5.469-.78-12.5h14.052c.78 7.031-.781 7.031-.781 12.5s4.684 3.906 4.684 3.906l.078.11z" fill="#ADC6FE"/><path d="M11 5.444A4.444 4.444 0 0115.444 1H16v7.5a2.5 2.5 0 01-5 0V5.444zM10 35a2 2 0 012-2h.5a2 2 0 012 2v2H10v-2z" stroke="#3955FE" stroke-width="2"/><path d="M9 37.513c0-.33.32-.568.648-.502a.35.35 0 01.122.054c.606.392 6.121 3.832 13.23 3.832s12.624-3.44 13.23-3.832a.35.35 0 01.122-.054c.328-.066.648.172.648.502v2.358C37 42.703 34.59 45 31.615 45h-17.23C11.41 45 9 42.703 9 39.87v-2.357z" stroke="#3955FE" stroke-width="2"/><path d="M31.5 35a2 2 0 012-2h.5a2 2 0 012 2v2h-4.5v-2z" stroke="#3955FE" stroke-width="2"/><path d="M16 13l.97.242.31-1.242H16v1zm-5.599 1.286a1 1 0 101.4 1.428l-1.4-1.428zm-.153 4a1 1 0 10-1.917-.571l1.917.57zM10 25.5V20H8v5.5h2zm2.5 2.5a2.5 2.5 0 01-2.5-2.5H8a4.5 4.5 0 004.5 4.5v-2zM16 13l-.97-.242-.001.003-.002.006A18.224 18.224 0 0014.5 17h2c0-.924.116-1.865.236-2.586a19.307 19.307 0 01.234-1.172L16 13zm-1.5 4c0 1.613.27 2.95.524 4.092.261 1.176.476 2.045.476 2.908h2c0-1.137-.285-2.268-.524-3.342C16.73 19.55 16.5 18.387 16.5 17h-2zm1 7c0 1.899-.392 2.839-.84 3.316-.428.457-1.093.684-2.16.684v2c1.304 0 2.64-.273 3.619-1.316.96-1.023 1.381-2.583 1.381-4.684h-2zm.5-12c-2.18 0-4.157.873-5.599 2.286l1.4 1.428A5.977 5.977 0 0116 14v-2zm-7.669 5.715A8 8 0 008 20h2c0-.597.087-1.173.248-1.715l-1.917-.57z" fill="#3955FE"/><path d="M37 20a7 7 0 00-7-7s.5 2 .5 4c0 3-1 5-1 7 0 4 1.628 5 4 5a3.5 3.5 0 003.5-3.5V20zM30 1h.556A4.444 4.444 0 0135 5.444V8.5a2.5 2.5 0 01-5 0V1zM12 29c3 2 2.5 4 2.5 8h17c0-4-.5-6 2.5-8M16 1h14v9c-1 1-1 1-1 3H17c0-2 0-2-1-3V1z" stroke="#3955FE" stroke-width="2"/></svg>