<svg viewBox="0 0 24 24" fill="none" xmlns="http://www.w3.org/2000/svg"><path fill-rule="evenodd" clip-rule="evenodd" d="M7.714 3C7.46 3 7 3.298 7 4v16c0 .703.459 1 .714 1h8.572c.255 0 .714-.297.714-1V4c0-.702-.459-1-.714-1H15a1 1 0 01-1 1h-4a1 1 0 01-1-1H7.714zM5 4c0-1.507 1.076-3 2.714-3h8.572C17.924 1 19 2.493 19 4v16c0 1.507-1.076 3-2.714 3H7.714C6.076 23 5 21.507 5 20V4zm6 14a1 1 0 011-1h.01a1 1 0 110 2H12a1 1 0 01-1-1zM2.466 7.115a1 1 0 01.419 1.35A7.545 7.545 0 002 12c0 1.255.314 2.45.885 3.534a1 1 0 11-1.77.932A9.545 9.545 0 010 12c0-1.596.4-3.11 1.115-4.466a1 1 0 011.35-.419zm18.65 8.42a1 1 0 001.769.93A9.544 9.544 0 0024 12c0-1.596-.4-3.11-1.115-4.466a1 1 0 00-1.77.932C21.685 9.55 22 10.745 22 12s-.314 2.45-.885 3.534z" fill="#3955FE"/></svg>