<svg xmlns="http://www.w3.org/2000/svg" fill="none" viewBox="0 0 100 33"><mask id="a" fill="#fff"><path d="M63.048.7c2.042.213 5.105.825 7.098 1.41 4.707 1.38 11.692 3.958 15.315 5.653l1.993.926 2.29-.157c1.258-.1 2.317-.142 2.341-.1.15.171-.522.357-1.755.499-1.507.17-1.843.3-.81.3 1.694 0 4.906.81 6.201 1.551 1.233.727 1.308 1.012.884 3.66-.336 2.151-.448 3.69-.261 3.817.075.057.51.171.959.242 1.07.171 1.706.556 1.967 1.197.41.982.386 3.047-.062 5.511-.15.755-.25.826-1.768 1.111-.523.085-1.146.342-1.644.655-.635.399-.971.513-1.706.57a11.26 11.26 0 00-1.668.285c-.424.114-1.57.256-2.54.327-.984.071-1.818.2-1.856.27-.037.086-.722.2-1.494.257l-1.42.1.088-.342c.697-2.848.062-5.697-1.719-7.648-2.266-2.492-5.565-2.82-8.205-.826-2.204 1.68-3.312 5.027-2.64 7.99.112.456.174.911.137 1.01-.112.343-1.345.684-2.316.656-.51-.014-5.865-.071-11.891-.114-12.315-.085-29.697.142-29.834.399-.05.1-.411.128-1.009.085-.697-.057-1.083-.17-1.569-.47-.36-.213-.647-.455-.647-.512 0-.057.087-.485.187-.94.236-1.026.236-2.735 0-3.732-.598-2.592-2.578-4.828-4.794-5.411-.847-.228-2.478-.186-3.25.07-1.718.585-3.312 2.052-4.072 3.76-.224.513-.498 1.453-.61 2.094-.187.997-.2 1.324-.062 2.321.075.627.249 1.425.386 1.766l.236.627-.572.114c-.897.157-7.533.17-7.72.014-.087-.085-.15-.47-.15-.954v-.812l-1.22-.1c-1.258-.1-2.59-.384-2.764-.598-.05-.07-.125-.797-.162-1.623-.062-1.481-.062-1.481.124-.826.1.384.225.683.287.683.187 0 .386-.555.348-.968-.024-.313-.112-.399-.423-.427-.61-.071-1.183-1.083-1.257-2.236-.088-1.154.1-1.396 1.294-1.638.835-.17.885-.2 1.22-.826.773-1.381 2.516-2.99 4.21-3.874 2.178-1.125 5.964-2.335 10.035-3.204 4.483-.954 10.136-1.923 11.269-1.923.548-.014.834-.142 2.191-1.01 3.039-1.966 7.907-4.587 11.643-6.267 1.02-.47 2.004-.926 2.179-1.011.597-.314 3.623-.926 5.914-1.196C52.228.628 61.218.5 63.048.699zm4.42 1.267c-.174.384-.087.513.4.627 1.58.356 8.69 3.29 12.301 5.084 3.387 1.666 3.126 1.58 4.607 1.524.723-.029 1.47-.143 1.681-.243l.374-.185-.473-.27c-1.245-.74-8.617-3.717-12.166-4.928-2.066-.698-6.026-1.865-6.375-1.88-.124-.014-.274.114-.348.27zm-15.875.441c-4.072.442-8.206 2.08-12.016 4.786l-1.183.84-.037 2.307-.025 2.307h.336c1.507-.014 9.127-.342 13.336-.57 2.826-.156 5.64-.284 6.25-.284.947 0 1.109-.043 1.171-.257.037-.128.41-2.108.822-4.372.423-2.279.784-4.244.822-4.372.087-.313-.262-.385-2.752-.541a42.255 42.255 0 00-6.724.156zm-9.052.755c-5.367 2.492-9.887 4.942-13.597 7.406-1.183.783-1.109.868.734.769 1.52-.071 1.606-.128 4.67-2.279a101.683 101.683 0 018.056-5.07c1.27-.698 2.154-1.282 2.154-1.395 0-.314-.25-.243-2.017.57zm19.598 3.93c-.423 2.308-.772 4.288-.772 4.402 0 .17.324.185 1.955.1 2.217-.115 7.035-.556 9.376-.87.86-.114 1.62-.213 1.706-.213.075 0 .349-.712.598-1.567.66-2.264.735-2.164-2.926-3.532-3.512-1.296-8.903-2.848-9.102-2.606-.038.043-.424 1.98-.835 4.287zM35.493 9.188c-.448.37-.921 1.482-.996 2.322-.05.612-.025.712.274.925.286.214.535.243 1.643.171.748-.042 1.383-.142 1.482-.242.274-.27.262-2.805-.012-3.261-.2-.313-.274-.328-1.133-.27-.648.056-1.021.156-1.258.355zm60.129 4.23c-.71 1.11-.872 1.638-.884 2.848 0 .969.012.983.523 1.567l.535.584.075-1.353c.05-.74.162-1.937.274-2.635.31-2.122.336-2.464.174-2.15-.087.142-.398.655-.697 1.14zm-39.82.556c-.586.356-.71.697-.411 1.139.336.484 1.183.726 2.29.64 1.831-.142 2.367-1.281.885-1.908-.648-.27-2.217-.199-2.764.129zM6.518 17.518c-.585.213-1.98 1.666-2.154 2.236-.2.64-.037.783.797.669 2.528-.328 4.844-1.125 5.13-1.766.137-.27.012-.74-.236-.983-.511-.47-2.453-.57-3.537-.156zm-3.324 1.21c-.175.228-.411.57-.536.784-.211.384-.211.398.013.398.56 0 1.257-.356 1.63-.812.225-.27.412-.555.412-.626 0-.071-.274-.128-.598-.128-.498 0-.66.07-.921.384zm94.47 2.322c-.324.398-.324 1.595 0 1.993.498.627 1.058.114 1.058-.997 0-1.11-.56-1.623-1.058-.996zM3.119 23.315c-.062.769.15 1.58.41 1.58.574 0 .736-1.908.225-2.506-.299-.327-.56.043-.635.926zm4.607.043c-.037.228.075.256.959.256.76 0 1.008-.043 1.008-.185 0-.342-.161-.399-1.046-.356-.722.028-.884.085-.921.285z"/></mask><path d="M63.048.7c2.042.213 5.105.825 7.098 1.41 4.707 1.38 11.692 3.958 15.315 5.653l1.993.926 2.29-.157c1.258-.1 2.317-.142 2.341-.1.15.171-.522.357-1.755.499-1.507.17-1.843.3-.81.3 1.694 0 4.906.81 6.201 1.551 1.233.727 1.308 1.012.884 3.66-.336 2.151-.448 3.69-.261 3.817.075.057.51.171.959.242 1.07.171 1.706.556 1.967 1.197.41.982.386 3.047-.062 5.511-.15.755-.25.826-1.768 1.111-.523.085-1.146.342-1.644.655-.635.399-.971.513-1.706.57a11.26 11.26 0 00-1.668.285c-.424.114-1.57.256-2.54.327-.984.071-1.818.2-1.856.27-.037.086-.722.2-1.494.257l-1.42.1.088-.342c.697-2.848.062-5.697-1.719-7.648-2.266-2.492-5.565-2.82-8.205-.826-2.204 1.68-3.312 5.027-2.64 7.99.112.456.174.911.137 1.01-.112.343-1.345.684-2.316.656-.51-.014-5.865-.071-11.891-.114-12.315-.085-29.697.142-29.834.399-.05.1-.411.128-1.009.085-.697-.057-1.083-.17-1.569-.47-.36-.213-.647-.455-.647-.512 0-.057.087-.485.187-.94.236-1.026.236-2.735 0-3.732-.598-2.592-2.578-4.828-4.794-5.411-.847-.228-2.478-.186-3.25.07-1.718.585-3.312 2.052-4.072 3.76-.224.513-.498 1.453-.61 2.094-.187.997-.2 1.324-.062 2.321.075.627.249 1.425.386 1.766l.236.627-.572.114c-.897.157-7.533.17-7.72.014-.087-.085-.15-.47-.15-.954v-.812l-1.22-.1c-1.258-.1-2.59-.384-2.764-.598-.05-.07-.125-.797-.162-1.623-.062-1.481-.062-1.481.124-.826.1.384.225.683.287.683.187 0 .386-.555.348-.968-.024-.313-.112-.399-.423-.427-.61-.071-1.183-1.083-1.257-2.236-.088-1.154.1-1.396 1.294-1.638.835-.17.885-.2 1.22-.826.773-1.381 2.516-2.99 4.21-3.874 2.178-1.125 5.964-2.335 10.035-3.204 4.483-.954 10.136-1.923 11.269-1.923.548-.014.834-.142 2.191-1.01 3.039-1.966 7.907-4.587 11.643-6.267 1.02-.47 2.004-.926 2.179-1.011.597-.314 3.623-.926 5.914-1.196C52.228.628 61.218.5 63.048.699zm4.42 1.267c-.174.384-.087.513.4.627 1.58.356 8.69 3.29 12.301 5.084 3.387 1.666 3.126 1.58 4.607 1.524.723-.029 1.47-.143 1.681-.243l.374-.185-.473-.27c-1.245-.74-8.617-3.717-12.166-4.928-2.066-.698-6.026-1.865-6.375-1.88-.124-.014-.274.114-.348.27zm-15.875.441c-4.072.442-8.206 2.08-12.016 4.786l-1.183.84-.037 2.307-.025 2.307h.336c1.507-.014 9.127-.342 13.336-.57 2.826-.156 5.64-.284 6.25-.284.947 0 1.109-.043 1.171-.257.037-.128.41-2.108.822-4.372.423-2.279.784-4.244.822-4.372.087-.313-.262-.385-2.752-.541a42.255 42.255 0 00-6.724.156zm-9.052.755c-5.367 2.492-9.887 4.942-13.597 7.406-1.183.783-1.109.868.734.769 1.52-.071 1.606-.128 4.67-2.279a101.683 101.683 0 018.056-5.07c1.27-.698 2.154-1.282 2.154-1.395 0-.314-.25-.243-2.017.57zm19.598 3.93c-.423 2.308-.772 4.288-.772 4.402 0 .17.324.185 1.955.1 2.217-.115 7.035-.556 9.376-.87.86-.114 1.62-.213 1.706-.213.075 0 .349-.712.598-1.567.66-2.264.735-2.164-2.926-3.532-3.512-1.296-8.903-2.848-9.102-2.606-.038.043-.424 1.98-.835 4.287zM35.493 9.188c-.448.37-.921 1.482-.996 2.322-.05.612-.025.712.274.925.286.214.535.243 1.643.171.748-.042 1.383-.142 1.482-.242.274-.27.262-2.805-.012-3.261-.2-.313-.274-.328-1.133-.27-.648.056-1.021.156-1.258.355zm60.129 4.23c-.71 1.11-.872 1.638-.884 2.848 0 .969.012.983.523 1.567l.535.584.075-1.353c.05-.74.162-1.937.274-2.635.31-2.122.336-2.464.174-2.15-.087.142-.398.655-.697 1.14zm-39.82.556c-.586.356-.71.697-.411 1.139.336.484 1.183.726 2.29.64 1.831-.142 2.367-1.281.885-1.908-.648-.27-2.217-.199-2.764.129zM6.518 17.518c-.585.213-1.98 1.666-2.154 2.236-.2.64-.037.783.797.669 2.528-.328 4.844-1.125 5.13-1.766.137-.27.012-.74-.236-.983-.511-.47-2.453-.57-3.537-.156zm-3.324 1.21c-.175.228-.411.57-.536.784-.211.384-.211.398.013.398.56 0 1.257-.356 1.63-.812.225-.27.412-.555.412-.626 0-.071-.274-.128-.598-.128-.498 0-.66.07-.921.384zm94.47 2.322c-.324.398-.324 1.595 0 1.993.498.627 1.058.114 1.058-.997 0-1.11-.56-1.623-1.058-.996zM3.119 23.315c-.062.769.15 1.58.41 1.58.574 0 .736-1.908.225-2.506-.299-.327-.56.043-.635.926zm4.607.043c-.037.228.075.256.959.256.76 0 1.008-.043 1.008-.185 0-.342-.161-.399-1.046-.356-.722.028-.884.085-.921.285z" stroke="url(#paint0_linear)" stroke-width="4" mask="url(#a)"/><path d="M56.304 14.328a.07.07 0 01-.01-.008l.01.008z" stroke="url(#paint1_linear)" stroke-width="2"/><mask id="b" fill="#fff"><path d="M80.045 19.356c1.73.327 3.486 1.851 4.296 3.745 2.253 5.298-1.93 11.137-6.923 9.656-3.363-1.011-5.293-5.226-4.085-8.958.349-1.068 1.009-2.193 1.656-2.834.71-.712 2.092-1.438 3.063-1.623.91-.157 1.034-.157 1.993.014zm-2.403 2.122c-1.046.37-2.042 1.367-2.54 2.535-.312.712-.35.968-.35 2.164 0 1.268.026 1.41.424 2.25.772 1.624 1.93 2.465 3.561 2.564 1.32.071 2.217-.299 3.138-1.296.971-1.04 1.332-1.994 1.345-3.518 0-1.01-.05-1.338-.324-1.993-.585-1.439-1.569-2.407-2.839-2.792-.834-.256-1.506-.242-2.415.086z"/></mask><path d="M80.045 19.356l.372-1.965-.01-.002-.011-.002-.351 1.969zM84.34 23.1l1.84-.783-.001-.003-1.84.786zm-6.923 9.656l-.577 1.915.008.003.569-1.918zM73.333 23.8l-1.9-.62-.002.004 1.902.616zm1.656-2.834l1.407 1.422.01-.01-1.417-1.412zm3.063-1.623l-.34-1.971-.017.003-.017.003.374 1.965zm-.41 2.136l.667 1.885.01-.004-.677-1.881zm-2.54 2.535l1.832.8.004-.007.003-.009-1.84-.784zm.074 4.415l-1.807.857.001.002 1.806-.86zm3.561 2.563l-.122 1.996h.008l.007.001.107-1.997zm3.138-1.296l-1.461-1.365-.008.008 1.47 1.357zm1.345-3.518l2 .017v-.017h-2zm-.324-1.993l-1.852.753.003.01.004.008 1.845-.771zm-2.839-2.792l-.587 1.912.008.003.58-1.915zm-.384-.071c.963.182 2.233 1.172 2.828 2.566l3.679-1.572c-1.023-2.393-3.265-4.451-5.763-4.924l-.744 3.93zm2.827 2.563c.841 1.978.471 4.027-.529 5.422-.988 1.379-2.453 1.988-3.985 1.534l-1.137 3.835c3.461 1.026 6.584-.543 8.373-3.038 1.777-2.479 2.371-5.998.959-9.319l-3.68 1.566zm-4.507 6.958c-2.094-.63-3.685-3.56-2.757-6.427l-3.805-1.232c-1.488 4.595.782 10.097 5.41 11.49l1.153-3.831zm-2.758-6.422c.27-.83.784-1.66 1.161-2.033l-2.814-2.843c-.917.908-1.724 2.329-2.15 3.635l3.803 1.24zm1.17-2.043c.169-.168.507-.418.953-.653.445-.236.84-.374 1.069-.418l-.749-3.929c-.743.142-1.524.459-2.19.81-.665.352-1.373.822-1.915 1.366l2.833 2.824zm1.987-1.064c.478-.083.565-.088.624-.087.067 0 .172.009.678.099l.702-3.938c-.453-.08-.89-.158-1.353-.161-.47-.003-.899.07-1.33.145l.68 3.942zm-1.418-1.72c-1.655.585-3.031 2.038-3.712 3.635l3.68 1.57c.314-.74.93-1.28 1.367-1.435l-1.335-3.77zm-3.705 3.619c-.181.415-.346.837-.434 1.387-.077.483-.082 1-.082 1.578h4c0-.618.013-.826.032-.948.01-.056.02-.118.149-.415l-3.665-1.602zm-.516 2.965c0 .585 0 1.137.096 1.654.11.581.322 1.037.52 1.454l3.614-1.714c-.2-.424-.199-.46-.202-.477-.015-.08-.028-.233-.028-.917h-4zm.617 3.11c.495 1.04 1.171 1.95 2.095 2.616.934.674 2.007 1.015 3.15 1.084l.244-3.992c-.487-.03-.81-.16-1.054-.336-.257-.185-.545-.507-.823-1.09l-3.612 1.718zm5.26 3.701c.876.048 1.743-.046 2.59-.396.842-.348 1.526-.892 2.124-1.54l-2.938-2.714c-.323.35-.548.489-.714.557-.162.067-.404.123-.847.1l-.215 3.993zm4.707-1.927c.615-.66 1.112-1.373 1.439-2.23.324-.849.436-1.722.444-2.637l-4-.033c-.005.609-.079.975-.182 1.244-.099.26-.269.544-.624.925l2.923 2.73zm1.883-4.884c0-.513-.01-.986-.085-1.448a5.581 5.581 0 00-.394-1.317l-3.69 1.543c.104.248.123.333.135.41.02.12.034.315.034.813h4zm-.471-2.747c-.77-1.89-2.161-3.361-4.112-3.952l-1.16 3.829c.59.178 1.165.643 1.567 1.63l3.705-1.507zm-4.104-3.95c-1.27-.39-2.388-.35-3.681.116l1.356 3.763c.524-.189.752-.177 1.15-.055l1.175-3.823z" fill="url(#paint2_linear)" mask="url(#b)"/><mask id="c" fill="#fff"><path d="M80.045 21.748c1.133.4 2.316 1.652 2.665 2.82.273.926.249 2.279-.05 3.219-.56 1.695-2.017 2.862-3.599 2.862-1.233.015-2.042-.37-2.889-1.324-2.49-2.863-.722-7.747 2.79-7.69.423 0 .909.056 1.083.113zm-.623.912c0 .612.349 1.339.81 1.666.523.37 1.382.37 1.793.014l.298-.256-.273-.527c-.362-.655-.947-1.168-1.719-1.51-.548-.242-.61-.242-.76-.028a1.528 1.528 0 00-.149.64zm-1.83-.584c-.672.342-1.27.854-1.594 1.396-.374.626-.336.797.262 1.082 1.245.598 2.764-1.082 2.166-2.378-.15-.314-.349-.342-.834-.1zm1.98 2.834c.025.085.1.142.162.142s.137-.056.161-.142c.025-.085-.05-.157-.161-.157-.112 0-.187.072-.162.157zm-1.495 0c.025.085.1.142.162.142.063 0 .137-.056.162-.142.025-.085-.05-.157-.162-.157s-.186.072-.162.157zm.411.698c-.46.584.1 1.453.735 1.11.174-.085.324-.213.324-.27 0-.057.037-.2.075-.313.087-.27-.362-.812-.673-.812-.137 0-.336.128-.46.285zm3.113.142c-.76.541-1.033 1.795-.573 2.663.312.57.71.727.96.37.46-.654.709-1.438.771-2.363l.063-.955h-.411c-.225 0-.586.129-.81.285zm-6.213-.2c-.423.186-.174 1.824.448 2.935.324.598.399.655.648.527.684-.356.921-1.78.448-2.664-.336-.626-1.07-1.01-1.544-.797zm4.632.984c0 .07.062.156.137.185.075.028.137-.057.137-.185 0-.129-.062-.214-.137-.186-.075.029-.137.114-.137.186zm-2.366 0c0 .07.062.156.137.185.075.028.137-.057.137-.185 0-.129-.062-.214-.137-.186-.075.029-.137.114-.137.186zm1.146 1.01c0 .243.274.2.348-.056.025-.1-.037-.171-.15-.171-.111 0-.198.1-.198.228zm-.424.97c-.498.241-.97.896-.921 1.28.05.371.672.642 1.519.642.71.014 1.569-.242 1.656-.499.112-.356-.349-1.082-.872-1.353-.622-.313-.834-.327-1.382-.07z"/></mask><path d="M80.045 21.748l.664-1.886-.022-.008-.02-.007-.622 1.901zm2.665 2.82l1.917-.567-.001-.005-1.916.572zm-.05 3.219l1.899.628.003-.011.004-.011-1.906-.606zm-3.599 2.862v-2h-.023l.023 2zm-2.889-1.324l-1.508 1.313.006.007.006.007 1.496-1.327zm2.79-7.69l-.033 2h.033v-2zm1.27 2.691l-1.16 1.63.004.002 1.156-1.632zm1.793.014l-1.303-1.518-.007.007 1.31 1.511zm.298-.256l1.303 1.518 1.204-1.033-.732-1.407-1.775.922zm-.273-.527l1.774-.922-.011-.022-.012-.021-1.752.965zm-1.719-1.51l.81-1.828h-.001l-.809 1.828zm-.76-.028l-1.638-1.146-.048.067-.041.072 1.728 1.007zm-1.98.057l-.891-1.79-.008.004-.006.003.906 1.783zm-1.593 1.396l-1.716-1.027-.002.003 1.718 1.024zm.262 1.082l.866-1.803-.006-.003-.86 1.806zm2.166-2.378l1.816-.838-.005-.012-.006-.011-1.805.86zm.062 3.432l-1.565-1.245-.005.006 1.57 1.239zm.735 1.11l-.88-1.795-.034.017-.034.018.948 1.76zm.398-.583l1.901.623.003-.01-1.904-.613zm1.98-.385l-1.145-1.639-.008.005-.007.006 1.16 1.628zm-.573 2.663l-1.766.938.005.01.006.011 1.755-.959zm.96.37l-1.637-1.15-.003.004 1.64 1.147zm.771-2.363l1.996.134v-.004l-1.996-.13zm.063-.955l1.995.13.14-2.13h-2.135v2zm-7.434.086l.801 1.832.011-.004.01-.005-.822-1.823zm.448 2.934l1.76-.952-.008-.013-.007-.013-1.745.978zm.648.527l.915 1.778.007-.004-.922-1.774zm.448-2.664l1.763-.944v-.001l-1.763.945zm2.216 1.14l1.92.56.011-.038.01-.038-1.94-.484zm-.772 1.025l-.847-1.811-.014.006-.013.006.874 1.8zm-.921 1.282l-1.983.257v.01l1.983-.267zm1.519.64l.04-1.999h-.04v2zm1.656-.498l1.894.644.007-.021.007-.022-1.908-.6zm-.872-1.353l.92-1.776-.01-.005-.01-.005-.9 1.786zm-.377-4.949c.19.067.51.263.836.608.325.344.513.685.576.897l3.833-1.144c-.285-.955-.864-1.825-1.5-2.5-.637-.673-1.474-1.302-2.417-1.634l-1.328 3.773zm1.41 1.5c.156.526.146 1.47-.037 2.046l3.812 1.212c.414-1.304.454-3.066.061-4.392l-3.835 1.135zm-.03 2.024c-.34 1.028-1.132 1.49-1.7 1.49v4c2.595 0 4.717-1.873 5.498-4.234l-3.798-1.256zm-1.723 1.49c-.395.005-.596-.054-.727-.114-.14-.064-.34-.197-.643-.538l-2.992 2.655c.545.614 1.172 1.15 1.957 1.514.794.367 1.613.493 2.451.483l-.046-4zm-1.357-.637c-.7-.805-.844-1.953-.484-2.946.36-.993 1.046-1.443 1.732-1.432l.065-4c-2.826-.045-4.779 1.92-5.558 4.07-.78 2.15-.562 4.876 1.227 6.934l3.018-2.626zm1.28-4.378a4.105 4.105 0 01.557.043c.013.002.013.003.004 0a1.109 1.109 0 01-.098-.027l1.242-3.803a4.436 4.436 0 00-.853-.165 8.09 8.09 0 00-.852-.047v4zm-1.539-.974c0 .66.18 1.291.432 1.811.247.51.642 1.075 1.219 1.485l2.318-3.26a.609.609 0 01.09.08l-.008-.012a.389.389 0 01-.049-.117l-.003-.015.001.028h-4zm1.654 3.298c.659.467 1.425.644 2.083.648.63.003 1.483-.155 2.175-.754l-2.62-3.023a.979.979 0 01.352-.203.39.39 0 01.115-.02.17.17 0 01.05.008.52.52 0 01.156.08l-2.311 3.264zm4.25-.1l.3-.256-2.605-3.036-.299.256 2.605 3.036zm.772-2.697l-.274-.526-3.549 1.845.274.526 3.549-1.845zm-.297-.57c-.6-1.089-1.545-1.879-2.66-2.372l-1.62 3.657c.43.19.655.426.777.646l3.503-1.93zm-2.661-2.373c-.136-.06-.3-.131-.46-.189a2.658 2.658 0 00-.809-.166 2.187 2.187 0 00-1.386.43c-.32.237-.51.52-.552.58l3.278 2.292-.001.002-.003.003-.01.015-.052.064a1.817 1.817 0 01-1.412.613 1.565 1.565 0 01-.386-.062l-.023-.008.052.021.147.064 1.617-3.659zm-3.296.794a3.1 3.1 0 00-.319.82 3.574 3.574 0 00-.103.828h4a.648.648 0 01-.01.113 1.256 1.256 0 01-.113.253l-3.455-2.014zm-1.158-.719c-.918.467-1.84 1.21-2.404 2.152l3.432 2.053c.085-.14.357-.422.784-.64l-1.812-3.565zm-2.406 2.155c-.107.18-.255.439-.361.73a2.466 2.466 0 00-.1 1.427c.154.646.542 1.065.84 1.305.27.218.558.363.74.45l1.721-3.611c-.117-.056-.058-.04.05.047.134.108.423.392.54.881.109.456-.005.796-.034.875-.027.074-.04.077.04-.056l-3.436-2.048zm1.114 3.909c1.705.819 3.309-.044 4.12-.937.822-.905 1.462-2.49.728-4.082l-3.632 1.675a.48.48 0 01-.042-.293c.007-.03.009-.015-.015.01-.025.028-.014 0 .073-.027a.639.639 0 01.218-.023c.098.005.196.03.282.071l-1.733 3.606zm4.837-5.042c-.206-.432-.738-1.244-1.85-1.382-.782-.097-1.44.233-1.681.353l1.784 3.58c.07-.035.058-.023-.01-.003a1.453 1.453 0 01-.585.04 1.708 1.708 0 01-.933-.429 1.446 1.446 0 01-.335-.437l3.61-1.722zm-2.58 4.155c.22.75.95 1.582 2.083 1.582v-4c.552 0 .958.234 1.194.432.256.216.46.512.564.866l-3.84 1.12zm2.083 1.582c1.133 0 1.863-.831 2.082-1.582l-3.84-1.12c.103-.354.308-.65.564-.866a1.85 1.85 0 011.194-.432v4zm2.082-1.582a2.106 2.106 0 00-.563-2.11 2.187 2.187 0 00-1.52-.607v4c-.342 0-.834-.108-1.255-.513a1.894 1.894 0 01-.503-1.89l3.84 1.12zm-2.082-2.717c-.455 0-1.04.144-1.52.606a2.106 2.106 0 00-.562 2.11l3.84-1.119a1.894 1.894 0 01-.503 1.89 1.815 1.815 0 01-1.255.513v-4zm-3.577 2.717c.22.75.95 1.582 2.082 1.582v-4c.553 0 .96.234 1.194.432.256.216.461.512.565.866l-3.84 1.12zm2.082 1.582c1.133 0 1.864-.831 2.082-1.582l-3.84-1.12c.104-.354.308-.65.564-.866a1.85 1.85 0 011.194-.432v4zm2.082-1.582a2.106 2.106 0 00-.562-2.11 2.187 2.187 0 00-1.52-.607v4c-.342 0-.834-.108-1.255-.513a1.894 1.894 0 01-.503-1.89l3.84 1.12zm-2.082-2.717a2.19 2.19 0 00-1.52.606 2.106 2.106 0 00-.562 2.11l3.84-1.119a1.894 1.894 0 01-.502 1.89 1.815 1.815 0 01-1.256.513v-4zm-1.32 1.616a2.77 2.77 0 00-.148 3.236c.294.45.763.872 1.403 1.074a2.562 2.562 0 001.997-.2l-1.896-3.521a1.437 1.437 0 011.103-.094c.37.117.609.35.74.552a1.23 1.23 0 01-.06 1.43l-3.14-2.477zm3.184 4.146a3.14 3.14 0 00.636-.413c.092-.078.226-.2.356-.366.05-.063.452-.549.452-1.288h-4a1.944 1.944 0 01.4-1.179c.096-.123.181-.198.214-.226a.862.862 0 01.182-.12l1.76 3.592zm1.444-2.067a1.788 1.788 0 01-.032.33l-.003.012.003-.01.007-.022-3.801-1.246a4.572 4.572 0 00-.093.323c-.01.04-.081.31-.081.613h4zm-.022.3a2.36 2.36 0 00-.065-1.58 2.999 2.999 0 00-.485-.816 3.087 3.087 0 00-.686-.616 2.465 2.465 0 00-1.34-.413v4a1.54 1.54 0 01-.842-.235.916.916 0 01-.213-.185 1.008 1.008 0 01-.16-.282 1.646 1.646 0 01-.016-1.1l3.807 1.227zm-2.576-3.425c-.61 0-1.075.25-1.296.388-.268.168-.522.39-.73.652l3.131 2.49a1.082 1.082 0 01-.279.25c-.055.034-.14.08-.256.123a1.67 1.67 0 01-.57.097v-4zm1.492.799c-.87.62-1.352 1.55-1.538 2.414-.189.87-.129 1.896.359 2.814l3.533-1.874c.016.03.013.038.01.013a.348.348 0 01.033-.181c.003-.006-.016.028-.076.071l-2.321-3.258zm-1.168 5.25c.246.45.718 1.121 1.534 1.438a2.349 2.349 0 001.618.038c.569-.195.958-.57 1.201-.918l-3.278-2.293c.12-.17.365-.43.78-.573a1.652 1.652 0 011.127.017c.477.185.594.493.529.373l-3.51 1.918zm4.35.562c.712-1.011 1.05-2.165 1.132-3.38l-3.991-.269c-.043.637-.203 1.05-.413 1.348l3.272 2.301zm1.132-3.384l.062-.954-3.991-.26-.063.953 3.992.26zm-1.933-3.085h-.411v4h.41v-4zm-.411 0c-.43 0-.816.108-1.07.198a3.739 3.739 0 00-.885.448l2.291 3.279a.549.549 0 01-.075.045l-.01.003a1.08 1.08 0 01-.252.028v-4zm-7.824.253a2.266 2.266 0 00-1.114 1.069 2.78 2.78 0 00-.263.878c-.062.457-.026.922.033 1.307a7.66 7.66 0 00.849 2.49l3.489-1.955a3.68 3.68 0 01-.384-1.138c-.028-.186-.014-.235-.023-.171a1.24 1.24 0 01-.127.384 1.736 1.736 0 01-.858.801l-1.602-3.665zm-.51 5.719c.083.153.18.328.281.485.086.133.273.411.572.654.383.309.914.53 1.534.486.48-.034.838-.222.935-.272l-1.83-3.557c.006-.003.063-.033.151-.064.09-.033.25-.082.462-.096a1.83 1.83 0 011.263.392c.21.17.302.33.275.288a4.231 4.231 0 01-.125-.22l-3.518 1.904zm3.33 1.35c1.17-.61 1.582-1.828 1.708-2.579.14-.843.07-1.888-.42-2.804l-3.526 1.89c-.017-.032-.004-.02.005.047a.742.742 0 01-.004.206c-.013.072-.027.082-.004.041a.95.95 0 01.395-.35l1.845 3.548zm1.287-5.384a3.753 3.753 0 00-1.562-1.544c-.586-.304-1.564-.584-2.567-.13l1.646 3.645c-.27.121-.508.127-.653.11a.766.766 0 01-.268-.074.252.252 0 01-.12-.116l3.524-1.891zm-.674 1.13a2.223 2.223 0 001.424 2.054l1.425-3.737a1.779 1.779 0 011.15 1.684h-4zm1.424 2.054a2.074 2.074 0 002.42-.716c.355-.482.43-.998.43-1.337h-4c0-.211.044-.62.349-1.035a1.926 1.926 0 012.227-.65l-1.426 3.738zm2.85-2.053c0-.34-.075-.855-.43-1.337a2.073 2.073 0 00-2.42-.717l1.425 3.737a1.927 1.927 0 01-2.226-.649 1.748 1.748 0 01-.35-1.034h4zm-2.85-2.054a2.222 2.222 0 00-1.424 2.054h4a1.778 1.778 0 01-1.15 1.684l-1.426-3.738zm-3.79 2.054a2.223 2.223 0 001.424 2.054l1.426-3.738a1.778 1.778 0 011.15 1.684h-4zm1.425 2.053a2.074 2.074 0 002.42-.716 2.26 2.26 0 00.43-1.337h-4c0-.211.043-.62.348-1.035a1.926 1.926 0 012.227-.65l-1.425 3.738zm2.85-2.053c0-.34-.076-.855-.43-1.337a2.073 2.073 0 00-2.42-.717l1.425 3.737a1.927 1.927 0 01-2.227-.649 1.748 1.748 0 01-.349-1.034h4zm-2.85-2.054a2.222 2.222 0 00-1.425 2.054h4a1.777 1.777 0 01-1.15 1.684l-1.425-3.738zm-.28 3.065c0 .418.123 1.051.652 1.565a2.116 2.116 0 001.811.568c1.03-.165 1.612-.963 1.806-1.63l-3.84-1.12c.12-.412.528-1.06 1.402-1.2a1.884 1.884 0 011.606.51 1.83 1.83 0 01.564 1.307h-4zm4.29.427a2.13 2.13 0 00-.458-1.924 2.16 2.16 0 00-1.632-.731v4a1.84 1.84 0 01-1.38-.636 1.87 1.87 0 01-.411-1.678l3.88.97zm-2.09-2.655c-1.46 0-2.2 1.256-2.2 2.228h4c0 .715-.564 1.772-1.8 1.772v-4zm-1.497 1.397c-.615.3-1.097.776-1.415 1.218a3.62 3.62 0 00-.45.827c-.11.292-.235.753-.165 1.293l3.966-.514c.024.184.01.332-.005.428-.016.098-.04.168-.055.208-.028.076-.052.105-.045.095a.125.125 0 01.01-.012.603.603 0 01-.093.055l-1.748-3.598zm-2.03 3.348c.17 1.26 1.192 1.833 1.66 2.032.581.248 1.231.342 1.842.342v-4c-.236 0-.32-.041-.275-.022.024.01.15.065.299.212.158.156.38.456.44.902l-3.965.534zm3.462 2.373c.58.012 1.18-.082 1.676-.231.247-.075.541-.184.823-.346.17-.097.818-.475 1.09-1.277l-3.786-1.287c.129-.38.344-.612.45-.712.115-.11.212-.168.249-.19.074-.042.092-.04.025-.02a1.62 1.62 0 01-.447.064l-.08 4zm3.604-1.897a2.56 2.56 0 00-.003-1.483 3.51 3.51 0 00-.419-.905c-.305-.477-.792-1.008-1.439-1.342l-1.838 3.553a.604.604 0 01-.097-.063l-.005-.004.002.002.004.005a.07.07 0 01.005.007l-.013-.026a.731.731 0 01-.04-.11 1.231 1.231 0 01-.046-.278c-.007-.127 0-.325.073-.557l3.816 1.2zm-1.88-3.74c-.317-.16-.856-.425-1.512-.46-.713-.038-1.278.205-1.617.364l1.695 3.623c.097-.046.099-.04.05-.027a1.09 1.09 0 01-.59-.01s.044.017.175.083l1.799-3.573z" fill="url(#paint3_linear)" mask="url(#c)"/><path d="M24.775 25.19v.003c.457 3.281-1.572 6.521-4.34 7.177h0c-2.991.713-6.03-1.62-6.536-5.305-.457-3.438 1.702-6.717 4.596-7.23.466-.08.684-.11.898-.11.214.002.44.036.919.123.424.078.964.303 1.503.629.535.322 1.035.722 1.387 1.118.763.874 1.398 2.303 1.573 3.596zm-9.804 3.184h0l.001.005c.45 1.074 1.24 2.013 2.207 2.598.308.187.564.322.903.394.317.069.684.078 1.2.078.51 0 .875-.014 1.195-.078.336-.067.597-.186.908-.352h.001c.984-.531 1.828-1.507 2.302-2.623.155-.362.26-.65.32-.994.057-.335.069-.704.069-1.225 0-.507-.012-.876-.066-1.21a4.1 4.1 0 00-.296-.974c-1.021-2.504-3.353-3.848-5.715-3.046-1.373.465-2.509 1.605-3.08 3.036-.24.592-.339 1.403-.329 2.18.01.779.13 1.599.38 2.212z" stroke="#4DD1D1"/><path d="M21.524 25.106c.369.002.775-.086 1.091-.314.016.05.03.099.043.148h0l.002.006.006.023a1.871 1.871 0 00-.479.11c-.177.063-.36.154-.515.261-.267.187-.49.46-.655.751l-.004-.005a.597.597 0 00-.274-.208.569.569 0 00-.245-.033 1.162 1.162 0 00-.162-.34.718.718 0 00.418-.537c.253.093.52.136.774.138zM21.234 29c.085.102.18.194.287.268a3.568 3.568 0 01-.11.098 2.031 2.031 0 00-.177-.366zm-3.888.451a3.261 3.261 0 01-.103-.088 1.78 1.78 0 00.203-.19 1.697 1.697 0 00-.1.278zm1.169-1.387a2.306 2.306 0 00-.718.573c.198-.438.26-.94.226-1.393l-.004-.042a.571.571 0 00.594-.178c.052.043.107.08.165.111a.775.775 0 00-.121.41c0 .112.022.267.115.407a3.733 3.733 0 00-.25.108h0l-.007.004zm-.563-1.284a3.05 3.05 0 00-.115-.385l.005-.007a.405.405 0 01.261-.158.426.426 0 01.091-.005 1.1 1.1 0 00.026.132.074.074 0 00-.072-.009c-.075.029-.137.114-.137.186 0 .07.062.156.137.185.048.018.091-.01.116-.068a.285.285 0 00.02-.097 1.575 1.575 0 00.113.224.305.305 0 01-.07.038.426.426 0 01-.375-.036zm2.124.232c.067.07.153.133.26.174.1.038.21.05.32.027a2.107 2.107 0 00-.007.175c0 .367.108.76.26 1.087.039.084.084.17.135.255a2.315 2.315 0 00-.694-.587h0l-.01-.005a3.8 3.8 0 00-.503-.22.78.78 0 00.154-.373.67.67 0 00-.085-.422c.06-.032.116-.07.17-.111zm.428-.689c.007-.032.012-.065.016-.098a.422.422 0 01.172.026.278.278 0 01.128.095c.01.013.025.036.037.07a2.9 2.9 0 00-.129.383.426.426 0 01-.42-.026c.035-.048.067-.1.094-.154a.23.23 0 00.112.1c.048.018.09-.01.115-.068a.3.3 0 00.022-.117.301.301 0 00-.022-.118c-.024-.057-.067-.086-.115-.068a.186.186 0 00-.017.008l.007-.033zm-1.347.937a1.206 1.206 0 00.296.005c.05.026.091.06.122.095.082.094.082.18.082.185h0a.26.26 0 01-.066.167.314.314 0 01-.246.105h-.006a.372.372 0 01-.34-.393.208.208 0 01.117-.17l.015.002.06.158a.254.254 0 00-.034.13c0 .129.062.2.15.172a.303.303 0 00.172-.171c.043-.11.006-.228-.123-.228a.189.189 0 00-.154.08l-.045-.137zm-.94-1.416a.58.58 0 00-.247.037.714.714 0 00-.278.194 1.941 1.941 0 00-.838-.843c-.25-.127-.498-.228-.745-.249a1.109 1.109 0 00-.097-.004l.038-.142a2.176 2.176 0 00.543.237c.476.148.94.095 1.348-.079a.718.718 0 00.416.51 1.479 1.479 0 00-.14.34zm1.064-1.021h-.02a.61.61 0 00-.185-.384.65.65 0 00-.218-.138 2.5 2.5 0 00.506-1.015 2.944 2.944 0 00.488 1.007.652.652 0 00-.24.146.61.61 0 00-.187.397.802.802 0 00-.144-.013zm-1.014 0a2.5 2.5 0 00.33-.249l.022-.02c.102.005.17.048.205.077a.285.285 0 01.09.14c.014.046.018.094.014.14a1.038 1.038 0 00-.19.123 1.332 1.332 0 00-.211.21.334.334 0 01-.145-.084.394.394 0 01-.115-.336zm1.073-2.639l-.007.031a1.915 1.915 0 00-.024-.071h.041a1.922 1.922 0 00-.01.04zm.523 2.447a.348.348 0 01.219-.078l.008.008c.066.063.136.12.209.173h0a1.724 1.724 0 00.12.077.395.395 0 01-.113.349.325.325 0 01-.18.09l-.008-.007a1.675 1.675 0 00-.348-.274l-.003-.002-.002-.01a.386.386 0 01.007-.187.286.286 0 01.091-.139zm.066.279c.024.085.1.142.162.142s.136-.056.161-.142a.105.105 0 00-.013-.09c-.026-.04-.08-.067-.149-.067-.068 0-.122.027-.148.067a.106.106 0 00-.013.09zm-1.494 0c.024.085.1.142.161.142.063 0 .137-.056.162-.142a.106.106 0 00-.013-.09c-.026-.04-.08-.067-.149-.067-.068 0-.122.027-.149.067a.106.106 0 00-.012.09z" stroke="#53D1D1"/><defs><linearGradient id="paint0_linear" x1="33.355" y1="28.566" x2="49.071" y2="-3.174" gradientUnits="userSpaceOnUse"><stop stop-color="#0ACFCF"/><stop offset="1" stop-color="#743498" stop-opacity=".6"/></linearGradient><linearGradient id="paint1_linear" x1="56.703" y1="15.476" x2="58.738" y2="14.27" gradientUnits="userSpaceOnUse"><stop stop-color="#0ACFCF"/><stop offset="1" stop-color="#743498" stop-opacity=".6"/></linearGradient><linearGradient id="paint2_linear" x1="76.99" y1="32.313" x2="91.331" y2="26.961" gradientUnits="userSpaceOnUse"><stop stop-color="#0ACFCF"/><stop offset="1" stop-color="#743498" stop-opacity=".6"/></linearGradient><linearGradient id="paint3_linear" x1="77.652" y1="30.206" x2="87.09" y2="16.097" gradientUnits="userSpaceOnUse"><stop stop-color="#0ACFCF"/><stop offset="1" stop-color="#743498" stop-opacity=".6"/></linearGradient></defs></svg>