<svg viewBox="0 0 13 12" fill="#ccc" xmlns="http://www.w3.org/2000/svg"><path d="M12.8.329A.816.816 0 0012.13 0a1.21 1.21 0 00-.468.102L.658 4.685c-.584.243-.663.608-.658.803.005.196.103.556.698.763.004 0 .008.002.011.003l2.283.713 1.234 3.851c.168.525.546.851.986.851.278 0 .55-.127.79-.366l1.411-1.419 2.048 1.8.02.017a.228.228 0 01.006.005c.227.192.476.294.718.294.475 0 .852-.383.962-.976l1.803-9.713c.073-.39.012-.739-.17-.982zM3.754 6.83L8.16 4.377 5.417 7.556a.427.427 0 00-.092.185l-.53 2.337-1.04-3.247zm1.73 3.86a.748.748 0 01-.055.05l.49-2.168.893.784-1.328 1.334zm6.739-9.545L10.42 10.86c-.018.093-.073.309-.216.309-.07 0-.159-.042-.25-.118l-2.32-2.039-1.381-1.214 3.965-4.597a.444.444 0 00.027-.534.361.361 0 00-.478-.12L3.246 6.182.933 5.46l11-4.582A.519.519 0 0112.13.83c.023 0 .064.003.08.024.02.027.046.119.014.291z"/></svg>