<svg viewBox="0 0 24 24" fill="none" xmlns="http://www.w3.org/2000/svg"><path fill-rule="evenodd" clip-rule="evenodd" d="M16.558 3.028a5 5 0 00-5.117 7.03 1 1 0 01-.204 1.12l-8.03 8.03a1.121 1.121 0 001.586 1.585l8.03-8.03a1 1 0 011.12-.204 5 5 0 007.029-5.117l-2.565 2.565-.007.007c-.36.354-.825.572-1.4.572s-1.04-.218-1.4-.572l-.007-.007-1.6-1.6-.007-.007a1.942 1.942 0 01-.572-1.4c0-.248.036-.511.147-.776.11-.264.272-.47.442-.641l2.555-2.555zM14.742 1.11a7 7 0 014.14.509 1 1 0 01.295 1.618l-3.76 3.76-.003.003L17 8.586l3.763-3.763a1 1 0 011.618.295 7 7 0 01-3.39 9.216l2.1 2.101a3 3 0 010 4.243l-1.413 1.414a3 3 0 01-4.243 0l-4.556-4.556-4.672 4.671a3.121 3.121 0 11-4.414-4.414L8.586 11 3.832 6.246 2 5 1 3l1-1 2 1 1.246 1.832 3.777 3.777a7 7 0 015.719-7.5zm-.967 13.53a7 7 0 003.013.32l2.89 2.89a1 1 0 010 1.413l-1.415 1.415a1 1 0 01-1.414 0l-4.556-4.557 1.482-1.482z" fill="#188ED6"/></svg>