<svg viewBox="0 0 24 25" fill="none" xmlns="http://www.w3.org/2000/svg"><path fill-rule="evenodd" clip-rule="evenodd" d="M8.5 4.003h2v-2h-6v2h2v6h2v-6zm10.5 16a3 3 0 000-6H5a3 3 0 100 6h14zm5-3a5 5 0 01-5 5H5a5 5 0 010-10h14a5 5 0 015 5zm-18 1a1 1 0 100-2 1 1 0 000 2zm6-1a1 1 0 011-1h6a1 1 0 110 2h-6a1 1 0 01-1-1zm1.944-8.482L12.25 4.003l-.528-1.408-.222-.592h2l.946 2.837.872 2.618.182.545.182-.545.872-2.618.946-2.837h2l-.222.592-.528 1.408-1.695 4.518-.423 1.13-.132.352h-2l-.132-.351-.424-1.13z" fill="#B0BEC5"/></svg>