<svg viewBox="0 0 10 13" fill="#F28402" xmlns="http://www.w3.org/2000/svg"><path d="M4.91 6.4c.791 0 1.476-.279 2.036-.828.559-.55.843-1.221.843-1.997s-.284-1.448-.844-1.998A2.813 2.813 0 004.91.75a2.81 2.81 0 00-2.035.828 2.708 2.708 0 00-.844 1.997c0 .776.284 1.448.844 1.997A2.81 2.81 0 004.91 6.4zM3.37 2.063a2.1 2.1 0 011.54-.626c.607 0 1.11.205 1.54.626.43.422.638.916.638 1.512a2.02 2.02 0 01-.638 1.511 2.1 2.1 0 01-1.54.626c-.607 0-1.11-.205-1.54-.626a2.023 2.023 0 01-.638-1.511c0-.596.209-1.09.638-1.512zm6.577 7.705a6.854 6.854 0 00-.097-.74 5.749 5.749 0 00-.185-.746 3.647 3.647 0 00-.313-.695 2.626 2.626 0 00-.47-.602 2.081 2.081 0 00-.676-.416 2.376 2.376 0 00-.864-.154c-.122 0-.24.05-.467.195-.14.09-.305.194-.488.308a2.82 2.82 0 01-.63.273 2.548 2.548 0 01-.772.122 2.55 2.55 0 01-.771-.122 2.811 2.811 0 01-.63-.273 67.238 67.238 0 01-.488-.308c-.228-.146-.346-.195-.468-.195-.31 0-.6.052-.863.154a2.08 2.08 0 00-.676.417 2.589 2.589 0 00-.47.601 3.71 3.71 0 00-.313.695 6.807 6.807 0 00-.282 1.486 9.85 9.85 0 00-.024.693c0 .613.198 1.108.59 1.474.386.36.897.543 1.518.543h5.755c.621 0 1.132-.183 1.519-.543.39-.366.59-.861.59-1.474 0-.236-.009-.47-.025-.693zM8.9 11.437c-.255.238-.594.354-1.036.354H2.108c-.442 0-.78-.116-1.036-.354-.25-.234-.372-.553-.372-.976 0-.22.008-.436.023-.645a6.14 6.14 0 01.25-1.324c.063-.192.148-.382.254-.565.102-.175.218-.324.346-.445a1.38 1.38 0 01.45-.274c.165-.064.35-.1.552-.105.024.013.068.037.139.083l.493.312c.207.13.473.246.792.347.325.103.657.156.986.156.33 0 .662-.053.987-.156.319-.101.585-.218.792-.347.188-.118.35-.22.493-.312.07-.045.115-.07.139-.083.201.006.387.04.552.105.178.069.33.161.45.274.128.12.244.27.345.445.106.183.192.373.254.565.066.2.12.421.164.657.043.239.073.463.087.667.015.208.023.425.023.645 0 .423-.122.742-.372.976z"/></svg>