<svg viewBox="0 0 24 24" fill="none" xmlns="http://www.w3.org/2000/svg"><path fill-rule="evenodd" clip-rule="evenodd" d="M18.616 4.634A1.879 1.879 0 0120 4c.501 0 1.001.216 1.384.634A2.43 2.43 0 0122 6.273c0 .902-.55 1.85-1.255 2.662-.26.3-.521.558-.745.763a9.405 9.405 0 01-.745-.763C18.55 8.124 18 7.175 18 6.273c0-.63.23-1.218.616-1.639zm.795 7.174L20 11l-.588.809a1 1 0 001.176 0L20 11c.588.809.588.809.589.808h.002l.003-.003.01-.008.033-.024.11-.086a11.534 11.534 0 001.507-1.44C23.05 9.331 24 7.916 24 6.273a4.43 4.43 0 00-1.142-2.99C22.116 2.473 21.09 2 20 2s-2.116.473-2.858 1.283A4.43 4.43 0 0016 6.273c0 1.643.95 3.058 1.745 3.974a11.534 11.534 0 001.618 1.526l.033.024.01.008.004.002v.001h.001zM4 10c-.501 0-1.001.216-1.384.634A2.43 2.43 0 002 12.273c0 .902.55 1.85 1.255 2.662.26.3.522.558.745.763a9.41 9.41 0 00.745-.763C5.45 14.123 6 13.175 6 12.273c0-.63-.23-1.218-.616-1.639A1.879 1.879 0 004 10zm0 7c-.588.809-.588.809-.589.808H3.41l-.004-.003-.01-.008-.033-.024a10.342 10.342 0 01-.488-.398 11.525 11.525 0 01-1.13-1.128C.95 15.33 0 13.916 0 12.273a4.43 4.43 0 011.142-2.99C1.884 8.473 2.91 8 4 8s2.116.473 2.858 1.283A4.43 4.43 0 018 12.273c0 1.643-.95 3.058-1.745 3.974a11.525 11.525 0 01-1.618 1.526l-.033.024-.01.008-.004.002v.001h-.001L4 17zm0 0l.588.809a1 1 0 01-1.176 0L4 17zm6.118-2.472A1 1 0 0111 14h9a1 1 0 110 2h-7.132l2.964 4.445A1 1 0 0115 22H4a1 1 0 110-2h9.132l-2.964-4.445a1 1 0 01-.05-1.027z" fill="#262425"/></svg>