<svg viewBox="0 0 12 12" fill="#ccc" xmlns="http://www.w3.org/2000/svg"><path fill-rule="evenodd" clip-rule="evenodd" d="M9.98 2.004A5.538 5.538 0 006.035.369 5.582 5.582 0 00.461 5.943c0 .983.257 1.942.744 2.787l-.79 2.89 2.955-.776a5.569 5.569 0 002.664.679h.002a5.583 5.583 0 005.575-5.575 5.54 5.54 0 00-1.632-3.944zm-3.944 8.577h-.002a4.628 4.628 0 01-2.358-.646l-.17-.1-1.753.46.468-1.71-.11-.175a4.622 4.622 0 01-.708-2.466A4.64 4.64 0 016.038 1.31c1.238 0 2.4.483 3.276 1.358a4.606 4.606 0 011.355 3.279 4.64 4.64 0 01-4.633 4.633zm2.542-3.47a23.03 23.03 0 00-.952-.453c-.128-.047-.22-.07-.314.07-.092.139-.36.453-.44.545-.082.093-.163.105-.302.035-.14-.07-.589-.217-1.12-.691a4.202 4.202 0 01-.776-.965c-.08-.14 0-.208.062-.284.15-.187.301-.384.348-.477.046-.093.023-.174-.012-.244s-.313-.755-.43-1.034c-.112-.272-.227-.235-.313-.24a5.57 5.57 0 00-.267-.004.512.512 0 00-.371.174c-.128.14-.488.477-.488 1.162 0 .686.5 1.348.57 1.441.069.093.981 1.5 2.379 2.103.332.144.591.23.794.294.333.106.637.091.877.055.268-.04.824-.337.94-.662.116-.326.116-.604.082-.663-.035-.058-.128-.092-.267-.162z"/></svg>