<svg viewBox="0 0 24 25" fill="none" xmlns="http://www.w3.org/2000/svg"><path fill-rule="evenodd" clip-rule="evenodd" d="M2.866 8.502C2.337 7.589 2 6.565 2 5.502c0-1.061.337-2.085.866-2.999a1 1 0 10-1.732-1.001C.471 2.648 0 4.015 0 5.502c0 1.489.471 2.855 1.134 4.001a1 1 0 101.732-1.001zM22 18.002a3 3 0 01-3 3H5a3 3 0 01-3-3v-3h20v3zm-21-5h4v-8a1 1 0 012 0v8h17v5a5 5 0 01-5 5H5a5 5 0 01-5-5v-5h1zm6 5a1 1 0 11-2 0 1 1 0 012 0zm3 1a1 1 0 100-2 1 1 0 000 2zm5-1a1 1 0 11-2 0 1 1 0 012 0zm3 1a1 1 0 100-2 1 1 0 000 2zm-7.134-17.5a1 1 0 10-1.732 1.001c.529.913.866 1.938.866 3s-.337 2.086-.866 2.999a1 1 0 001.732 1.001c.663-1.146 1.134-2.512 1.134-4s-.471-2.855-1.134-4.001z" fill="#B0BEC5"/></svg>