<?xml version="1.0" encoding="UTF-8"?> <svg xmlns="http://www.w3.org/2000/svg" viewBox="0 0 98.72 63.2"><defs><style>.cls-2{fill:#030404}</style></defs><g id="Слой_2" data-name="Слой 2"><g id="Слой_1-2" data-name="Слой 1"><path d="M89.88 1.32h1.83a12.53 12.53 0 011.66.14 5.13 5.13 0 011.4.47 4.35 4.35 0 011.16.84A4.91 4.91 0 0196.79 4a5.11 5.11 0 01.45 1.4 12.62 12.62 0 01.15 1.6v49.19a12.62 12.62 0 01-.15 1.66 4.62 4.62 0 01-1.3 2.57 4.86 4.86 0 01-1.17.85 5.12 5.12 0 01-1.4.46 11.48 11.48 0 01-1.66.14H7a11.37 11.37 0 01-1.66-.14A5.12 5.12 0 014 61.27a4.68 4.68 0 01-1.17-.85 4.86 4.86 0 01-.85-1.17 5.12 5.12 0 01-.46-1.4 11 11 0 01-.14-1.66V7.84v-.83a11 11 0 01.14-1.66A5.12 5.12 0 011.93 4a4.86 4.86 0 01.85-1.17A4.68 4.68 0 014 1.93a5.48 5.48 0 011.4-.46A12.53 12.53 0 017 1.33h82.88z" fill="#fff"></path><path class="cls-2" d="M89.88 0H7a11.46 11.46 0 00-1.88.18 6.13 6.13 0 00-1.77.58A5.93 5.93 0 00.76 3.35a6.23 6.23 0 00-.58 1.77A12.86 12.86 0 000 7V56.23a12.85 12.85 0 00.17 1.85 6.07 6.07 0 00.58 1.76 5.82 5.82 0 001.09 1.51 5.94 5.94 0 001.5 1.09 6.13 6.13 0 001.78.56 12.72 12.72 0 001.88.19h84.74A12.86 12.86 0 0093.6 63a6.07 6.07 0 001.76-.58 5.84 5.84 0 002.6-2.6 6.07 6.07 0 00.58-1.76 11.56 11.56 0 00.16-1.85V7.83v-.85a11.58 11.58 0 00-.16-1.86A6.23 6.23 0 0098 3.35a5.94 5.94 0 00-1.09-1.5A5.82 5.82 0 0095.36.76 6.07 6.07 0 0093.6.18 11.58 11.58 0 0091.74 0h-.85zm0 1.32h1.83a12.53 12.53 0 011.66.14 5.13 5.13 0 011.4.47 4.35 4.35 0 011.16.84A4.91 4.91 0 0196.79 4a5.11 5.11 0 01.45 1.4 12.62 12.62 0 01.15 1.6v49.19a12.62 12.62 0 01-.15 1.66 4.62 4.62 0 01-1.3 2.57 4.86 4.86 0 01-1.17.85 5.12 5.12 0 01-1.4.46 11.48 11.48 0 01-1.66.14H7a11.37 11.37 0 01-1.66-.14A5.12 5.12 0 014 61.27a4.68 4.68 0 01-1.17-.85 4.86 4.86 0 01-.85-1.17 5.12 5.12 0 01-.46-1.4 11 11 0 01-.14-1.66V7.84v-.83a11 11 0 01.14-1.66A5.12 5.12 0 011.93 4a4.86 4.86 0 01.85-1.17A4.68 4.68 0 014 1.93a5.48 5.48 0 011.4-.46A12.53 12.53 0 017 1.33h82.88z"></path><path class="cls-2" d="M83.3 23.78l-4 10.77q-.37 1-.69 2c-.1.32-.2.62-.3.91h-.07c-.09-.3-.2-.62-.3-.94-.21-.64-.43-1.26-.66-1.85l-4.19-10.89h-2.27l6.06 15.59a1.68 1.68 0 01.18.61 2 2 0 01-.18.62 11.22 11.22 0 01-1.29 2.4 14.59 14.59 0 01-1.32 1.59 7.56 7.56 0 01-1.42 1.13 14.87 14.87 0 01-1.35.7l-.22.1.73 1.8.24-.09c.19-.07.55-.24 1.1-.5a8.81 8.81 0 001.81-1.29 9.19 9.19 0 001.54-1.73 21.9 21.9 0 001.3-2.23c.43-.83.87-1.79 1.29-2.83s.88-2.22 1.35-3.47l4.9-12.4zM66.73 35.23a3.47 3.47 0 01-.16.91 4.62 4.62 0 01-.57 1.13 4.09 4.09 0 01-.92 1 4.35 4.35 0 01-1.3.69 5.28 5.28 0 01-1.7.26A3.25 3.25 0 0161 39a2.8 2.8 0 01-.94-.56 2.69 2.69 0 01-.66-1 3.51 3.51 0 01-.25-1.42 3.19 3.19 0 01.72-2.19 4.77 4.77 0 011.89-1.28 9.78 9.78 0 012.52-.55c.75-.07 1.49-.11 2.18-.11h.27v3.31zm2.16 3.31V30.1a12.35 12.35 0 00-.23-2.33 6 6 0 00-.88-2.16A4.81 4.81 0 0066 24a6.08 6.08 0 00-3-.6 9.43 9.43 0 00-2.5.34 7.94 7.94 0 00-2.34 1.11L58 25l.72 1.68.26-.17a7.11 7.11 0 011.84-.88 6.78 6.78 0 012-.31 4 4 0 012.09.47 3.24 3.24 0 011.15 1.18 4.39 4.39 0 01.5 1.52 10.32 10.32 0 01.12 1.46v.19c-3.15 0-5.61.51-7.24 1.56a5.28 5.28 0 00-2.58 4.67 5 5 0 00.31 1.72 4.32 4.32 0 002.5 2.62 5.45 5.45 0 002.21.41 6.64 6.64 0 001.83-.24 6 6 0 001.5-.67 6.27 6.27 0 001.16-.9 5.39 5.39 0 00.4-.45h.08l.2 1.89h2.05l-.06-.3a12.87 12.87 0 01-.15-1.91zm-16.43-10.7a7 7 0 01-4.6 1.38c-.53 0-1 0-1.51-.06a6.6 6.6 0 01-1.07-.16v-9.92c.28 0 .63-.1 1-.14s1.14-.08 1.85-.08a8.83 8.83 0 012.43.31 5.87 5.87 0 011.86.91 4 4 0 011.19 1.53 5.46 5.46 0 01.42 2.22 4.94 4.94 0 01-1.62 4zM54.41 19a6.65 6.65 0 00-2.55-1.48 11.45 11.45 0 00-3.62-.52 24 24 0 00-2.66.14c-.8.09-1.54.2-2.21.31h-.21v23.27h2.12v-9.8a14.84 14.84 0 002.44.19 11.9 11.9 0 003.35-.46 7.45 7.45 0 002.68-1.4 6.89 6.89 0 001.79-2.33 7.55 7.55 0 00.66-3.22 7.31 7.31 0 00-.47-2.7 6.29 6.29 0 00-1.32-2zm-21.2 9.71a5.94 5.94 0 012.83-5 6.1 6.1 0 00-4.78-2.58c-2-.2-4 1.2-5 1.2s-2.62-1.19-4.26-1.16a6.37 6.37 0 00-5.4 3.28c-2.3 4-.59 9.92 1.66 13.16 1.1 1.59 2.4 3.37 4.12 3.3s2.28-1.07 4.28-1.07 2.56 1.07 4.31 1 2.91-1.62 4-3.21A14.57 14.57 0 0036.72 34a5.78 5.78 0 01-3.51-5.29zM29.43 19a5.74 5.74 0 001.36-4.17 5.91 5.91 0 00-3.85 2 5.44 5.44 0 00-1.37 4A4.79 4.79 0 0029.43 19z"></path></g></g></svg> 