<svg viewBox="0 0 21 20" fill="none" xmlns="http://www.w3.org/2000/svg">
<path fill-rule="evenodd" clip-rule="evenodd" d="M8.36193 2.86201C8.48695 2.73699 8.65652 2.66675 8.83333 2.66675H12.1667C12.3435 2.66675 12.513 2.73699 12.6381 2.86201C12.7631 2.98703 12.8333 3.1566 12.8333 3.33341V4.00008H8.16667V3.33341C8.16667 3.1566 8.2369 2.98703 8.36193 2.86201ZM6.16667 4.00008V3.33341C6.16667 2.62617 6.44762 1.94789 6.94772 1.4478C7.44781 0.9477 8.12609 0.666748 8.83333 0.666748H12.1667C12.8739 0.666748 13.5522 0.9477 14.0523 1.4478C14.5524 1.94789 14.8333 2.62617 14.8333 3.33341V4.00008H16.3333L18 4.00008C18.5523 4.00008 19 4.4478 19 5.00008C19 5.55237 18.5523 6.00008 18 6.00008H17.3333V16.6667C17.3333 17.374 17.0524 18.0523 16.5523 18.5524C16.0522 19.0525 15.3739 19.3334 14.6667 19.3334H6.33333C5.62609 19.3334 4.94781 19.0525 4.44772 18.5524C3.94762 18.0523 3.66667 17.374 3.66667 16.6667V6.00008H3C2.44772 6.00008 2 5.55237 2 5.00008C2 4.4478 2.44772 4.00008 3 4.00008L4.66667 4.00008H6.16667ZM5.66667 6.00008V16.6667C5.66667 16.8436 5.7369 17.0131 5.86193 17.1382C5.98695 17.2632 6.15652 17.3334 6.33333 17.3334H14.6667C14.8435 17.3334 15.013 17.2632 15.1381 17.1382C15.2631 17.0131 15.3333 16.8436 15.3333 16.6667V6.00008H13.8333H7.16667H5.66667Z" fill="#F44336"/>
</svg>
