<svg viewBox="0 0 33 32" fill="none" xmlns="http://www.w3.org/2000/svg">
<path fill-rule="evenodd" clip-rule="evenodd" d="M3.16675 6.99998C2.61446 6.99998 2.16675 7.44769 2.16675 7.99998C2.16675 8.55226 2.61446 8.99998 3.16675 8.99998H16.5001H29.8334C30.3857 8.99998 30.8334 8.55226 30.8334 7.99998C30.8334 7.44769 30.3857 6.99998 29.8334 6.99998H16.5001H3.16675ZM5.83341 14.3333C4.91294 14.3333 4.16675 15.0795 4.16675 16C4.16675 16.9205 4.91294 17.6667 5.83341 17.6667C6.75389 17.6667 7.50008 16.9205 7.50008 16C7.50008 15.0795 6.75389 14.3333 5.83341 14.3333ZM2.16675 16C2.16675 13.975 3.80837 12.3333 5.83341 12.3333C7.85846 12.3333 9.50008 13.975 9.50008 16C9.50008 18.025 7.85846 19.6667 5.83341 19.6667C3.80837 19.6667 2.16675 18.025 2.16675 16ZM13.8334 15C13.2811 15 12.8334 15.4477 12.8334 16C12.8334 16.5523 13.2811 17 13.8334 17H29.8334C30.3857 17 30.8334 16.5523 30.8334 16C30.8334 15.4477 30.3857 15 29.8334 15H13.8334ZM3.16675 23C2.61446 23 2.16675 23.4477 2.16675 24C2.16675 24.5523 2.61446 25 3.16675 25H16.5001H29.8334C30.3857 25 30.8334 24.5523 30.8334 24C30.8334 23.4477 30.3857 23 29.8334 23H16.5001H3.16675Z" fill="#3955FE"/>
</svg>
