<svg width="33" height="32" viewBox="0 0 33 32" fill="none" xmlns="http://www.w3.org/2000/svg">
<path fill-rule="evenodd" clip-rule="evenodd" d="M3 7C2.44771 7 2 7.44771 2 8C2 8.55228 2.44771 9 3 9H16.3333H29.6667C30.219 9 30.6667 8.55228 30.6667 8C30.6667 7.44771 30.219 7 29.6667 7H16.3333H3ZM3.00001 15C2.44771 15 2.00001 15.4477 2.00001 16C2.00001 16.5523 2.44771 17 3.00001 17H29.6667C30.219 17 30.6667 16.5523 30.6667 16C30.6667 15.4477 30.219 15 29.6667 15H3.00001ZM3 23C2.44771 23 2 23.4477 2 24C2 24.5523 2.44771 25 3 25H16.3333H29.6667C30.219 25 30.6667 24.5523 30.6667 24C30.6667 23.4477 30.219 23 29.6667 23H16.3333H3Z" fill="#F28402"/>
</svg>
