<svg xmlns="http://www.w3.org/2000/svg" width="101" height="32" viewBox="0 0 101 32" fill="none">
    <mask id="path-1-inside-1" fill="white">
        <path d="M100.344 17.6314C100.312 17.2289 100.242 16.8314 100.12 16.4439C99.9782 16.0014 99.7689 15.5739 99.5372 15.1864C99.3528 14.8814 99.1559 14.6014 98.7822 14.3739C98.6501 14.2939 98.4957 14.2189 98.4832 14.1189C98.4707 14.0264 98.5829 13.9114 98.6526 13.7964C98.8046 13.5514 98.7872 13.3039 98.7872 13.0389C98.7872 13.0339 98.7872 13.0289 98.7872 13.0239C98.7872 12.6664 98.8246 12.2839 98.6452 11.9889C98.5305 11.7989 98.3237 11.6464 98.2315 11.4539C98.0995 11.1814 98.1917 10.8314 98.234 10.5039C98.2988 10.0189 98.2614 9.58889 98.3736 9.10389C98.3985 8.99639 98.4309 8.88639 98.4084 8.79139C98.386 8.68889 98.2988 8.60639 98.1892 8.52389C98.1045 8.46139 98.0073 8.39889 97.9948 8.34889C97.9699 8.24389 98.3312 8.19889 98.4633 8.04889C98.5579 7.94139 98.5405 7.78389 98.4782 7.65639C98.4358 7.57389 98.3761 7.50389 98.2988 7.47139C98.1942 7.42639 98.0571 7.45389 97.935 7.49389C97.6859 7.57639 97.4865 7.70889 97.2722 7.83389C97.0904 7.94139 96.896 8.04139 96.6917 8.07639C96.4575 8.11389 96.2133 8.06389 95.9716 8.03389C95.6203 7.98889 95.2739 7.98639 94.9276 7.96639C94.0979 7.91139 93.2731 7.74139 92.4459 7.60639C91.3246 7.42639 90.1984 7.31639 89.0747 7.15639C88.514 7.07889 87.9534 6.98889 87.4028 6.85389C86.5232 6.63889 85.6735 6.31139 84.8314 5.96889C83.9194 5.59889 83.0199 5.20889 82.098 4.87389C81.2085 4.55139 80.299 4.28139 79.3896 4.00639C78.1537 3.63639 76.9153 3.26389 75.7119 2.81889C75.1388 2.60889 74.5707 2.38138 73.9702 2.21138C73.6662 2.12638 73.3547 2.05639 73.1031 1.87139C72.9237 1.73639 72.7767 1.54389 72.7518 1.30889C72.7293 1.07639 72.824 0.801389 72.6845 0.661389C72.6347 0.611389 72.5549 0.57889 72.4752 0.56139C72.3282 0.52639 72.1837 0.538888 72.0391 0.543888C71.486 0.568888 70.9204 0.501388 70.3647 0.551388C70.001 0.586388 69.6397 0.671388 69.3108 0.863888C69.1264 0.971388 68.9545 1.11138 68.7651 1.14888C68.501 1.20138 68.2094 1.04889 67.9204 0.963887C67.599 0.868887 67.2825 0.858887 66.9636 0.838887C66.3631 0.801387 65.7552 0.728883 65.1497 0.663883C63.6547 0.503883 62.1647 0.381385 60.6672 0.321385C59.3566 0.268885 58.0435 0.263883 56.7328 0.288883C54.6423 0.326383 52.5593 0.436387 50.4663 0.628887C48.5303 0.808887 46.5868 1.05889 44.7604 1.68639C43.9506 1.96389 43.1657 2.31639 42.3858 2.67889C41.1724 3.24139 39.9739 3.82639 38.7879 4.44139C37.4822 5.11889 36.194 5.83639 34.9432 6.60889C33.7372 7.35389 32.5637 8.15139 31.3901 8.94639C30.3137 9.02389 29.2398 9.10139 28.1634 9.17889C24.6975 9.43139 21.2316 9.69389 17.7806 10.1464C15.7325 10.4139 13.6868 10.7489 11.6885 11.2614C10.206 11.6414 8.74833 12.1164 7.33555 12.7214C6.02992 13.2814 4.76166 13.9514 3.60304 14.7439C3.21434 15.0114 2.83809 15.2914 2.50172 15.6489C2.32481 15.8364 2.16036 16.0439 2.10554 16.2814C2.06069 16.4639 2.08312 16.6614 2.0881 16.8564C2.09059 16.9614 2.09059 17.0639 2.0881 17.1664C2.07814 17.4539 2.05322 17.7364 2.08063 18.0314C2.10056 18.2239 2.14043 18.4214 2.0881 18.5964C2.04824 18.7214 1.95853 18.8339 1.8489 18.9264C1.74425 19.0164 1.61967 19.0864 1.55987 19.1939C1.50754 19.2939 1.51253 19.4289 1.51502 19.5614C1.52997 20.0589 1.51502 20.5064 1.63462 20.9589C1.7293 21.3089 1.90123 21.6614 1.87631 22.0164C1.86634 22.1714 1.81651 22.3264 1.78162 22.4839C1.69442 22.9114 1.73428 23.3464 1.73927 23.7814C1.74923 24.3939 1.69442 25.0014 1.64708 25.6139C1.62963 25.8339 1.61469 26.0564 1.48014 26.2564C1.221 26.6414 0.523333 26.9489 0.625492 27.1964C0.680308 27.3239 0.939442 27.4339 1.18612 27.5189C2.15039 27.8489 2.90038 27.7589 3.7027 27.7289C4.73923 27.6914 5.86547 27.7489 6.9618 27.7289C7.62957 27.7164 8.28737 27.6739 8.94517 27.6314C8.83802 26.5539 8.73337 25.4739 8.75829 24.3914C8.78321 23.2839 8.94268 22.1739 9.26909 21.1139C9.55314 20.1989 9.96177 19.3214 10.495 18.5264C10.8388 18.0139 11.235 17.5339 11.6935 17.1239C12.4534 16.4439 13.3803 15.9514 14.3546 15.6064C14.3745 15.5989 14.3944 15.5914 14.4169 15.5839C14.3222 15.5489 14.2275 15.5139 14.1353 15.4789C14.0257 15.4364 13.916 15.3964 13.8064 15.3539C13.6968 15.3139 13.5871 15.2714 13.475 15.2339C13.3355 15.1864 13.196 15.1439 13.0539 15.1064C12.8446 15.0539 12.6328 15.0164 12.4185 14.9864C12.132 14.9439 11.8455 14.9139 11.5564 14.8614C11.4069 14.8339 11.2574 14.8014 11.1079 14.8014C11.0207 14.7989 10.9335 14.8089 10.8488 14.8214C10.7965 14.8314 10.7442 14.8414 10.6918 14.8514C10.3928 15.1339 10.0863 15.4089 9.74748 15.6339C9.22174 15.9864 8.61377 16.2139 8.04816 16.5139C7.64451 16.7264 7.26329 16.9764 6.86463 17.1939C6.19686 17.5589 5.48175 17.8364 4.77661 18.1264C4.59472 18.2014 4.41283 18.2764 4.23343 18.3514C4.15868 18.1964 4.08642 18.0414 4.01914 17.8739C3.96682 17.7389 3.91948 17.5989 3.80735 17.5139C3.67529 17.4114 3.45104 17.3889 3.31649 17.4739C3.20686 17.5389 3.15453 17.6714 3.08975 17.7939C2.97015 18.0139 2.81318 18.1939 2.63876 18.3514C2.55903 18.4214 2.47929 18.4864 2.39458 18.5514C2.39956 18.5214 2.40205 18.4939 2.40454 18.4664C2.40952 18.3539 2.39956 18.2539 2.38959 18.1614C2.38461 18.1089 2.37714 18.0614 2.37215 18.0164C2.36966 17.9764 2.36717 17.9389 2.36468 17.9014C2.36219 17.8639 2.35969 17.8239 2.35969 17.7864C2.35969 17.7089 2.35969 17.6289 2.36218 17.5489C2.36468 17.4289 2.37464 17.3064 2.37713 17.1764C2.37962 17.1339 2.38212 17.0889 2.38212 17.0439C2.38212 16.9914 2.38212 16.9389 2.38212 16.8864C2.37963 16.8439 2.37962 16.8039 2.37713 16.7639C2.37464 16.7239 2.37464 16.6864 2.37215 16.6489C2.36966 16.5764 2.36966 16.5114 2.37215 16.4539C2.37464 16.4214 2.37963 16.3889 2.38461 16.3614C2.38959 16.3414 2.39458 16.3214 2.40205 16.2989C2.40953 16.2764 2.41949 16.2564 2.42946 16.2339C2.45188 16.1889 2.47929 16.1414 2.51169 16.0939C2.56152 16.0214 2.62381 15.9464 2.69358 15.8714C2.70853 15.8564 2.72348 15.8389 2.74092 15.8214C2.93278 15.8339 3.12463 15.7839 3.31649 15.7439C3.58808 15.6839 3.85968 15.6414 4.11881 15.5614C4.47761 15.4514 4.81399 15.2764 5.16033 15.1139C5.72843 14.8464 6.31895 14.6164 6.9319 14.5139C7.22592 14.4639 7.52741 14.4439 7.82641 14.4314C8.31976 14.4114 8.8156 14.4114 9.30646 14.4564C9.76991 14.4964 10.2284 14.5789 10.6893 14.6639C10.8438 14.6364 11.0008 14.6114 11.1578 14.6189C11.2624 14.6239 11.3696 14.6439 11.4742 14.6614C11.7857 14.7164 12.0971 14.7539 12.4086 14.7989C12.6901 14.8414 12.9742 14.8914 13.2483 14.9689C13.4526 15.0289 13.6519 15.1039 13.8513 15.1789C13.8562 15.1814 13.8637 15.1839 13.8687 15.1864C14.1453 15.2889 14.4169 15.3889 14.6934 15.4914C15.6154 15.1989 16.5722 15.0364 17.529 15.0589C18.7997 15.0864 20.0705 15.4389 21.1867 16.0439C22.2307 16.6114 23.1427 17.4039 23.8453 18.2714C24.6576 19.2764 25.1908 20.3839 25.5671 21.8264C25.7789 22.6389 25.9408 23.5564 25.9408 24.4214C26.6235 24.4189 27.3063 24.4189 27.989 24.4164C29.0828 24.4164 30.1767 24.4164 31.268 24.4114C31.258 24.2589 31.2456 24.1089 31.2306 23.9564C31.1733 23.4114 31.0612 22.8739 30.959 22.3314C30.7597 21.2839 30.5978 20.2264 30.5105 19.1639C30.4184 18.0014 30.4159 16.8339 30.4831 15.6664C30.518 15.0489 30.5728 14.4339 30.7099 13.8314C30.8394 13.2714 31.0388 12.7214 31.3203 12.2214C31.4599 11.9739 31.6193 11.7389 31.7913 11.5089C31.9682 11.2714 32.1575 11.0439 32.3768 10.8564C32.7231 10.5614 33.1467 10.3664 33.5678 10.1739C33.5803 10.1664 33.5927 10.1589 33.6052 10.1514C33.65 10.2264 33.6974 10.3039 33.7422 10.3789C33.3062 10.6464 32.8726 10.9164 32.5114 11.2664C32.1825 11.5864 31.9133 11.9739 31.6991 12.3864C31.4225 12.9139 31.2331 13.4814 31.111 14.0614C30.9291 14.9364 30.9017 15.8364 30.9142 16.7339C30.9267 17.7614 30.9865 18.7814 31.0861 19.7964C31.1908 20.8439 31.3378 21.8889 31.5097 22.9264C31.5919 23.4214 31.6816 23.9164 31.7688 24.4089C37.7563 24.3739 43.7438 24.1614 49.7288 23.9664C52.3575 23.8789 54.9862 23.7964 57.6149 23.7164C57.9562 23.7064 58.2976 23.6939 58.6365 23.6839C58.8607 23.2764 59.0825 22.8689 59.2843 22.4514C59.6132 21.7789 59.8923 21.0789 60.1589 20.3764C60.5152 19.4364 60.8541 18.4914 61.1755 17.5414C61.5069 16.5489 61.8183 15.5514 62.1198 14.5489C62.2419 14.1489 62.359 13.7464 62.4313 13.3289C62.5334 12.7214 62.5309 12.0839 62.3665 11.4914C62.2519 11.0764 62.0575 10.6814 61.8183 10.3239C61.5692 9.95139 61.2727 9.61889 60.9761 9.28639C61.0858 9.25639 61.1979 9.22639 61.3075 9.19639C61.4844 9.37639 61.6614 9.55389 61.8333 9.74139C62.1522 10.0864 62.4487 10.4614 62.6505 10.8839C62.9271 11.4664 63.0193 12.1439 62.9745 12.7939C62.9271 13.4464 62.7402 14.0714 62.5534 14.6939C62.354 15.3664 62.1522 16.0339 61.9354 16.6989C61.609 17.6964 61.2428 18.6839 60.8665 19.6664C60.5276 20.5489 60.1788 21.4264 59.815 22.2989C59.7428 22.4739 59.668 22.6489 59.5883 22.8189C59.4562 23.1089 59.3042 23.3889 59.1522 23.6689C60.9388 23.6114 62.7253 23.5539 64.5093 23.4739C66.3606 23.3939 68.2119 23.2939 70.0608 23.2089C70.7161 23.1814 71.3689 23.1539 72.0242 23.1264C72.0815 22.5989 72.1587 22.0789 72.2933 21.5689C72.4503 20.9864 72.687 20.4239 72.9536 19.8814C73.2426 19.2914 73.569 18.7264 73.9727 18.2089C74.3115 17.7739 74.7052 17.3739 75.1388 17.0164C75.682 16.5689 76.2824 16.1889 76.9228 15.9039C77.8572 15.4864 78.8713 15.2714 79.8929 15.2339C81.196 15.1839 82.5066 15.4239 83.6852 15.9664C84.1661 16.1889 84.6245 16.4589 85.0531 16.7739C85.5988 16.6314 86.1445 16.4889 86.6876 16.3439C87.5448 16.1139 88.3994 15.8764 89.259 15.6489C90.1311 15.4189 91.0107 15.1989 91.8778 14.9664C92.0298 14.9264 92.1793 14.8839 92.3313 14.8439C92.6303 14.7664 92.9318 14.6914 93.2432 14.6389C93.5248 14.5914 93.8138 14.5589 94.0655 14.4364C94.2673 14.3389 94.4467 14.1839 94.6062 14.0164C94.7482 13.8739 94.8728 13.7214 94.9999 13.5689C94.7033 13.4064 94.4243 13.2114 94.1477 13.0114C93.7764 12.7439 93.4102 12.4689 93.0414 12.1689C92.867 12.0264 92.6901 11.8764 92.5954 11.6614C92.5406 11.5339 92.5132 11.3814 92.5431 11.2464C92.5829 11.0764 92.7075 10.9314 92.8321 10.8139C93.009 10.6414 93.1834 10.5264 93.3803 10.4039C93.5671 10.2914 93.7789 10.1714 93.9982 10.1214C94.205 10.0739 94.4218 10.0864 94.6336 10.0939C95.1469 10.1164 95.6402 10.1114 96.1435 10.1239C96.5322 10.1364 96.9259 10.1564 97.2897 10.3289C97.4242 10.3939 97.5538 10.4764 97.6385 10.5814C97.6709 10.6239 97.6958 10.6664 97.7183 10.7164C97.7008 10.8314 97.6859 10.9489 97.6834 11.0664C97.6784 11.2239 97.6958 11.3839 97.7457 11.5339C97.788 11.6614 97.8578 11.7814 97.94 11.8889C97.9874 11.9514 98.0372 12.0089 98.092 12.0664C98.1518 12.1314 98.2166 12.1964 98.254 12.2739C98.2689 12.3114 98.2814 12.3514 98.2888 12.3939C98.3113 12.5089 98.3088 12.6264 98.3088 12.7414C98.3113 12.8414 98.3113 12.9414 98.3113 13.0389C98.3113 13.1214 98.3113 13.2039 98.3063 13.2889C98.3013 13.3589 98.2963 13.4289 98.2714 13.4914C98.249 13.5464 98.2091 13.5964 98.1717 13.6489C98.1194 13.7214 98.0721 13.7989 98.0422 13.8839C98.0222 13.9414 98.0123 14.0039 98.0023 14.0664C97.9874 14.0689 97.9724 14.0689 97.9575 14.0689C97.484 14.0964 97.0081 14.1089 96.5372 14.0514C96.1261 14.0014 95.7199 13.8964 95.3412 13.7339C95.2988 13.7864 95.254 13.8364 95.2116 13.8889C95.1194 13.9989 95.0248 14.1089 94.9276 14.2139C94.808 14.3414 94.6834 14.4664 94.5439 14.5689C94.3495 14.7114 94.1278 14.8189 93.8985 14.8864C93.617 14.9714 93.3254 15.0014 93.0364 15.0539C92.8296 15.0914 92.6253 15.1414 92.421 15.1939C92.2167 15.2464 92.0148 15.3064 91.8105 15.3639C91.0107 15.5889 90.2034 15.7839 89.3986 15.9939C88.5813 16.2064 87.7665 16.4339 86.9518 16.6539C86.441 16.7914 85.9277 16.9264 85.4144 17.0614C85.7159 17.3114 85.9975 17.5839 86.2541 17.8789C87.1262 18.8714 87.7267 20.0914 88.1278 21.3639C88.4343 22.3414 88.6287 23.3514 88.6212 24.3614C88.6162 24.7989 88.5763 25.2364 88.5365 25.6739C89.0099 25.5989 89.4833 25.5239 89.9567 25.4489C91.1652 25.2589 92.3686 25.0714 93.5871 24.8814C94.5189 24.7364 95.4583 24.5889 96.3578 24.4364C97.1302 24.3039 97.8752 24.1664 98.4782 24.0364C98.8345 23.9589 99.1385 23.8864 99.4275 23.5339C99.6792 23.2264 99.9184 22.7114 100.063 22.2464C100.295 21.4889 100.28 20.8589 100.302 20.2014C100.33 19.3639 100.417 18.4814 100.344 17.6314ZM3.52829 22.7939C3.53576 22.7364 3.54573 22.6789 3.56566 22.6264C3.62297 22.4864 3.7625 22.3889 3.89456 22.3089C4.02164 22.2339 4.14622 22.1764 4.29572 22.1339C4.40037 22.1064 4.51997 22.0839 4.60219 22.1314C4.67196 22.1689 4.71432 22.2564 4.75169 22.3389C4.85634 22.5614 4.93109 22.7514 5.02329 22.9664C5.07063 23.0739 5.12295 23.1889 5.1678 23.3039C5.26249 23.5514 5.36963 23.7914 5.47428 24.0364C5.58142 24.2889 5.68357 24.5489 5.77577 24.7914C5.82062 24.9089 5.86297 25.0214 5.91281 25.1614C5.93523 25.2164 5.95766 25.2764 5.94769 25.3189C5.92277 25.4189 5.72843 25.4314 5.56149 25.4414C5.21514 25.4639 4.99089 25.4764 4.75667 25.4139C4.49505 25.3464 4.21848 25.1814 4.03908 24.9539C3.88459 24.7539 3.80486 24.5089 3.73758 24.2639C3.64788 23.9239 3.5831 23.5889 3.54323 23.2439C3.52579 23.0964 3.51334 22.9464 3.52829 22.7939ZM29.7929 17.2314C29.7307 17.4114 29.5463 17.5439 29.3594 17.6239C29.0878 17.7389 28.8187 17.7364 28.5172 17.7814C28.3378 17.8064 28.146 17.8514 28.0488 17.9839C28.0014 18.0514 27.9765 18.1389 27.9665 18.2264C27.9441 18.4214 28.0039 18.6089 28.0712 18.7939C28.2531 19.2989 28.4873 19.7989 28.6941 20.2414C28.8062 20.4789 28.9109 20.7014 29.023 21.0214C29.0778 21.1789 29.1351 21.3589 29.033 21.4364C29.0031 21.4564 28.9607 21.4714 28.9209 21.4739C28.8212 21.4764 28.734 21.4114 28.6617 21.3414C28.5122 21.1964 28.4175 21.0289 28.3204 20.8589C28.0637 20.4189 27.7971 19.9689 27.5579 19.5189C27.3187 19.0664 27.1069 18.6139 26.8976 18.1239C26.8179 17.9389 26.7382 17.7489 26.7631 17.5539C26.783 17.4114 26.8602 17.2639 26.9699 17.1714C27.097 17.0664 27.2664 17.0314 27.4358 17.0014C27.9342 16.9139 28.4101 16.8814 28.8959 16.8839C29.1999 16.8839 29.5089 16.8989 29.8179 16.9114C29.8204 17.0239 29.8253 17.1339 29.7929 17.2314ZM40.5345 8.74389C40.2604 8.76389 39.9863 8.80139 39.7098 8.81389C39.5179 8.82139 39.3261 8.81889 39.1367 8.81889C38.8726 8.82139 38.6184 8.82889 38.3269 8.83639C38.2546 8.83889 38.1799 8.83889 38.1276 8.80139C38.0927 8.77639 38.0703 8.73139 38.0603 8.68139C38.0428 8.60139 38.0603 8.50639 38.1176 8.46389C38.1425 8.44389 38.1774 8.43639 38.2098 8.42889C38.3119 8.40639 38.4091 8.39889 38.5088 8.38889C38.6807 8.36889 38.8576 8.34639 39.0345 8.33639C39.3036 8.32389 39.5727 8.34139 39.8418 8.34639C40.096 8.35389 40.3526 8.34639 40.6093 8.33639C40.8186 8.33139 41.0279 8.32139 41.2372 8.31139C41.2471 8.40389 41.2571 8.49139 41.2721 8.57889C41.277 8.60639 41.282 8.63139 41.2895 8.65889C41.2397 8.66889 41.1923 8.67889 41.145 8.68889C40.9431 8.72389 40.7388 8.72889 40.5345 8.74389ZM60.6149 11.4514C60.5775 11.5889 60.4579 11.6989 60.3283 11.7639C60.1763 11.8414 60.0069 11.8614 59.8399 11.8714C59.4189 11.8964 59.0003 11.8614 58.5817 11.8539C58.3001 11.8489 58.0185 11.8564 57.737 11.8614C57.271 11.8739 56.8076 11.8864 56.3641 11.8864C56.1573 11.8889 55.9554 11.8864 55.7237 11.8814C55.5867 11.8764 55.4372 11.8739 55.3599 11.7714C55.3151 11.7139 55.2927 11.6214 55.3226 11.5589C55.3425 11.5164 55.3824 11.4864 55.4247 11.4614C55.5244 11.4014 55.6365 11.3689 55.7486 11.3389C56.0451 11.2614 56.3317 11.2064 56.6257 11.1589C57.1739 11.0714 57.7395 11.0039 58.2976 10.9514C58.7037 10.9114 59.1074 10.8789 59.5285 10.8539C59.8125 10.8364 60.1041 10.8214 60.3557 10.9414C60.428 10.9764 60.4953 11.0214 60.5426 11.0864C60.6198 11.1864 60.6472 11.3289 60.6149 11.4514ZM60.271 8.92139C57.3034 9.03139 54.3359 9.14139 51.3683 9.27389C49.3151 9.36389 47.262 9.46389 45.2089 9.57389C43.8758 9.64639 42.5428 9.72139 41.2098 9.79889C41.2845 9.70889 41.3568 9.62139 41.4166 9.52139C41.5112 9.36639 41.5686 9.18389 41.581 9.00139C41.596 8.71889 41.5013 8.44139 41.4664 8.16389C41.434 7.91139 41.4514 7.65889 41.429 7.39639C41.4116 7.15139 41.3568 6.89639 41.2073 6.71889C41.1051 6.59639 40.9531 6.51139 40.8036 6.44139C40.7114 6.39889 40.6217 6.36139 40.5295 6.32389C40.5644 6.30139 40.6018 6.27889 40.6392 6.25639C40.8734 6.11639 41.0328 6.01639 41.1998 5.91639C42.1715 5.33139 43.3526 4.76889 44.5062 4.24889C45.9364 3.60639 47.3243 3.03139 48.7969 2.66639C49.963 2.37889 51.1814 2.22139 52.3948 2.11889C53.7653 2.00389 55.1332 1.95389 56.5011 1.95139C57.7519 1.95139 59.0052 1.98639 60.2585 2.02139C61.0235 2.04389 61.7884 2.06388 62.5509 2.08638C62.4238 2.62888 62.2693 3.16639 62.1024 3.69889C61.6713 5.05889 61.1506 6.39139 60.6771 7.73889C60.5376 8.13139 60.4031 8.52639 60.271 8.92139ZM79.3646 6.99389C79.3273 7.13139 79.2226 7.23889 79.1205 7.33389C78.9136 7.53139 78.7118 7.68889 78.4951 7.85139C78.3779 7.94139 78.2558 8.03389 78.1238 8.10139C77.8871 8.22139 77.613 8.25889 77.3439 8.28639C76.3123 8.39889 75.3057 8.39889 74.2891 8.40889C73.143 8.41889 71.9893 8.44639 70.8357 8.47139C68.5658 8.52639 66.3008 8.58389 64.0384 8.70139C62.9595 8.75639 61.8831 8.82389 60.8042 8.89389C61.1107 8.06639 61.4197 7.23639 61.6987 6.39889C61.9977 5.50889 62.2643 4.60639 62.5085 3.69639C62.6505 3.17389 62.7851 2.64889 62.9172 2.12639C64.4122 2.27139 65.9071 2.41888 67.3822 2.66388C69.6945 3.04888 71.9569 3.67389 74.2119 4.43139C75.5474 4.87889 76.878 5.37389 78.0939 5.91639C78.4004 6.05139 78.7019 6.19139 79.0357 6.39889C79.1529 6.47139 79.2749 6.55139 79.3347 6.66889C79.3846 6.76639 79.3945 6.88889 79.3646 6.99389ZM80.2367 15.7839C76.0034 15.7839 72.5724 19.2264 72.5724 23.4764C72.5724 27.7239 76.0034 31.1664 80.2367 31.1664C84.4701 31.1664 87.9036 27.7239 87.9036 23.4764C87.9036 19.2264 84.4701 15.7839 80.2367 15.7839ZM85.3222 20.8164C85.1453 20.8539 84.9684 20.8939 84.7915 20.9339C84.495 21.0014 84.1985 21.0714 83.9045 21.1539C83.5581 21.2514 83.2168 21.3714 82.8754 21.4889C82.9227 21.4289 82.9701 21.3664 83.0149 21.3039C83.2093 21.0364 83.3787 20.7514 83.5531 20.4714C83.7824 20.1039 84.0241 19.7439 84.2682 19.3839C84.6918 19.8039 85.0456 20.2839 85.3222 20.8164ZM84.0789 19.2039C83.9867 19.3014 83.8945 19.3989 83.8098 19.5039C83.6179 19.7364 83.4659 19.9989 83.3089 20.2564C82.9975 20.7639 82.6686 21.2514 82.2301 21.6714C82.0631 21.8289 81.8812 21.9789 81.7093 22.1089C81.5897 22.1989 81.4751 22.2789 81.3131 22.3689C81.1836 22.4389 81.0266 22.5114 80.9444 22.4339C80.9169 22.4089 80.897 22.3689 80.887 22.3289C80.8646 22.2514 80.8721 22.1789 80.8771 22.1064C80.8871 21.9689 80.8895 21.8314 80.8995 21.6939C80.9194 21.4764 80.9593 21.2589 81.0266 21.0514C81.0988 20.8364 81.201 20.6314 81.3081 20.4289C81.49 20.0839 81.6819 19.7439 81.8912 19.4164C82.1379 19.0239 82.4095 18.6489 82.6811 18.2714C83.1918 18.5114 83.6603 18.8264 84.0789 19.2039ZM82.397 18.1464C82.2002 18.4314 82.0008 18.7164 81.809 19.0039C81.5673 19.3639 81.3306 19.7264 81.0963 20.0989C81.059 20.1589 81.0216 20.2189 80.9842 20.2814C80.9618 19.9139 80.9394 19.5464 80.8945 19.1839C80.8596 18.8789 80.8098 18.5789 80.7575 18.2789C80.7276 18.0989 80.6952 17.9189 80.6628 17.7389C81.2608 17.7839 81.8438 17.9214 82.397 18.1464ZM79.6113 18.7239C79.6462 18.3989 79.6711 18.0739 79.6985 17.7489C79.8829 17.7314 80.0648 17.7214 80.2492 17.7239C80.3015 18.0439 80.3538 18.3664 80.4136 18.6864C80.5008 19.1714 80.603 19.6564 80.6453 20.1489C80.6703 20.4264 80.6777 20.7064 80.6827 20.9864C80.6429 21.1764 80.6254 21.3739 80.608 21.5639C80.5905 21.7389 80.5706 21.9089 80.5581 22.0964C80.5507 22.2264 80.5482 22.3639 80.4709 22.4514C80.3812 22.5539 80.1919 22.5889 80.0598 22.5339C79.9776 22.4989 79.9153 22.4314 79.8754 22.3564C79.7957 22.2139 79.7832 22.0489 79.7608 21.8864C79.7259 21.6214 79.6612 21.3664 79.569 21.1214C79.5565 21.0914 79.5465 21.0639 79.5341 21.0339C79.5141 20.7564 79.4942 20.4789 79.4942 20.2014C79.4967 19.7064 79.5615 19.2164 79.6113 18.7239ZM80.7425 23.4764C80.7425 23.7564 80.5158 23.9839 80.2367 23.9839C79.9577 23.9839 79.7309 23.7564 79.7309 23.4764C79.7309 23.1939 79.9577 22.9664 80.2367 22.9664C80.5158 22.9664 80.7425 23.1939 80.7425 23.4764ZM79.2874 17.8014C79.27 17.9839 79.2525 18.1639 79.2376 18.3439C79.2102 18.6489 79.1827 18.9539 79.1703 19.2589C79.1553 19.6189 79.1628 19.9814 79.1678 20.3439C79.1279 20.2789 79.0831 20.2164 79.0382 20.1539C78.8439 19.8839 78.6271 19.6364 78.4153 19.3839C78.1363 19.0489 77.8721 18.7064 77.6055 18.3639C78.1338 18.0914 78.6994 17.9014 79.2874 17.8014ZM77.3763 18.4914C77.4411 18.6089 77.5034 18.7264 77.5756 18.8389C77.7376 19.0939 77.9394 19.3214 78.1363 19.5514C78.52 20.0039 78.8813 20.4664 79.1429 21.0164C79.2425 21.2239 79.3273 21.4439 79.397 21.6489C79.4444 21.7914 79.4867 21.9264 79.5191 22.1064C79.5465 22.2514 79.569 22.4239 79.4693 22.4789C79.4369 22.4964 79.3921 22.5039 79.3497 22.5014C79.2725 22.4989 79.2052 22.4689 79.1379 22.4414C79.0108 22.3914 78.8813 22.3464 78.7542 22.2914C78.5524 22.2064 78.358 22.1014 78.1836 21.9714C78.0017 21.8364 77.8397 21.6764 77.6803 21.5114C77.4087 21.2314 77.1471 20.9439 76.9004 20.6439C76.6064 20.2864 76.3323 19.9089 76.0607 19.5339C76.4469 19.1239 76.8879 18.7714 77.3763 18.4914ZM75.8539 19.7664C76.0632 20.0439 76.2725 20.3214 76.4843 20.5939C76.7509 20.9364 77.0225 21.2739 77.3015 21.6114C77.3464 21.6664 77.3937 21.7214 77.4411 21.7764C77.0848 21.6839 76.731 21.5914 76.3722 21.5214C76.0732 21.4614 75.7717 21.4164 75.4727 21.3739C75.2908 21.3464 75.1114 21.3214 74.932 21.2964C75.1587 20.7389 75.4677 20.2264 75.8539 19.7664ZM74.7899 21.6839C75.1089 21.7339 75.4303 21.7839 75.7517 21.8264C76.2401 21.8939 76.7309 21.9464 77.2093 22.0564C77.4809 22.1189 77.7475 22.1989 78.0142 22.2814C78.1836 22.3789 78.3655 22.4564 78.5399 22.5314C78.7019 22.6039 78.8563 22.6739 79.0308 22.7439C79.1504 22.7889 79.2799 22.8364 79.3397 22.9364C79.407 23.0539 79.3821 23.2439 79.2899 23.3539C79.2326 23.4214 79.1479 23.4589 79.0631 23.4764C78.9062 23.5064 78.7467 23.4664 78.5848 23.4389C78.3231 23.3914 78.0615 23.3739 77.7999 23.3864C77.7675 23.3864 77.7376 23.3889 77.7077 23.3914C77.4361 23.3239 77.167 23.2589 76.9029 23.1714C76.4369 23.0189 75.9909 22.8039 75.5399 22.6039C75.2434 22.4714 74.9419 22.3464 74.6429 22.2189C74.6828 22.0389 74.7301 21.8614 74.7899 21.6839ZM74.5657 22.6289C74.7326 22.7014 74.8996 22.7739 75.064 22.8439C75.3456 22.9639 75.6246 23.0839 75.9112 23.1889C76.25 23.3164 76.5939 23.4214 76.9402 23.5264C76.8655 23.5464 76.7908 23.5689 76.7185 23.5939C76.4045 23.6939 76.1006 23.8264 75.7941 23.9489C75.3929 24.1114 74.9868 24.2589 74.5806 24.4089C74.4835 23.8189 74.4785 23.2214 74.5657 22.6289ZM74.628 24.6664C74.76 24.6414 74.8921 24.6164 75.0217 24.5814C75.3132 24.5064 75.5898 24.3839 75.8688 24.2689C76.4145 24.0414 76.9677 23.8389 77.5681 23.7589C77.7949 23.7289 78.0316 23.7164 78.2459 23.7139C78.3954 23.7114 78.5349 23.7114 78.7193 23.7364C78.8638 23.7564 79.0333 23.7889 79.0557 23.9014C79.0632 23.9364 79.0532 23.9814 79.0407 24.0214C79.0133 24.0939 78.9635 24.1489 78.9186 24.2064C78.8289 24.3114 78.7467 24.4214 78.657 24.5239C78.515 24.6914 78.3555 24.8439 78.1786 24.9714C77.9942 25.1039 77.7899 25.2064 77.5881 25.3089C77.2368 25.4814 76.8829 25.6414 76.5216 25.7839C76.0906 25.9539 75.6521 26.0989 75.211 26.2439C74.9394 25.7489 74.7451 25.2189 74.628 24.6664ZM76.5316 27.8639C76.0756 27.4764 75.6844 27.0214 75.368 26.5114C75.6944 26.3989 76.0233 26.2839 76.3472 26.1664C76.7534 26.0164 77.157 25.8614 77.5632 25.7014C77.6304 25.6739 77.6952 25.6464 77.7625 25.6189C77.5657 25.9289 77.3688 26.2389 77.1919 26.5589C77.0424 26.8264 76.9054 27.0989 76.7708 27.3739C76.6911 27.5364 76.6114 27.7014 76.5316 27.8639ZM77.6828 28.6264C77.8024 28.4889 77.922 28.3514 78.0416 28.2164C78.2409 27.9864 78.4427 27.7564 78.6296 27.5164C78.8538 27.2314 79.0607 26.9339 79.2675 26.6389C79.265 26.7164 79.2625 26.7914 79.2625 26.8689C79.26 27.2014 79.2924 27.5314 79.3148 27.8614C79.3447 28.2939 79.3597 28.7289 79.3746 29.1614C78.7841 29.0714 78.216 28.8914 77.6828 28.6264ZM79.3771 25.8639C79.2301 26.1014 79.0831 26.3389 78.9186 26.5614C78.6296 26.9614 78.2882 27.3189 77.9593 27.6889C77.7426 27.9314 77.5308 28.1789 77.319 28.4264C77.1595 28.3314 77.005 28.2314 76.8555 28.1214C77.0025 27.8289 77.1471 27.5414 77.2891 27.2464C77.5034 26.8014 77.7052 26.3489 77.9568 25.9264C78.1014 25.6864 78.2583 25.4564 78.4178 25.2264C78.5623 25.0964 78.6919 24.9464 78.819 24.8039C78.9361 24.6714 79.0507 24.5464 79.1703 24.4014C79.2525 24.3014 79.3347 24.1914 79.4494 24.1664C79.5814 24.1364 79.7533 24.2189 79.8281 24.3414C79.8754 24.4189 79.8854 24.5089 79.8754 24.5964C79.8555 24.7564 79.7683 24.8964 79.6911 25.0414C79.5665 25.2764 79.4693 25.5214 79.3995 25.7739C79.392 25.8039 79.3846 25.8339 79.3771 25.8639ZM79.6313 29.1964C79.6487 29.0614 79.6661 28.9289 79.6736 28.7939C79.691 28.4939 79.6611 28.1914 79.6387 27.8889C79.5914 27.2964 79.5714 26.7089 79.6811 26.1114C79.7234 25.8839 79.7832 25.6564 79.848 25.4489C79.8904 25.3039 79.9377 25.1714 80.0175 25.0039C80.0798 24.8739 80.162 24.7214 80.2766 24.7339C80.3115 24.7389 80.3513 24.7614 80.3837 24.7864C80.446 24.8339 80.4834 24.8989 80.5233 24.9614C80.5955 25.0764 80.6728 25.1889 80.745 25.3064C80.8571 25.4939 80.9518 25.6939 81.0191 25.9039C81.0864 26.1189 81.1238 26.3439 81.1562 26.5714C81.211 26.9589 81.2533 27.3464 81.2782 27.7339C81.3057 28.1964 81.3081 28.6614 81.3081 29.1264C80.755 29.2314 80.1919 29.2564 79.6313 29.1964ZM81.6121 29.0589C81.6046 28.7114 81.5972 28.3639 81.5847 28.0189C81.5698 27.5839 81.5473 27.1539 81.5199 26.7139C81.5149 26.6439 81.51 26.5714 81.505 26.4989C81.7367 26.7839 81.9709 27.0664 82.2201 27.3364C82.4269 27.5589 82.6437 27.7714 82.8604 27.9864C82.99 28.1139 83.1196 28.2414 83.2491 28.3714C82.7408 28.6839 82.1902 28.9164 81.6121 29.0589ZM83.5955 28.1364C83.3663 27.9064 83.137 27.6789 82.9003 27.4539C82.544 27.1114 82.1777 26.7789 81.8563 26.4089C81.6719 26.1989 81.505 25.9739 81.3355 25.7514C81.2558 25.5739 81.1537 25.4039 81.0565 25.2389C80.9693 25.0864 80.887 24.9389 80.7849 24.7789C80.7151 24.6714 80.6379 24.5564 80.6478 24.4389C80.6603 24.3064 80.7924 24.1664 80.9344 24.1314C81.0191 24.1114 81.1088 24.1314 81.1861 24.1664C81.3331 24.2339 81.4402 24.3614 81.5523 24.4789C81.7367 24.6714 81.9385 24.8414 82.1578 24.9864C82.1827 25.0014 82.2101 25.0189 82.235 25.0339C82.4144 25.2489 82.5938 25.4614 82.7558 25.6864C83.0448 26.0864 83.279 26.5239 83.5257 26.9514C83.6902 27.2339 83.8596 27.5114 84.029 27.7914C83.8895 27.9139 83.745 28.0289 83.5955 28.1364ZM84.3305 27.5039C84.2383 27.3489 84.1462 27.1914 84.0515 27.0364C83.897 26.7739 83.74 26.5114 83.5706 26.2589C83.3712 25.9564 83.1545 25.6664 82.9352 25.3789C83.0074 25.4064 83.0797 25.4314 83.1545 25.4539C83.4684 25.5589 83.7898 25.6314 84.1088 25.7114C84.5299 25.8164 84.946 25.9364 85.3621 26.0564C85.093 26.5914 84.7466 27.0764 84.3305 27.5039ZM85.4717 25.8214C85.3521 25.7614 85.23 25.7039 85.1054 25.6564C84.8264 25.5464 84.5299 25.4814 84.2358 25.4114C83.6603 25.2714 83.0972 25.1089 82.5639 24.8189C82.3621 24.7089 82.1628 24.5814 81.9884 24.4564C81.8638 24.3714 81.7517 24.2864 81.6196 24.1589C81.5125 24.0589 81.3953 23.9314 81.4427 23.8264C81.4576 23.7939 81.49 23.7639 81.5249 23.7389C81.5897 23.6964 81.662 23.6814 81.7342 23.6614C81.8663 23.6289 81.9958 23.5889 82.1304 23.5589C82.3422 23.5089 82.5614 23.4789 82.7807 23.4789C83.005 23.4814 83.2317 23.5164 83.456 23.5564C83.8397 23.6214 84.2209 23.7014 84.5971 23.7989C85.0432 23.9139 85.4842 24.0564 85.9252 24.1989C85.8554 24.7614 85.7034 25.3039 85.4717 25.8214ZM85.9551 23.8889C85.6237 23.7889 85.2923 23.6889 84.9609 23.5939C84.5448 23.4739 84.1287 23.3614 83.7051 23.2514C83.6354 23.2339 83.5656 23.2164 83.4958 23.2014C83.8372 23.0664 84.1785 22.9314 84.5099 22.7764C84.784 22.6489 85.0531 22.5064 85.3247 22.3664C85.4867 22.2814 85.6461 22.1989 85.8081 22.1164C85.9501 22.6989 85.9999 23.2939 85.9551 23.8889ZM84.8314 22.1614C84.3978 22.3964 83.9692 22.6439 83.5182 22.8364C83.2616 22.9464 82.9975 23.0389 82.7359 23.1314C82.5415 23.1514 82.3497 23.1964 82.1628 23.2364C81.9909 23.2739 81.8239 23.3089 81.642 23.3564C81.5174 23.3889 81.3854 23.4289 81.2782 23.3814C81.1562 23.3264 81.064 23.1589 81.0764 23.0139C81.0814 22.9264 81.1287 22.8464 81.1861 22.7839C81.2957 22.6639 81.4477 22.6014 81.5947 22.5314C81.8364 22.4139 82.0581 22.2739 82.2625 22.1089C82.2849 22.0914 82.3098 22.0714 82.3322 22.0514C82.5913 21.9464 82.848 21.8414 83.1121 21.7539C83.5805 21.6039 84.0664 21.5139 84.5473 21.4114C84.8662 21.3414 85.1827 21.2664 85.4991 21.1914C85.5714 21.3614 85.6387 21.5339 85.6935 21.7114C85.4044 21.8589 85.1179 22.0089 84.8314 22.1614ZM71.8847 26.7214C71.9694 27.1214 72.2061 27.6064 72.0665 27.8514C71.9096 28.1364 71.2518 28.0989 70.6488 28.0714C67.7784 27.9414 66.0816 28.0114 64.1281 28.0689C58.928 28.2264 51.9115 28.3164 45.4456 28.2839C40.3576 28.2614 35.6085 28.1639 30.7398 28.1414C28.6866 28.1339 26.6111 28.1364 24.538 28.1414C24.8021 27.7439 25.0687 27.3489 25.298 26.9339C25.5347 26.4964 25.7315 26.0389 25.8387 25.5314C25.8885 25.2914 25.9184 25.0389 25.9309 24.7814C28.582 24.7364 31.2306 24.6939 33.8818 24.6389C38.6259 24.5364 43.3675 24.3989 48.1142 24.3114C52.9156 24.2239 57.7195 24.1914 62.5185 23.9739C64.5716 23.8789 66.6223 23.7514 68.6729 23.6314C69.7792 23.5664 70.883 23.5039 71.9893 23.4414C71.9744 23.5689 71.9619 23.6964 71.9494 23.8239C71.8896 24.4014 71.8249 24.9814 71.8124 25.5764C71.8074 25.8814 71.8149 26.1889 71.8448 26.4614C71.8548 26.5489 71.8647 26.6339 71.8847 26.7214ZM17.1876 15.6014C12.9543 15.6014 9.52323 19.0464 9.52323 23.2939C9.52323 27.5414 12.9543 30.9839 17.1876 30.9839C21.4209 30.9839 24.8545 27.5414 24.8545 23.2939C24.8545 19.0464 21.4209 15.6014 17.1876 15.6014ZM22.6444 21.5289C22.3553 21.6764 22.0688 21.8264 21.7822 21.9814C21.3487 22.2139 20.9201 22.4614 20.4691 22.6564C20.2125 22.7639 19.9484 22.8564 19.6867 22.9489C19.4924 22.9689 19.3005 23.0139 19.1137 23.0564C18.9417 23.0939 18.7748 23.1264 18.5929 23.1739C18.4683 23.2064 18.3363 23.2464 18.2291 23.1989C18.107 23.1464 18.0148 22.9764 18.0273 22.8314C18.0348 22.7439 18.0796 22.6639 18.1369 22.6014C18.2466 22.4814 18.401 22.4189 18.5456 22.3489C18.7872 22.2314 19.009 22.0914 19.2133 21.9289C19.2357 21.9089 19.2607 21.8889 19.2831 21.8689C19.5422 21.7639 19.7989 21.6589 20.063 21.5739C20.5314 21.4214 21.0173 21.3314 21.4982 21.2289C21.8171 21.1589 22.1336 21.0839 22.45 21.0089C22.5248 21.1789 22.5895 21.3514 22.6444 21.5289ZM22.2731 20.6339C22.0962 20.6739 21.9193 20.7139 21.7424 20.7539C21.4459 20.8214 21.1494 20.8889 20.8553 20.9714C20.509 21.0714 20.1676 21.1889 19.8263 21.3064C19.8736 21.2464 19.921 21.1839 19.9658 21.1239C20.1602 20.8539 20.3296 20.5689 20.504 20.2889C20.7332 19.9214 20.9774 19.5614 21.2191 19.2014C21.6427 19.6214 21.9965 20.1039 22.2731 20.6339ZM21.0297 19.0214C20.9376 19.1214 20.8454 19.2189 20.7607 19.3214C20.5688 19.5539 20.4168 19.8164 20.2598 20.0739C19.9484 20.5814 19.6195 21.0714 19.1809 21.4889C19.014 21.6489 18.8321 21.7964 18.6602 21.9264C18.5406 22.0164 18.426 22.0989 18.264 22.1864C18.1344 22.2564 17.9775 22.3314 17.8952 22.2514C17.8678 22.2264 17.8479 22.1864 17.8379 22.1464C17.8155 22.0714 17.823 21.9964 17.828 21.9239C17.8379 21.7864 17.8404 21.6489 17.8529 21.5114C17.8703 21.2939 17.9102 21.0764 17.9775 20.8689C18.0497 20.6539 18.1519 20.4489 18.259 20.2464C18.4409 19.9014 18.6328 19.5639 18.8421 19.2339C19.0887 18.8439 19.3603 18.4664 19.6319 18.0889C20.1427 18.3314 20.6111 18.6439 21.0297 19.0214ZM19.3479 17.9639C19.151 18.2489 18.9517 18.5364 18.7598 18.8239C18.5182 19.1814 18.2814 19.5464 18.0497 19.9164C18.0099 19.9764 17.9725 20.0389 17.9351 20.0989C17.9127 19.7314 17.8902 19.3664 17.8454 19.0014C17.8105 18.6989 17.7607 18.3964 17.7084 18.0964C17.6785 17.9164 17.6461 17.7364 17.6137 17.5564C18.2117 17.6014 18.7947 17.7389 19.3479 17.9639ZM16.5622 18.5414C16.5971 18.2164 16.622 17.8914 16.6494 17.5664C16.8338 17.5489 17.0182 17.5414 17.2026 17.5414C17.2524 17.8614 17.3047 18.1814 17.3645 18.5039C17.4517 18.9889 17.5539 19.4764 17.5962 19.9664C17.6211 20.2439 17.6286 20.5239 17.6336 20.8039C17.5937 20.9939 17.5763 21.1914 17.5589 21.3839C17.5414 21.5589 17.5215 21.7264 17.509 21.9164C17.5015 22.0439 17.4991 22.1814 17.4218 22.2714C17.3321 22.3714 17.1427 22.4064 17.0107 22.3514C16.9285 22.3164 16.8687 22.2489 16.8263 22.1739C16.7466 22.0339 16.7341 21.8664 16.7117 21.7064C16.6768 21.4414 16.612 21.1864 16.5198 20.9389C16.5074 20.9114 16.4974 20.8814 16.485 20.8539C16.465 20.5739 16.4451 20.2964 16.4451 20.0189C16.4476 19.5264 16.5124 19.0339 16.5622 18.5414ZM17.6934 23.2939C17.6934 23.5739 17.4667 23.8014 17.1876 23.8014C16.9085 23.8014 16.6818 23.5739 16.6818 23.2939C16.6818 23.0139 16.9085 22.7864 17.1876 22.7864C17.4667 22.7864 17.6934 23.0139 17.6934 23.2939ZM16.2383 17.6214C16.2208 17.8014 16.2034 17.9814 16.1884 18.1639C16.161 18.4664 16.1336 18.7714 16.1212 19.0764C16.1062 19.4389 16.1137 19.8014 16.1187 20.1614C16.0788 20.0989 16.034 20.0339 15.9891 19.9714C15.7948 19.7039 15.578 19.4539 15.3662 19.2014C15.0871 18.8689 14.823 18.5264 14.5564 18.1839C15.0846 17.9089 15.6502 17.7189 16.2383 17.6214ZM14.3272 18.3089C14.3919 18.4264 14.4542 18.5464 14.5265 18.6589C14.6885 18.9114 14.8903 19.1389 15.0871 19.3689C15.4708 19.8214 15.8321 20.2864 16.0938 20.8339C16.1934 21.0414 16.2781 21.2614 16.3479 21.4664C16.3952 21.6089 16.4376 21.7439 16.4725 21.9264C16.4974 22.0689 16.5198 22.2414 16.4202 22.2964C16.3878 22.3164 16.3429 22.3214 16.3006 22.3189C16.2233 22.3164 16.1561 22.2864 16.0888 22.2589C15.9617 22.2089 15.8321 22.1639 15.7051 22.1089C15.5032 22.0239 15.3089 21.9189 15.1345 21.7914C14.9526 21.6564 14.7906 21.4939 14.6311 21.3314C14.3596 21.0489 14.0979 20.7614 13.8513 20.4614C13.5572 20.1039 13.2857 19.7289 13.0116 19.3539C13.3978 18.9414 13.8388 18.5914 14.3272 18.3089ZM12.8048 19.5864C13.0141 19.8614 13.2234 20.1389 13.4352 20.4114C13.7018 20.7539 13.9734 21.0914 14.2524 21.4289C14.2973 21.4839 14.3446 21.5389 14.392 21.5939C14.0356 21.5014 13.6818 21.4114 13.323 21.3389C13.024 21.2789 12.7225 21.2339 12.4235 21.1914C12.2416 21.1639 12.0622 21.1389 11.8828 21.1139C12.1096 20.5589 12.4186 20.0439 12.8048 19.5864ZM11.7408 21.5039C12.0597 21.5514 12.3812 21.6014 12.7026 21.6464C13.191 21.7114 13.6818 21.7639 14.1602 21.8764C14.4318 21.9364 14.6984 22.0189 14.965 22.0989C15.1345 22.1964 15.3164 22.2739 15.4908 22.3514C15.6527 22.4214 15.8072 22.4914 15.9816 22.5614C16.1012 22.6089 16.2308 22.6539 16.2906 22.7564C16.3579 22.8714 16.3354 23.0614 16.2408 23.1714C16.1835 23.2389 16.0987 23.2764 16.014 23.2939C15.857 23.3264 15.6976 23.2864 15.5356 23.2564C15.274 23.2089 15.0124 23.1914 14.7508 23.2039C14.7184 23.2064 14.6885 23.2064 14.6586 23.2089C14.387 23.1439 14.1179 23.0764 13.8538 22.9889C13.3878 22.8364 12.9418 22.6214 12.4908 22.4214C12.1943 22.2889 11.8928 22.1639 11.5938 22.0389C11.6337 21.8564 11.6835 21.6789 11.7408 21.5039ZM11.5166 22.4464C11.6835 22.5189 11.8505 22.5914 12.0149 22.6639C12.2965 22.7839 12.5755 22.9014 12.8621 23.0089C13.2009 23.1339 13.5448 23.2389 13.8911 23.3464C13.8164 23.3664 13.7416 23.3889 13.6694 23.4114C13.3554 23.5139 13.0514 23.6439 12.7475 23.7689C12.3438 23.9289 11.9377 24.0789 11.5315 24.2264C11.4343 23.6364 11.4294 23.0389 11.5166 22.4464ZM11.5789 24.4839C11.7109 24.4589 11.843 24.4339 11.9725 24.3989C12.2641 24.3239 12.5406 24.2014 12.8197 24.0864C13.3654 23.8589 13.9185 23.6564 14.519 23.5789C14.7458 23.5464 14.9825 23.5339 15.1968 23.5314C15.3463 23.5289 15.4883 23.5314 15.6702 23.5539C15.8147 23.5739 15.9841 23.6064 16.0065 23.7189C16.014 23.7564 16.0041 23.7989 15.9916 23.8389C15.9642 23.9114 15.9144 23.9664 15.8695 24.0239C15.7798 24.1289 15.6976 24.2389 15.6079 24.3439C15.4659 24.5089 15.3064 24.6614 15.1295 24.7889C14.9451 24.9214 14.7433 25.0264 14.539 25.1264C14.1876 25.2989 13.8338 25.4589 13.4725 25.6014C13.044 25.7714 12.6029 25.9164 12.1619 26.0614C11.8903 25.5664 11.696 25.0364 11.5789 24.4839ZM13.4825 27.6839C13.0265 27.2964 12.6353 26.8414 12.3189 26.3314C12.6453 26.2164 12.9742 26.1014 13.2981 25.9839C13.7042 25.8364 14.1079 25.6814 14.514 25.5189C14.5813 25.4914 14.6461 25.4664 14.7134 25.4364C14.5165 25.7464 14.3197 26.0564 14.1428 26.3789C13.9933 26.6439 13.8562 26.9164 13.7242 27.1914C13.642 27.3564 13.5622 27.5189 13.4825 27.6839ZM14.6336 28.4439C14.7532 28.3064 14.8728 28.1714 14.9924 28.0339C15.1918 27.8039 15.3936 27.5739 15.5805 27.3339C15.8047 27.0489 16.0115 26.7539 16.2183 26.4564C16.2158 26.5339 16.2134 26.6114 16.2134 26.6889C16.2109 27.0189 16.2433 27.3489 16.2657 27.6789C16.2956 28.1114 16.3105 28.5464 16.3255 28.9814C15.735 28.8914 15.1669 28.7089 14.6336 28.4439ZM16.328 25.6814C16.181 25.9189 16.034 26.1564 15.8695 26.3814C15.5805 26.7789 15.2391 27.1389 14.9102 27.5064C14.6934 27.7489 14.4816 27.9964 14.2699 28.2439C14.1104 28.1514 13.9559 28.0489 13.8064 27.9389C13.9534 27.6489 14.0979 27.3589 14.24 27.0639C14.4542 26.6189 14.6561 26.1664 14.9077 25.7439C15.0522 25.5039 15.2092 25.2739 15.3687 25.0439C15.5132 24.9139 15.6428 24.7639 15.7698 24.6214C15.887 24.4889 16.0016 24.3639 16.1212 24.2189C16.2034 24.1189 16.2856 24.0089 16.4002 23.9839C16.5323 23.9539 16.7042 24.0364 16.7815 24.1614C16.8263 24.2364 16.8363 24.3289 16.8263 24.4139C16.8064 24.5739 16.7192 24.7139 16.6419 24.8589C16.5173 25.0939 16.4202 25.3389 16.3504 25.5914C16.3429 25.6214 16.3354 25.6514 16.328 25.6814ZM16.5821 29.0139C16.5996 28.8814 16.617 28.7464 16.6245 28.6114C16.6444 28.3114 16.612 28.0089 16.5896 27.7089C16.5447 27.1164 16.5223 26.5264 16.632 25.9289C16.6743 25.7014 16.7341 25.4739 16.7989 25.2664C16.8413 25.1239 16.8886 24.9914 16.9683 24.8239C17.0306 24.6914 17.1129 24.5389 17.2275 24.5539C17.2624 24.5564 17.3022 24.5789 17.3346 24.6039C17.3969 24.6539 17.4343 24.7164 17.4741 24.7789C17.5464 24.8939 17.6236 25.0089 17.6959 25.1264C17.808 25.3139 17.9027 25.5139 17.97 25.7214C18.0373 25.9364 18.0746 26.1639 18.107 26.3889C18.1618 26.7764 18.2042 27.1639 18.2291 27.5514C18.2565 28.0164 18.259 28.4789 18.259 28.9439C17.7059 29.0514 17.1427 29.0739 16.5821 29.0139ZM18.563 28.8789C18.5555 28.5314 18.5481 28.1839 18.5356 27.8364C18.5206 27.4039 18.4982 26.9714 18.4708 26.5339C18.4658 26.4614 18.4608 26.3889 18.4559 26.3189C18.6876 26.6014 18.9218 26.8839 19.171 27.1539C19.3778 27.3764 19.5946 27.5914 19.8113 27.8039C19.9409 27.9314 20.0705 28.0614 20.2 28.1889C19.6917 28.5039 19.1411 28.7339 18.563 28.8789ZM20.5489 27.9564C20.3171 27.7239 20.0879 27.4989 19.8512 27.2714C19.4974 26.9314 19.1286 26.5989 18.8072 26.2264C18.6228 26.0164 18.4559 25.7939 18.2864 25.5714C18.2092 25.3914 18.1045 25.2214 18.0074 25.0564C17.9201 24.9039 17.8379 24.7564 17.7358 24.5964C17.666 24.4889 17.5888 24.3764 17.5987 24.2589C17.6137 24.1239 17.7432 23.9839 17.8853 23.9514C17.97 23.9314 18.0597 23.9489 18.1369 23.9864C18.2839 24.0514 18.3911 24.1789 18.5032 24.2964C18.6876 24.4914 18.8894 24.6589 19.1087 24.8039C19.1336 24.8214 19.161 24.8364 19.1859 24.8539C19.3653 25.0664 19.5447 25.2789 19.7067 25.5039C19.9957 25.9039 20.2299 26.3414 20.4766 26.7689C20.641 27.0514 20.8105 27.3289 20.9799 27.6089C20.8404 27.7314 20.6984 27.8439 20.5489 27.9564ZM21.2814 27.3214C21.1892 27.1664 21.097 27.0089 21.0023 26.8539C20.8479 26.5914 20.6909 26.3289 20.5214 26.0764C20.3221 25.7739 20.1053 25.4864 19.8861 25.1964C19.9583 25.2239 20.0306 25.2489 20.1053 25.2739C20.4193 25.3764 20.7407 25.4489 21.0596 25.5289C21.4807 25.6339 21.8968 25.7539 22.313 25.8739C22.0439 26.4089 21.6975 26.8964 21.2814 27.3214ZM22.4226 25.6389C22.303 25.5814 22.1809 25.5239 22.0563 25.4739C21.7772 25.3639 21.4807 25.2989 21.1867 25.2289C20.6111 25.0889 20.048 24.9264 19.5148 24.6389C19.313 24.5289 19.1137 24.3989 18.9392 24.2764C18.8172 24.1889 18.7025 24.1039 18.5705 23.9764C18.4633 23.8764 18.3462 23.7489 18.3936 23.6464C18.4085 23.6114 18.4409 23.5814 18.4758 23.5589C18.5406 23.5139 18.6128 23.4989 18.6851 23.4814C18.8171 23.4464 18.9467 23.4064 19.0813 23.3764C19.2955 23.3264 19.5123 23.2964 19.7316 23.2989C19.9558 23.2989 20.1826 23.3339 20.4068 23.3739C20.7905 23.4414 21.1718 23.5189 21.548 23.6164C21.994 23.7339 22.435 23.8764 22.8761 24.0189C22.8063 24.5789 22.6543 25.1214 22.4226 25.6389ZM21.9118 23.4114C21.4957 23.2914 21.0796 23.1789 20.656 23.0714C20.5862 23.0539 20.5165 23.0339 20.4467 23.0189C20.7881 22.8839 21.1294 22.7489 21.4608 22.5939C21.7349 22.4664 22.004 22.3239 22.2756 22.1839C22.4375 22.1014 22.597 22.0189 22.759 21.9364C22.901 22.5164 22.9508 23.1114 22.906 23.7089C22.5746 23.6064 22.2432 23.5064 21.9118 23.4114Z"/>
    </mask>
    <path d="M100.344 17.6314C100.312 17.2289 100.242 16.8314 100.12 16.4439C99.9782 16.0014 99.7689 15.5739 99.5372 15.1864C99.3528 14.8814 99.1559 14.6014 98.7822 14.3739C98.6501 14.2939 98.4957 14.2189 98.4832 14.1189C98.4707 14.0264 98.5829 13.9114 98.6526 13.7964C98.8046 13.5514 98.7872 13.3039 98.7872 13.0389C98.7872 13.0339 98.7872 13.0289 98.7872 13.0239C98.7872 12.6664 98.8246 12.2839 98.6452 11.9889C98.5305 11.7989 98.3237 11.6464 98.2315 11.4539C98.0995 11.1814 98.1917 10.8314 98.234 10.5039C98.2988 10.0189 98.2614 9.58889 98.3736 9.10389C98.3985 8.99639 98.4309 8.88639 98.4084 8.79139C98.386 8.68889 98.2988 8.60639 98.1892 8.52389C98.1045 8.46139 98.0073 8.39889 97.9948 8.34889C97.9699 8.24389 98.3312 8.19889 98.4633 8.04889C98.5579 7.94139 98.5405 7.78389 98.4782 7.65639C98.4358 7.57389 98.3761 7.50389 98.2988 7.47139C98.1942 7.42639 98.0571 7.45389 97.935 7.49389C97.6859 7.57639 97.4865 7.70889 97.2722 7.83389C97.0904 7.94139 96.896 8.04139 96.6917 8.07639C96.4575 8.11389 96.2133 8.06389 95.9716 8.03389C95.6203 7.98889 95.2739 7.98639 94.9276 7.96639C94.0979 7.91139 93.2731 7.74139 92.4459 7.60639C91.3246 7.42639 90.1984 7.31639 89.0747 7.15639C88.514 7.07889 87.9534 6.98889 87.4028 6.85389C86.5232 6.63889 85.6735 6.31139 84.8314 5.96889C83.9194 5.59889 83.0199 5.20889 82.098 4.87389C81.2085 4.55139 80.299 4.28139 79.3896 4.00639C78.1537 3.63639 76.9153 3.26389 75.7119 2.81889C75.1388 2.60889 74.5707 2.38138 73.9702 2.21138C73.6662 2.12638 73.3547 2.05639 73.1031 1.87139C72.9237 1.73639 72.7767 1.54389 72.7518 1.30889C72.7293 1.07639 72.824 0.801389 72.6845 0.661389C72.6347 0.611389 72.5549 0.57889 72.4752 0.56139C72.3282 0.52639 72.1837 0.538888 72.0391 0.543888C71.486 0.568888 70.9204 0.501388 70.3647 0.551388C70.001 0.586388 69.6397 0.671388 69.3108 0.863888C69.1264 0.971388 68.9545 1.11138 68.7651 1.14888C68.501 1.20138 68.2094 1.04889 67.9204 0.963887C67.599 0.868887 67.2825 0.858887 66.9636 0.838887C66.3631 0.801387 65.7552 0.728883 65.1497 0.663883C63.6547 0.503883 62.1647 0.381385 60.6672 0.321385C59.3566 0.268885 58.0435 0.263883 56.7328 0.288883C54.6423 0.326383 52.5593 0.436387 50.4663 0.628887C48.5303 0.808887 46.5868 1.05889 44.7604 1.68639C43.9506 1.96389 43.1657 2.31639 42.3858 2.67889C41.1724 3.24139 39.9739 3.82639 38.7879 4.44139C37.4822 5.11889 36.194 5.83639 34.9432 6.60889C33.7372 7.35389 32.5637 8.15139 31.3901 8.94639C30.3137 9.02389 29.2398 9.10139 28.1634 9.17889C24.6975 9.43139 21.2316 9.69389 17.7806 10.1464C15.7325 10.4139 13.6868 10.7489 11.6885 11.2614C10.206 11.6414 8.74833 12.1164 7.33555 12.7214C6.02992 13.2814 4.76166 13.9514 3.60304 14.7439C3.21434 15.0114 2.83809 15.2914 2.50172 15.6489C2.32481 15.8364 2.16036 16.0439 2.10554 16.2814C2.06069 16.4639 2.08312 16.6614 2.0881 16.8564C2.09059 16.9614 2.09059 17.0639 2.0881 17.1664C2.07814 17.4539 2.05322 17.7364 2.08063 18.0314C2.10056 18.2239 2.14043 18.4214 2.0881 18.5964C2.04824 18.7214 1.95853 18.8339 1.8489 18.9264C1.74425 19.0164 1.61967 19.0864 1.55987 19.1939C1.50754 19.2939 1.51253 19.4289 1.51502 19.5614C1.52997 20.0589 1.51502 20.5064 1.63462 20.9589C1.7293 21.3089 1.90123 21.6614 1.87631 22.0164C1.86634 22.1714 1.81651 22.3264 1.78162 22.4839C1.69442 22.9114 1.73428 23.3464 1.73927 23.7814C1.74923 24.3939 1.69442 25.0014 1.64708 25.6139C1.62963 25.8339 1.61469 26.0564 1.48014 26.2564C1.221 26.6414 0.523333 26.9489 0.625492 27.1964C0.680308 27.3239 0.939442 27.4339 1.18612 27.5189C2.15039 27.8489 2.90038 27.7589 3.7027 27.7289C4.73923 27.6914 5.86547 27.7489 6.9618 27.7289C7.62957 27.7164 8.28737 27.6739 8.94517 27.6314C8.83802 26.5539 8.73337 25.4739 8.75829 24.3914C8.78321 23.2839 8.94268 22.1739 9.26909 21.1139C9.55314 20.1989 9.96177 19.3214 10.495 18.5264C10.8388 18.0139 11.235 17.5339 11.6935 17.1239C12.4534 16.4439 13.3803 15.9514 14.3546 15.6064C14.3745 15.5989 14.3944 15.5914 14.4169 15.5839C14.3222 15.5489 14.2275 15.5139 14.1353 15.4789C14.0257 15.4364 13.916 15.3964 13.8064 15.3539C13.6968 15.3139 13.5871 15.2714 13.475 15.2339C13.3355 15.1864 13.196 15.1439 13.0539 15.1064C12.8446 15.0539 12.6328 15.0164 12.4185 14.9864C12.132 14.9439 11.8455 14.9139 11.5564 14.8614C11.4069 14.8339 11.2574 14.8014 11.1079 14.8014C11.0207 14.7989 10.9335 14.8089 10.8488 14.8214C10.7965 14.8314 10.7442 14.8414 10.6918 14.8514C10.3928 15.1339 10.0863 15.4089 9.74748 15.6339C9.22174 15.9864 8.61377 16.2139 8.04816 16.5139C7.64451 16.7264 7.26329 16.9764 6.86463 17.1939C6.19686 17.5589 5.48175 17.8364 4.77661 18.1264C4.59472 18.2014 4.41283 18.2764 4.23343 18.3514C4.15868 18.1964 4.08642 18.0414 4.01914 17.8739C3.96682 17.7389 3.91948 17.5989 3.80735 17.5139C3.67529 17.4114 3.45104 17.3889 3.31649 17.4739C3.20686 17.5389 3.15453 17.6714 3.08975 17.7939C2.97015 18.0139 2.81318 18.1939 2.63876 18.3514C2.55903 18.4214 2.47929 18.4864 2.39458 18.5514C2.39956 18.5214 2.40205 18.4939 2.40454 18.4664C2.40952 18.3539 2.39956 18.2539 2.38959 18.1614C2.38461 18.1089 2.37714 18.0614 2.37215 18.0164C2.36966 17.9764 2.36717 17.9389 2.36468 17.9014C2.36219 17.8639 2.35969 17.8239 2.35969 17.7864C2.35969 17.7089 2.35969 17.6289 2.36218 17.5489C2.36468 17.4289 2.37464 17.3064 2.37713 17.1764C2.37962 17.1339 2.38212 17.0889 2.38212 17.0439C2.38212 16.9914 2.38212 16.9389 2.38212 16.8864C2.37963 16.8439 2.37962 16.8039 2.37713 16.7639C2.37464 16.7239 2.37464 16.6864 2.37215 16.6489C2.36966 16.5764 2.36966 16.5114 2.37215 16.4539C2.37464 16.4214 2.37963 16.3889 2.38461 16.3614C2.38959 16.3414 2.39458 16.3214 2.40205 16.2989C2.40953 16.2764 2.41949 16.2564 2.42946 16.2339C2.45188 16.1889 2.47929 16.1414 2.51169 16.0939C2.56152 16.0214 2.62381 15.9464 2.69358 15.8714C2.70853 15.8564 2.72348 15.8389 2.74092 15.8214C2.93278 15.8339 3.12463 15.7839 3.31649 15.7439C3.58808 15.6839 3.85968 15.6414 4.11881 15.5614C4.47761 15.4514 4.81399 15.2764 5.16033 15.1139C5.72843 14.8464 6.31895 14.6164 6.9319 14.5139C7.22592 14.4639 7.52741 14.4439 7.82641 14.4314C8.31976 14.4114 8.8156 14.4114 9.30646 14.4564C9.76991 14.4964 10.2284 14.5789 10.6893 14.6639C10.8438 14.6364 11.0008 14.6114 11.1578 14.6189C11.2624 14.6239 11.3696 14.6439 11.4742 14.6614C11.7857 14.7164 12.0971 14.7539 12.4086 14.7989C12.6901 14.8414 12.9742 14.8914 13.2483 14.9689C13.4526 15.0289 13.6519 15.1039 13.8513 15.1789C13.8562 15.1814 13.8637 15.1839 13.8687 15.1864C14.1453 15.2889 14.4169 15.3889 14.6934 15.4914C15.6154 15.1989 16.5722 15.0364 17.529 15.0589C18.7997 15.0864 20.0705 15.4389 21.1867 16.0439C22.2307 16.6114 23.1427 17.4039 23.8453 18.2714C24.6576 19.2764 25.1908 20.3839 25.5671 21.8264C25.7789 22.6389 25.9408 23.5564 25.9408 24.4214C26.6235 24.4189 27.3063 24.4189 27.989 24.4164C29.0828 24.4164 30.1767 24.4164 31.268 24.4114C31.258 24.2589 31.2456 24.1089 31.2306 23.9564C31.1733 23.4114 31.0612 22.8739 30.959 22.3314C30.7597 21.2839 30.5978 20.2264 30.5105 19.1639C30.4184 18.0014 30.4159 16.8339 30.4831 15.6664C30.518 15.0489 30.5728 14.4339 30.7099 13.8314C30.8394 13.2714 31.0388 12.7214 31.3203 12.2214C31.4599 11.9739 31.6193 11.7389 31.7913 11.5089C31.9682 11.2714 32.1575 11.0439 32.3768 10.8564C32.7231 10.5614 33.1467 10.3664 33.5678 10.1739C33.5803 10.1664 33.5927 10.1589 33.6052 10.1514C33.65 10.2264 33.6974 10.3039 33.7422 10.3789C33.3062 10.6464 32.8726 10.9164 32.5114 11.2664C32.1825 11.5864 31.9133 11.9739 31.6991 12.3864C31.4225 12.9139 31.2331 13.4814 31.111 14.0614C30.9291 14.9364 30.9017 15.8364 30.9142 16.7339C30.9267 17.7614 30.9865 18.7814 31.0861 19.7964C31.1908 20.8439 31.3378 21.8889 31.5097 22.9264C31.5919 23.4214 31.6816 23.9164 31.7688 24.4089C37.7563 24.3739 43.7438 24.1614 49.7288 23.9664C52.3575 23.8789 54.9862 23.7964 57.6149 23.7164C57.9562 23.7064 58.2976 23.6939 58.6365 23.6839C58.8607 23.2764 59.0825 22.8689 59.2843 22.4514C59.6132 21.7789 59.8923 21.0789 60.1589 20.3764C60.5152 19.4364 60.8541 18.4914 61.1755 17.5414C61.5069 16.5489 61.8183 15.5514 62.1198 14.5489C62.2419 14.1489 62.359 13.7464 62.4313 13.3289C62.5334 12.7214 62.5309 12.0839 62.3665 11.4914C62.2519 11.0764 62.0575 10.6814 61.8183 10.3239C61.5692 9.95139 61.2727 9.61889 60.9761 9.28639C61.0858 9.25639 61.1979 9.22639 61.3075 9.19639C61.4844 9.37639 61.6614 9.55389 61.8333 9.74139C62.1522 10.0864 62.4487 10.4614 62.6505 10.8839C62.9271 11.4664 63.0193 12.1439 62.9745 12.7939C62.9271 13.4464 62.7402 14.0714 62.5534 14.6939C62.354 15.3664 62.1522 16.0339 61.9354 16.6989C61.609 17.6964 61.2428 18.6839 60.8665 19.6664C60.5276 20.5489 60.1788 21.4264 59.815 22.2989C59.7428 22.4739 59.668 22.6489 59.5883 22.8189C59.4562 23.1089 59.3042 23.3889 59.1522 23.6689C60.9388 23.6114 62.7253 23.5539 64.5093 23.4739C66.3606 23.3939 68.2119 23.2939 70.0608 23.2089C70.7161 23.1814 71.3689 23.1539 72.0242 23.1264C72.0815 22.5989 72.1587 22.0789 72.2933 21.5689C72.4503 20.9864 72.687 20.4239 72.9536 19.8814C73.2426 19.2914 73.569 18.7264 73.9727 18.2089C74.3115 17.7739 74.7052 17.3739 75.1388 17.0164C75.682 16.5689 76.2824 16.1889 76.9228 15.9039C77.8572 15.4864 78.8713 15.2714 79.8929 15.2339C81.196 15.1839 82.5066 15.4239 83.6852 15.9664C84.1661 16.1889 84.6245 16.4589 85.0531 16.7739C85.5988 16.6314 86.1445 16.4889 86.6876 16.3439C87.5448 16.1139 88.3994 15.8764 89.259 15.6489C90.1311 15.4189 91.0107 15.1989 91.8778 14.9664C92.0298 14.9264 92.1793 14.8839 92.3313 14.8439C92.6303 14.7664 92.9318 14.6914 93.2432 14.6389C93.5248 14.5914 93.8138 14.5589 94.0655 14.4364C94.2673 14.3389 94.4467 14.1839 94.6062 14.0164C94.7482 13.8739 94.8728 13.7214 94.9999 13.5689C94.7033 13.4064 94.4243 13.2114 94.1477 13.0114C93.7764 12.7439 93.4102 12.4689 93.0414 12.1689C92.867 12.0264 92.6901 11.8764 92.5954 11.6614C92.5406 11.5339 92.5132 11.3814 92.5431 11.2464C92.5829 11.0764 92.7075 10.9314 92.8321 10.8139C93.009 10.6414 93.1834 10.5264 93.3803 10.4039C93.5671 10.2914 93.7789 10.1714 93.9982 10.1214C94.205 10.0739 94.4218 10.0864 94.6336 10.0939C95.1469 10.1164 95.6402 10.1114 96.1435 10.1239C96.5322 10.1364 96.9259 10.1564 97.2897 10.3289C97.4242 10.3939 97.5538 10.4764 97.6385 10.5814C97.6709 10.6239 97.6958 10.6664 97.7183 10.7164C97.7008 10.8314 97.6859 10.9489 97.6834 11.0664C97.6784 11.2239 97.6958 11.3839 97.7457 11.5339C97.788 11.6614 97.8578 11.7814 97.94 11.8889C97.9874 11.9514 98.0372 12.0089 98.092 12.0664C98.1518 12.1314 98.2166 12.1964 98.254 12.2739C98.2689 12.3114 98.2814 12.3514 98.2888 12.3939C98.3113 12.5089 98.3088 12.6264 98.3088 12.7414C98.3113 12.8414 98.3113 12.9414 98.3113 13.0389C98.3113 13.1214 98.3113 13.2039 98.3063 13.2889C98.3013 13.3589 98.2963 13.4289 98.2714 13.4914C98.249 13.5464 98.2091 13.5964 98.1717 13.6489C98.1194 13.7214 98.0721 13.7989 98.0422 13.8839C98.0222 13.9414 98.0123 14.0039 98.0023 14.0664C97.9874 14.0689 97.9724 14.0689 97.9575 14.0689C97.484 14.0964 97.0081 14.1089 96.5372 14.0514C96.1261 14.0014 95.7199 13.8964 95.3412 13.7339C95.2988 13.7864 95.254 13.8364 95.2116 13.8889C95.1194 13.9989 95.0248 14.1089 94.9276 14.2139C94.808 14.3414 94.6834 14.4664 94.5439 14.5689C94.3495 14.7114 94.1278 14.8189 93.8985 14.8864C93.617 14.9714 93.3254 15.0014 93.0364 15.0539C92.8296 15.0914 92.6253 15.1414 92.421 15.1939C92.2167 15.2464 92.0148 15.3064 91.8105 15.3639C91.0107 15.5889 90.2034 15.7839 89.3986 15.9939C88.5813 16.2064 87.7665 16.4339 86.9518 16.6539C86.441 16.7914 85.9277 16.9264 85.4144 17.0614C85.7159 17.3114 85.9975 17.5839 86.2541 17.8789C87.1262 18.8714 87.7267 20.0914 88.1278 21.3639C88.4343 22.3414 88.6287 23.3514 88.6212 24.3614C88.6162 24.7989 88.5763 25.2364 88.5365 25.6739C89.0099 25.5989 89.4833 25.5239 89.9567 25.4489C91.1652 25.2589 92.3686 25.0714 93.5871 24.8814C94.5189 24.7364 95.4583 24.5889 96.3578 24.4364C97.1302 24.3039 97.8752 24.1664 98.4782 24.0364C98.8345 23.9589 99.1385 23.8864 99.4275 23.5339C99.6792 23.2264 99.9184 22.7114 100.063 22.2464C100.295 21.4889 100.28 20.8589 100.302 20.2014C100.33 19.3639 100.417 18.4814 100.344 17.6314ZM3.52829 22.7939C3.53576 22.7364 3.54573 22.6789 3.56566 22.6264C3.62297 22.4864 3.7625 22.3889 3.89456 22.3089C4.02164 22.2339 4.14622 22.1764 4.29572 22.1339C4.40037 22.1064 4.51997 22.0839 4.60219 22.1314C4.67196 22.1689 4.71432 22.2564 4.75169 22.3389C4.85634 22.5614 4.93109 22.7514 5.02329 22.9664C5.07063 23.0739 5.12295 23.1889 5.1678 23.3039C5.26249 23.5514 5.36963 23.7914 5.47428 24.0364C5.58142 24.2889 5.68357 24.5489 5.77577 24.7914C5.82062 24.9089 5.86297 25.0214 5.91281 25.1614C5.93523 25.2164 5.95766 25.2764 5.94769 25.3189C5.92277 25.4189 5.72843 25.4314 5.56149 25.4414C5.21514 25.4639 4.99089 25.4764 4.75667 25.4139C4.49505 25.3464 4.21848 25.1814 4.03908 24.9539C3.88459 24.7539 3.80486 24.5089 3.73758 24.2639C3.64788 23.9239 3.5831 23.5889 3.54323 23.2439C3.52579 23.0964 3.51334 22.9464 3.52829 22.7939ZM29.7929 17.2314C29.7307 17.4114 29.5463 17.5439 29.3594 17.6239C29.0878 17.7389 28.8187 17.7364 28.5172 17.7814C28.3378 17.8064 28.146 17.8514 28.0488 17.9839C28.0014 18.0514 27.9765 18.1389 27.9665 18.2264C27.9441 18.4214 28.0039 18.6089 28.0712 18.7939C28.2531 19.2989 28.4873 19.7989 28.6941 20.2414C28.8062 20.4789 28.9109 20.7014 29.023 21.0214C29.0778 21.1789 29.1351 21.3589 29.033 21.4364C29.0031 21.4564 28.9607 21.4714 28.9209 21.4739C28.8212 21.4764 28.734 21.4114 28.6617 21.3414C28.5122 21.1964 28.4175 21.0289 28.3204 20.8589C28.0637 20.4189 27.7971 19.9689 27.5579 19.5189C27.3187 19.0664 27.1069 18.6139 26.8976 18.1239C26.8179 17.9389 26.7382 17.7489 26.7631 17.5539C26.783 17.4114 26.8602 17.2639 26.9699 17.1714C27.097 17.0664 27.2664 17.0314 27.4358 17.0014C27.9342 16.9139 28.4101 16.8814 28.8959 16.8839C29.1999 16.8839 29.5089 16.8989 29.8179 16.9114C29.8204 17.0239 29.8253 17.1339 29.7929 17.2314ZM40.5345 8.74389C40.2604 8.76389 39.9863 8.80139 39.7098 8.81389C39.5179 8.82139 39.3261 8.81889 39.1367 8.81889C38.8726 8.82139 38.6184 8.82889 38.3269 8.83639C38.2546 8.83889 38.1799 8.83889 38.1276 8.80139C38.0927 8.77639 38.0703 8.73139 38.0603 8.68139C38.0428 8.60139 38.0603 8.50639 38.1176 8.46389C38.1425 8.44389 38.1774 8.43639 38.2098 8.42889C38.3119 8.40639 38.4091 8.39889 38.5088 8.38889C38.6807 8.36889 38.8576 8.34639 39.0345 8.33639C39.3036 8.32389 39.5727 8.34139 39.8418 8.34639C40.096 8.35389 40.3526 8.34639 40.6093 8.33639C40.8186 8.33139 41.0279 8.32139 41.2372 8.31139C41.2471 8.40389 41.2571 8.49139 41.2721 8.57889C41.277 8.60639 41.282 8.63139 41.2895 8.65889C41.2397 8.66889 41.1923 8.67889 41.145 8.68889C40.9431 8.72389 40.7388 8.72889 40.5345 8.74389ZM60.6149 11.4514C60.5775 11.5889 60.4579 11.6989 60.3283 11.7639C60.1763 11.8414 60.0069 11.8614 59.8399 11.8714C59.4189 11.8964 59.0003 11.8614 58.5817 11.8539C58.3001 11.8489 58.0185 11.8564 57.737 11.8614C57.271 11.8739 56.8076 11.8864 56.3641 11.8864C56.1573 11.8889 55.9554 11.8864 55.7237 11.8814C55.5867 11.8764 55.4372 11.8739 55.3599 11.7714C55.3151 11.7139 55.2927 11.6214 55.3226 11.5589C55.3425 11.5164 55.3824 11.4864 55.4247 11.4614C55.5244 11.4014 55.6365 11.3689 55.7486 11.3389C56.0451 11.2614 56.3317 11.2064 56.6257 11.1589C57.1739 11.0714 57.7395 11.0039 58.2976 10.9514C58.7037 10.9114 59.1074 10.8789 59.5285 10.8539C59.8125 10.8364 60.1041 10.8214 60.3557 10.9414C60.428 10.9764 60.4953 11.0214 60.5426 11.0864C60.6198 11.1864 60.6472 11.3289 60.6149 11.4514ZM60.271 8.92139C57.3034 9.03139 54.3359 9.14139 51.3683 9.27389C49.3151 9.36389 47.262 9.46389 45.2089 9.57389C43.8758 9.64639 42.5428 9.72139 41.2098 9.79889C41.2845 9.70889 41.3568 9.62139 41.4166 9.52139C41.5112 9.36639 41.5686 9.18389 41.581 9.00139C41.596 8.71889 41.5013 8.44139 41.4664 8.16389C41.434 7.91139 41.4514 7.65889 41.429 7.39639C41.4116 7.15139 41.3568 6.89639 41.2073 6.71889C41.1051 6.59639 40.9531 6.51139 40.8036 6.44139C40.7114 6.39889 40.6217 6.36139 40.5295 6.32389C40.5644 6.30139 40.6018 6.27889 40.6392 6.25639C40.8734 6.11639 41.0328 6.01639 41.1998 5.91639C42.1715 5.33139 43.3526 4.76889 44.5062 4.24889C45.9364 3.60639 47.3243 3.03139 48.7969 2.66639C49.963 2.37889 51.1814 2.22139 52.3948 2.11889C53.7653 2.00389 55.1332 1.95389 56.5011 1.95139C57.7519 1.95139 59.0052 1.98639 60.2585 2.02139C61.0235 2.04389 61.7884 2.06388 62.5509 2.08638C62.4238 2.62888 62.2693 3.16639 62.1024 3.69889C61.6713 5.05889 61.1506 6.39139 60.6771 7.73889C60.5376 8.13139 60.4031 8.52639 60.271 8.92139ZM79.3646 6.99389C79.3273 7.13139 79.2226 7.23889 79.1205 7.33389C78.9136 7.53139 78.7118 7.68889 78.4951 7.85139C78.3779 7.94139 78.2558 8.03389 78.1238 8.10139C77.8871 8.22139 77.613 8.25889 77.3439 8.28639C76.3123 8.39889 75.3057 8.39889 74.2891 8.40889C73.143 8.41889 71.9893 8.44639 70.8357 8.47139C68.5658 8.52639 66.3008 8.58389 64.0384 8.70139C62.9595 8.75639 61.8831 8.82389 60.8042 8.89389C61.1107 8.06639 61.4197 7.23639 61.6987 6.39889C61.9977 5.50889 62.2643 4.60639 62.5085 3.69639C62.6505 3.17389 62.7851 2.64889 62.9172 2.12639C64.4122 2.27139 65.9071 2.41888 67.3822 2.66388C69.6945 3.04888 71.9569 3.67389 74.2119 4.43139C75.5474 4.87889 76.878 5.37389 78.0939 5.91639C78.4004 6.05139 78.7019 6.19139 79.0357 6.39889C79.1529 6.47139 79.2749 6.55139 79.3347 6.66889C79.3846 6.76639 79.3945 6.88889 79.3646 6.99389ZM80.2367 15.7839C76.0034 15.7839 72.5724 19.2264 72.5724 23.4764C72.5724 27.7239 76.0034 31.1664 80.2367 31.1664C84.4701 31.1664 87.9036 27.7239 87.9036 23.4764C87.9036 19.2264 84.4701 15.7839 80.2367 15.7839ZM85.3222 20.8164C85.1453 20.8539 84.9684 20.8939 84.7915 20.9339C84.495 21.0014 84.1985 21.0714 83.9045 21.1539C83.5581 21.2514 83.2168 21.3714 82.8754 21.4889C82.9227 21.4289 82.9701 21.3664 83.0149 21.3039C83.2093 21.0364 83.3787 20.7514 83.5531 20.4714C83.7824 20.1039 84.0241 19.7439 84.2682 19.3839C84.6918 19.8039 85.0456 20.2839 85.3222 20.8164ZM84.0789 19.2039C83.9867 19.3014 83.8945 19.3989 83.8098 19.5039C83.6179 19.7364 83.4659 19.9989 83.3089 20.2564C82.9975 20.7639 82.6686 21.2514 82.2301 21.6714C82.0631 21.8289 81.8812 21.9789 81.7093 22.1089C81.5897 22.1989 81.4751 22.2789 81.3131 22.3689C81.1836 22.4389 81.0266 22.5114 80.9444 22.4339C80.9169 22.4089 80.897 22.3689 80.887 22.3289C80.8646 22.2514 80.8721 22.1789 80.8771 22.1064C80.8871 21.9689 80.8895 21.8314 80.8995 21.6939C80.9194 21.4764 80.9593 21.2589 81.0266 21.0514C81.0988 20.8364 81.201 20.6314 81.3081 20.4289C81.49 20.0839 81.6819 19.7439 81.8912 19.4164C82.1379 19.0239 82.4095 18.6489 82.6811 18.2714C83.1918 18.5114 83.6603 18.8264 84.0789 19.2039ZM82.397 18.1464C82.2002 18.4314 82.0008 18.7164 81.809 19.0039C81.5673 19.3639 81.3306 19.7264 81.0963 20.0989C81.059 20.1589 81.0216 20.2189 80.9842 20.2814C80.9618 19.9139 80.9394 19.5464 80.8945 19.1839C80.8596 18.8789 80.8098 18.5789 80.7575 18.2789C80.7276 18.0989 80.6952 17.9189 80.6628 17.7389C81.2608 17.7839 81.8438 17.9214 82.397 18.1464ZM79.6113 18.7239C79.6462 18.3989 79.6711 18.0739 79.6985 17.7489C79.8829 17.7314 80.0648 17.7214 80.2492 17.7239C80.3015 18.0439 80.3538 18.3664 80.4136 18.6864C80.5008 19.1714 80.603 19.6564 80.6453 20.1489C80.6703 20.4264 80.6777 20.7064 80.6827 20.9864C80.6429 21.1764 80.6254 21.3739 80.608 21.5639C80.5905 21.7389 80.5706 21.9089 80.5581 22.0964C80.5507 22.2264 80.5482 22.3639 80.4709 22.4514C80.3812 22.5539 80.1919 22.5889 80.0598 22.5339C79.9776 22.4989 79.9153 22.4314 79.8754 22.3564C79.7957 22.2139 79.7832 22.0489 79.7608 21.8864C79.7259 21.6214 79.6612 21.3664 79.569 21.1214C79.5565 21.0914 79.5465 21.0639 79.5341 21.0339C79.5141 20.7564 79.4942 20.4789 79.4942 20.2014C79.4967 19.7064 79.5615 19.2164 79.6113 18.7239ZM80.7425 23.4764C80.7425 23.7564 80.5158 23.9839 80.2367 23.9839C79.9577 23.9839 79.7309 23.7564 79.7309 23.4764C79.7309 23.1939 79.9577 22.9664 80.2367 22.9664C80.5158 22.9664 80.7425 23.1939 80.7425 23.4764ZM79.2874 17.8014C79.27 17.9839 79.2525 18.1639 79.2376 18.3439C79.2102 18.6489 79.1827 18.9539 79.1703 19.2589C79.1553 19.6189 79.1628 19.9814 79.1678 20.3439C79.1279 20.2789 79.0831 20.2164 79.0382 20.1539C78.8439 19.8839 78.6271 19.6364 78.4153 19.3839C78.1363 19.0489 77.8721 18.7064 77.6055 18.3639C78.1338 18.0914 78.6994 17.9014 79.2874 17.8014ZM77.3763 18.4914C77.4411 18.6089 77.5034 18.7264 77.5756 18.8389C77.7376 19.0939 77.9394 19.3214 78.1363 19.5514C78.52 20.0039 78.8813 20.4664 79.1429 21.0164C79.2425 21.2239 79.3273 21.4439 79.397 21.6489C79.4444 21.7914 79.4867 21.9264 79.5191 22.1064C79.5465 22.2514 79.569 22.4239 79.4693 22.4789C79.4369 22.4964 79.3921 22.5039 79.3497 22.5014C79.2725 22.4989 79.2052 22.4689 79.1379 22.4414C79.0108 22.3914 78.8813 22.3464 78.7542 22.2914C78.5524 22.2064 78.358 22.1014 78.1836 21.9714C78.0017 21.8364 77.8397 21.6764 77.6803 21.5114C77.4087 21.2314 77.1471 20.9439 76.9004 20.6439C76.6064 20.2864 76.3323 19.9089 76.0607 19.5339C76.4469 19.1239 76.8879 18.7714 77.3763 18.4914ZM75.8539 19.7664C76.0632 20.0439 76.2725 20.3214 76.4843 20.5939C76.7509 20.9364 77.0225 21.2739 77.3015 21.6114C77.3464 21.6664 77.3937 21.7214 77.4411 21.7764C77.0848 21.6839 76.731 21.5914 76.3722 21.5214C76.0732 21.4614 75.7717 21.4164 75.4727 21.3739C75.2908 21.3464 75.1114 21.3214 74.932 21.2964C75.1587 20.7389 75.4677 20.2264 75.8539 19.7664ZM74.7899 21.6839C75.1089 21.7339 75.4303 21.7839 75.7517 21.8264C76.2401 21.8939 76.7309 21.9464 77.2093 22.0564C77.4809 22.1189 77.7475 22.1989 78.0142 22.2814C78.1836 22.3789 78.3655 22.4564 78.5399 22.5314C78.7019 22.6039 78.8563 22.6739 79.0308 22.7439C79.1504 22.7889 79.2799 22.8364 79.3397 22.9364C79.407 23.0539 79.3821 23.2439 79.2899 23.3539C79.2326 23.4214 79.1479 23.4589 79.0631 23.4764C78.9062 23.5064 78.7467 23.4664 78.5848 23.4389C78.3231 23.3914 78.0615 23.3739 77.7999 23.3864C77.7675 23.3864 77.7376 23.3889 77.7077 23.3914C77.4361 23.3239 77.167 23.2589 76.9029 23.1714C76.4369 23.0189 75.9909 22.8039 75.5399 22.6039C75.2434 22.4714 74.9419 22.3464 74.6429 22.2189C74.6828 22.0389 74.7301 21.8614 74.7899 21.6839ZM74.5657 22.6289C74.7326 22.7014 74.8996 22.7739 75.064 22.8439C75.3456 22.9639 75.6246 23.0839 75.9112 23.1889C76.25 23.3164 76.5939 23.4214 76.9402 23.5264C76.8655 23.5464 76.7908 23.5689 76.7185 23.5939C76.4045 23.6939 76.1006 23.8264 75.7941 23.9489C75.3929 24.1114 74.9868 24.2589 74.5806 24.4089C74.4835 23.8189 74.4785 23.2214 74.5657 22.6289ZM74.628 24.6664C74.76 24.6414 74.8921 24.6164 75.0217 24.5814C75.3132 24.5064 75.5898 24.3839 75.8688 24.2689C76.4145 24.0414 76.9677 23.8389 77.5681 23.7589C77.7949 23.7289 78.0316 23.7164 78.2459 23.7139C78.3954 23.7114 78.5349 23.7114 78.7193 23.7364C78.8638 23.7564 79.0333 23.7889 79.0557 23.9014C79.0632 23.9364 79.0532 23.9814 79.0407 24.0214C79.0133 24.0939 78.9635 24.1489 78.9186 24.2064C78.8289 24.3114 78.7467 24.4214 78.657 24.5239C78.515 24.6914 78.3555 24.8439 78.1786 24.9714C77.9942 25.1039 77.7899 25.2064 77.5881 25.3089C77.2368 25.4814 76.8829 25.6414 76.5216 25.7839C76.0906 25.9539 75.6521 26.0989 75.211 26.2439C74.9394 25.7489 74.7451 25.2189 74.628 24.6664ZM76.5316 27.8639C76.0756 27.4764 75.6844 27.0214 75.368 26.5114C75.6944 26.3989 76.0233 26.2839 76.3472 26.1664C76.7534 26.0164 77.157 25.8614 77.5632 25.7014C77.6304 25.6739 77.6952 25.6464 77.7625 25.6189C77.5657 25.9289 77.3688 26.2389 77.1919 26.5589C77.0424 26.8264 76.9054 27.0989 76.7708 27.3739C76.6911 27.5364 76.6114 27.7014 76.5316 27.8639ZM77.6828 28.6264C77.8024 28.4889 77.922 28.3514 78.0416 28.2164C78.2409 27.9864 78.4427 27.7564 78.6296 27.5164C78.8538 27.2314 79.0607 26.9339 79.2675 26.6389C79.265 26.7164 79.2625 26.7914 79.2625 26.8689C79.26 27.2014 79.2924 27.5314 79.3148 27.8614C79.3447 28.2939 79.3597 28.7289 79.3746 29.1614C78.7841 29.0714 78.216 28.8914 77.6828 28.6264ZM79.3771 25.8639C79.2301 26.1014 79.0831 26.3389 78.9186 26.5614C78.6296 26.9614 78.2882 27.3189 77.9593 27.6889C77.7426 27.9314 77.5308 28.1789 77.319 28.4264C77.1595 28.3314 77.005 28.2314 76.8555 28.1214C77.0025 27.8289 77.1471 27.5414 77.2891 27.2464C77.5034 26.8014 77.7052 26.3489 77.9568 25.9264C78.1014 25.6864 78.2583 25.4564 78.4178 25.2264C78.5623 25.0964 78.6919 24.9464 78.819 24.8039C78.9361 24.6714 79.0507 24.5464 79.1703 24.4014C79.2525 24.3014 79.3347 24.1914 79.4494 24.1664C79.5814 24.1364 79.7533 24.2189 79.8281 24.3414C79.8754 24.4189 79.8854 24.5089 79.8754 24.5964C79.8555 24.7564 79.7683 24.8964 79.6911 25.0414C79.5665 25.2764 79.4693 25.5214 79.3995 25.7739C79.392 25.8039 79.3846 25.8339 79.3771 25.8639ZM79.6313 29.1964C79.6487 29.0614 79.6661 28.9289 79.6736 28.7939C79.691 28.4939 79.6611 28.1914 79.6387 27.8889C79.5914 27.2964 79.5714 26.7089 79.6811 26.1114C79.7234 25.8839 79.7832 25.6564 79.848 25.4489C79.8904 25.3039 79.9377 25.1714 80.0175 25.0039C80.0798 24.8739 80.162 24.7214 80.2766 24.7339C80.3115 24.7389 80.3513 24.7614 80.3837 24.7864C80.446 24.8339 80.4834 24.8989 80.5233 24.9614C80.5955 25.0764 80.6728 25.1889 80.745 25.3064C80.8571 25.4939 80.9518 25.6939 81.0191 25.9039C81.0864 26.1189 81.1238 26.3439 81.1562 26.5714C81.211 26.9589 81.2533 27.3464 81.2782 27.7339C81.3057 28.1964 81.3081 28.6614 81.3081 29.1264C80.755 29.2314 80.1919 29.2564 79.6313 29.1964ZM81.6121 29.0589C81.6046 28.7114 81.5972 28.3639 81.5847 28.0189C81.5698 27.5839 81.5473 27.1539 81.5199 26.7139C81.5149 26.6439 81.51 26.5714 81.505 26.4989C81.7367 26.7839 81.9709 27.0664 82.2201 27.3364C82.4269 27.5589 82.6437 27.7714 82.8604 27.9864C82.99 28.1139 83.1196 28.2414 83.2491 28.3714C82.7408 28.6839 82.1902 28.9164 81.6121 29.0589ZM83.5955 28.1364C83.3663 27.9064 83.137 27.6789 82.9003 27.4539C82.544 27.1114 82.1777 26.7789 81.8563 26.4089C81.6719 26.1989 81.505 25.9739 81.3355 25.7514C81.2558 25.5739 81.1537 25.4039 81.0565 25.2389C80.9693 25.0864 80.887 24.9389 80.7849 24.7789C80.7151 24.6714 80.6379 24.5564 80.6478 24.4389C80.6603 24.3064 80.7924 24.1664 80.9344 24.1314C81.0191 24.1114 81.1088 24.1314 81.1861 24.1664C81.3331 24.2339 81.4402 24.3614 81.5523 24.4789C81.7367 24.6714 81.9385 24.8414 82.1578 24.9864C82.1827 25.0014 82.2101 25.0189 82.235 25.0339C82.4144 25.2489 82.5938 25.4614 82.7558 25.6864C83.0448 26.0864 83.279 26.5239 83.5257 26.9514C83.6902 27.2339 83.8596 27.5114 84.029 27.7914C83.8895 27.9139 83.745 28.0289 83.5955 28.1364ZM84.3305 27.5039C84.2383 27.3489 84.1462 27.1914 84.0515 27.0364C83.897 26.7739 83.74 26.5114 83.5706 26.2589C83.3712 25.9564 83.1545 25.6664 82.9352 25.3789C83.0074 25.4064 83.0797 25.4314 83.1545 25.4539C83.4684 25.5589 83.7898 25.6314 84.1088 25.7114C84.5299 25.8164 84.946 25.9364 85.3621 26.0564C85.093 26.5914 84.7466 27.0764 84.3305 27.5039ZM85.4717 25.8214C85.3521 25.7614 85.23 25.7039 85.1054 25.6564C84.8264 25.5464 84.5299 25.4814 84.2358 25.4114C83.6603 25.2714 83.0972 25.1089 82.5639 24.8189C82.3621 24.7089 82.1628 24.5814 81.9884 24.4564C81.8638 24.3714 81.7517 24.2864 81.6196 24.1589C81.5125 24.0589 81.3953 23.9314 81.4427 23.8264C81.4576 23.7939 81.49 23.7639 81.5249 23.7389C81.5897 23.6964 81.662 23.6814 81.7342 23.6614C81.8663 23.6289 81.9958 23.5889 82.1304 23.5589C82.3422 23.5089 82.5614 23.4789 82.7807 23.4789C83.005 23.4814 83.2317 23.5164 83.456 23.5564C83.8397 23.6214 84.2209 23.7014 84.5971 23.7989C85.0432 23.9139 85.4842 24.0564 85.9252 24.1989C85.8554 24.7614 85.7034 25.3039 85.4717 25.8214ZM85.9551 23.8889C85.6237 23.7889 85.2923 23.6889 84.9609 23.5939C84.5448 23.4739 84.1287 23.3614 83.7051 23.2514C83.6354 23.2339 83.5656 23.2164 83.4958 23.2014C83.8372 23.0664 84.1785 22.9314 84.5099 22.7764C84.784 22.6489 85.0531 22.5064 85.3247 22.3664C85.4867 22.2814 85.6461 22.1989 85.8081 22.1164C85.9501 22.6989 85.9999 23.2939 85.9551 23.8889ZM84.8314 22.1614C84.3978 22.3964 83.9692 22.6439 83.5182 22.8364C83.2616 22.9464 82.9975 23.0389 82.7359 23.1314C82.5415 23.1514 82.3497 23.1964 82.1628 23.2364C81.9909 23.2739 81.8239 23.3089 81.642 23.3564C81.5174 23.3889 81.3854 23.4289 81.2782 23.3814C81.1562 23.3264 81.064 23.1589 81.0764 23.0139C81.0814 22.9264 81.1287 22.8464 81.1861 22.7839C81.2957 22.6639 81.4477 22.6014 81.5947 22.5314C81.8364 22.4139 82.0581 22.2739 82.2625 22.1089C82.2849 22.0914 82.3098 22.0714 82.3322 22.0514C82.5913 21.9464 82.848 21.8414 83.1121 21.7539C83.5805 21.6039 84.0664 21.5139 84.5473 21.4114C84.8662 21.3414 85.1827 21.2664 85.4991 21.1914C85.5714 21.3614 85.6387 21.5339 85.6935 21.7114C85.4044 21.8589 85.1179 22.0089 84.8314 22.1614ZM71.8847 26.7214C71.9694 27.1214 72.2061 27.6064 72.0665 27.8514C71.9096 28.1364 71.2518 28.0989 70.6488 28.0714C67.7784 27.9414 66.0816 28.0114 64.1281 28.0689C58.928 28.2264 51.9115 28.3164 45.4456 28.2839C40.3576 28.2614 35.6085 28.1639 30.7398 28.1414C28.6866 28.1339 26.6111 28.1364 24.538 28.1414C24.8021 27.7439 25.0687 27.3489 25.298 26.9339C25.5347 26.4964 25.7315 26.0389 25.8387 25.5314C25.8885 25.2914 25.9184 25.0389 25.9309 24.7814C28.582 24.7364 31.2306 24.6939 33.8818 24.6389C38.6259 24.5364 43.3675 24.3989 48.1142 24.3114C52.9156 24.2239 57.7195 24.1914 62.5185 23.9739C64.5716 23.8789 66.6223 23.7514 68.6729 23.6314C69.7792 23.5664 70.883 23.5039 71.9893 23.4414C71.9744 23.5689 71.9619 23.6964 71.9494 23.8239C71.8896 24.4014 71.8249 24.9814 71.8124 25.5764C71.8074 25.8814 71.8149 26.1889 71.8448 26.4614C71.8548 26.5489 71.8647 26.6339 71.8847 26.7214ZM17.1876 15.6014C12.9543 15.6014 9.52323 19.0464 9.52323 23.2939C9.52323 27.5414 12.9543 30.9839 17.1876 30.9839C21.4209 30.9839 24.8545 27.5414 24.8545 23.2939C24.8545 19.0464 21.4209 15.6014 17.1876 15.6014ZM22.6444 21.5289C22.3553 21.6764 22.0688 21.8264 21.7822 21.9814C21.3487 22.2139 20.9201 22.4614 20.4691 22.6564C20.2125 22.7639 19.9484 22.8564 19.6867 22.9489C19.4924 22.9689 19.3005 23.0139 19.1137 23.0564C18.9417 23.0939 18.7748 23.1264 18.5929 23.1739C18.4683 23.2064 18.3363 23.2464 18.2291 23.1989C18.107 23.1464 18.0148 22.9764 18.0273 22.8314C18.0348 22.7439 18.0796 22.6639 18.1369 22.6014C18.2466 22.4814 18.401 22.4189 18.5456 22.3489C18.7872 22.2314 19.009 22.0914 19.2133 21.9289C19.2357 21.9089 19.2607 21.8889 19.2831 21.8689C19.5422 21.7639 19.7989 21.6589 20.063 21.5739C20.5314 21.4214 21.0173 21.3314 21.4982 21.2289C21.8171 21.1589 22.1336 21.0839 22.45 21.0089C22.5248 21.1789 22.5895 21.3514 22.6444 21.5289ZM22.2731 20.6339C22.0962 20.6739 21.9193 20.7139 21.7424 20.7539C21.4459 20.8214 21.1494 20.8889 20.8553 20.9714C20.509 21.0714 20.1676 21.1889 19.8263 21.3064C19.8736 21.2464 19.921 21.1839 19.9658 21.1239C20.1602 20.8539 20.3296 20.5689 20.504 20.2889C20.7332 19.9214 20.9774 19.5614 21.2191 19.2014C21.6427 19.6214 21.9965 20.1039 22.2731 20.6339ZM21.0297 19.0214C20.9376 19.1214 20.8454 19.2189 20.7607 19.3214C20.5688 19.5539 20.4168 19.8164 20.2598 20.0739C19.9484 20.5814 19.6195 21.0714 19.1809 21.4889C19.014 21.6489 18.8321 21.7964 18.6602 21.9264C18.5406 22.0164 18.426 22.0989 18.264 22.1864C18.1344 22.2564 17.9775 22.3314 17.8952 22.2514C17.8678 22.2264 17.8479 22.1864 17.8379 22.1464C17.8155 22.0714 17.823 21.9964 17.828 21.9239C17.8379 21.7864 17.8404 21.6489 17.8529 21.5114C17.8703 21.2939 17.9102 21.0764 17.9775 20.8689C18.0497 20.6539 18.1519 20.4489 18.259 20.2464C18.4409 19.9014 18.6328 19.5639 18.8421 19.2339C19.0887 18.8439 19.3603 18.4664 19.6319 18.0889C20.1427 18.3314 20.6111 18.6439 21.0297 19.0214ZM19.3479 17.9639C19.151 18.2489 18.9517 18.5364 18.7598 18.8239C18.5182 19.1814 18.2814 19.5464 18.0497 19.9164C18.0099 19.9764 17.9725 20.0389 17.9351 20.0989C17.9127 19.7314 17.8902 19.3664 17.8454 19.0014C17.8105 18.6989 17.7607 18.3964 17.7084 18.0964C17.6785 17.9164 17.6461 17.7364 17.6137 17.5564C18.2117 17.6014 18.7947 17.7389 19.3479 17.9639ZM16.5622 18.5414C16.5971 18.2164 16.622 17.8914 16.6494 17.5664C16.8338 17.5489 17.0182 17.5414 17.2026 17.5414C17.2524 17.8614 17.3047 18.1814 17.3645 18.5039C17.4517 18.9889 17.5539 19.4764 17.5962 19.9664C17.6211 20.2439 17.6286 20.5239 17.6336 20.8039C17.5937 20.9939 17.5763 21.1914 17.5589 21.3839C17.5414 21.5589 17.5215 21.7264 17.509 21.9164C17.5015 22.0439 17.4991 22.1814 17.4218 22.2714C17.3321 22.3714 17.1427 22.4064 17.0107 22.3514C16.9285 22.3164 16.8687 22.2489 16.8263 22.1739C16.7466 22.0339 16.7341 21.8664 16.7117 21.7064C16.6768 21.4414 16.612 21.1864 16.5198 20.9389C16.5074 20.9114 16.4974 20.8814 16.485 20.8539C16.465 20.5739 16.4451 20.2964 16.4451 20.0189C16.4476 19.5264 16.5124 19.0339 16.5622 18.5414ZM17.6934 23.2939C17.6934 23.5739 17.4667 23.8014 17.1876 23.8014C16.9085 23.8014 16.6818 23.5739 16.6818 23.2939C16.6818 23.0139 16.9085 22.7864 17.1876 22.7864C17.4667 22.7864 17.6934 23.0139 17.6934 23.2939ZM16.2383 17.6214C16.2208 17.8014 16.2034 17.9814 16.1884 18.1639C16.161 18.4664 16.1336 18.7714 16.1212 19.0764C16.1062 19.4389 16.1137 19.8014 16.1187 20.1614C16.0788 20.0989 16.034 20.0339 15.9891 19.9714C15.7948 19.7039 15.578 19.4539 15.3662 19.2014C15.0871 18.8689 14.823 18.5264 14.5564 18.1839C15.0846 17.9089 15.6502 17.7189 16.2383 17.6214ZM14.3272 18.3089C14.3919 18.4264 14.4542 18.5464 14.5265 18.6589C14.6885 18.9114 14.8903 19.1389 15.0871 19.3689C15.4708 19.8214 15.8321 20.2864 16.0938 20.8339C16.1934 21.0414 16.2781 21.2614 16.3479 21.4664C16.3952 21.6089 16.4376 21.7439 16.4725 21.9264C16.4974 22.0689 16.5198 22.2414 16.4202 22.2964C16.3878 22.3164 16.3429 22.3214 16.3006 22.3189C16.2233 22.3164 16.1561 22.2864 16.0888 22.2589C15.9617 22.2089 15.8321 22.1639 15.7051 22.1089C15.5032 22.0239 15.3089 21.9189 15.1345 21.7914C14.9526 21.6564 14.7906 21.4939 14.6311 21.3314C14.3596 21.0489 14.0979 20.7614 13.8513 20.4614C13.5572 20.1039 13.2857 19.7289 13.0116 19.3539C13.3978 18.9414 13.8388 18.5914 14.3272 18.3089ZM12.8048 19.5864C13.0141 19.8614 13.2234 20.1389 13.4352 20.4114C13.7018 20.7539 13.9734 21.0914 14.2524 21.4289C14.2973 21.4839 14.3446 21.5389 14.392 21.5939C14.0356 21.5014 13.6818 21.4114 13.323 21.3389C13.024 21.2789 12.7225 21.2339 12.4235 21.1914C12.2416 21.1639 12.0622 21.1389 11.8828 21.1139C12.1096 20.5589 12.4186 20.0439 12.8048 19.5864ZM11.7408 21.5039C12.0597 21.5514 12.3812 21.6014 12.7026 21.6464C13.191 21.7114 13.6818 21.7639 14.1602 21.8764C14.4318 21.9364 14.6984 22.0189 14.965 22.0989C15.1345 22.1964 15.3164 22.2739 15.4908 22.3514C15.6527 22.4214 15.8072 22.4914 15.9816 22.5614C16.1012 22.6089 16.2308 22.6539 16.2906 22.7564C16.3579 22.8714 16.3354 23.0614 16.2408 23.1714C16.1835 23.2389 16.0987 23.2764 16.014 23.2939C15.857 23.3264 15.6976 23.2864 15.5356 23.2564C15.274 23.2089 15.0124 23.1914 14.7508 23.2039C14.7184 23.2064 14.6885 23.2064 14.6586 23.2089C14.387 23.1439 14.1179 23.0764 13.8538 22.9889C13.3878 22.8364 12.9418 22.6214 12.4908 22.4214C12.1943 22.2889 11.8928 22.1639 11.5938 22.0389C11.6337 21.8564 11.6835 21.6789 11.7408 21.5039ZM11.5166 22.4464C11.6835 22.5189 11.8505 22.5914 12.0149 22.6639C12.2965 22.7839 12.5755 22.9014 12.8621 23.0089C13.2009 23.1339 13.5448 23.2389 13.8911 23.3464C13.8164 23.3664 13.7416 23.3889 13.6694 23.4114C13.3554 23.5139 13.0514 23.6439 12.7475 23.7689C12.3438 23.9289 11.9377 24.0789 11.5315 24.2264C11.4343 23.6364 11.4294 23.0389 11.5166 22.4464ZM11.5789 24.4839C11.7109 24.4589 11.843 24.4339 11.9725 24.3989C12.2641 24.3239 12.5406 24.2014 12.8197 24.0864C13.3654 23.8589 13.9185 23.6564 14.519 23.5789C14.7458 23.5464 14.9825 23.5339 15.1968 23.5314C15.3463 23.5289 15.4883 23.5314 15.6702 23.5539C15.8147 23.5739 15.9841 23.6064 16.0065 23.7189C16.014 23.7564 16.0041 23.7989 15.9916 23.8389C15.9642 23.9114 15.9144 23.9664 15.8695 24.0239C15.7798 24.1289 15.6976 24.2389 15.6079 24.3439C15.4659 24.5089 15.3064 24.6614 15.1295 24.7889C14.9451 24.9214 14.7433 25.0264 14.539 25.1264C14.1876 25.2989 13.8338 25.4589 13.4725 25.6014C13.044 25.7714 12.6029 25.9164 12.1619 26.0614C11.8903 25.5664 11.696 25.0364 11.5789 24.4839ZM13.4825 27.6839C13.0265 27.2964 12.6353 26.8414 12.3189 26.3314C12.6453 26.2164 12.9742 26.1014 13.2981 25.9839C13.7042 25.8364 14.1079 25.6814 14.514 25.5189C14.5813 25.4914 14.6461 25.4664 14.7134 25.4364C14.5165 25.7464 14.3197 26.0564 14.1428 26.3789C13.9933 26.6439 13.8562 26.9164 13.7242 27.1914C13.642 27.3564 13.5622 27.5189 13.4825 27.6839ZM14.6336 28.4439C14.7532 28.3064 14.8728 28.1714 14.9924 28.0339C15.1918 27.8039 15.3936 27.5739 15.5805 27.3339C15.8047 27.0489 16.0115 26.7539 16.2183 26.4564C16.2158 26.5339 16.2134 26.6114 16.2134 26.6889C16.2109 27.0189 16.2433 27.3489 16.2657 27.6789C16.2956 28.1114 16.3105 28.5464 16.3255 28.9814C15.735 28.8914 15.1669 28.7089 14.6336 28.4439ZM16.328 25.6814C16.181 25.9189 16.034 26.1564 15.8695 26.3814C15.5805 26.7789 15.2391 27.1389 14.9102 27.5064C14.6934 27.7489 14.4816 27.9964 14.2699 28.2439C14.1104 28.1514 13.9559 28.0489 13.8064 27.9389C13.9534 27.6489 14.0979 27.3589 14.24 27.0639C14.4542 26.6189 14.6561 26.1664 14.9077 25.7439C15.0522 25.5039 15.2092 25.2739 15.3687 25.0439C15.5132 24.9139 15.6428 24.7639 15.7698 24.6214C15.887 24.4889 16.0016 24.3639 16.1212 24.2189C16.2034 24.1189 16.2856 24.0089 16.4002 23.9839C16.5323 23.9539 16.7042 24.0364 16.7815 24.1614C16.8263 24.2364 16.8363 24.3289 16.8263 24.4139C16.8064 24.5739 16.7192 24.7139 16.6419 24.8589C16.5173 25.0939 16.4202 25.3389 16.3504 25.5914C16.3429 25.6214 16.3354 25.6514 16.328 25.6814ZM16.5821 29.0139C16.5996 28.8814 16.617 28.7464 16.6245 28.6114C16.6444 28.3114 16.612 28.0089 16.5896 27.7089C16.5447 27.1164 16.5223 26.5264 16.632 25.9289C16.6743 25.7014 16.7341 25.4739 16.7989 25.2664C16.8413 25.1239 16.8886 24.9914 16.9683 24.8239C17.0306 24.6914 17.1129 24.5389 17.2275 24.5539C17.2624 24.5564 17.3022 24.5789 17.3346 24.6039C17.3969 24.6539 17.4343 24.7164 17.4741 24.7789C17.5464 24.8939 17.6236 25.0089 17.6959 25.1264C17.808 25.3139 17.9027 25.5139 17.97 25.7214C18.0373 25.9364 18.0746 26.1639 18.107 26.3889C18.1618 26.7764 18.2042 27.1639 18.2291 27.5514C18.2565 28.0164 18.259 28.4789 18.259 28.9439C17.7059 29.0514 17.1427 29.0739 16.5821 29.0139ZM18.563 28.8789C18.5555 28.5314 18.5481 28.1839 18.5356 27.8364C18.5206 27.4039 18.4982 26.9714 18.4708 26.5339C18.4658 26.4614 18.4608 26.3889 18.4559 26.3189C18.6876 26.6014 18.9218 26.8839 19.171 27.1539C19.3778 27.3764 19.5946 27.5914 19.8113 27.8039C19.9409 27.9314 20.0705 28.0614 20.2 28.1889C19.6917 28.5039 19.1411 28.7339 18.563 28.8789ZM20.5489 27.9564C20.3171 27.7239 20.0879 27.4989 19.8512 27.2714C19.4974 26.9314 19.1286 26.5989 18.8072 26.2264C18.6228 26.0164 18.4559 25.7939 18.2864 25.5714C18.2092 25.3914 18.1045 25.2214 18.0074 25.0564C17.9201 24.9039 17.8379 24.7564 17.7358 24.5964C17.666 24.4889 17.5888 24.3764 17.5987 24.2589C17.6137 24.1239 17.7432 23.9839 17.8853 23.9514C17.97 23.9314 18.0597 23.9489 18.1369 23.9864C18.2839 24.0514 18.3911 24.1789 18.5032 24.2964C18.6876 24.4914 18.8894 24.6589 19.1087 24.8039C19.1336 24.8214 19.161 24.8364 19.1859 24.8539C19.3653 25.0664 19.5447 25.2789 19.7067 25.5039C19.9957 25.9039 20.2299 26.3414 20.4766 26.7689C20.641 27.0514 20.8105 27.3289 20.9799 27.6089C20.8404 27.7314 20.6984 27.8439 20.5489 27.9564ZM21.2814 27.3214C21.1892 27.1664 21.097 27.0089 21.0023 26.8539C20.8479 26.5914 20.6909 26.3289 20.5214 26.0764C20.3221 25.7739 20.1053 25.4864 19.8861 25.1964C19.9583 25.2239 20.0306 25.2489 20.1053 25.2739C20.4193 25.3764 20.7407 25.4489 21.0596 25.5289C21.4807 25.6339 21.8968 25.7539 22.313 25.8739C22.0439 26.4089 21.6975 26.8964 21.2814 27.3214ZM22.4226 25.6389C22.303 25.5814 22.1809 25.5239 22.0563 25.4739C21.7772 25.3639 21.4807 25.2989 21.1867 25.2289C20.6111 25.0889 20.048 24.9264 19.5148 24.6389C19.313 24.5289 19.1137 24.3989 18.9392 24.2764C18.8172 24.1889 18.7025 24.1039 18.5705 23.9764C18.4633 23.8764 18.3462 23.7489 18.3936 23.6464C18.4085 23.6114 18.4409 23.5814 18.4758 23.5589C18.5406 23.5139 18.6128 23.4989 18.6851 23.4814C18.8171 23.4464 18.9467 23.4064 19.0813 23.3764C19.2955 23.3264 19.5123 23.2964 19.7316 23.2989C19.9558 23.2989 20.1826 23.3339 20.4068 23.3739C20.7905 23.4414 21.1718 23.5189 21.548 23.6164C21.994 23.7339 22.435 23.8764 22.8761 24.0189C22.8063 24.5789 22.6543 25.1214 22.4226 25.6389ZM21.9118 23.4114C21.4957 23.2914 21.0796 23.1789 20.656 23.0714C20.5862 23.0539 20.5165 23.0339 20.4467 23.0189C20.7881 22.8839 21.1294 22.7489 21.4608 22.5939C21.7349 22.4664 22.004 22.3239 22.2756 22.1839C22.4375 22.1014 22.597 22.0189 22.759 21.9364C22.901 22.5164 22.9508 23.1114 22.906 23.7089C22.5746 23.6064 22.2432 23.5064 21.9118 23.4114Z" stroke="url(#paint0_linear)" stroke-width="2" mask="url(#path-1-inside-1)"/>
    <defs>
        <linearGradient id="paint0_linear" x1="47" y1="-3.5" x2="55.2167" y2="29.1859" gradientUnits="userSpaceOnUse">
            <stop stop-color="#0ACFCF"/>
            <stop offset="1" stop-color="#743498" stop-opacity="0.6"/>
        </linearGradient>
    </defs>
</svg>