<svg viewBox="0 0 96 96" fill="none" xmlns="http://www.w3.org/2000/svg">
<path d="M4 4L92 92" stroke="#77798C" stroke-width="2" stroke-linecap="round" stroke-linejoin="round"/>
<path d="M61.12 61.12C59.7924 63.0602 58.0536 64.684 56.0272 65.8759C54.0008 67.0678 51.7366 67.7985 49.3958 68.016C47.0549 68.2335 44.6949 67.9325 42.4836 67.1344C40.2723 66.3363 38.264 65.0607 36.6017 63.3983C34.9393 61.736 33.6637 59.7277 32.8656 57.5164C32.0675 55.3051 31.7665 52.9451 31.984 50.6042C32.2015 48.2634 32.9322 45.9992 34.1241 43.9728C35.316 41.9464 36.9398 40.2076 38.88 38.88M84 84H12C9.87827 84 7.84344 83.1571 6.34315 81.6569C4.84285 80.1566 4 78.1217 4 76V32C4 29.8783 4.84285 27.8434 6.34315 26.3431C7.84344 24.8429 9.87827 24 12 24H24L84 84ZM36 12H60L68 24H84C86.1217 24 88.1566 24.8429 89.6569 26.3431C91.1571 27.8434 92 29.8783 92 32V69.36L36 12Z" stroke="#77798C" stroke-width="2" stroke-linecap="round" stroke-linejoin="round"/>
</svg>
