<svg viewBox="0 0 21 20" fill="none" xmlns="http://www.w3.org/2000/svg">
<path fill-rule="evenodd" clip-rule="evenodd" d="M2.33325 4.99992C2.33325 4.63173 2.63173 4.33325 2.99992 4.33325H17.9999C18.3681 4.33325 18.6666 4.63173 18.6666 4.99992V7.33325H2.33325V4.99992ZM2.33325 9.33325V14.9999C2.33325 15.3681 2.63173 15.6666 2.99992 15.6666H17.9999C18.3681 15.6666 18.6666 15.3681 18.6666 14.9999V9.33325H2.33325ZM2.99992 2.33325C1.52716 2.33325 0.333252 3.52716 0.333252 4.99992V14.9999C0.333252 16.4727 1.52716 17.6666 2.99992 17.6666H17.9999C19.4727 17.6666 20.6666 16.4727 20.6666 14.9999V4.99992C20.6666 3.52716 19.4727 2.33325 17.9999 2.33325H2.99992Z" fill="#3955FE"/>
</svg>
