<svg width="15" height="15" viewBox="0 0 15 15" fill="none" xmlns="http://www.w3.org/2000/svg">
<path d="M11.8762 10.6235C10.8449 10.6235 10.0059 11.4625 10.0059 12.4938C10.0059 13.5251 10.8449 14.3641 11.8762 14.3641C12.9075 14.3641 13.7465 13.5251 13.7465 12.4938C13.7465 11.4625 12.9075 10.6235 11.8762 10.6235ZM11.8762 13.2419C11.4636 13.2419 11.1281 12.9064 11.1281 12.4938C11.1281 12.0812 11.4636 11.7457 11.8762 11.7457C12.2888 11.7457 12.6243 12.0812 12.6243 12.4938C12.6243 12.9064 12.2888 13.2419 11.8762 13.2419Z" fill="white"/>
<path d="M14.8808 3.39477C14.7745 3.2588 14.6116 3.17949 14.439 3.17949H3.4635L2.9585 1.06659C2.89809 0.814108 2.67233 0.635864 2.41273 0.635864H0.561097C0.251193 0.635835 0 0.887028 0 1.19693C0 1.50684 0.251193 1.75803 0.561097 1.75803H1.96985L3.79341 9.38824C3.85382 9.64093 4.07958 9.81896 4.33919 9.81896H13.0737C13.3316 9.81896 13.5564 9.64315 13.6183 9.3929L14.9837 3.87541C15.025 3.70786 14.987 3.53073 14.8808 3.39477ZM12.6347 8.6968H4.78207L3.73168 4.30169H13.7221L12.6347 8.6968Z" fill="white"/>
<path d="M5.08712 10.6235C4.05581 10.6235 3.2168 11.4625 3.2168 12.4938C3.2168 13.5251 4.05583 14.3641 5.08712 14.3641C6.11841 14.3641 6.95744 13.5251 6.95744 12.4938C6.95744 11.4625 6.11841 10.6235 5.08712 10.6235ZM5.08712 13.2419C4.67453 13.2419 4.33899 12.9064 4.33899 12.4938C4.33899 12.0812 4.67453 11.7457 5.08712 11.7457C5.49971 11.7457 5.83525 12.0812 5.83525 12.4938C5.83525 12.9064 5.49971 13.2419 5.08712 13.2419Z" fill="white"/>
</svg>
