<svg viewBox="0 0 20 20" fill="none" xmlns="http://www.w3.org/2000/svg">
<path fill-rule="evenodd" clip-rule="evenodd" d="M8.38386 2.84217C9.92636 2.49366 11.5402 2.65311 12.9847 3.29673C13.4891 3.52151 14.0803 3.29478 14.3051 2.7903C14.5299 2.28583 14.3031 1.69465 13.7987 1.46987C11.9602 0.650722 9.90628 0.44779 7.9431 0.891344C5.97992 1.3349 4.21272 2.40117 2.90505 3.93114C1.59738 5.46111 0.819315 7.3728 0.686888 9.3811C0.554462 11.3894 1.07477 13.3867 2.17022 15.0751C3.26567 16.7636 4.87756 18.0527 6.7655 18.7502C8.65343 19.4476 10.7163 19.5162 12.6463 18.9455C14.5764 18.3749 16.2703 17.1956 17.4754 15.5836C18.6805 13.9716 19.3322 12.0132 19.3333 10.0005V9.99997V9.2333C19.3333 8.68102 18.8856 8.2333 18.3333 8.2333C17.781 8.2333 17.3333 8.68102 17.3333 9.2333V9.9994C17.3324 11.5808 16.8204 13.1195 15.8735 14.3861C14.9266 15.6526 13.5957 16.5792 12.0793 17.0276C10.5628 17.476 8.94198 17.4221 7.4586 16.8741C5.97522 16.3261 4.70874 15.3132 3.84803 13.9866C2.98732 12.66 2.5785 11.0906 2.68255 9.5127C2.7866 7.93474 3.39794 6.4327 4.4254 5.23058C5.45285 4.02846 6.84137 3.19068 8.38386 2.84217ZM19.0408 4.04005C19.4311 3.64933 19.4308 3.01617 19.0401 2.62584C18.6494 2.23551 18.0162 2.23583 17.6259 2.62655L9.99964 10.2604L8.2071 8.46786C7.81658 8.07734 7.18341 8.07734 6.79289 8.46786C6.40236 8.85839 6.40236 9.49155 6.79289 9.88207L9.29289 12.3821C9.48049 12.5697 9.73494 12.675 10.0002 12.675C10.2655 12.6749 10.52 12.5694 10.7075 12.3817L19.0408 4.04005Z" fill="#3955FE"/>
</svg>
