<svg viewBox="0 0 296 115" fill="none" xmlns="http://www.w3.org/2000/svg">
<ellipse cx="148" cy="112" rx="148" ry="3" fill="#D7D7DD"/>
<path d="M59.442 39C36.242 41.4 22.2753 46.3333 14.942 50C7.24804 53.4235 3.39497 58.7294 1.44199 66.5C-0.310357 73.4723 0.0700091 88.5 0.0700127 90C0.0700164 91.5 1.44198 96 5.44198 96H98.442H148.442H227.442L275.442 93L284.442 89.5C286.942 88.5 287.942 85 288.442 82C288.442 82 289.942 72.5 289.442 70.5C289.04 68.8926 286.442 67.5 286.442 67.5L286.942 57C287.109 55.8333 286.442 51.9 284.442 49.5C283.672 48.5757 281.942 46.5 276.942 44.5C272.546 41.7289 268.942 39 268.942 39L241.942 19.5C237.775 16.6667 226.542 11 214.942 11H117.442C114.442 11 109.442 13.5 109.442 13.5C109.442 13.5 74.942 31.1667 59.442 39Z" fill="#262425"/>
<path d="M93.4414 85C93.4414 71.7452 104.187 61 117.441 61H119.441C132.696 61 142.441 68.5 143.441 85V89C141.941 107 133.941 113 119.441 113H117.441C102.941 113 93.4414 103.5 93.4414 89V85Z" fill="#262425"/>
<path d="M143.441 87.5C143.441 102.5 136.097 113 123.441 113C110.785 113 103.441 102.5 103.441 87.5C103.441 72.5 110.785 62 123.441 62C136.097 62 143.441 72.5 143.441 87.5Z" fill="white" fill-opacity="0.05"/>
<path d="M136.441 87.5C136.441 97.7941 131.668 105 123.441 105C115.215 105 110.441 97.7941 110.441 87.5C110.441 77.2059 115.215 70 123.441 70C131.668 70 136.441 77.2059 136.441 87.5Z" fill="url(#paint0_radial)"/>
<path d="M136.441 87.5C136.441 97.7941 131.668 105 123.441 105C119.741 105 116.739 103.542 114.556 101C114.556 101 122.441 107.5 129.441 101.5C136.201 95.7065 136.441 87.5 136.441 87.5Z" fill="#77798C"/>
<path d="M142.441 87.1559C142.441 101.182 135.58 111 123.756 111C118.123 111 113.616 108.772 110.441 104.922L140.33 75.0001C140.33 75.0001 142.441 82.5947 142.441 87.1559Z" fill="white" fill-opacity="0.1"/>
<path d="M20.4414 85C20.4414 71.7452 30.1121 61 42.0414 61H43.8414C55.7708 61 64.5414 68.5 65.4414 85V89C64.0914 107 56.8914 113 43.8414 113H42.0414C28.9914 113 20.4414 103.5 20.4414 89V85Z" fill="#262425"/>
<path opacity="0.1" d="M59.1414 87.5C59.1414 97.7941 54.8451 105 47.4414 105C44.1107 105 41.409 103.542 39.4443 101C39.4443 101 46.5414 107.5 52.8414 101.5C58.9246 95.7065 59.1414 87.5 59.1414 87.5Z" fill="#77798C"/>
<path d="M148.441 85C148.441 71.7452 158.112 61 170.041 61H171.841C183.771 61 192.541 68.5 193.441 85V89C192.091 107 184.891 113 171.841 113H170.041C156.991 113 148.441 103.5 148.441 89V85Z" fill="#262425"/>
<path opacity="0.1" d="M187.141 87.5C187.141 97.7941 182.845 105 175.441 105C172.111 105 169.409 103.542 167.444 101C167.444 101 174.541 107.5 180.841 101.5C186.925 95.7065 187.141 87.5 187.141 87.5Z" fill="#77798C"/>
<path d="M223.441 85C223.441 71.7452 234.187 61 247.441 61H249.441C262.696 61 272.441 68.5 273.441 85V89C271.941 107 263.941 113 249.441 113H247.441C232.941 113 223.441 103.5 223.441 89V85Z" fill="#262425"/>
<path d="M273.441 87.5C273.441 102.5 266.097 113 253.441 113C240.785 113 233.441 102.5 233.441 87.5C233.441 72.5 240.785 62 253.441 62C266.097 62 273.441 72.5 273.441 87.5Z" fill="white" fill-opacity="0.05"/>
<path d="M266.441 87.5C266.441 97.7941 261.668 105 253.441 105C245.215 105 240.441 97.7941 240.441 87.5C240.441 77.2059 245.215 70 253.441 70C261.668 70 266.441 77.2059 266.441 87.5Z" fill="url(#paint1_radial)"/>
<path d="M266.441 87.5C266.441 97.7941 261.668 105 253.441 105C249.741 105 246.739 103.542 244.556 101C244.556 101 252.441 107.5 259.441 101.5C266.201 95.7065 266.441 87.5 266.441 87.5Z" fill="#77798C"/>
<path d="M272.441 87.1559C272.441 101.182 265.58 111 253.756 111C248.123 111 243.616 108.772 240.441 104.922L270.33 75.0001C270.33 75.0001 272.441 82.5947 272.441 87.1559Z" fill="white" fill-opacity="0.1"/>
<path d="M59.442 39C36.242 41.4 22.2753 46.3333 14.942 50C7.24804 53.4235 3.39497 58.7294 1.44199 66.5C-0.310357 73.4723 0.0700091 88.5 0.0700127 90C0.0700164 91.5 1.44198 96 5.44198 96H98.442C99.442 96 101.442 95.4 101.442 93V82C101.609 74.3333 108.442 59.5 123.442 59.5C138.442 59.5 145.275 74.5 145.442 82V93C145.442 94 145.442 96 148.442 96H227.442C229.442 96 230.442 95.4 230.442 93V82C230.442 75 237.642 59.5 252.442 59.5C267.942 59.5 273.942 74.5 274.442 82L275.442 93L284.442 89.5C286.942 88.5 287.942 85 288.442 82C288.442 82 289.942 72.5 289.442 70.5C289.04 68.8926 286.442 67.5 286.442 67.5L286.942 57C287.109 55.8333 286.442 51.9 284.442 49.5C283.672 48.5757 281.942 46.5 276.942 44.5C272.546 41.7289 268.942 39 268.942 39L241.942 19.5C237.775 16.6667 226.542 11 214.942 11H117.442C114.442 11 109.442 13.5 109.442 13.5C109.442 13.5 74.942 31.1667 59.442 39Z" fill="url(#paint2_linear)"/>
<path d="M1.44282 66.501C-0.309518 73.4733 0.069774 88.501 0.0697776 90.001C0.0697813 91.501 1.44282 96.001 5.44282 96.001H74V86H87C88 86 89.5 85 89.5 83V78H74V64.969H1.85791C1.71301 65.4661 1.5746 65.9767 1.44282 66.501Z" fill="url(#paint3_linear)"/>
<path opacity="0.3" d="M59.4425 39C36.2425 41.4 22.2759 46.3333 14.9425 50C11.89 51.3583 9.41808 53.0364 7.45351 55.0236C7.45351 55.0236 6.44088 57.0732 22.9425 56.5C40.2017 55.9005 68.7523 53.6203 97.9426 52.5L284.443 49.5C283.672 48.5757 281.943 46.5 276.943 44.5C272.546 41.7289 268.943 39 268.943 39L241.943 19.5C237.776 16.6667 226.543 11 214.943 11H117.443C114.443 11 109.443 13.5 109.443 13.5C109.443 13.5 74.9426 31.1667 59.4425 39Z" fill="#F7F8FA"/>
<path d="M281.118 49.1278L281.719 47C288.516 51.3906 286.812 60 286.812 60H285.455C285.168 60 284.899 59.8652 284.727 59.6362C282.937 57.2488 281.761 54.4574 281.304 51.5083L281.067 49.9772C281.023 49.6936 281.04 49.4039 281.118 49.1278Z" fill="#F44336"/>
<path opacity="0.2" d="M281.859 51.0391C282.667 54.2712 284.82 58.947 285.578 59.0078C286.844 59.1094 286.812 60 286.812 60H285.455C285.168 60 284.899 59.8652 284.727 59.6362C282.991 57.322 281.834 54.6283 281.348 51.7793C281.317 51.5989 281.287 51.4189 281.256 51.2386C281.18 50.7957 281.039 49.9273 281.039 49.5625C281.672 49.5625 281.672 50.2891 281.859 51.0391Z" fill="#262425"/>
<path opacity="0.5" d="M135.942 39H61.4997C29.5622 42.8751 13.1872 50.7501 11.8122 53.8126C10.4372 56.8751 65.9997 53.0314 65.9997 53.0314C65.9997 53.0314 87.1849 51.6175 97.9997 51.0001C97.9997 51.0001 107.125 49.7501 118 46.5001C125.433 44.2785 135.942 39 135.942 39Z" fill="#F7F8FA"/>
<path d="M94.125 39C94.125 39 58.6172 45.0156 35.9922 54.6719C46.2812 54.4531 98 51.0001 98 51.0001C98 51.0001 107.125 49.7501 118 46.5001C125.434 44.2785 135.942 39 135.942 39H94.125Z" fill="url(#paint4_linear)"/>
<path opacity="0.5" d="M153.941 50.5C153.541 46.1 151.608 42.6667 150.441 41H255.441L258.429 49.9062C255.609 51.1562 250.185 53.8622 246.441 55.5C234.034 60.9281 226.139 68.875 226.139 82.0588V96.0625H153.999C154.166 82.8958 154.341 54.9 153.941 50.5Z" fill="url(#paint5_linear)"/>
<path fill-rule="evenodd" clip-rule="evenodd" d="M160 65.2632C160 64.5655 160.554 64 161.237 64H168.041C168.724 64 169.278 64.5655 169.278 65.2632C169.278 65.9608 168.724 66.5263 168.041 66.5263H165.876V74.7368C165.876 75.4345 165.322 76 164.639 76C163.956 76 163.402 75.4345 163.402 74.7368V66.5263H161.237C160.554 66.5263 160 65.9608 160 65.2632Z" fill="#C2C2CB"/>
<path d="M170.515 70C170.515 66.6863 173.146 64 176.392 64C179.637 64 182.268 66.6863 182.268 70V73.4737H181.031V74.7368H179.794V70C179.794 68.0815 178.271 66.5263 176.392 66.5263C174.513 66.5263 172.99 68.0815 172.99 70C172.99 71.9185 174.513 73.4737 176.392 73.4737H178.557V74.7368H177.32V76H176.392C173.146 76 170.515 73.3137 170.515 70Z" fill="#C2C2CB"/>
<path d="M178.557 74.7368V76H179.794V74.7368H178.557Z" fill="#C2C2CB"/>
<path d="M181.031 74.7368H182.268V76H181.031V74.7368Z" fill="#C2C2CB"/>
<path fill-rule="evenodd" clip-rule="evenodd" d="M184.486 64.37C184.969 63.8767 185.752 63.8767 186.236 64.37L190.875 69.1068C191.358 69.6001 191.358 70.3999 190.875 70.8932L186.236 75.63C185.752 76.1233 184.969 76.1233 184.486 75.63C184.003 75.1367 184.003 74.3369 184.486 73.8437L188.25 70L184.486 66.1563C184.003 65.6631 184.003 64.8633 184.486 64.37ZM195.514 64.37C195.997 64.8633 195.997 65.6631 195.514 66.1563L193.194 68.5248C192.711 69.0181 191.928 69.0181 191.445 68.5248C190.962 68.0315 190.962 67.2317 191.445 66.7384L193.764 64.37C194.248 63.8767 195.031 63.8767 195.514 64.37ZM191.445 71.4752C191.928 70.9819 192.711 70.9819 193.194 71.4752L195.514 73.8437C195.997 74.3369 195.997 75.1367 195.514 75.63C195.031 76.1233 194.248 76.1233 193.764 75.63L191.445 73.2616C190.962 72.7683 190.962 71.9685 191.445 71.4752Z" fill="#C2C2CB"/>
<path fill-rule="evenodd" clip-rule="evenodd" d="M197.113 70C197.113 66.6863 199.744 64 202.99 64C206.235 64 208.866 66.6863 208.866 70C208.866 70.6976 208.312 71.2632 207.629 71.2632H202.99C202.306 71.2632 201.753 70.6976 201.753 70C201.753 69.3024 202.306 68.7368 202.99 68.7368H206.16C205.665 67.4429 204.432 66.5263 202.99 66.5263C201.111 66.5263 199.588 68.0815 199.588 70C199.588 71.9185 201.111 73.4737 202.99 73.4737H206.392C207.075 73.4737 207.629 74.0392 207.629 74.7368C207.629 75.4345 207.075 76 206.392 76H202.99C199.744 76 197.113 73.3137 197.113 70Z" fill="#C2C2CB"/>
<path fill-rule="evenodd" clip-rule="evenodd" d="M211.959 64C212.642 64 213.196 64.5655 213.196 65.2632V72.8421C213.196 73.1909 213.473 73.4737 213.814 73.4737H218.763C219.446 73.4737 220 74.0392 220 74.7368C220 75.4345 219.446 76 218.763 76H213.814C212.106 76 210.722 74.5862 210.722 72.8421V65.2632C210.722 64.5655 211.276 64 211.959 64Z" fill="#C2C2CB"/>
<g opacity="0.7">
<path d="M58.6922 82H0.063258C-0.0578347 83.5 0.0321652 86 0.0321652 86H86.4422C88.8422 86 89.4422 84 89.4422 83V78H61.9422L58.6922 82Z" fill="url(#paint6_radial)"/>
<path d="M223.442 90H155.942L171.942 85H217.942L223.442 90Z" fill="url(#paint7_radial)"/>
</g>
<path opacity="0.5" d="M275.03 56L271.007 49.7109L128.441 51.9999L275.03 56Z" fill="#D7D7DD"/>
<path d="M156.422 14H108.472L59.4414 39H135.515C135.787 39 136.048 38.889 136.237 38.6925L157.504 16.5388C158.419 15.5854 157.744 14 156.422 14Z" fill="#3955FE"/>
<path d="M149.83 33.5044L166.161 15.9173C167.296 14.6947 168.883 14 170.552 14H212.441C226.041 14 238.441 20.3333 242.941 23.5L263.612 39.2278C264.371 39.8051 263.968 41.0159 263.015 41.0236L153.534 41.9065C149.15 41.9419 146.846 36.7178 149.83 33.5044Z" fill="#3955FE"/>
<path d="M156.422 14H108.472L59.4414 39H135.515C135.787 39 136.048 38.889 136.237 38.6925L157.504 16.5388C158.419 15.5854 157.744 14 156.422 14Z" fill="url(#paint8_linear)"/>
<path d="M156.441 14L108.464 14L59.4414 39H74.1781C74.3507 39 74.497 38.9686 74.6472 38.8837C77.5664 37.2341 110.619 18.5813 114.441 17.5001C115.322 17.251 115.175 17.0861 118.999 16.9923H157.077C158.859 15.4532 157.57 14 156.441 14Z" fill="#3955FE"/>
<path d="M170.552 14H212.441C218.583 14 224.481 15.2917 229.516 17.0001C235.63 19.0746 240.474 21.7634 242.941 23.5L254.441 32.25L247.441 41.1645L163.71 41.9088C159.541 41.9459 157.161 37.1649 159.703 33.8605L163.441 29.0001L173.441 17.0001H165.156L166.161 15.9173C167.296 14.6947 168.883 14 170.552 14Z" fill="#3955FE"/>
<path d="M170.552 14H212.441C218.583 14 224.481 15.2917 229.516 17.0001C235.63 19.0746 240.474 21.7634 242.941 23.5L254.441 32.25L257.007 34.1954L255.476 41.0861L172.437 42.0001L153.532 41.9083C149.148 41.943 146.845 36.7193 149.829 33.5062L166.161 15.9173C167.296 14.6947 168.883 14 170.552 14Z" fill="url(#paint9_linear)"/>
<path d="M158.586 28.7132L154.514 32.106C153.87 32.643 153.629 33.5251 153.911 34.3151L155.584 39H148.952L150.422 40.375L151.085 42H172.441L174.05 34.7608C174.272 33.7603 173.702 32.7537 172.73 32.4296L160.498 28.3523C159.841 28.1333 159.118 28.2698 158.586 28.7132Z" fill="url(#paint10_linear)"/>
<path opacity="0.2" d="M158.586 28.7132L154.514 32.106C153.87 32.643 153.629 33.5251 153.911 34.3151L155.584 39H148.952C148.952 39 149.499 39.8906 150.019 40.5C150.539 41.1094 151.085 42 151.085 42H172.441L174.05 34.7608C174.272 33.7603 173.702 32.7537 172.73 32.4296L160.498 28.3523C159.841 28.1333 159.118 28.2698 158.586 28.7132Z" fill="#ECECEF"/>
<path d="M158.586 28.713L157.758 29.402C156.38 30.5501 157.094 32.7917 158.882 32.9325L172.441 34C173.179 33.631 173.103 32.5538 172.32 32.2929L160.498 28.3523C159.841 28.1333 159.118 28.2697 158.586 28.713Z" fill="url(#paint11_linear)"/>
<path d="M164.941 39L165.941 37H173.555L172.441 42H151.093C151.093 42 150.49 41.0215 149.914 40.4453C149.338 39.8691 148.941 39 148.941 39H164.941Z" fill="url(#paint12_linear)"/>
<path d="M9.44217 55.9999C8.33984 55.9999 7.65625 55.4297 7.44922 55.0195C3.77344 58.6563 2.23828 63.5898 1.85547 64.9999H4.44217L6.21424 70.3161C6.35036 70.7244 6.7325 70.9999 7.16293 70.9999H45.6137C46.1442 70.9999 46.6529 70.7892 47.028 70.4141L52.4422 64.9999H88.207C89.596 64.9999 90.8856 64.2793 91.6136 63.0963L97.9309 52.8308C98.1444 52.4838 97.91 52.0381 97.5036 52.0673C90.1839 52.5917 42.3267 55.9999 34.9422 55.9999H9.44217Z" fill="#ECECEF"/>
<path d="M9.44217 55.9999C8.33984 55.9999 7.65625 55.4297 7.44922 55.0195C3.77344 58.6563 2.23828 63.5899 1.85547 64.9999H4.44217L6.21424 70.3161C6.35036 70.7245 6.7325 70.9999 7.16293 70.9999H45.6137C46.1442 70.9999 46.6529 70.7892 47.028 70.4141L52.4422 64.9999H88.207C89.596 64.9999 90.8856 64.2793 91.6136 63.0963L97.9309 52.8308C98.1444 52.4838 97.91 52.0382 97.5036 52.0673C90.1839 52.5917 42.3267 55.9999 34.9422 55.9999H9.44217Z" fill="url(#paint13_linear)"/>
<path d="M34.9422 55.9998H9.44217C9.44217 55.9998 8.52344 55.9998 7.89844 55.5156C6.53379 56.9258 4.78426 61.2369 4.44217 64.9998L6.21425 70.316C6.35036 70.7243 6.7325 70.9998 7.16293 70.9998H45.6137C46.1442 70.9998 46.6529 70.7891 47.028 70.414L52.4422 64.9998C52.4422 64.9998 56.4422 60.9999 63.4422 54.4156C50.6183 55.2594 38.384 55.9998 34.9422 55.9998Z" fill="#262425"/>
<path opacity="0.4" d="M4.44217 64.9998L6.21425 70.316C6.35036 70.7243 6.7325 70.9998 7.16293 70.9998H21.9375C21.9375 63.875 24.0625 55.9998 24.0625 55.9998H9.44217C9.44217 55.9998 8.52344 55.9998 7.89844 55.5156C6.53379 56.9258 4.78426 61.2369 4.44217 64.9998Z" fill="black"/>
<path opacity="0.7" d="M9.44217 55.9999C8.17969 55.9531 7.57422 55.3047 7.45703 55.0195C7.45703 55.0195 2.94216 58.4999 26.9422 58.4999C50.9422 58.4999 97.5625 52.0625 97.5625 52.0625C97.5625 52.0625 42.9422 55.9999 34.9422 55.9999C31.5245 55.9999 26.7479 55.9941 22.125 55.9999C15.9267 56.0077 10.129 56.0253 9.44217 55.9999Z" fill="black"/>
<path d="M7.10742 76.125C7.10742 75.0204 8.00285 74.125 9.10742 74.125H39.1074C40.212 74.125 41.1074 75.0204 41.1074 76.125V83.125C41.1074 84.2296 40.212 85.125 39.1074 85.125H9.10742C8.00285 85.125 7.10742 84.2296 7.10742 83.125V76.125Z" fill="white"/>
<path d="M7.10742 76.125C7.10742 75.0204 8.00285 74.125 9.10742 74.125H22C22 74.125 21.7187 78.75 22.5 85.125H9.10742C8.00285 85.125 7.10742 84.2296 7.10742 83.125V76.125Z" fill="#F7F8FA"/>
<path fill-rule="evenodd" clip-rule="evenodd" d="M10 77.5263C10 77.2356 10.24 77 10.5361 77H13.4845C13.7806 77 14.0206 77.2356 14.0206 77.5263C14.0206 77.817 13.7806 78.0526 13.4845 78.0526H12.5464V81.4737C12.5464 81.7644 12.3064 82 12.0103 82C11.7142 82 11.4742 81.7644 11.4742 81.4737V78.0526H10.5361C10.24 78.0526 10 77.817 10 77.5263Z" fill="#D7D7DD"/>
<path d="M14.5567 79.5C14.5567 78.1193 15.6968 77 17.1031 77C18.5094 77 19.6495 78.1193 19.6495 79.5V80.9474H19.1134V81.4737H18.5773V79.5C18.5773 78.7006 17.9173 78.0526 17.1031 78.0526C16.2889 78.0526 15.6289 78.7006 15.6289 79.5C15.6289 80.2994 16.2889 80.9474 17.1031 80.9474H18.0412V81.4737H17.5052V82H17.1031C15.6968 82 14.5567 80.8807 14.5567 79.5Z" fill="#D7D7DD"/>
<path d="M18.0412 81.4737V82H18.5773V81.4737H18.0412Z" fill="#D7D7DD"/>
<path d="M19.1134 81.4737H19.6495V82H19.1134V81.4737Z" fill="#D7D7DD"/>
<path fill-rule="evenodd" clip-rule="evenodd" d="M20.6106 77.1542C20.82 76.9486 21.1594 76.9486 21.3688 77.1542L23.3791 79.1278C23.5884 79.3334 23.5884 79.6666 23.3791 79.8722L21.3688 81.8458C21.1594 82.0514 20.82 82.0514 20.6106 81.8458C20.4013 81.6403 20.4013 81.3071 20.6106 81.1015L22.2419 79.5L20.6106 77.8985C20.4013 77.6929 20.4013 77.3597 20.6106 77.1542ZM25.3894 77.1542C25.5987 77.3597 25.5987 77.6929 25.3894 77.8985L24.3842 78.8853C24.1749 79.0909 23.8354 79.0909 23.6261 78.8853C23.4167 78.6798 23.4167 78.3465 23.6261 78.141L24.6313 77.1542C24.8406 76.9486 25.18 76.9486 25.3894 77.1542ZM23.6261 80.1147C23.8354 79.9091 24.1749 79.9091 24.3842 80.1147L25.3894 81.1015C25.5987 81.3071 25.5987 81.6403 25.3894 81.8458C25.18 82.0514 24.8406 82.0514 24.6313 81.8458L23.6261 80.859C23.4167 80.6535 23.4167 80.3202 23.6261 80.1147Z" fill="#D7D7DD"/>
<path fill-rule="evenodd" clip-rule="evenodd" d="M26.0825 79.5C26.0825 78.1193 27.2225 77 28.6289 77C30.0352 77 31.1753 78.1193 31.1753 79.5C31.1753 79.7907 30.9353 80.0263 30.6392 80.0263H28.6289C28.3328 80.0263 28.0928 79.7907 28.0928 79.5C28.0928 79.2093 28.3328 78.9737 28.6289 78.9737H30.0026C29.7882 78.4346 29.2539 78.0526 28.6289 78.0526C27.8147 78.0526 27.1547 78.7006 27.1547 79.5C27.1547 80.2994 27.8147 80.9474 28.6289 80.9474H30.1031C30.3992 80.9474 30.6392 81.183 30.6392 81.4737C30.6392 81.7644 30.3992 82 30.1031 82H28.6289C27.2225 82 26.0825 80.8807 26.0825 79.5Z" fill="#D7D7DD"/>
<path fill-rule="evenodd" clip-rule="evenodd" d="M32.5155 77C32.8115 77 33.0515 77.2356 33.0515 77.5263V80.6842C33.0515 80.8295 33.1715 80.9474 33.3196 80.9474H35.4639C35.76 80.9474 36 81.183 36 81.4737C36 81.7644 35.76 82 35.4639 82H33.3196C32.5794 82 31.9794 81.4109 31.9794 80.6842V77.5263C31.9794 77.2356 32.2194 77 32.5155 77Z" fill="#D7D7DD"/>
<path d="M37.9687 84.0142C39.5 84.0142 40.0163 83.5313 40.0163 82.0313V74.343C40.664 74.674 41.1074 75.3477 41.1074 76.125V83.125C41.1074 84.2296 40.212 85.125 39.1074 85.125H9.10743C8.32229 85.125 7.64282 84.6726 7.31549 84.0142H37.9687Z" fill="#77798C"/>
<path d="M263.941 45.5H266.441V46.75C266.441 47.4404 265.882 48 265.191 48C264.501 48 263.941 47.4404 263.941 46.75V45.5Z" fill="#C2C2CB"/>
<path d="M261.441 44.25C261.441 43.5596 262.001 43 262.691 43C263.382 43 263.941 43.5596 263.941 44.25V45.5H262.691C262.001 45.5 261.441 44.9404 261.441 44.25Z" fill="#C2C2CB"/>
<path d="M268.941 45.5H270.191C270.882 45.5 271.441 46.0596 271.441 46.75C271.441 47.4404 270.882 48 270.191 48C269.501 48 268.941 47.4404 268.941 46.75V45.5Z" fill="#C2C2CB"/>
<path d="M266.441 44.25C266.441 43.5596 267.001 43 267.691 43C268.382 43 268.941 43.5596 268.941 44.25V45.5H266.441V44.25Z" fill="#C2C2CB"/>
<path d="M143.429 46H140.429V47.5C140.429 48.3284 141.101 49 141.929 49C142.758 49 143.429 48.3284 143.429 47.5V46Z" fill="#C2C2CB"/>
<path d="M146.429 44.5C146.429 43.6716 145.758 43 144.929 43C144.101 43 143.429 43.6716 143.429 44.5V46H144.929C145.758 46 146.429 45.3284 146.429 44.5Z" fill="#C2C2CB"/>
<path d="M137.429 46H135.929C135.101 46 134.429 46.6716 134.429 47.5C134.429 48.3284 135.101 49 135.929 49C136.758 49 137.429 48.3284 137.429 47.5V46Z" fill="#C2C2CB"/>
<path d="M140.429 44.5C140.429 43.6716 139.758 43 138.929 43C138.101 43 137.429 43.6716 137.429 44.5V46H140.429V44.5Z" fill="#C2C2CB"/>
<defs>
<radialGradient id="paint0_radial" cx="0" cy="0" r="1" gradientUnits="userSpaceOnUse" gradientTransform="translate(120.441 84.5) rotate(7.43141) scale(23.1948 31.2238)">
<stop stop-color="#C2C2CB"/>
<stop offset="1" stop-color="#77798C"/>
</radialGradient>
<radialGradient id="paint1_radial" cx="0" cy="0" r="1" gradientUnits="userSpaceOnUse" gradientTransform="translate(250.441 84.5) rotate(7.43141) scale(23.1948 31.2238)">
<stop stop-color="#C2C2CB"/>
<stop offset="1" stop-color="#77798C"/>
</radialGradient>
<linearGradient id="paint2_linear" x1="144.79" y1="11" x2="144.79" y2="96" gradientUnits="userSpaceOnUse">
<stop stop-color="#ECECEF"/>
<stop offset="1" stop-color="#D7D7DD"/>
</linearGradient>
<linearGradient id="paint3_linear" x1="98.5" y1="96.001" x2="0.035157" y2="96.001" gradientUnits="userSpaceOnUse">
<stop stop-color="#ECECEF"/>
<stop offset="1" stop-color="#C2C2CB"/>
</linearGradient>
<linearGradient id="paint4_linear" x1="70.25" y1="70.5001" x2="148.375" y2="-0.624863" gradientUnits="userSpaceOnUse">
<stop stop-color="white"/>
<stop offset="1" stop-color="white" stop-opacity="0"/>
</linearGradient>
<linearGradient id="paint5_linear" x1="204.435" y1="41" x2="204.435" y2="96.0625" gradientUnits="userSpaceOnUse">
<stop stop-color="#F7F8FA"/>
<stop offset="1" stop-color="#ECECEF"/>
</linearGradient>
<radialGradient id="paint6_radial" cx="0" cy="0" r="1" gradientUnits="userSpaceOnUse" gradientTransform="translate(111.721 29) rotate(90) scale(139)">
<stop stop-color="white"/>
<stop offset="1" stop-color="white" stop-opacity="0.3"/>
</radialGradient>
<radialGradient id="paint7_radial" cx="0" cy="0" r="1" gradientUnits="userSpaceOnUse" gradientTransform="translate(111.721 29) rotate(90) scale(139)">
<stop stop-color="white"/>
<stop offset="1" stop-color="white" stop-opacity="0.3"/>
</radialGradient>
<linearGradient id="paint8_linear" x1="93.25" y1="14" x2="123.75" y2="44.75" gradientUnits="userSpaceOnUse">
<stop stop-color="#3955FE"/>
<stop offset="1" stop-color="#262425"/>
</linearGradient>
<linearGradient id="paint9_linear" x1="265.941" y1="28.0001" x2="154.941" y2="28.0001" gradientUnits="userSpaceOnUse">
<stop stop-color="#3955FE"/>
<stop offset="1" stop-color="#262425"/>
</linearGradient>
<linearGradient id="paint10_linear" x1="161.697" y1="28" x2="161.697" y2="42" gradientUnits="userSpaceOnUse">
<stop stop-color="#ECECEF"/>
<stop offset="1" stop-color="#C2C2CB"/>
</linearGradient>
<linearGradient id="paint11_linear" x1="155.456" y1="47.946" x2="180.54" y2="30.2678" gradientUnits="userSpaceOnUse">
<stop stop-color="white"/>
<stop offset="1" stop-color="white" stop-opacity="0"/>
</linearGradient>
<linearGradient id="paint12_linear" x1="161.248" y1="31.5" x2="161.248" y2="47.25" gradientUnits="userSpaceOnUse">
<stop stop-color="#ECECEF"/>
<stop offset="1" stop-color="#C2C2CB"/>
</linearGradient>
<linearGradient id="paint13_linear" x1="49.9335" y1="52.0659" x2="49.9335" y2="64.875" gradientUnits="userSpaceOnUse">
<stop stop-color="white"/>
<stop offset="1" stop-color="white" stop-opacity="0"/>
</linearGradient>
</defs>
</svg>
