<svg xmlns="http://www.w3.org/2000/svg" width="100" height="39" viewBox="0 0 100 39" fill="none">
    <mask id="path-1-inside-1" fill="white">
        <path d="M99.9015 26.7221C99.8517 26.5846 99.7396 26.4646 99.5976 26.3771C99.4655 26.2921 99.306 26.2396 99.2388 26.1296C99.164 26.0146 99.1914 25.8371 99.2089 25.6671C99.2811 24.9496 99.1815 24.3496 99.1864 23.7146C99.1864 23.5396 99.1964 23.3621 99.1715 23.1771C99.164 23.1071 99.1491 23.0371 99.1092 22.9871C99.0818 22.9546 99.0444 22.9321 99.0095 22.9071C98.88 22.8221 98.7654 22.7246 98.6458 22.6321C98.414 22.4546 98.1723 22.3046 97.9032 22.1371C97.669 21.9896 97.4149 21.8296 97.3426 21.5896C97.3102 21.4821 97.3152 21.3596 97.3326 21.2421C97.3625 21.0596 97.4273 20.8846 97.4797 20.7096C97.7313 19.8696 97.7114 19.0296 97.6341 18.2021C97.5594 17.4046 97.4298 16.6196 97.2454 15.8021C97.0436 14.9046 96.7745 13.9721 96.2787 13.2146C95.89 12.6221 95.3642 12.1371 94.8784 11.6371C94.7538 11.5121 94.6317 11.3846 94.5146 11.2571C94.0785 11.3321 93.6574 11.4196 93.2214 11.4771C92.8003 11.5296 92.3667 11.5571 91.9407 11.5746C91.7314 11.5846 91.5221 11.5921 91.3153 11.5996C90.3809 11.6296 89.444 11.6496 88.5047 11.6671C86.302 11.7071 84.0894 11.7346 81.8868 11.7896C79.1759 11.8571 76.4799 11.9646 73.7739 12.0196C72.1369 12.0521 70.4974 12.0671 68.8579 12.1021C67.5697 12.1271 66.2815 12.1671 64.9908 12.2071C65.0556 12.3071 65.1229 12.4046 65.1901 12.4996C65.4493 12.8621 65.7333 13.1846 65.985 13.5496C66.5307 14.3471 66.9268 15.3496 67.0938 16.3496C67.2233 17.1096 67.2184 17.8671 67.181 18.6246C67.1137 19.9346 66.9418 21.2421 66.6976 22.5321C66.4459 23.8646 66.1195 25.1771 65.7508 26.4796C65.4966 27.3771 65.2225 28.2696 64.9858 29.1696C64.9185 29.4221 64.8563 29.6771 64.794 29.9471C64.9559 29.9446 65.1154 29.9446 65.2749 29.9421C67.8786 29.9071 70.4824 29.8371 73.0887 29.7671C73.1585 29.3046 73.2308 28.8421 73.3254 28.3871C73.5123 27.4946 73.7864 26.6196 74.1352 25.7746C74.641 24.5446 75.2988 23.3721 76.1261 22.3346C76.8387 21.4421 77.6759 20.6471 78.6078 19.9871C79.5247 19.3371 80.5338 18.8196 81.5928 18.4546C82.4973 18.1421 83.4366 17.9396 84.3884 17.8421C85.6218 17.7171 86.8751 17.7646 88.096 17.9996C89.1998 18.2121 90.2762 18.5796 91.2754 19.0946C92.0478 19.4946 92.7754 19.9846 93.4407 20.5496C94.3003 21.2846 95.0578 22.1471 95.6533 23.1121C96.2861 24.1371 96.7371 25.2771 97.0461 26.4371C97.2529 27.2146 97.3974 27.9996 97.5544 28.7996C97.6117 29.0846 97.669 29.3696 97.7986 29.6246C97.8808 29.7871 97.9929 29.9396 98.1175 30.0746C98.2047 30.1671 98.2994 30.2546 98.3916 30.3396C98.2695 30.4921 98.1474 30.6421 98.0552 30.8121C97.9929 30.9271 97.9456 31.0521 97.8958 31.1771C98.3243 31.0246 98.6881 30.9121 98.9921 30.6471C99.2039 30.4621 99.3858 30.2021 99.5029 29.9271C99.7122 29.4421 99.7172 28.9021 99.7545 28.3871C99.7795 28.0271 99.8218 27.6771 99.8866 27.3021C99.9215 27.1021 99.9613 26.8971 99.9015 26.7221ZM97.2728 19.4371C97.1856 20.0421 97.0885 20.3021 96.8841 20.4421C96.7023 20.5646 96.4381 20.5921 96.1989 20.5171C95.9298 20.4346 95.6906 20.2196 95.5038 19.9871C95.2621 19.6821 95.1101 19.3471 94.9656 19.0046C94.6367 18.2171 94.3551 17.3871 94.0611 16.5671C93.8343 15.9296 93.6026 15.2971 93.3709 14.6721C93.189 14.1821 93.0046 13.6946 93.0021 13.1096C92.9996 12.8571 93.032 12.5896 93.2164 12.4396C93.3485 12.3346 93.5652 12.2896 93.7546 12.2796C94.0162 12.2671 94.233 12.3196 94.4348 12.3996C94.684 12.4996 94.9058 12.6446 95.1101 12.7996C95.3318 12.9696 95.5312 13.1496 95.7106 13.3771C96.1292 13.9096 96.4282 14.6871 96.635 15.4121C96.7895 15.9546 96.8941 16.4671 96.9963 16.9846C97.1084 17.5521 97.2155 18.1246 97.2703 18.6996C97.3052 19.1821 97.2903 19.3171 97.2728 19.4371ZM98.0203 30.3821C97.8933 30.5396 97.7637 30.6996 97.6865 30.8796C97.6316 31.0096 97.6042 31.1546 97.5768 31.2971C97.5544 31.3046 97.5345 31.3121 97.5145 31.3196C96.787 31.6171 95.9024 32.1371 95.5835 31.7746C95.4141 31.5821 95.4066 31.1396 95.3866 30.7371C95.3393 29.8071 95.2347 29.0796 95.0478 28.3271C94.7588 27.1646 94.2729 25.9396 93.5902 24.8721C92.9747 23.9096 92.1973 23.0746 91.2903 22.4096C90.6101 21.9096 89.8552 21.5071 89.0553 21.2221C87.7746 20.7671 86.3768 20.6196 85.0213 20.7571C84.0147 20.8571 83.0305 21.1146 82.1011 21.5121C80.9724 21.9946 79.9234 22.6821 79.0662 23.5571C78.2415 24.4046 77.5961 25.4296 77.1202 26.5171C76.6942 27.4871 76.4002 28.5071 76.2083 29.5421C76.0513 30.3846 75.9591 31.2396 75.8894 32.0946C75.8619 32.4196 75.8395 32.7471 75.8071 33.0746C75.7922 33.2221 75.7747 33.3721 75.7598 33.5221C72.862 33.5321 69.9667 33.5446 67.0689 33.5596C63.5481 33.5796 60.0274 33.6046 56.5067 33.6121C51.3664 33.6271 46.2261 33.6071 41.0882 33.6521C38.1481 33.6771 35.2079 33.7221 32.2702 33.7821C31.4031 33.7996 30.5385 33.8196 29.6714 33.8396C29.6316 33.3946 29.5942 32.9496 29.5543 32.5021C29.4372 31.1796 29.3051 29.8521 28.9837 28.5596C28.615 27.0846 27.9995 25.6546 27.0975 24.4271C26.3251 23.3771 25.3434 22.4771 24.2296 21.8096C23.2155 21.2046 22.0918 20.7896 20.9307 20.5671C19.8368 20.3571 18.7081 20.3146 17.6093 20.4821C16.6923 20.6196 15.7978 20.8996 14.9706 21.3171C13.949 21.8321 13.0321 22.5571 12.2597 23.4096C11.6019 24.1346 11.0512 24.9521 10.6301 25.8296C10.3909 26.3271 10.1966 26.8421 10.0296 27.3696C9.82031 28.0271 9.65836 28.6996 9.55371 29.3846C9.46401 29.9721 9.41417 30.5671 9.44656 31.1596C9.47895 31.7796 9.60105 32.3946 9.64091 33.0146C9.65586 33.2171 9.65836 33.4196 9.61351 33.6221C9.56866 33.8096 9.48144 33.9946 9.35188 34.1146C9.04789 34.3921 8.5097 34.2871 8.05372 34.1146C7.3112 33.8296 6.79045 33.3571 6.1476 33.1871C5.62933 33.0521 5.03133 33.1121 4.4433 33.1596C3.65593 33.2221 2.88601 33.2621 2.16591 33.0396C1.88186 32.9521 1.6028 32.8246 1.35114 32.6546C1.22406 32.3771 1.09699 32.0996 1.11194 31.7746C1.11941 31.6196 1.15679 31.4521 1.25396 31.3646C1.37855 31.2496 1.6028 31.2671 1.81459 31.2796C2.66425 31.3296 3.35693 31.2796 4.06705 31.1496C4.57037 31.0596 5.08116 30.9321 5.57202 30.6821C5.90341 30.5146 6.22235 30.2921 6.46653 30.0146C6.9848 29.4296 7.15922 28.6046 7.34858 27.8271C7.65755 26.5796 8.01137 25.4596 8.55704 24.3771C9.23228 23.0321 10.2015 21.7446 11.3353 20.7246C12.3643 19.7996 13.5279 19.0946 14.7937 18.5946C16.2787 18.0071 17.9008 17.7046 19.5229 17.7046C20.7986 17.7046 22.0718 17.8921 23.2678 18.3021C24.2346 18.6346 25.1515 19.1096 26.0137 19.6746C26.8957 20.2521 27.7204 20.9196 28.4156 21.7021C29.1208 22.4921 29.6939 23.3971 30.1772 24.3496C30.6257 25.2346 30.9945 26.1571 31.296 27.0971C31.5103 27.7696 31.6872 28.4496 31.8192 29.1421C31.9164 29.6646 31.9887 30.1921 31.9588 30.6321C32.8433 30.6146 33.7279 30.5971 34.6124 30.5846C37.5127 30.5371 40.4155 30.5196 43.3158 30.4771C47.0383 30.4246 50.7609 30.3296 54.4859 30.2946C58.7367 30.2546 62.99 30.2946 67.2657 30.1946C68.9874 30.1521 70.7117 30.0896 72.406 30.0596C72.7175 30.0546 73.0289 30.0496 73.3429 30.0646C73.4475 29.1021 73.6444 28.1671 73.9209 27.2496C74.3669 25.7746 75.0297 24.3396 75.9292 23.0746C76.9433 21.6546 78.2589 20.4471 79.7689 19.5921C81.1617 18.8021 82.7215 18.3146 84.3411 18.1396C86.1475 17.9446 88.0263 18.1421 89.6932 18.7246C90.9739 19.1721 92.1275 19.8446 93.1691 20.7021C93.7496 21.1821 94.2953 21.7171 94.7637 22.3196C95.2471 22.9421 95.6483 23.6346 95.9797 24.3546C96.2488 24.9421 96.4755 25.5471 96.6624 26.1571C96.8966 26.9221 97.071 27.6971 97.2106 28.5046C97.2878 28.9496 97.3526 29.4021 97.5619 29.7971C97.679 30.0196 97.8434 30.2246 98.0203 30.3821ZM30.0452 12.5946C30.5186 12.6171 30.992 12.6446 31.4654 12.6621C32.3076 12.6896 33.1498 12.6796 33.9945 12.6696C34.6822 12.6621 35.3699 12.6546 36.0576 12.6496C36.5459 12.6571 37.0318 12.6646 37.5177 12.6571C38.0534 12.6496 38.5866 12.6221 39.2718 12.5871C39.3765 12.6496 39.4836 12.7121 39.5908 12.7746C39.516 12.8471 39.4437 12.9221 39.369 12.9946C39.2768 13.0046 39.1846 13.0171 39.0949 13.0271C38.7087 13.0646 38.3225 13.0546 37.9363 13.0546C37.3358 13.0521 36.7403 13.0696 36.1423 13.0871C36.1298 13.1071 36.1174 13.1246 36.1024 13.1396C36.0351 13.2146 35.9305 13.2621 35.8358 13.3146C35.6888 13.3921 35.5592 13.4821 35.4347 13.5771C35.0833 13.8471 34.7669 14.1796 34.5078 14.5496C34.1265 15.0971 33.8749 15.7221 33.6805 16.3621C33.4613 17.0746 33.3167 17.8046 33.2121 18.5396C32.9779 20.1771 32.938 21.8446 33.0252 23.4971C33.075 24.4146 33.1623 25.3296 33.2146 26.2471C33.2594 27.0846 33.2769 27.9246 33.3342 28.7621C33.3691 29.2821 33.4189 29.7996 33.4737 30.3171C34.8491 30.2946 36.227 30.2721 37.6024 30.2546C40.1937 30.2196 42.7876 30.1946 45.3789 30.1546C48.9196 30.1021 52.4602 30.0221 56.0034 29.9921C58.8264 29.9696 61.652 29.9796 64.475 29.9496C64.7217 29.0171 64.9684 28.0821 65.2126 27.1471C65.7682 25.0221 66.3089 22.8946 66.6253 20.7146C66.8521 19.1571 66.9617 17.5746 66.6777 16.0121C66.5232 15.1696 66.2541 14.3321 65.7757 13.6396C65.4518 13.1721 65.0332 12.7696 64.6868 12.3146C64.6594 12.2771 64.632 12.2396 64.6046 12.2046C63.8621 12.2446 63.1196 12.2846 62.3746 12.3196C59.5764 12.4571 56.7733 12.5396 53.9702 12.6221C51.6928 12.6921 49.4129 12.7596 47.1355 12.8371C46.1015 12.8721 45.0649 12.9096 44.0309 12.9471C44.1281 12.7471 44.2053 12.5296 44.3075 12.2746C45.4088 12.2771 46.5076 12.2796 47.6089 12.2696C49.8664 12.2446 52.1213 12.1571 54.3763 12.0671C56.3472 11.9896 58.3156 11.9121 60.2865 11.8446C61.6171 11.8021 62.9501 11.7646 64.2807 11.7271C64.3405 10.2171 64.4003 8.70711 64.5199 7.20211C64.6295 5.83711 64.7865 4.47461 64.9509 3.11461C65.078 3.11211 65.2051 3.11211 65.3322 3.10961C65.2425 4.01211 65.1553 4.91461 65.078 5.81711C64.9684 7.08961 64.8787 8.36461 64.8014 9.64211C64.7591 10.3221 64.7192 11.0021 64.6793 11.6821C65.3371 11.6646 65.9974 11.6471 66.6552 11.6346C67.9634 11.6096 69.2715 11.6021 70.5771 11.5796C72.9517 11.5421 75.3213 11.4596 77.6933 11.3971C80.4989 11.3221 83.3021 11.2746 86.1077 11.1996C86.8652 11.1796 87.6226 11.1571 88.3801 11.1346C89.4141 11.1296 90.4482 11.1221 91.4797 11.0721C92.3742 11.0271 93.2662 10.9471 94.1608 10.8696C93.9863 10.6721 93.8144 10.4746 93.645 10.2746C93.5428 10.2896 93.4506 10.2996 93.3634 10.3071C92.9473 10.3371 92.6807 10.2771 92.429 10.1671C92.0553 9.99962 91.7114 9.72211 91.3726 9.41211C90.9166 8.99461 90.4706 8.51961 90.0595 8.04961C89.4988 7.41211 89.0055 6.78212 88.5919 5.97962C88.4349 5.66962 88.2879 5.33711 88.258 5.00211C88.248 4.88961 88.2505 4.77711 88.2704 4.66211C88.2804 4.58211 88.3004 4.5021 88.3253 4.4196L88.3352 4.40711C88.1459 4.23961 87.959 4.07461 87.8543 3.92711C87.7771 3.82211 87.7422 3.72461 87.7248 3.62461C87.6625 3.28961 87.807 2.93461 88.1783 2.73711C88.5271 2.57711 88.8784 2.41961 89.2248 2.25711C89.4615 2.14711 89.6982 2.03462 89.9399 1.93212C90.2115 1.81462 90.4905 1.71211 90.7297 1.53461C90.792 1.48961 90.8493 1.43961 90.8842 1.36711C90.9365 1.25461 90.9291 1.08711 90.8618 1.00461C90.792 0.91961 90.66 0.92461 90.5304 0.92711C89.7804 0.94961 89.1077 0.977108 88.415 1.04961C87.7472 1.11711 87.0595 1.22461 86.3818 1.28711C85.6343 1.35711 84.8967 1.36962 84.1741 1.33962C83.5338 1.31212 82.9059 1.24961 82.2655 1.19961C80.2074 1.03961 78.0372 1.01211 75.8869 0.974611C72.1743 0.912111 68.5215 0.822114 64.8612 0.727113C60.7674 0.622113 56.6661 0.512111 52.5798 0.717111C50.8855 0.802111 49.1936 0.939613 47.4968 1.05461C46.1688 1.14211 44.8407 1.2171 43.5351 1.4971C42.501 1.7196 41.4819 2.07211 40.5725 2.60211C39.9595 2.95961 39.3989 3.39462 38.8308 3.82462C36.83 5.34212 34.7619 6.77711 32.8234 8.31711C31.7146 9.19711 30.6482 10.1096 29.5468 11.0896C29.1208 11.4671 28.6897 11.8571 28.1864 12.0446C27.6357 12.2521 27.0004 12.2146 26.066 12.0746C26.6291 12.3746 27.414 12.4571 28.159 12.5046C28.8068 12.5496 29.4248 12.5646 30.0452 12.5946ZM58.7666 16.0696C58.799 15.9846 58.8488 15.9146 58.9136 15.8621C59.0083 15.7821 59.1329 15.7396 59.255 15.7071C59.5066 15.6421 59.7558 15.6221 60.005 15.6071C60.5855 15.5721 61.1661 15.5596 61.7541 15.5396C62.4717 15.5121 63.2018 15.4696 63.8845 15.5046C64.2284 15.5221 64.5622 15.5596 64.9534 15.5971C65.1204 15.6146 65.2973 15.6321 65.382 15.7496C65.4318 15.8196 65.4493 15.9221 65.4293 16.0096C65.3994 16.1371 65.2873 16.2271 65.1702 16.2921C65.0456 16.3621 64.9161 16.3996 64.784 16.4321C64.5672 16.4896 64.343 16.5396 64.1187 16.5746C63.8795 16.6121 63.6353 16.6321 63.3936 16.6521C63.3687 16.5821 63.3438 16.5096 63.294 16.4771C63.2466 16.4471 63.1744 16.4521 63.1021 16.4546C62.6387 16.4771 62.23 16.4646 61.8563 16.4546C61.5423 16.4446 61.2533 16.4371 60.8098 16.4046C60.7126 16.3971 60.608 16.3896 60.5631 16.4421C60.5257 16.4871 60.5282 16.5721 60.5257 16.6371C60.5232 16.6596 60.5208 16.6796 60.5183 16.7021C60.4012 16.7046 60.284 16.7071 60.1644 16.7071C60.0797 16.7071 59.9925 16.7046 59.9053 16.7021C59.8131 16.6421 59.7209 16.5821 59.6287 16.5421C59.4942 16.4846 59.3571 16.4671 59.1852 16.4471C59.0033 16.4271 58.7841 16.4046 58.7417 16.2696C58.7243 16.2121 58.7392 16.1371 58.7666 16.0696ZM65.7283 4.64962C65.7757 4.13462 65.828 3.61962 65.8803 3.10462C67.7615 3.12712 69.6427 3.14961 71.5239 3.17211C74.0953 3.20461 76.6643 3.23962 79.2357 3.27462C80.2124 3.28712 81.1916 3.29961 82.1709 3.31461C82.5097 3.70961 82.8511 4.10461 83.1825 4.50711C83.7705 5.21711 84.3311 5.95211 84.8843 6.69211C85.557 7.59211 86.2198 8.49962 86.8178 9.44962C87.0595 9.83462 87.2887 10.2246 87.5205 10.6146C86.1027 10.6521 84.6849 10.6896 83.2672 10.7246C81.3013 10.7721 79.3328 10.8121 77.3644 10.8621C74.8055 10.9246 72.2465 10.9971 69.6876 11.0496C68.21 11.0796 66.7325 11.0996 65.2549 11.1221C65.3147 10.1096 65.3745 9.09712 65.4468 8.08712C65.5265 6.93962 65.6187 5.79462 65.7283 4.64962ZM43.6273 11.2671C43.5351 11.3421 43.2959 11.3271 43.0915 11.3171C42.7577 11.3021 42.5085 11.3021 42.2419 11.3021C41.9728 11.3021 41.6837 11.3021 41.4097 11.3046C41.2278 11.3046 41.0534 11.3046 40.8166 11.3046C40.702 11.3021 40.5725 11.3021 40.5102 11.2646C40.4678 11.2421 40.4554 11.2021 40.4579 11.1496C40.4603 11.1071 40.4728 11.0571 40.5027 11.0171C40.5201 10.9921 40.5451 10.9696 40.5725 10.9571C40.5949 10.9471 40.6173 10.9446 40.6422 10.9396C40.8814 10.9071 41.1231 10.8746 41.3648 10.8471C41.8681 10.7946 42.3839 10.7771 42.8798 10.7396C43.0317 10.7271 43.1837 10.7146 43.3482 10.7171C43.4404 10.7171 43.5351 10.7246 43.5899 10.7721C43.6547 10.8271 43.6646 10.9371 43.6746 11.0321C43.6821 11.1371 43.6846 11.2196 43.6273 11.2671ZM45.6281 4.41712C46.0815 3.98712 46.5375 3.56211 46.996 3.13961C48.5956 3.11961 50.1978 3.1021 51.7999 3.0921C53.4419 3.0821 55.0839 3.08211 56.7259 3.08211C58.6944 3.08211 60.6628 3.08211 62.6287 3.09961C63.2217 3.10461 63.8122 3.1121 64.4053 3.1221C64.2882 4.0871 64.1735 5.05211 64.0813 6.01961C63.9817 7.03461 63.9094 8.04961 63.8546 9.06711C63.8172 9.77711 63.7873 10.4871 63.7574 11.1971C62.2674 11.2396 60.7749 11.2821 59.2849 11.3346C57.1969 11.4071 55.1089 11.4971 53.0208 11.5771C51.1247 11.6471 49.231 11.7096 47.3348 11.7271C46.3606 11.7371 45.3839 11.7346 44.4071 11.7296C44.4146 11.6746 44.4221 11.6196 44.4271 11.5646C44.4744 11.0371 44.3947 10.4821 44.1356 10.0146C43.9935 9.75461 43.7992 9.52211 43.55 9.37211C43.4055 9.28461 43.2435 9.22461 43.0791 9.18961C42.6082 9.09211 42.1123 9.20462 41.6439 9.35212C41.3847 9.43212 41.1331 9.52461 40.8889 9.62961C41.7037 8.63961 42.516 7.64961 43.3806 6.70461C44.1007 5.91711 44.8556 5.15712 45.6281 4.41712ZM30.6232 10.4571C31.1365 10.0096 31.6573 9.56962 32.183 9.13712C32.776 8.64962 33.379 8.17211 33.9895 7.70711C34.8342 7.06211 35.6913 6.4371 36.5459 5.8096C37.1091 5.3971 37.6722 4.98461 38.2328 4.56961C38.8731 4.09461 39.5135 3.61961 40.1514 3.14711C40.5675 3.30711 40.9612 3.39962 41.3324 3.46212C41.5367 3.49462 41.7361 3.51961 41.8283 3.64211C41.9005 3.73711 41.9105 3.8921 41.8856 4.0296C41.8407 4.28461 41.6763 4.47462 41.5068 4.65212C41.2427 4.92962 40.9612 5.17961 40.6871 5.43711C39.6182 6.43961 38.6489 7.57711 37.5974 8.59711C36.8499 9.32711 36.0601 9.99962 35.2553 10.7121C34.9064 11.0221 34.5551 11.3396 34.1365 11.5071C33.7877 11.6446 33.394 11.6796 33.0053 11.6896C32.3674 11.7096 31.7445 11.6696 31.1216 11.6046C30.7279 11.5646 30.3317 11.5121 29.5668 11.3871C29.9181 11.0771 30.2694 10.7646 30.6232 10.4571ZM85.7115 21.5221C81.1443 21.5221 77.4417 25.2371 77.4417 29.8196C77.4417 34.4021 81.1443 38.1171 85.7115 38.1171C90.2787 38.1171 93.9789 34.4021 93.9789 29.8196C93.9789 25.2371 90.2787 21.5221 85.7115 21.5221ZM88.4997 24.3896C89.3867 24.8471 90.1492 25.5196 90.7173 26.3446L87.8294 28.3471C87.5902 27.9996 87.2663 27.7146 86.8901 27.5196L88.4997 24.3896ZM86.8004 23.8096L86.1725 27.2746C85.7564 27.1996 85.3278 27.2271 84.9241 27.3571L83.8552 24.0021C84.807 23.6971 85.8186 23.6296 86.8004 23.8096ZM86.6534 29.8196C86.6534 30.3421 86.2298 30.7646 85.7115 30.7646C85.1907 30.7646 84.7697 30.3421 84.7697 29.8196C84.7697 29.2971 85.1907 28.8746 85.7115 28.8746C86.2298 28.8746 86.6534 29.2971 86.6534 29.8196ZM82.2456 24.7971L84.2439 27.6921C83.8951 27.9346 83.6135 28.2571 83.4192 28.6346L80.2971 27.0221C80.7556 26.1321 81.4233 25.3671 82.2456 24.7971ZM79.7215 28.7271L83.175 29.3571C83.0977 29.7871 83.1301 30.2146 83.2572 30.6096H83.2547L79.9109 31.6821C79.6069 30.7271 79.5421 29.7121 79.7215 28.7271ZM82.9233 35.2521C82.0338 34.7921 81.2714 34.1196 80.7033 33.2971L83.5911 31.2921C83.8253 31.6321 84.1442 31.9196 84.5305 32.1196L82.9233 35.2521ZM84.6202 35.8296L85.2481 32.3646C85.6642 32.4421 86.0927 32.4121 86.4964 32.2846L87.5678 35.6371C86.616 35.9446 85.6044 36.0096 84.6202 35.8296ZM89.1749 34.8446L87.1766 31.9471C87.5254 31.7046 87.8095 31.3821 88.0038 31.0046L91.1234 32.6171C90.6649 33.5096 89.9972 34.2721 89.1749 34.8446ZM91.7015 30.9146L88.248 30.2821C88.3228 29.8646 88.2954 29.4346 88.1658 29.0321L91.5096 27.9571C91.8136 28.9121 91.8809 29.9271 91.7015 30.9146ZM2.07621 31.0021C2.3503 31.0221 2.62438 31.0146 2.89846 30.9971C3.3046 30.9721 3.70826 30.9246 4.10443 30.8496C4.47818 30.7771 4.84446 30.6821 5.20077 30.5346C5.5496 30.3896 5.88597 30.1971 6.1476 29.9296C6.41171 29.6621 6.59859 29.3171 6.73563 28.9621C6.90008 28.5346 6.98978 28.0896 7.09692 27.6471C7.32366 26.6921 7.61768 25.7471 8.01635 24.8471C8.37515 24.0371 8.81617 23.2621 9.33195 22.5421C9.73311 21.9796 10.1791 21.4471 10.67 20.9596C11.5146 20.1146 12.4889 19.3971 13.5503 18.8421C14.9033 18.1371 16.3958 17.6971 17.9058 17.5121C18.7255 17.4121 19.5478 17.3871 20.37 17.4421C21.3194 17.5046 22.2637 17.6721 23.1657 17.9646C23.8982 18.1996 24.6034 18.5196 25.2836 18.8921C26.5967 19.6146 27.8126 20.5421 28.7794 21.6771C29.4048 22.4121 29.9281 23.2371 30.3716 24.0971C30.7279 24.7821 31.0344 25.4896 31.2985 26.2121C31.5252 26.8371 31.7196 27.4721 31.889 28.1196C32.041 28.6996 32.1706 29.2896 32.2229 29.8846C32.2378 30.0346 32.2453 30.1871 32.2528 30.3371C32.5418 30.3321 32.8309 30.3271 33.1174 30.3221C33.1049 29.4221 32.9978 28.5171 32.9056 27.6096C32.7885 26.4671 32.6913 25.3221 32.654 24.1771C32.6265 23.3471 32.629 22.5171 32.6415 21.6846C32.6515 20.9746 32.6664 20.2621 32.7262 19.5546C32.796 18.7596 32.9206 17.9696 33.1074 17.1771C33.3342 16.2121 33.6506 15.2421 34.2087 14.4671C34.4255 14.1671 34.6772 13.8946 34.9538 13.6271C35.1356 13.4446 35.3325 13.2671 35.5767 13.1596C35.624 13.1396 35.6714 13.1221 35.7187 13.1021C35.0136 13.1371 34.3109 13.1696 33.6083 13.1746C32.2428 13.1896 30.8749 13.1071 29.5145 13.0196C28.9588 12.9846 28.4057 12.9471 27.85 12.9021C27.1748 12.8471 26.4921 12.7796 25.8367 12.6146C25.5577 12.5421 25.2811 12.4546 25.007 12.3646C24.4738 12.3546 23.9406 12.3471 23.4074 12.3521C22.1117 12.3671 20.8185 12.4771 19.5229 12.5996C17.542 12.7871 15.5561 13.0046 13.6301 13.4871C12.1201 13.8671 10.6475 14.4071 9.19989 14.9671C8.60189 15.1996 8.00887 15.4321 7.40838 15.6796C6.05291 16.2321 4.65758 16.8421 3.67337 17.9046C3.12022 18.5046 2.69664 19.2471 2.44996 20.0296C2.23319 20.7171 2.15345 21.4371 2.09365 22.1596C2.01143 23.1871 1.96907 24.2221 1.91675 25.2246C1.89432 25.6471 1.86941 26.0621 1.8121 26.5121C1.76476 26.8971 1.69 27.3071 1.45579 27.5621C1.36858 27.6571 1.25646 27.7321 1.12191 27.8146C0.892672 27.9571 0.598656 28.1246 0.616097 28.3346C0.623572 28.4271 0.693338 28.5296 0.743171 28.6346C0.885196 28.9371 0.855295 29.2596 0.835362 29.5746C0.807953 30.0121 0.80048 30.4296 0.763105 30.8871C0.72573 31.3396 0.660947 31.8296 0.865264 32.1896C0.847823 32.0821 0.82789 31.9771 0.822906 31.8696C0.815431 31.7396 0.827889 31.6096 0.865264 31.4846C0.902639 31.3596 0.962436 31.2371 1.05712 31.1496C1.1518 31.0671 1.27639 31.0171 1.40097 30.9946C1.62522 30.9521 1.85196 30.9871 2.07621 31.0021ZM27.4115 17.2046C27.4763 17.0346 27.6108 16.9146 27.7304 16.7796C27.8625 16.6296 27.9796 16.4571 28.1465 16.3646C28.2736 16.2921 28.4281 16.2621 28.5801 16.2471C29.0485 16.1996 29.4995 16.2596 29.953 16.2671C30.4339 16.2746 30.9173 16.2246 31.4106 16.2171C31.6349 16.2146 31.8616 16.2221 32.0584 16.3546C32.2204 16.4646 32.3649 16.6596 32.3375 16.8271C32.3201 16.9471 32.2179 17.0521 32.1158 17.1471C31.9364 17.3196 31.7644 17.4646 31.5651 17.5646C31.2736 17.7096 30.9222 17.7596 30.5809 17.7871C30.1274 17.8221 29.6864 17.8196 29.2478 17.8146C28.9339 17.8321 28.6224 17.8496 28.311 17.8546C28.1067 17.8571 27.9048 17.8571 27.7005 17.7871C27.5834 17.7471 27.4663 17.6846 27.4115 17.5821C27.3542 17.4771 27.3666 17.3271 27.4115 17.2046ZM4.9815 19.9571C5.11854 19.6146 5.31538 19.2996 5.52468 18.9946C5.91338 18.4296 6.34693 17.9046 6.84277 17.4071C7.37599 16.8721 7.98146 16.3671 8.58195 15.9696C9.03544 15.6696 9.48643 15.4296 9.97479 15.1846C10.518 14.9096 11.1085 14.6321 11.6766 14.4846C11.9731 14.4046 12.2646 14.3646 12.6309 14.3671C12.8178 14.3696 13.0246 14.3846 13.1143 14.4946C13.214 14.6171 13.1691 14.8571 13.1143 15.0646C13.0196 15.4096 12.895 15.6596 12.7405 15.9071C12.4042 16.4496 11.9357 16.9746 11.4499 17.4546C10.7348 18.1596 9.97978 18.7721 9.18992 19.3546C8.64923 19.7521 8.09359 20.1371 7.4931 20.4346C7.02965 20.6671 6.53879 20.8446 6.04793 21.0221C5.8785 21.0746 5.70906 21.1271 5.51471 21.1546C5.33033 21.1796 5.12352 21.1846 5.00143 21.0771C4.90924 20.9971 4.86688 20.8521 4.85193 20.7096C4.81954 20.4421 4.88682 20.1921 4.9815 19.9571ZM4.09197 26.3671C4.37851 26.3746 4.60277 26.8021 4.5928 27.3271C4.58283 27.8521 4.34363 28.2746 4.05709 28.2696C3.77055 28.2621 3.5463 27.8321 3.55627 27.3096C3.56623 26.7846 3.80543 26.3621 4.09197 26.3671ZM19.2164 21.5396C14.6492 21.5396 10.9466 25.2546 10.9466 29.8371C10.9466 34.4196 14.6492 38.1346 19.2164 38.1346C23.7811 38.1346 27.4837 34.4196 27.4837 29.8371C27.4837 25.2546 23.7811 21.5396 19.2164 21.5396ZM22.0046 24.4046C22.8916 24.8646 23.6541 25.5371 24.2222 26.3596L21.3343 28.3646C21.0951 28.0146 20.7712 27.7321 20.3949 27.5371L22.0046 24.4046ZM20.3053 23.8271L19.6773 27.2921C19.2612 27.2146 18.8327 27.2446 18.429 27.3721L17.3601 24.0196C18.3119 23.7121 19.3235 23.6471 20.3053 23.8271ZM20.1557 29.8371C20.1557 30.3596 19.7347 30.7821 19.2164 30.7821C18.6956 30.7821 18.2745 30.3596 18.2745 29.8371C18.2745 29.3146 18.6956 28.8921 19.2164 28.8921C19.7347 28.8921 20.1557 29.3146 20.1557 29.8371ZM15.7505 24.8121L17.7488 27.7096C17.4 27.9521 17.1159 28.2746 16.9241 28.6521L13.802 27.0396C14.2605 26.1471 14.9282 25.3846 15.7505 24.8121ZM13.2239 28.7421L16.6799 29.3746C16.6026 29.8021 16.635 30.2321 16.7621 30.6246H16.7596L13.4158 31.6996C13.1118 30.7446 13.047 29.7296 13.2239 28.7421ZM16.4282 35.2671C15.5387 34.8096 14.7762 34.1371 14.2081 33.3121L17.096 31.3096C17.3302 31.6496 17.6491 31.9371 18.0353 32.1371L16.4282 35.2671ZM18.125 35.8471L18.7529 32.3821C19.169 32.4571 19.5976 32.4296 20.0013 32.2996L21.0702 35.6546C20.1209 35.9596 19.1068 36.0271 18.125 35.8471ZM22.6798 34.8596L20.6815 31.9646C21.0303 31.7221 21.3144 31.3996 21.5062 31.0221L24.6283 32.6346C24.1698 33.5246 23.5021 34.2896 22.6798 34.8596ZM25.2064 30.9296L21.7529 30.2996C21.8277 29.8821 21.8002 29.4521 21.6707 29.0471L25.0145 27.9746C25.3185 28.9296 25.3833 29.9446 25.2064 30.9296Z"/>
    </mask>
    <path d="M99.9015 26.7221C99.8517 26.5846 99.7396 26.4646 99.5976 26.3771C99.4655 26.2921 99.306 26.2396 99.2388 26.1296C99.164 26.0146 99.1914 25.8371 99.2089 25.6671C99.2811 24.9496 99.1815 24.3496 99.1864 23.7146C99.1864 23.5396 99.1964 23.3621 99.1715 23.1771C99.164 23.1071 99.1491 23.0371 99.1092 22.9871C99.0818 22.9546 99.0444 22.9321 99.0095 22.9071C98.88 22.8221 98.7654 22.7246 98.6458 22.6321C98.414 22.4546 98.1723 22.3046 97.9032 22.1371C97.669 21.9896 97.4149 21.8296 97.3426 21.5896C97.3102 21.4821 97.3152 21.3596 97.3326 21.2421C97.3625 21.0596 97.4273 20.8846 97.4797 20.7096C97.7313 19.8696 97.7114 19.0296 97.6341 18.2021C97.5594 17.4046 97.4298 16.6196 97.2454 15.8021C97.0436 14.9046 96.7745 13.9721 96.2787 13.2146C95.89 12.6221 95.3642 12.1371 94.8784 11.6371C94.7538 11.5121 94.6317 11.3846 94.5146 11.2571C94.0785 11.3321 93.6574 11.4196 93.2214 11.4771C92.8003 11.5296 92.3667 11.5571 91.9407 11.5746C91.7314 11.5846 91.5221 11.5921 91.3153 11.5996C90.3809 11.6296 89.444 11.6496 88.5047 11.6671C86.302 11.7071 84.0894 11.7346 81.8868 11.7896C79.1759 11.8571 76.4799 11.9646 73.7739 12.0196C72.1369 12.0521 70.4974 12.0671 68.8579 12.1021C67.5697 12.1271 66.2815 12.1671 64.9908 12.2071C65.0556 12.3071 65.1229 12.4046 65.1901 12.4996C65.4493 12.8621 65.7333 13.1846 65.985 13.5496C66.5307 14.3471 66.9268 15.3496 67.0938 16.3496C67.2233 17.1096 67.2184 17.8671 67.181 18.6246C67.1137 19.9346 66.9418 21.2421 66.6976 22.5321C66.4459 23.8646 66.1195 25.1771 65.7508 26.4796C65.4966 27.3771 65.2225 28.2696 64.9858 29.1696C64.9185 29.4221 64.8563 29.6771 64.794 29.9471C64.9559 29.9446 65.1154 29.9446 65.2749 29.9421C67.8786 29.9071 70.4824 29.8371 73.0887 29.7671C73.1585 29.3046 73.2308 28.8421 73.3254 28.3871C73.5123 27.4946 73.7864 26.6196 74.1352 25.7746C74.641 24.5446 75.2988 23.3721 76.1261 22.3346C76.8387 21.4421 77.6759 20.6471 78.6078 19.9871C79.5247 19.3371 80.5338 18.8196 81.5928 18.4546C82.4973 18.1421 83.4366 17.9396 84.3884 17.8421C85.6218 17.7171 86.8751 17.7646 88.096 17.9996C89.1998 18.2121 90.2762 18.5796 91.2754 19.0946C92.0478 19.4946 92.7754 19.9846 93.4407 20.5496C94.3003 21.2846 95.0578 22.1471 95.6533 23.1121C96.2861 24.1371 96.7371 25.2771 97.0461 26.4371C97.2529 27.2146 97.3974 27.9996 97.5544 28.7996C97.6117 29.0846 97.669 29.3696 97.7986 29.6246C97.8808 29.7871 97.9929 29.9396 98.1175 30.0746C98.2047 30.1671 98.2994 30.2546 98.3916 30.3396C98.2695 30.4921 98.1474 30.6421 98.0552 30.8121C97.9929 30.9271 97.9456 31.0521 97.8958 31.1771C98.3243 31.0246 98.6881 30.9121 98.9921 30.6471C99.2039 30.4621 99.3858 30.2021 99.5029 29.9271C99.7122 29.4421 99.7172 28.9021 99.7545 28.3871C99.7795 28.0271 99.8218 27.6771 99.8866 27.3021C99.9215 27.1021 99.9613 26.8971 99.9015 26.7221ZM97.2728 19.4371C97.1856 20.0421 97.0885 20.3021 96.8841 20.4421C96.7023 20.5646 96.4381 20.5921 96.1989 20.5171C95.9298 20.4346 95.6906 20.2196 95.5038 19.9871C95.2621 19.6821 95.1101 19.3471 94.9656 19.0046C94.6367 18.2171 94.3551 17.3871 94.0611 16.5671C93.8343 15.9296 93.6026 15.2971 93.3709 14.6721C93.189 14.1821 93.0046 13.6946 93.0021 13.1096C92.9996 12.8571 93.032 12.5896 93.2164 12.4396C93.3485 12.3346 93.5652 12.2896 93.7546 12.2796C94.0162 12.2671 94.233 12.3196 94.4348 12.3996C94.684 12.4996 94.9058 12.6446 95.1101 12.7996C95.3318 12.9696 95.5312 13.1496 95.7106 13.3771C96.1292 13.9096 96.4282 14.6871 96.635 15.4121C96.7895 15.9546 96.8941 16.4671 96.9963 16.9846C97.1084 17.5521 97.2155 18.1246 97.2703 18.6996C97.3052 19.1821 97.2903 19.3171 97.2728 19.4371ZM98.0203 30.3821C97.8933 30.5396 97.7637 30.6996 97.6865 30.8796C97.6316 31.0096 97.6042 31.1546 97.5768 31.2971C97.5544 31.3046 97.5345 31.3121 97.5145 31.3196C96.787 31.6171 95.9024 32.1371 95.5835 31.7746C95.4141 31.5821 95.4066 31.1396 95.3866 30.7371C95.3393 29.8071 95.2347 29.0796 95.0478 28.3271C94.7588 27.1646 94.2729 25.9396 93.5902 24.8721C92.9747 23.9096 92.1973 23.0746 91.2903 22.4096C90.6101 21.9096 89.8552 21.5071 89.0553 21.2221C87.7746 20.7671 86.3768 20.6196 85.0213 20.7571C84.0147 20.8571 83.0305 21.1146 82.1011 21.5121C80.9724 21.9946 79.9234 22.6821 79.0662 23.5571C78.2415 24.4046 77.5961 25.4296 77.1202 26.5171C76.6942 27.4871 76.4002 28.5071 76.2083 29.5421C76.0513 30.3846 75.9591 31.2396 75.8894 32.0946C75.8619 32.4196 75.8395 32.7471 75.8071 33.0746C75.7922 33.2221 75.7747 33.3721 75.7598 33.5221C72.862 33.5321 69.9667 33.5446 67.0689 33.5596C63.5481 33.5796 60.0274 33.6046 56.5067 33.6121C51.3664 33.6271 46.2261 33.6071 41.0882 33.6521C38.1481 33.6771 35.2079 33.7221 32.2702 33.7821C31.4031 33.7996 30.5385 33.8196 29.6714 33.8396C29.6316 33.3946 29.5942 32.9496 29.5543 32.5021C29.4372 31.1796 29.3051 29.8521 28.9837 28.5596C28.615 27.0846 27.9995 25.6546 27.0975 24.4271C26.3251 23.3771 25.3434 22.4771 24.2296 21.8096C23.2155 21.2046 22.0918 20.7896 20.9307 20.5671C19.8368 20.3571 18.7081 20.3146 17.6093 20.4821C16.6923 20.6196 15.7978 20.8996 14.9706 21.3171C13.949 21.8321 13.0321 22.5571 12.2597 23.4096C11.6019 24.1346 11.0512 24.9521 10.6301 25.8296C10.3909 26.3271 10.1966 26.8421 10.0296 27.3696C9.82031 28.0271 9.65836 28.6996 9.55371 29.3846C9.46401 29.9721 9.41417 30.5671 9.44656 31.1596C9.47895 31.7796 9.60105 32.3946 9.64091 33.0146C9.65586 33.2171 9.65836 33.4196 9.61351 33.6221C9.56866 33.8096 9.48144 33.9946 9.35188 34.1146C9.04789 34.3921 8.5097 34.2871 8.05372 34.1146C7.3112 33.8296 6.79045 33.3571 6.1476 33.1871C5.62933 33.0521 5.03133 33.1121 4.4433 33.1596C3.65593 33.2221 2.88601 33.2621 2.16591 33.0396C1.88186 32.9521 1.6028 32.8246 1.35114 32.6546C1.22406 32.3771 1.09699 32.0996 1.11194 31.7746C1.11941 31.6196 1.15679 31.4521 1.25396 31.3646C1.37855 31.2496 1.6028 31.2671 1.81459 31.2796C2.66425 31.3296 3.35693 31.2796 4.06705 31.1496C4.57037 31.0596 5.08116 30.9321 5.57202 30.6821C5.90341 30.5146 6.22235 30.2921 6.46653 30.0146C6.9848 29.4296 7.15922 28.6046 7.34858 27.8271C7.65755 26.5796 8.01137 25.4596 8.55704 24.3771C9.23228 23.0321 10.2015 21.7446 11.3353 20.7246C12.3643 19.7996 13.5279 19.0946 14.7937 18.5946C16.2787 18.0071 17.9008 17.7046 19.5229 17.7046C20.7986 17.7046 22.0718 17.8921 23.2678 18.3021C24.2346 18.6346 25.1515 19.1096 26.0137 19.6746C26.8957 20.2521 27.7204 20.9196 28.4156 21.7021C29.1208 22.4921 29.6939 23.3971 30.1772 24.3496C30.6257 25.2346 30.9945 26.1571 31.296 27.0971C31.5103 27.7696 31.6872 28.4496 31.8192 29.1421C31.9164 29.6646 31.9887 30.1921 31.9588 30.6321C32.8433 30.6146 33.7279 30.5971 34.6124 30.5846C37.5127 30.5371 40.4155 30.5196 43.3158 30.4771C47.0383 30.4246 50.7609 30.3296 54.4859 30.2946C58.7367 30.2546 62.99 30.2946 67.2657 30.1946C68.9874 30.1521 70.7117 30.0896 72.406 30.0596C72.7175 30.0546 73.0289 30.0496 73.3429 30.0646C73.4475 29.1021 73.6444 28.1671 73.9209 27.2496C74.3669 25.7746 75.0297 24.3396 75.9292 23.0746C76.9433 21.6546 78.2589 20.4471 79.7689 19.5921C81.1617 18.8021 82.7215 18.3146 84.3411 18.1396C86.1475 17.9446 88.0263 18.1421 89.6932 18.7246C90.9739 19.1721 92.1275 19.8446 93.1691 20.7021C93.7496 21.1821 94.2953 21.7171 94.7637 22.3196C95.2471 22.9421 95.6483 23.6346 95.9797 24.3546C96.2488 24.9421 96.4755 25.5471 96.6624 26.1571C96.8966 26.9221 97.071 27.6971 97.2106 28.5046C97.2878 28.9496 97.3526 29.4021 97.5619 29.7971C97.679 30.0196 97.8434 30.2246 98.0203 30.3821ZM30.0452 12.5946C30.5186 12.6171 30.992 12.6446 31.4654 12.6621C32.3076 12.6896 33.1498 12.6796 33.9945 12.6696C34.6822 12.6621 35.3699 12.6546 36.0576 12.6496C36.5459 12.6571 37.0318 12.6646 37.5177 12.6571C38.0534 12.6496 38.5866 12.6221 39.2718 12.5871C39.3765 12.6496 39.4836 12.7121 39.5908 12.7746C39.516 12.8471 39.4437 12.9221 39.369 12.9946C39.2768 13.0046 39.1846 13.0171 39.0949 13.0271C38.7087 13.0646 38.3225 13.0546 37.9363 13.0546C37.3358 13.0521 36.7403 13.0696 36.1423 13.0871C36.1298 13.1071 36.1174 13.1246 36.1024 13.1396C36.0351 13.2146 35.9305 13.2621 35.8358 13.3146C35.6888 13.3921 35.5592 13.4821 35.4347 13.5771C35.0833 13.8471 34.7669 14.1796 34.5078 14.5496C34.1265 15.0971 33.8749 15.7221 33.6805 16.3621C33.4613 17.0746 33.3167 17.8046 33.2121 18.5396C32.9779 20.1771 32.938 21.8446 33.0252 23.4971C33.075 24.4146 33.1623 25.3296 33.2146 26.2471C33.2594 27.0846 33.2769 27.9246 33.3342 28.7621C33.3691 29.2821 33.4189 29.7996 33.4737 30.3171C34.8491 30.2946 36.227 30.2721 37.6024 30.2546C40.1937 30.2196 42.7876 30.1946 45.3789 30.1546C48.9196 30.1021 52.4602 30.0221 56.0034 29.9921C58.8264 29.9696 61.652 29.9796 64.475 29.9496C64.7217 29.0171 64.9684 28.0821 65.2126 27.1471C65.7682 25.0221 66.3089 22.8946 66.6253 20.7146C66.8521 19.1571 66.9617 17.5746 66.6777 16.0121C66.5232 15.1696 66.2541 14.3321 65.7757 13.6396C65.4518 13.1721 65.0332 12.7696 64.6868 12.3146C64.6594 12.2771 64.632 12.2396 64.6046 12.2046C63.8621 12.2446 63.1196 12.2846 62.3746 12.3196C59.5764 12.4571 56.7733 12.5396 53.9702 12.6221C51.6928 12.6921 49.4129 12.7596 47.1355 12.8371C46.1015 12.8721 45.0649 12.9096 44.0309 12.9471C44.1281 12.7471 44.2053 12.5296 44.3075 12.2746C45.4088 12.2771 46.5076 12.2796 47.6089 12.2696C49.8664 12.2446 52.1213 12.1571 54.3763 12.0671C56.3472 11.9896 58.3156 11.9121 60.2865 11.8446C61.6171 11.8021 62.9501 11.7646 64.2807 11.7271C64.3405 10.2171 64.4003 8.70711 64.5199 7.20211C64.6295 5.83711 64.7865 4.47461 64.9509 3.11461C65.078 3.11211 65.2051 3.11211 65.3322 3.10961C65.2425 4.01211 65.1553 4.91461 65.078 5.81711C64.9684 7.08961 64.8787 8.36461 64.8014 9.64211C64.7591 10.3221 64.7192 11.0021 64.6793 11.6821C65.3371 11.6646 65.9974 11.6471 66.6552 11.6346C67.9634 11.6096 69.2715 11.6021 70.5771 11.5796C72.9517 11.5421 75.3213 11.4596 77.6933 11.3971C80.4989 11.3221 83.3021 11.2746 86.1077 11.1996C86.8652 11.1796 87.6226 11.1571 88.3801 11.1346C89.4141 11.1296 90.4482 11.1221 91.4797 11.0721C92.3742 11.0271 93.2662 10.9471 94.1608 10.8696C93.9863 10.6721 93.8144 10.4746 93.645 10.2746C93.5428 10.2896 93.4506 10.2996 93.3634 10.3071C92.9473 10.3371 92.6807 10.2771 92.429 10.1671C92.0553 9.99962 91.7114 9.72211 91.3726 9.41211C90.9166 8.99461 90.4706 8.51961 90.0595 8.04961C89.4988 7.41211 89.0055 6.78212 88.5919 5.97962C88.4349 5.66962 88.2879 5.33711 88.258 5.00211C88.248 4.88961 88.2505 4.77711 88.2704 4.66211C88.2804 4.58211 88.3004 4.5021 88.3253 4.4196L88.3352 4.40711C88.1459 4.23961 87.959 4.07461 87.8543 3.92711C87.7771 3.82211 87.7422 3.72461 87.7248 3.62461C87.6625 3.28961 87.807 2.93461 88.1783 2.73711C88.5271 2.57711 88.8784 2.41961 89.2248 2.25711C89.4615 2.14711 89.6982 2.03462 89.9399 1.93212C90.2115 1.81462 90.4905 1.71211 90.7297 1.53461C90.792 1.48961 90.8493 1.43961 90.8842 1.36711C90.9365 1.25461 90.9291 1.08711 90.8618 1.00461C90.792 0.91961 90.66 0.92461 90.5304 0.92711C89.7804 0.94961 89.1077 0.977108 88.415 1.04961C87.7472 1.11711 87.0595 1.22461 86.3818 1.28711C85.6343 1.35711 84.8967 1.36962 84.1741 1.33962C83.5338 1.31212 82.9059 1.24961 82.2655 1.19961C80.2074 1.03961 78.0372 1.01211 75.8869 0.974611C72.1743 0.912111 68.5215 0.822114 64.8612 0.727113C60.7674 0.622113 56.6661 0.512111 52.5798 0.717111C50.8855 0.802111 49.1936 0.939613 47.4968 1.05461C46.1688 1.14211 44.8407 1.2171 43.5351 1.4971C42.501 1.7196 41.4819 2.07211 40.5725 2.60211C39.9595 2.95961 39.3989 3.39462 38.8308 3.82462C36.83 5.34212 34.7619 6.77711 32.8234 8.31711C31.7146 9.19711 30.6482 10.1096 29.5468 11.0896C29.1208 11.4671 28.6897 11.8571 28.1864 12.0446C27.6357 12.2521 27.0004 12.2146 26.066 12.0746C26.6291 12.3746 27.414 12.4571 28.159 12.5046C28.8068 12.5496 29.4248 12.5646 30.0452 12.5946ZM58.7666 16.0696C58.799 15.9846 58.8488 15.9146 58.9136 15.8621C59.0083 15.7821 59.1329 15.7396 59.255 15.7071C59.5066 15.6421 59.7558 15.6221 60.005 15.6071C60.5855 15.5721 61.1661 15.5596 61.7541 15.5396C62.4717 15.5121 63.2018 15.4696 63.8845 15.5046C64.2284 15.5221 64.5622 15.5596 64.9534 15.5971C65.1204 15.6146 65.2973 15.6321 65.382 15.7496C65.4318 15.8196 65.4493 15.9221 65.4293 16.0096C65.3994 16.1371 65.2873 16.2271 65.1702 16.2921C65.0456 16.3621 64.9161 16.3996 64.784 16.4321C64.5672 16.4896 64.343 16.5396 64.1187 16.5746C63.8795 16.6121 63.6353 16.6321 63.3936 16.6521C63.3687 16.5821 63.3438 16.5096 63.294 16.4771C63.2466 16.4471 63.1744 16.4521 63.1021 16.4546C62.6387 16.4771 62.23 16.4646 61.8563 16.4546C61.5423 16.4446 61.2533 16.4371 60.8098 16.4046C60.7126 16.3971 60.608 16.3896 60.5631 16.4421C60.5257 16.4871 60.5282 16.5721 60.5257 16.6371C60.5232 16.6596 60.5208 16.6796 60.5183 16.7021C60.4012 16.7046 60.284 16.7071 60.1644 16.7071C60.0797 16.7071 59.9925 16.7046 59.9053 16.7021C59.8131 16.6421 59.7209 16.5821 59.6287 16.5421C59.4942 16.4846 59.3571 16.4671 59.1852 16.4471C59.0033 16.4271 58.7841 16.4046 58.7417 16.2696C58.7243 16.2121 58.7392 16.1371 58.7666 16.0696ZM65.7283 4.64962C65.7757 4.13462 65.828 3.61962 65.8803 3.10462C67.7615 3.12712 69.6427 3.14961 71.5239 3.17211C74.0953 3.20461 76.6643 3.23962 79.2357 3.27462C80.2124 3.28712 81.1916 3.29961 82.1709 3.31461C82.5097 3.70961 82.8511 4.10461 83.1825 4.50711C83.7705 5.21711 84.3311 5.95211 84.8843 6.69211C85.557 7.59211 86.2198 8.49962 86.8178 9.44962C87.0595 9.83462 87.2887 10.2246 87.5205 10.6146C86.1027 10.6521 84.6849 10.6896 83.2672 10.7246C81.3013 10.7721 79.3328 10.8121 77.3644 10.8621C74.8055 10.9246 72.2465 10.9971 69.6876 11.0496C68.21 11.0796 66.7325 11.0996 65.2549 11.1221C65.3147 10.1096 65.3745 9.09712 65.4468 8.08712C65.5265 6.93962 65.6187 5.79462 65.7283 4.64962ZM43.6273 11.2671C43.5351 11.3421 43.2959 11.3271 43.0915 11.3171C42.7577 11.3021 42.5085 11.3021 42.2419 11.3021C41.9728 11.3021 41.6837 11.3021 41.4097 11.3046C41.2278 11.3046 41.0534 11.3046 40.8166 11.3046C40.702 11.3021 40.5725 11.3021 40.5102 11.2646C40.4678 11.2421 40.4554 11.2021 40.4579 11.1496C40.4603 11.1071 40.4728 11.0571 40.5027 11.0171C40.5201 10.9921 40.5451 10.9696 40.5725 10.9571C40.5949 10.9471 40.6173 10.9446 40.6422 10.9396C40.8814 10.9071 41.1231 10.8746 41.3648 10.8471C41.8681 10.7946 42.3839 10.7771 42.8798 10.7396C43.0317 10.7271 43.1837 10.7146 43.3482 10.7171C43.4404 10.7171 43.5351 10.7246 43.5899 10.7721C43.6547 10.8271 43.6646 10.9371 43.6746 11.0321C43.6821 11.1371 43.6846 11.2196 43.6273 11.2671ZM45.6281 4.41712C46.0815 3.98712 46.5375 3.56211 46.996 3.13961C48.5956 3.11961 50.1978 3.1021 51.7999 3.0921C53.4419 3.0821 55.0839 3.08211 56.7259 3.08211C58.6944 3.08211 60.6628 3.08211 62.6287 3.09961C63.2217 3.10461 63.8122 3.1121 64.4053 3.1221C64.2882 4.0871 64.1735 5.05211 64.0813 6.01961C63.9817 7.03461 63.9094 8.04961 63.8546 9.06711C63.8172 9.77711 63.7873 10.4871 63.7574 11.1971C62.2674 11.2396 60.7749 11.2821 59.2849 11.3346C57.1969 11.4071 55.1089 11.4971 53.0208 11.5771C51.1247 11.6471 49.231 11.7096 47.3348 11.7271C46.3606 11.7371 45.3839 11.7346 44.4071 11.7296C44.4146 11.6746 44.4221 11.6196 44.4271 11.5646C44.4744 11.0371 44.3947 10.4821 44.1356 10.0146C43.9935 9.75461 43.7992 9.52211 43.55 9.37211C43.4055 9.28461 43.2435 9.22461 43.0791 9.18961C42.6082 9.09211 42.1123 9.20462 41.6439 9.35212C41.3847 9.43212 41.1331 9.52461 40.8889 9.62961C41.7037 8.63961 42.516 7.64961 43.3806 6.70461C44.1007 5.91711 44.8556 5.15712 45.6281 4.41712ZM30.6232 10.4571C31.1365 10.0096 31.6573 9.56962 32.183 9.13712C32.776 8.64962 33.379 8.17211 33.9895 7.70711C34.8342 7.06211 35.6913 6.4371 36.5459 5.8096C37.1091 5.3971 37.6722 4.98461 38.2328 4.56961C38.8731 4.09461 39.5135 3.61961 40.1514 3.14711C40.5675 3.30711 40.9612 3.39962 41.3324 3.46212C41.5367 3.49462 41.7361 3.51961 41.8283 3.64211C41.9005 3.73711 41.9105 3.8921 41.8856 4.0296C41.8407 4.28461 41.6763 4.47462 41.5068 4.65212C41.2427 4.92962 40.9612 5.17961 40.6871 5.43711C39.6182 6.43961 38.6489 7.57711 37.5974 8.59711C36.8499 9.32711 36.0601 9.99962 35.2553 10.7121C34.9064 11.0221 34.5551 11.3396 34.1365 11.5071C33.7877 11.6446 33.394 11.6796 33.0053 11.6896C32.3674 11.7096 31.7445 11.6696 31.1216 11.6046C30.7279 11.5646 30.3317 11.5121 29.5668 11.3871C29.9181 11.0771 30.2694 10.7646 30.6232 10.4571ZM85.7115 21.5221C81.1443 21.5221 77.4417 25.2371 77.4417 29.8196C77.4417 34.4021 81.1443 38.1171 85.7115 38.1171C90.2787 38.1171 93.9789 34.4021 93.9789 29.8196C93.9789 25.2371 90.2787 21.5221 85.7115 21.5221ZM88.4997 24.3896C89.3867 24.8471 90.1492 25.5196 90.7173 26.3446L87.8294 28.3471C87.5902 27.9996 87.2663 27.7146 86.8901 27.5196L88.4997 24.3896ZM86.8004 23.8096L86.1725 27.2746C85.7564 27.1996 85.3278 27.2271 84.9241 27.3571L83.8552 24.0021C84.807 23.6971 85.8186 23.6296 86.8004 23.8096ZM86.6534 29.8196C86.6534 30.3421 86.2298 30.7646 85.7115 30.7646C85.1907 30.7646 84.7697 30.3421 84.7697 29.8196C84.7697 29.2971 85.1907 28.8746 85.7115 28.8746C86.2298 28.8746 86.6534 29.2971 86.6534 29.8196ZM82.2456 24.7971L84.2439 27.6921C83.8951 27.9346 83.6135 28.2571 83.4192 28.6346L80.2971 27.0221C80.7556 26.1321 81.4233 25.3671 82.2456 24.7971ZM79.7215 28.7271L83.175 29.3571C83.0977 29.7871 83.1301 30.2146 83.2572 30.6096H83.2547L79.9109 31.6821C79.6069 30.7271 79.5421 29.7121 79.7215 28.7271ZM82.9233 35.2521C82.0338 34.7921 81.2714 34.1196 80.7033 33.2971L83.5911 31.2921C83.8253 31.6321 84.1442 31.9196 84.5305 32.1196L82.9233 35.2521ZM84.6202 35.8296L85.2481 32.3646C85.6642 32.4421 86.0927 32.4121 86.4964 32.2846L87.5678 35.6371C86.616 35.9446 85.6044 36.0096 84.6202 35.8296ZM89.1749 34.8446L87.1766 31.9471C87.5254 31.7046 87.8095 31.3821 88.0038 31.0046L91.1234 32.6171C90.6649 33.5096 89.9972 34.2721 89.1749 34.8446ZM91.7015 30.9146L88.248 30.2821C88.3228 29.8646 88.2954 29.4346 88.1658 29.0321L91.5096 27.9571C91.8136 28.9121 91.8809 29.9271 91.7015 30.9146ZM2.07621 31.0021C2.3503 31.0221 2.62438 31.0146 2.89846 30.9971C3.3046 30.9721 3.70826 30.9246 4.10443 30.8496C4.47818 30.7771 4.84446 30.6821 5.20077 30.5346C5.5496 30.3896 5.88597 30.1971 6.1476 29.9296C6.41171 29.6621 6.59859 29.3171 6.73563 28.9621C6.90008 28.5346 6.98978 28.0896 7.09692 27.6471C7.32366 26.6921 7.61768 25.7471 8.01635 24.8471C8.37515 24.0371 8.81617 23.2621 9.33195 22.5421C9.73311 21.9796 10.1791 21.4471 10.67 20.9596C11.5146 20.1146 12.4889 19.3971 13.5503 18.8421C14.9033 18.1371 16.3958 17.6971 17.9058 17.5121C18.7255 17.4121 19.5478 17.3871 20.37 17.4421C21.3194 17.5046 22.2637 17.6721 23.1657 17.9646C23.8982 18.1996 24.6034 18.5196 25.2836 18.8921C26.5967 19.6146 27.8126 20.5421 28.7794 21.6771C29.4048 22.4121 29.9281 23.2371 30.3716 24.0971C30.7279 24.7821 31.0344 25.4896 31.2985 26.2121C31.5252 26.8371 31.7196 27.4721 31.889 28.1196C32.041 28.6996 32.1706 29.2896 32.2229 29.8846C32.2378 30.0346 32.2453 30.1871 32.2528 30.3371C32.5418 30.3321 32.8309 30.3271 33.1174 30.3221C33.1049 29.4221 32.9978 28.5171 32.9056 27.6096C32.7885 26.4671 32.6913 25.3221 32.654 24.1771C32.6265 23.3471 32.629 22.5171 32.6415 21.6846C32.6515 20.9746 32.6664 20.2621 32.7262 19.5546C32.796 18.7596 32.9206 17.9696 33.1074 17.1771C33.3342 16.2121 33.6506 15.2421 34.2087 14.4671C34.4255 14.1671 34.6772 13.8946 34.9538 13.6271C35.1356 13.4446 35.3325 13.2671 35.5767 13.1596C35.624 13.1396 35.6714 13.1221 35.7187 13.1021C35.0136 13.1371 34.3109 13.1696 33.6083 13.1746C32.2428 13.1896 30.8749 13.1071 29.5145 13.0196C28.9588 12.9846 28.4057 12.9471 27.85 12.9021C27.1748 12.8471 26.4921 12.7796 25.8367 12.6146C25.5577 12.5421 25.2811 12.4546 25.007 12.3646C24.4738 12.3546 23.9406 12.3471 23.4074 12.3521C22.1117 12.3671 20.8185 12.4771 19.5229 12.5996C17.542 12.7871 15.5561 13.0046 13.6301 13.4871C12.1201 13.8671 10.6475 14.4071 9.19989 14.9671C8.60189 15.1996 8.00887 15.4321 7.40838 15.6796C6.05291 16.2321 4.65758 16.8421 3.67337 17.9046C3.12022 18.5046 2.69664 19.2471 2.44996 20.0296C2.23319 20.7171 2.15345 21.4371 2.09365 22.1596C2.01143 23.1871 1.96907 24.2221 1.91675 25.2246C1.89432 25.6471 1.86941 26.0621 1.8121 26.5121C1.76476 26.8971 1.69 27.3071 1.45579 27.5621C1.36858 27.6571 1.25646 27.7321 1.12191 27.8146C0.892672 27.9571 0.598656 28.1246 0.616097 28.3346C0.623572 28.4271 0.693338 28.5296 0.743171 28.6346C0.885196 28.9371 0.855295 29.2596 0.835362 29.5746C0.807953 30.0121 0.80048 30.4296 0.763105 30.8871C0.72573 31.3396 0.660947 31.8296 0.865264 32.1896C0.847823 32.0821 0.82789 31.9771 0.822906 31.8696C0.815431 31.7396 0.827889 31.6096 0.865264 31.4846C0.902639 31.3596 0.962436 31.2371 1.05712 31.1496C1.1518 31.0671 1.27639 31.0171 1.40097 30.9946C1.62522 30.9521 1.85196 30.9871 2.07621 31.0021ZM27.4115 17.2046C27.4763 17.0346 27.6108 16.9146 27.7304 16.7796C27.8625 16.6296 27.9796 16.4571 28.1465 16.3646C28.2736 16.2921 28.4281 16.2621 28.5801 16.2471C29.0485 16.1996 29.4995 16.2596 29.953 16.2671C30.4339 16.2746 30.9173 16.2246 31.4106 16.2171C31.6349 16.2146 31.8616 16.2221 32.0584 16.3546C32.2204 16.4646 32.3649 16.6596 32.3375 16.8271C32.3201 16.9471 32.2179 17.0521 32.1158 17.1471C31.9364 17.3196 31.7644 17.4646 31.5651 17.5646C31.2736 17.7096 30.9222 17.7596 30.5809 17.7871C30.1274 17.8221 29.6864 17.8196 29.2478 17.8146C28.9339 17.8321 28.6224 17.8496 28.311 17.8546C28.1067 17.8571 27.9048 17.8571 27.7005 17.7871C27.5834 17.7471 27.4663 17.6846 27.4115 17.5821C27.3542 17.4771 27.3666 17.3271 27.4115 17.2046ZM4.9815 19.9571C5.11854 19.6146 5.31538 19.2996 5.52468 18.9946C5.91338 18.4296 6.34693 17.9046 6.84277 17.4071C7.37599 16.8721 7.98146 16.3671 8.58195 15.9696C9.03544 15.6696 9.48643 15.4296 9.97479 15.1846C10.518 14.9096 11.1085 14.6321 11.6766 14.4846C11.9731 14.4046 12.2646 14.3646 12.6309 14.3671C12.8178 14.3696 13.0246 14.3846 13.1143 14.4946C13.214 14.6171 13.1691 14.8571 13.1143 15.0646C13.0196 15.4096 12.895 15.6596 12.7405 15.9071C12.4042 16.4496 11.9357 16.9746 11.4499 17.4546C10.7348 18.1596 9.97978 18.7721 9.18992 19.3546C8.64923 19.7521 8.09359 20.1371 7.4931 20.4346C7.02965 20.6671 6.53879 20.8446 6.04793 21.0221C5.8785 21.0746 5.70906 21.1271 5.51471 21.1546C5.33033 21.1796 5.12352 21.1846 5.00143 21.0771C4.90924 20.9971 4.86688 20.8521 4.85193 20.7096C4.81954 20.4421 4.88682 20.1921 4.9815 19.9571ZM4.09197 26.3671C4.37851 26.3746 4.60277 26.8021 4.5928 27.3271C4.58283 27.8521 4.34363 28.2746 4.05709 28.2696C3.77055 28.2621 3.5463 27.8321 3.55627 27.3096C3.56623 26.7846 3.80543 26.3621 4.09197 26.3671ZM19.2164 21.5396C14.6492 21.5396 10.9466 25.2546 10.9466 29.8371C10.9466 34.4196 14.6492 38.1346 19.2164 38.1346C23.7811 38.1346 27.4837 34.4196 27.4837 29.8371C27.4837 25.2546 23.7811 21.5396 19.2164 21.5396ZM22.0046 24.4046C22.8916 24.8646 23.6541 25.5371 24.2222 26.3596L21.3343 28.3646C21.0951 28.0146 20.7712 27.7321 20.3949 27.5371L22.0046 24.4046ZM20.3053 23.8271L19.6773 27.2921C19.2612 27.2146 18.8327 27.2446 18.429 27.3721L17.3601 24.0196C18.3119 23.7121 19.3235 23.6471 20.3053 23.8271ZM20.1557 29.8371C20.1557 30.3596 19.7347 30.7821 19.2164 30.7821C18.6956 30.7821 18.2745 30.3596 18.2745 29.8371C18.2745 29.3146 18.6956 28.8921 19.2164 28.8921C19.7347 28.8921 20.1557 29.3146 20.1557 29.8371ZM15.7505 24.8121L17.7488 27.7096C17.4 27.9521 17.1159 28.2746 16.9241 28.6521L13.802 27.0396C14.2605 26.1471 14.9282 25.3846 15.7505 24.8121ZM13.2239 28.7421L16.6799 29.3746C16.6026 29.8021 16.635 30.2321 16.7621 30.6246H16.7596L13.4158 31.6996C13.1118 30.7446 13.047 29.7296 13.2239 28.7421ZM16.4282 35.2671C15.5387 34.8096 14.7762 34.1371 14.2081 33.3121L17.096 31.3096C17.3302 31.6496 17.6491 31.9371 18.0353 32.1371L16.4282 35.2671ZM18.125 35.8471L18.7529 32.3821C19.169 32.4571 19.5976 32.4296 20.0013 32.2996L21.0702 35.6546C20.1209 35.9596 19.1068 36.0271 18.125 35.8471ZM22.6798 34.8596L20.6815 31.9646C21.0303 31.7221 21.3144 31.3996 21.5062 31.0221L24.6283 32.6346C24.1698 33.5246 23.5021 34.2896 22.6798 34.8596ZM25.2064 30.9296L21.7529 30.2996C21.8277 29.8821 21.8002 29.4521 21.6707 29.0471L25.0145 27.9746C25.3185 28.9296 25.3833 29.9446 25.2064 30.9296Z" stroke="url(#paint0_linear)" stroke-width="2" mask="url(#path-1-inside-1)"/>
    <defs>
        <linearGradient id="paint0_linear" x1="66.6596" y1="2.44855" x2="39.5438" y2="31.4751" gradientUnits="userSpaceOnUse">
            <stop offset="0.15625" stop-color="#0ACFCF"/>
            <stop offset="1" stop-color="#743498" stop-opacity="0.6"/>
        </linearGradient>
    </defs>
</svg>