<svg viewBox="0 0 36 36" fill="none" xmlns="http://www.w3.org/2000/svg">
<path fill-rule="evenodd" clip-rule="evenodd" d="M18 0.5C17.4477 0.5 17 0.947715 17 1.5V2.03074C8.95999 2.52654 2.52654 8.95998 2.03074 17H1.5C0.947715 17 0.5 17.4477 0.5 18C0.5 18.5523 0.947715 19 1.5 19H2.03074C2.52654 27.04 8.95999 33.4735 17 33.9693V34.5C17 35.0523 17.4477 35.5 18 35.5C18.5523 35.5 19 35.0523 19 34.5V33.9693C27.04 33.4735 33.4735 27.04 33.9693 19H34.5C35.0523 19 35.5 18.5523 35.5 18C35.5 17.4477 35.0523 17 34.5 17H33.9693C33.4735 8.95998 27.04 2.52654 19 2.03074V1.5C19 0.947715 18.5523 0.5 18 0.5ZM19 31.9648C25.935 31.4754 31.4754 25.935 31.9648 19H27C26.4477 19 26 18.5523 26 18C26 17.4477 26.4477 17 27 17H31.9648C31.4754 10.065 25.935 4.5246 19 4.03516V9C19 9.55229 18.5523 10 18 10C17.4477 10 17 9.55229 17 9V4.03516C10.065 4.5246 4.5246 10.065 4.03516 17H9C9.55229 17 10 17.4477 10 18C10 18.5523 9.55229 19 9 19H4.03516C4.5246 25.935 10.065 31.4754 17 31.9648V27C17 26.4477 17.4477 26 18 26C18.5523 26 19 26.4477 19 27V31.9648Z" fill="url(#paint0_linear)"/>
<defs>
<linearGradient id="paint0_linear" x1="18" y1="0.5" x2="18" y2="35.5" gradientUnits="userSpaceOnUse">
<stop stop-color="#18CED6"/>
<stop offset="1" stop-color="#18AED6"/>
</linearGradient>
</defs>
</svg>
