<svg width="24" height="24" viewBox="0 0 24 24" fill="none" xmlns="http://www.w3.org/2000/svg">
<path fill-rule="evenodd" clip-rule="evenodd" d="M12.4974 3.99999C8.45055 3.98944 4.9016 7.44941 4.90003 11.5004L4.90003 11.5026C4.897 12.665 5.16857 13.8116 5.69263 14.8491C5.81036 15.0822 5.83225 15.3521 5.75361 15.6011L4.5564 19.3923L8.06812 18.1567C8.32506 18.0663 8.60776 18.0846 8.85088 18.2074C9.86081 18.7175 11.3009 19.0031 12.4974 19L12.4996 19C16.553 18.9984 19.9915 15.5807 20 11.4979C20.0086 7.38003 16.6378 4 12.5 4L12.4974 3.99999ZM12.5013 2C7.37637 1.98737 2.90268 6.31505 2.90003 11.4985C2.8967 12.8363 3.17958 14.1577 3.72778 15.3746L2.04645 20.6988C1.93235 21.0601 2.03225 21.4549 2.30449 21.7185C2.57672 21.982 2.97452 22.069 3.33193 21.9433L8.34737 20.1786C9.63039 20.7328 11.1967 21.0032 12.5013 21C12.501 21 12.5007 21 12.5004 21L12.5 20L12.5026 21C12.5022 21 12.5017 21 12.5013 21C17.6568 20.9975 21.9892 16.6873 22 11.5021C22.0109 6.27562 17.7418 2.00071 12.5013 2Z" fill="#3955FE"/>
</svg>
