<svg xmlns="http://www.w3.org/2000/svg" width="100" height="40" viewBox="0 0 100 40" fill="none">
    <mask id="path-1-inside-1" fill="white">
        <path d="M99.6903 27.7272C99.6857 27.4474 99.6787 27.1331 99.6509 26.89C99.637 26.7638 99.6162 26.656 99.5676 26.5643C99.4889 26.4198 99.3362 26.3188 99.1835 26.2317C98.8248 26.0252 98.4614 25.8853 98.0889 25.7523C97.3021 25.4724 96.4805 25.227 95.6474 25.0802C95.2702 25.0137 94.893 24.9678 94.5135 24.9219C94.4117 24.7338 94.3099 24.5457 94.1895 24.3737C94.0507 24.1741 93.8887 23.9929 93.7244 23.8094C93.6966 23.2474 93.6665 22.6854 93.4837 22.1624C93.3842 21.8826 93.2407 21.6119 93.0672 21.3687C92.97 21.2357 92.8635 21.1073 92.7571 20.9811C92.6876 20.754 92.6182 20.5292 92.5349 20.3067C92.403 19.9603 92.2341 19.6231 92.042 19.3066C91.9379 19.1323 91.8244 18.9648 91.7134 18.7974C91.7365 18.7584 91.7597 18.7194 91.7828 18.6804C92.0327 18.6551 92.2803 18.6322 92.5233 18.6001C92.7409 18.5703 92.9514 18.5359 93.1644 18.4349C93.2153 18.4097 93.2685 18.3822 93.2893 18.334C93.3009 18.3111 93.3032 18.2858 93.3032 18.2583C93.3032 18.1895 93.2777 18.1253 93.2477 18.061C93.1829 17.9119 93.1134 17.756 92.9931 17.655C92.9052 17.5793 92.7871 17.5312 92.6691 17.4922C92.4215 17.4119 92.1739 17.3706 91.9216 17.327C91.6833 17.2834 91.4426 17.2421 91.1996 17.2284C90.9775 17.2169 90.7553 17.2307 90.5355 17.2444C90.3573 17.0724 90.1791 16.9027 90.0055 16.7283C88.9873 15.7122 88.0963 14.579 87.1198 13.5261C86.3052 12.6476 85.4304 11.8264 84.5349 11.0259C81.9731 8.74121 79.2239 6.63777 76.2131 4.99539C75.5282 4.62149 74.827 4.27283 74.1165 3.9471C72.9247 3.39658 71.7005 2.91259 70.4486 2.51575C68.2247 1.81155 65.9175 1.3803 63.594 1.08439C59.2388 0.531578 54.8234 0.451298 50.4681 0.772434C48.3137 0.933002 46.1754 1.18991 44.0163 1.51334C42.7574 1.70143 41.4938 1.91476 40.3368 2.40564C39.9989 2.55015 39.6703 2.7199 39.3417 2.88735C37.1779 5.33946 35.4377 8.10352 34.1672 11.1084C33.0078 11.0786 31.8484 11.0511 30.6914 11.0763C28.8771 11.1176 27.0651 11.2942 25.2577 11.503C23.9433 11.6521 22.6311 11.8195 21.3329 12.0627C19.3983 12.4251 17.4914 12.9596 15.6424 13.65C14.2053 14.1891 12.8029 14.8245 11.5 15.6319C10.6646 16.1526 9.87318 16.7444 9.16505 17.4211C8.81561 17.7583 8.487 18.1138 8.15839 18.4693C7.76267 18.6024 7.36464 18.7331 7.07074 19.0015C6.999 19.0657 6.93652 19.1368 6.87172 19.208C6.6241 19.2722 6.37649 19.3341 6.12425 19.4006C5.99466 19.4351 5.86044 19.4695 5.74936 19.5406C5.67993 19.5864 5.61745 19.6484 5.56422 19.7149C5.32818 20.0062 5.26107 20.3939 5.20321 20.7724C5.12453 21.2862 5.06205 21.7793 4.99957 22.2725C4.89543 22.4744 4.7913 22.6739 4.72419 22.8896C4.66865 23.0685 4.63625 23.2566 4.63162 23.4424C4.62699 23.6305 4.64782 23.8163 4.67096 24.0021C4.41177 23.97 4.1549 23.9631 3.89803 23.9654C3.24081 23.9768 2.5859 24.0778 1.96108 24.3599C1.43114 24.6008 0.924337 24.9724 0.727634 25.4908C0.609612 25.8073 0.607296 26.1789 0.621181 26.5138C0.628124 26.7042 0.639694 26.8831 0.667464 27.0735C0.697548 27.2731 0.746148 27.4887 0.854913 27.6515C0.94748 27.7869 1.07939 27.8878 1.22055 27.9796C1.49362 28.1539 1.80603 28.2892 2.1277 28.3833C2.6021 28.5186 3.09502 28.5645 3.59025 28.6081C3.53239 28.748 3.47454 28.8879 3.43057 29.0439C3.37734 29.2274 3.34263 29.4339 3.42131 29.5898C3.4838 29.716 3.62033 29.81 3.75455 29.8812C3.85175 29.9293 3.95125 29.9683 4.04845 30.005C4.46962 30.1381 4.907 30.3766 5.25644 30.4913C6.39501 30.8606 6.59865 29.8995 6.77221 29.1815C7.02908 28.1195 7.22347 27.5804 7.48729 27.0162C7.85061 26.2386 8.34584 25.4128 9.01695 24.642C9.88939 23.6419 11.0627 22.7359 12.3586 22.1624C13.4578 21.6738 14.645 21.4261 15.765 21.3596C17.0332 21.2816 18.2134 21.4353 19.3913 21.8482C20.5854 22.2679 21.7772 22.9538 22.7445 23.8071C23.5892 24.5526 24.2649 25.4265 24.7856 26.4152C25.3271 27.4474 25.7043 28.6035 25.9774 30.0853C26.1001 30.7528 26.2042 31.4891 26.5444 31.9938C26.7503 32.2966 27.0419 32.5168 27.3682 32.6315C27.6343 32.7255 27.9259 32.7461 28.2129 32.7553C28.8146 32.7714 29.4047 32.7232 29.9971 32.6911C32.0289 32.5741 34.0816 32.6246 36.0949 32.6544C40.1609 32.714 44.0626 32.6911 48.1517 32.7347C54.5272 32.8035 61.3632 33.0283 67.4703 32.9641C67.6184 32.9641 67.7665 32.9618 67.9261 32.9595C68.3149 32.9526 68.7616 32.9457 69.0462 32.8517C69.236 32.7874 69.354 32.6865 69.4674 32.5581C69.5576 32.4548 69.6456 32.331 69.7243 32.1612C69.9325 31.7048 70.0667 30.9111 70.2079 30.2C70.4347 29.0737 70.6777 28.1539 71.0294 27.3098C71.6543 25.7958 72.6169 24.5136 73.8087 23.5571C74.7784 22.7772 75.9007 22.2129 77.2036 21.8849C78.2982 21.6119 79.5201 21.5018 80.6656 21.6073C82.0356 21.7312 83.2968 22.1624 84.4654 22.8299C85.5207 23.4332 86.4996 24.2315 87.2679 25.1375C88.0339 26.0413 88.5893 27.0552 89.1261 28.3535C89.5103 29.2825 89.8852 30.3606 90.5262 30.9937C91.1973 31.6566 92.1577 31.8332 93.081 31.8974C93.7475 31.9433 94.3932 31.9318 95.0573 31.9158C95.6382 31.8997 96.2329 31.8837 96.5152 31.8768C96.5962 31.8745 96.6495 31.8722 96.705 31.8676C97.346 31.8171 97.7348 31.2987 96.9711 30.4202C96.9133 30.3537 96.8577 30.2872 96.8045 30.2183C96.6726 30.0394 96.5708 29.8399 96.469 29.6426C96.8971 29.5646 97.3229 29.4889 97.7579 29.4109C98.3064 29.31 98.8641 29.2045 99.2645 29.0118C99.3686 28.9613 99.4635 28.904 99.5306 28.8191C99.6949 28.6081 99.6972 28.2204 99.6903 27.7272ZM56.4456 11.0396C56.4433 11.5764 56.441 12.1108 56.3947 12.6522C56.3831 12.7944 56.3692 12.9366 56.316 13.0674C56.242 13.2555 56.0915 13.4229 55.9134 13.5284C55.7467 13.6248 55.5547 13.6707 55.3649 13.6959C55.1381 13.7234 54.9136 13.7188 54.6868 13.7165C54.1384 13.7096 53.5876 13.7028 53.0369 13.6982C52.2477 13.689 51.4586 13.6798 50.6695 13.6706C49.2 13.6546 47.7328 13.6339 46.2633 13.6156C45.2219 13.6018 44.1829 13.5904 43.1485 13.5789C42.9078 13.5743 42.6648 13.572 42.4473 13.5789C42.3964 13.5812 42.3478 13.5812 41.5262 13.5605C40.987 13.5468 40.4478 13.556 39.9248 13.556C39.1565 13.5582 38.4253 13.5422 37.6593 13.5078C37.3492 13.494 37.0368 13.478 36.7452 13.3747C36.5601 13.3082 36.3819 13.2096 36.2407 13.0674C36.1018 12.9297 35.9931 12.7554 35.9445 12.5742C35.8218 12.1063 36.0949 11.6085 36.3703 11.1543C36.8216 10.4042 37.2774 9.77802 37.7032 9.09446C38.0388 8.55541 38.3535 7.97965 38.7654 7.4773C39.0385 7.1424 39.3556 6.83962 39.7189 6.61024C40.0429 6.40609 40.4039 6.26157 40.7718 6.13541C41.2948 5.9542 41.8271 5.81428 42.3663 5.69041C42.5746 5.64224 42.7828 5.59865 43.6645 5.47479C44.3842 5.40827 44.7452 5.35552 45.1155 5.30964C47.6935 4.98621 50.5792 4.96785 53.3932 4.91968C53.8792 4.91051 54.3629 4.90133 54.8674 4.88986C55.1312 4.88528 55.4042 4.8784 55.6357 4.97703C55.8439 5.0619 56.0221 5.23164 56.1448 5.42661C56.2281 5.55736 56.2859 5.70188 56.3276 5.85098C56.4294 6.21799 56.4294 6.60794 56.434 6.9933C56.4387 7.43601 56.4502 7.87184 56.4549 8.30996C56.4664 9.21602 56.4526 10.1313 56.4456 11.0396ZM75.6901 13.1935C75.4634 13.5216 75.1255 13.7762 74.7552 13.9253C74.3526 14.0858 73.9152 14.1248 73.4778 14.1432C72.2143 14.2005 70.9693 14.1065 69.7196 14.0514C68.102 13.9826 66.4729 13.9803 64.8506 13.9551C63.6056 13.9367 62.3629 13.9046 61.1179 13.8633C60.7985 13.8519 60.4815 13.8427 60.1645 13.8289C60.0187 13.822 59.8706 13.8175 59.7225 13.8037C59.579 13.7899 59.4332 13.7716 59.299 13.7211C59.211 13.6867 59.1277 13.6408 59.0514 13.5858C58.9449 13.5124 58.85 13.4229 58.7737 13.322C58.6695 13.1844 58.5978 13.0215 58.5561 12.854C58.5029 12.6407 58.496 12.4228 58.489 12.2026C58.4751 11.6681 58.4728 11.1291 58.4705 10.5969C58.4682 9.63121 58.4751 8.68386 58.4774 7.70898C58.4798 7.3649 58.4798 7.01854 58.4774 6.67217C58.4728 6.39921 58.4682 6.12853 58.5237 5.86474C58.577 5.62389 58.6788 5.38991 58.8361 5.19723C58.9287 5.08483 59.0375 4.98621 59.1647 4.92198C59.292 4.86005 59.4355 4.83481 59.5767 4.82563C59.66 4.81875 59.7456 4.81646 59.8289 4.81646C60.7615 4.85316 61.6941 4.88986 62.6244 4.97244C64.2027 5.11007 65.774 5.38075 67.3129 5.7684C68.3195 6.02073 69.31 6.3235 70.2773 6.68822C71.004 6.96348 71.7167 7.27545 72.411 7.6287C72.9803 7.92002 73.5357 8.24114 74.0425 8.62421C74.3086 8.82607 74.5608 9.044 74.7992 9.28026C75.1139 9.58763 75.4078 9.92482 75.6045 10.3102C75.7364 10.5671 75.8244 10.8447 75.8984 11.1268C75.9864 11.4663 76.0488 11.8126 76.0303 12.1613C76.0095 12.5237 75.8984 12.8908 75.6901 13.1935ZM79.9204 22.2748C75.1162 22.2748 71.2192 26.1353 71.2192 30.8996C71.2192 35.6616 75.1162 39.5221 79.9204 39.5221C84.7246 39.5221 88.6217 35.6616 88.6217 30.8996C88.6217 26.1353 84.7246 22.2748 79.9204 22.2748ZM79.9204 37.0608C76.4885 37.0608 73.7046 34.3014 73.7046 30.8996C73.7046 27.4956 76.4885 24.7361 79.9204 24.7361C83.3546 24.7361 86.1363 27.4956 86.1363 30.8996C86.1363 34.3014 83.3546 37.0608 79.9204 37.0608ZM79.9204 25.1811C76.7338 25.1811 74.1512 27.741 74.1512 30.8996C74.1512 34.0559 76.7338 36.6181 79.9204 36.6181C83.107 36.6181 85.6896 34.0559 85.6896 30.8996C85.6896 27.741 83.107 25.1811 79.9204 25.1811ZM79.9204 36.4002C76.8565 36.4002 74.3711 33.9367 74.3711 30.8996C74.3711 27.8603 76.8565 25.3967 79.9204 25.3967C82.9867 25.3967 85.4698 27.8603 85.4698 30.8996C85.4698 33.9367 82.9867 36.4002 79.9204 36.4002ZM79.9204 26.3578C79.3049 26.3578 78.7171 26.4794 78.1802 26.6973C76.514 27.3763 75.3384 29.0003 75.3384 30.8996C75.3384 31.5098 75.461 32.0924 75.6809 32.6223C76.3659 34.2761 78.0066 35.4391 79.9204 35.4391C80.536 35.4391 81.1215 35.3198 81.6583 35.1019C83.3269 34.4229 84.5025 32.7966 84.5025 30.8996C84.5025 28.3902 82.4498 26.3578 79.9204 26.3578ZM81.214 27.101C81.2649 26.9382 81.4408 26.8487 81.6051 26.8992L82.304 27.2799C82.4012 27.3602 82.4405 27.491 82.4012 27.6126C82.348 27.7754 82.1721 27.8649 82.0078 27.8121L81.3112 27.4336C81.214 27.3533 81.1747 27.2203 81.214 27.101ZM78.2589 26.89L79.0249 26.6698C79.1498 26.6583 79.2725 26.7225 79.3303 26.8349C79.409 26.9886 79.3488 27.1744 79.1961 27.2524L78.8166 27.3625L78.4324 27.4749C78.3051 27.4864 78.1848 27.4199 78.1246 27.3075C78.046 27.1561 78.1061 26.968 78.2589 26.89ZM75.8868 29.2274L76.2687 28.537C76.3497 28.4406 76.4839 28.4016 76.6042 28.4406C76.7685 28.4911 76.8611 28.6654 76.8079 28.8283L76.4237 29.521C76.3427 29.6174 76.2108 29.6564 76.0905 29.6174C75.9239 29.5646 75.8336 29.3903 75.8868 29.2274ZM76.2965 32.6773C76.1437 32.7576 75.9563 32.698 75.8753 32.5443L75.6531 31.7873C75.6416 31.6612 75.7087 31.5419 75.8221 31.4845C75.9748 31.4043 76.1646 31.4662 76.2432 31.6176L76.308 31.8355L76.4654 32.3746C76.477 32.5007 76.4098 32.62 76.2965 32.6773ZM78.6268 34.6959C78.5759 34.8588 78.4 34.9505 78.2357 34.8978L77.5368 34.517C77.4396 34.4367 77.4003 34.306 77.4396 34.1844C77.4929 34.0215 77.6687 33.9321 77.8331 33.9848L78.5296 34.3633C78.6291 34.4436 78.6662 34.5766 78.6268 34.6959ZM81.582 34.9069L80.816 35.1271C80.691 35.1386 80.5684 35.0744 80.5105 34.962C80.4319 34.8083 80.492 34.6225 80.6448 34.5445L81.0243 34.4344L81.4084 34.3243C81.5357 34.3128 81.656 34.3771 81.7162 34.4895C81.7949 34.6409 81.7347 34.8289 81.582 34.9069ZM83.954 32.5695L83.5722 33.26C83.4912 33.3586 83.3569 33.3953 83.2366 33.3586C83.0723 33.3058 82.982 33.1315 83.033 32.9686L83.4171 32.2759C83.4981 32.1796 83.63 32.1406 83.7527 32.1796C83.917 32.2323 84.0072 32.4067 83.954 32.5695ZM83.5444 29.1196C83.6971 29.0416 83.8869 29.1013 83.9656 29.2527L84.1877 30.0096C84.1993 30.1358 84.1322 30.2551 84.0188 30.3124C83.8661 30.3927 83.6763 30.333 83.5976 30.1794L83.3755 29.4224C83.3639 29.2962 83.431 29.177 83.5444 29.1196ZM80.9317 34.1202C80.6124 34.2188 80.2722 34.2715 79.9204 34.2715C78.3352 34.2715 77.0023 33.198 76.6251 31.7437C76.5556 31.4731 76.5186 31.1909 76.5186 30.8996C76.5186 29.3857 77.523 28.1057 78.9091 27.6768C79.2285 27.5781 79.5687 27.5254 79.9204 27.5254C81.7995 27.5254 83.3222 29.037 83.3222 30.8996C83.3222 32.4135 82.3179 33.6935 80.9317 34.1202ZM16.2788 22.2335C11.4746 22.2335 7.57754 26.094 7.57754 30.8583C7.57754 35.6203 11.4746 39.4808 16.2788 39.4808C21.083 39.4808 24.98 35.6203 24.98 30.8583C24.98 26.094 21.083 22.2335 16.2788 22.2335ZM16.2788 37.0196C12.8469 37.0196 10.0629 34.2601 10.0629 30.8583C10.0629 27.4543 12.8469 24.6971 16.2788 24.6971C19.713 24.6971 22.4946 27.4543 22.4946 30.8583C22.4946 34.2601 19.713 37.0196 16.2788 37.0196ZM16.2788 25.1398C13.0922 25.1398 10.5096 27.6997 10.5096 30.8583C10.5096 34.0169 13.0922 36.5769 16.2788 36.5769C19.4654 36.5769 22.048 34.0169 22.048 30.8583C22.048 27.6997 19.4654 25.1398 16.2788 25.1398ZM16.2788 36.1685C13.319 36.1685 10.9215 33.7898 10.9215 30.8583C10.9215 27.9245 13.319 25.5481 16.2788 25.5481C19.2386 25.5481 21.6361 27.9245 21.6361 30.8583C21.6361 33.7898 19.2386 36.1685 16.2788 36.1685ZM16.2788 26.3165C15.6632 26.3165 15.0754 26.4381 14.5385 26.6583C12.87 27.335 11.6967 28.9613 11.6967 30.8583C11.6967 32.7462 12.8608 34.3656 14.5154 35.0492C15.0592 35.2762 15.654 35.4001 16.2788 35.4001C18.8105 35.4001 20.8608 33.3655 20.8608 30.8583C20.8608 28.3489 18.8105 26.3165 16.2788 26.3165ZM17.5724 27.0597C17.6233 26.8969 17.7992 26.8074 17.9635 26.8579L18.6624 27.2387C18.7596 27.3189 18.7989 27.4497 18.7595 27.5713C18.7063 27.7341 18.5305 27.8236 18.3661 27.7731L17.6696 27.3923C17.5724 27.3121 17.5331 27.1813 17.5724 27.0597ZM14.6172 26.8487L15.3832 26.6285C15.5082 26.617 15.6308 26.6836 15.6887 26.7937C15.7673 26.9473 15.7072 27.1331 15.5544 27.2134L15.1749 27.3235L14.7908 27.4336C14.6635 27.4451 14.5432 27.3786 14.483 27.2662C14.4043 27.1148 14.4645 26.9267 14.6172 26.8487ZM12.2452 29.1861L12.627 28.4957C12.708 28.3993 12.8422 28.3603 12.9626 28.3993C13.1269 28.4498 13.2195 28.6241 13.1662 28.7893L12.7821 29.4797C12.7011 29.5761 12.5692 29.6151 12.4488 29.5761C12.2822 29.5256 12.192 29.349 12.2452 29.1861ZM12.6548 32.6361C12.5021 32.7163 12.3146 32.6567 12.2336 32.503L12.0115 31.746C11.9999 31.6199 12.067 31.5006 12.1804 31.4433C12.3331 31.3653 12.5229 31.4249 12.6016 31.5763L12.8237 32.3333C12.8353 32.4594 12.7682 32.5787 12.6548 32.6361ZM14.9875 34.6546C14.9342 34.8175 14.7584 34.9092 14.5941 34.8565L13.8952 34.478C13.798 34.3954 13.7587 34.2647 13.798 34.1454C13.8512 33.9825 14.0271 33.8908 14.1914 33.9435L14.4992 34.111L14.888 34.322C14.9875 34.4046 15.0245 34.5353 14.9875 34.6546ZM17.9403 34.8657L17.1767 35.0882C17.0494 35.0996 16.9267 35.0331 16.8689 34.9207C16.7902 34.7693 16.8504 34.5812 17.0031 34.5032L17.7668 34.283C17.8941 34.2716 18.0144 34.3358 18.0746 34.4482C18.1532 34.6019 18.0931 34.7877 17.9403 34.8657ZM20.3124 32.5282L19.9305 33.221C19.8495 33.3173 19.7153 33.354 19.595 33.3173C19.4307 33.2646 19.3404 33.0902 19.3913 32.9274L19.7755 32.2346C19.8565 32.1383 19.9884 32.1016 20.111 32.1383C20.2753 32.191 20.3656 32.3654 20.3124 32.5282ZM19.9027 29.0783C20.0555 29.0003 20.2452 29.06 20.3239 29.2113L20.5461 29.9683C20.5576 30.0945 20.4905 30.2138 20.3771 30.2734C20.2244 30.3514 20.0347 30.2918 19.956 30.1381L19.7338 29.3811C19.7222 29.2572 19.7893 29.1357 19.9027 29.0783ZM16.2788 34.2303C15.691 34.2303 15.1379 34.0835 14.6566 33.8243C13.5967 33.2531 12.877 32.1383 12.877 30.8583C12.877 29.3444 13.8813 28.0644 15.2675 27.6355C15.5868 27.5369 15.927 27.4841 16.2788 27.4841C18.1579 27.4841 19.6806 28.9957 19.6806 30.8583C19.6806 32.7209 18.1579 34.2303 16.2788 34.2303Z"/>
    </mask>
    <path d="M99.6903 27.7272C99.6857 27.4474 99.6787 27.1331 99.6509 26.89C99.637 26.7638 99.6162 26.656 99.5676 26.5643C99.4889 26.4198 99.3362 26.3188 99.1835 26.2317C98.8248 26.0252 98.4614 25.8853 98.0889 25.7523C97.3021 25.4724 96.4805 25.227 95.6474 25.0802C95.2702 25.0137 94.893 24.9678 94.5135 24.9219C94.4117 24.7338 94.3099 24.5457 94.1895 24.3737C94.0507 24.1741 93.8887 23.9929 93.7244 23.8094C93.6966 23.2474 93.6665 22.6854 93.4837 22.1624C93.3842 21.8826 93.2407 21.6119 93.0672 21.3687C92.97 21.2357 92.8635 21.1073 92.7571 20.9811C92.6876 20.754 92.6182 20.5292 92.5349 20.3067C92.403 19.9603 92.2341 19.6231 92.042 19.3066C91.9379 19.1323 91.8244 18.9648 91.7134 18.7974C91.7365 18.7584 91.7597 18.7194 91.7828 18.6804C92.0327 18.6551 92.2803 18.6322 92.5233 18.6001C92.7409 18.5703 92.9514 18.5359 93.1644 18.4349C93.2153 18.4097 93.2685 18.3822 93.2893 18.334C93.3009 18.3111 93.3032 18.2858 93.3032 18.2583C93.3032 18.1895 93.2777 18.1253 93.2477 18.061C93.1829 17.9119 93.1134 17.756 92.9931 17.655C92.9052 17.5793 92.7871 17.5312 92.6691 17.4922C92.4215 17.4119 92.1739 17.3706 91.9216 17.327C91.6833 17.2834 91.4426 17.2421 91.1996 17.2284C90.9775 17.2169 90.7553 17.2307 90.5355 17.2444C90.3573 17.0724 90.1791 16.9027 90.0055 16.7283C88.9873 15.7122 88.0963 14.579 87.1198 13.5261C86.3052 12.6476 85.4304 11.8264 84.5349 11.0259C81.9731 8.74121 79.2239 6.63777 76.2131 4.99539C75.5282 4.62149 74.827 4.27283 74.1165 3.9471C72.9247 3.39658 71.7005 2.91259 70.4486 2.51575C68.2247 1.81155 65.9175 1.3803 63.594 1.08439C59.2388 0.531578 54.8234 0.451298 50.4681 0.772434C48.3137 0.933002 46.1754 1.18991 44.0163 1.51334C42.7574 1.70143 41.4938 1.91476 40.3368 2.40564C39.9989 2.55015 39.6703 2.7199 39.3417 2.88735C37.1779 5.33946 35.4377 8.10352 34.1672 11.1084C33.0078 11.0786 31.8484 11.0511 30.6914 11.0763C28.8771 11.1176 27.0651 11.2942 25.2577 11.503C23.9433 11.6521 22.6311 11.8195 21.3329 12.0627C19.3983 12.4251 17.4914 12.9596 15.6424 13.65C14.2053 14.1891 12.8029 14.8245 11.5 15.6319C10.6646 16.1526 9.87318 16.7444 9.16505 17.4211C8.81561 17.7583 8.487 18.1138 8.15839 18.4693C7.76267 18.6024 7.36464 18.7331 7.07074 19.0015C6.999 19.0657 6.93652 19.1368 6.87172 19.208C6.6241 19.2722 6.37649 19.3341 6.12425 19.4006C5.99466 19.4351 5.86044 19.4695 5.74936 19.5406C5.67993 19.5864 5.61745 19.6484 5.56422 19.7149C5.32818 20.0062 5.26107 20.3939 5.20321 20.7724C5.12453 21.2862 5.06205 21.7793 4.99957 22.2725C4.89543 22.4744 4.7913 22.6739 4.72419 22.8896C4.66865 23.0685 4.63625 23.2566 4.63162 23.4424C4.62699 23.6305 4.64782 23.8163 4.67096 24.0021C4.41177 23.97 4.1549 23.9631 3.89803 23.9654C3.24081 23.9768 2.5859 24.0778 1.96108 24.3599C1.43114 24.6008 0.924337 24.9724 0.727634 25.4908C0.609612 25.8073 0.607296 26.1789 0.621181 26.5138C0.628124 26.7042 0.639694 26.8831 0.667464 27.0735C0.697548 27.2731 0.746148 27.4887 0.854913 27.6515C0.94748 27.7869 1.07939 27.8878 1.22055 27.9796C1.49362 28.1539 1.80603 28.2892 2.1277 28.3833C2.6021 28.5186 3.09502 28.5645 3.59025 28.6081C3.53239 28.748 3.47454 28.8879 3.43057 29.0439C3.37734 29.2274 3.34263 29.4339 3.42131 29.5898C3.4838 29.716 3.62033 29.81 3.75455 29.8812C3.85175 29.9293 3.95125 29.9683 4.04845 30.005C4.46962 30.1381 4.907 30.3766 5.25644 30.4913C6.39501 30.8606 6.59865 29.8995 6.77221 29.1815C7.02908 28.1195 7.22347 27.5804 7.48729 27.0162C7.85061 26.2386 8.34584 25.4128 9.01695 24.642C9.88939 23.6419 11.0627 22.7359 12.3586 22.1624C13.4578 21.6738 14.645 21.4261 15.765 21.3596C17.0332 21.2816 18.2134 21.4353 19.3913 21.8482C20.5854 22.2679 21.7772 22.9538 22.7445 23.8071C23.5892 24.5526 24.2649 25.4265 24.7856 26.4152C25.3271 27.4474 25.7043 28.6035 25.9774 30.0853C26.1001 30.7528 26.2042 31.4891 26.5444 31.9938C26.7503 32.2966 27.0419 32.5168 27.3682 32.6315C27.6343 32.7255 27.9259 32.7461 28.2129 32.7553C28.8146 32.7714 29.4047 32.7232 29.9971 32.6911C32.0289 32.5741 34.0816 32.6246 36.0949 32.6544C40.1609 32.714 44.0626 32.6911 48.1517 32.7347C54.5272 32.8035 61.3632 33.0283 67.4703 32.9641C67.6184 32.9641 67.7665 32.9618 67.9261 32.9595C68.3149 32.9526 68.7616 32.9457 69.0462 32.8517C69.236 32.7874 69.354 32.6865 69.4674 32.5581C69.5576 32.4548 69.6456 32.331 69.7243 32.1612C69.9325 31.7048 70.0667 30.9111 70.2079 30.2C70.4347 29.0737 70.6777 28.1539 71.0294 27.3098C71.6543 25.7958 72.6169 24.5136 73.8087 23.5571C74.7784 22.7772 75.9007 22.2129 77.2036 21.8849C78.2982 21.6119 79.5201 21.5018 80.6656 21.6073C82.0356 21.7312 83.2968 22.1624 84.4654 22.8299C85.5207 23.4332 86.4996 24.2315 87.2679 25.1375C88.0339 26.0413 88.5893 27.0552 89.1261 28.3535C89.5103 29.2825 89.8852 30.3606 90.5262 30.9937C91.1973 31.6566 92.1577 31.8332 93.081 31.8974C93.7475 31.9433 94.3932 31.9318 95.0573 31.9158C95.6382 31.8997 96.2329 31.8837 96.5152 31.8768C96.5962 31.8745 96.6495 31.8722 96.705 31.8676C97.346 31.8171 97.7348 31.2987 96.9711 30.4202C96.9133 30.3537 96.8577 30.2872 96.8045 30.2183C96.6726 30.0394 96.5708 29.8399 96.469 29.6426C96.8971 29.5646 97.3229 29.4889 97.7579 29.4109C98.3064 29.31 98.8641 29.2045 99.2645 29.0118C99.3686 28.9613 99.4635 28.904 99.5306 28.8191C99.6949 28.6081 99.6972 28.2204 99.6903 27.7272ZM56.4456 11.0396C56.4433 11.5764 56.441 12.1108 56.3947 12.6522C56.3831 12.7944 56.3692 12.9366 56.316 13.0674C56.242 13.2555 56.0915 13.4229 55.9134 13.5284C55.7467 13.6248 55.5547 13.6707 55.3649 13.6959C55.1381 13.7234 54.9136 13.7188 54.6868 13.7165C54.1384 13.7096 53.5876 13.7028 53.0369 13.6982C52.2477 13.689 51.4586 13.6798 50.6695 13.6706C49.2 13.6546 47.7328 13.6339 46.2633 13.6156C45.2219 13.6018 44.1829 13.5904 43.1485 13.5789C42.9078 13.5743 42.6648 13.572 42.4473 13.5789C42.3964 13.5812 42.3478 13.5812 41.5262 13.5605C40.987 13.5468 40.4478 13.556 39.9248 13.556C39.1565 13.5582 38.4253 13.5422 37.6593 13.5078C37.3492 13.494 37.0368 13.478 36.7452 13.3747C36.5601 13.3082 36.3819 13.2096 36.2407 13.0674C36.1018 12.9297 35.9931 12.7554 35.9445 12.5742C35.8218 12.1063 36.0949 11.6085 36.3703 11.1543C36.8216 10.4042 37.2774 9.77802 37.7032 9.09446C38.0388 8.55541 38.3535 7.97965 38.7654 7.4773C39.0385 7.1424 39.3556 6.83962 39.7189 6.61024C40.0429 6.40609 40.4039 6.26157 40.7718 6.13541C41.2948 5.9542 41.8271 5.81428 42.3663 5.69041C42.5746 5.64224 42.7828 5.59865 43.6645 5.47479C44.3842 5.40827 44.7452 5.35552 45.1155 5.30964C47.6935 4.98621 50.5792 4.96785 53.3932 4.91968C53.8792 4.91051 54.3629 4.90133 54.8674 4.88986C55.1312 4.88528 55.4042 4.8784 55.6357 4.97703C55.8439 5.0619 56.0221 5.23164 56.1448 5.42661C56.2281 5.55736 56.2859 5.70188 56.3276 5.85098C56.4294 6.21799 56.4294 6.60794 56.434 6.9933C56.4387 7.43601 56.4502 7.87184 56.4549 8.30996C56.4664 9.21602 56.4526 10.1313 56.4456 11.0396ZM75.6901 13.1935C75.4634 13.5216 75.1255 13.7762 74.7552 13.9253C74.3526 14.0858 73.9152 14.1248 73.4778 14.1432C72.2143 14.2005 70.9693 14.1065 69.7196 14.0514C68.102 13.9826 66.4729 13.9803 64.8506 13.9551C63.6056 13.9367 62.3629 13.9046 61.1179 13.8633C60.7985 13.8519 60.4815 13.8427 60.1645 13.8289C60.0187 13.822 59.8706 13.8175 59.7225 13.8037C59.579 13.7899 59.4332 13.7716 59.299 13.7211C59.211 13.6867 59.1277 13.6408 59.0514 13.5858C58.9449 13.5124 58.85 13.4229 58.7737 13.322C58.6695 13.1844 58.5978 13.0215 58.5561 12.854C58.5029 12.6407 58.496 12.4228 58.489 12.2026C58.4751 11.6681 58.4728 11.1291 58.4705 10.5969C58.4682 9.63121 58.4751 8.68386 58.4774 7.70898C58.4798 7.3649 58.4798 7.01854 58.4774 6.67217C58.4728 6.39921 58.4682 6.12853 58.5237 5.86474C58.577 5.62389 58.6788 5.38991 58.8361 5.19723C58.9287 5.08483 59.0375 4.98621 59.1647 4.92198C59.292 4.86005 59.4355 4.83481 59.5767 4.82563C59.66 4.81875 59.7456 4.81646 59.8289 4.81646C60.7615 4.85316 61.6941 4.88986 62.6244 4.97244C64.2027 5.11007 65.774 5.38075 67.3129 5.7684C68.3195 6.02073 69.31 6.3235 70.2773 6.68822C71.004 6.96348 71.7167 7.27545 72.411 7.6287C72.9803 7.92002 73.5357 8.24114 74.0425 8.62421C74.3086 8.82607 74.5608 9.044 74.7992 9.28026C75.1139 9.58763 75.4078 9.92482 75.6045 10.3102C75.7364 10.5671 75.8244 10.8447 75.8984 11.1268C75.9864 11.4663 76.0488 11.8126 76.0303 12.1613C76.0095 12.5237 75.8984 12.8908 75.6901 13.1935ZM79.9204 22.2748C75.1162 22.2748 71.2192 26.1353 71.2192 30.8996C71.2192 35.6616 75.1162 39.5221 79.9204 39.5221C84.7246 39.5221 88.6217 35.6616 88.6217 30.8996C88.6217 26.1353 84.7246 22.2748 79.9204 22.2748ZM79.9204 37.0608C76.4885 37.0608 73.7046 34.3014 73.7046 30.8996C73.7046 27.4956 76.4885 24.7361 79.9204 24.7361C83.3546 24.7361 86.1363 27.4956 86.1363 30.8996C86.1363 34.3014 83.3546 37.0608 79.9204 37.0608ZM79.9204 25.1811C76.7338 25.1811 74.1512 27.741 74.1512 30.8996C74.1512 34.0559 76.7338 36.6181 79.9204 36.6181C83.107 36.6181 85.6896 34.0559 85.6896 30.8996C85.6896 27.741 83.107 25.1811 79.9204 25.1811ZM79.9204 36.4002C76.8565 36.4002 74.3711 33.9367 74.3711 30.8996C74.3711 27.8603 76.8565 25.3967 79.9204 25.3967C82.9867 25.3967 85.4698 27.8603 85.4698 30.8996C85.4698 33.9367 82.9867 36.4002 79.9204 36.4002ZM79.9204 26.3578C79.3049 26.3578 78.7171 26.4794 78.1802 26.6973C76.514 27.3763 75.3384 29.0003 75.3384 30.8996C75.3384 31.5098 75.461 32.0924 75.6809 32.6223C76.3659 34.2761 78.0066 35.4391 79.9204 35.4391C80.536 35.4391 81.1215 35.3198 81.6583 35.1019C83.3269 34.4229 84.5025 32.7966 84.5025 30.8996C84.5025 28.3902 82.4498 26.3578 79.9204 26.3578ZM81.214 27.101C81.2649 26.9382 81.4408 26.8487 81.6051 26.8992L82.304 27.2799C82.4012 27.3602 82.4405 27.491 82.4012 27.6126C82.348 27.7754 82.1721 27.8649 82.0078 27.8121L81.3112 27.4336C81.214 27.3533 81.1747 27.2203 81.214 27.101ZM78.2589 26.89L79.0249 26.6698C79.1498 26.6583 79.2725 26.7225 79.3303 26.8349C79.409 26.9886 79.3488 27.1744 79.1961 27.2524L78.8166 27.3625L78.4324 27.4749C78.3051 27.4864 78.1848 27.4199 78.1246 27.3075C78.046 27.1561 78.1061 26.968 78.2589 26.89ZM75.8868 29.2274L76.2687 28.537C76.3497 28.4406 76.4839 28.4016 76.6042 28.4406C76.7685 28.4911 76.8611 28.6654 76.8079 28.8283L76.4237 29.521C76.3427 29.6174 76.2108 29.6564 76.0905 29.6174C75.9239 29.5646 75.8336 29.3903 75.8868 29.2274ZM76.2965 32.6773C76.1437 32.7576 75.9563 32.698 75.8753 32.5443L75.6531 31.7873C75.6416 31.6612 75.7087 31.5419 75.8221 31.4845C75.9748 31.4043 76.1646 31.4662 76.2432 31.6176L76.308 31.8355L76.4654 32.3746C76.477 32.5007 76.4098 32.62 76.2965 32.6773ZM78.6268 34.6959C78.5759 34.8588 78.4 34.9505 78.2357 34.8978L77.5368 34.517C77.4396 34.4367 77.4003 34.306 77.4396 34.1844C77.4929 34.0215 77.6687 33.9321 77.8331 33.9848L78.5296 34.3633C78.6291 34.4436 78.6662 34.5766 78.6268 34.6959ZM81.582 34.9069L80.816 35.1271C80.691 35.1386 80.5684 35.0744 80.5105 34.962C80.4319 34.8083 80.492 34.6225 80.6448 34.5445L81.0243 34.4344L81.4084 34.3243C81.5357 34.3128 81.656 34.3771 81.7162 34.4895C81.7949 34.6409 81.7347 34.8289 81.582 34.9069ZM83.954 32.5695L83.5722 33.26C83.4912 33.3586 83.3569 33.3953 83.2366 33.3586C83.0723 33.3058 82.982 33.1315 83.033 32.9686L83.4171 32.2759C83.4981 32.1796 83.63 32.1406 83.7527 32.1796C83.917 32.2323 84.0072 32.4067 83.954 32.5695ZM83.5444 29.1196C83.6971 29.0416 83.8869 29.1013 83.9656 29.2527L84.1877 30.0096C84.1993 30.1358 84.1322 30.2551 84.0188 30.3124C83.8661 30.3927 83.6763 30.333 83.5976 30.1794L83.3755 29.4224C83.3639 29.2962 83.431 29.177 83.5444 29.1196ZM80.9317 34.1202C80.6124 34.2188 80.2722 34.2715 79.9204 34.2715C78.3352 34.2715 77.0023 33.198 76.6251 31.7437C76.5556 31.4731 76.5186 31.1909 76.5186 30.8996C76.5186 29.3857 77.523 28.1057 78.9091 27.6768C79.2285 27.5781 79.5687 27.5254 79.9204 27.5254C81.7995 27.5254 83.3222 29.037 83.3222 30.8996C83.3222 32.4135 82.3179 33.6935 80.9317 34.1202ZM16.2788 22.2335C11.4746 22.2335 7.57754 26.094 7.57754 30.8583C7.57754 35.6203 11.4746 39.4808 16.2788 39.4808C21.083 39.4808 24.98 35.6203 24.98 30.8583C24.98 26.094 21.083 22.2335 16.2788 22.2335ZM16.2788 37.0196C12.8469 37.0196 10.0629 34.2601 10.0629 30.8583C10.0629 27.4543 12.8469 24.6971 16.2788 24.6971C19.713 24.6971 22.4946 27.4543 22.4946 30.8583C22.4946 34.2601 19.713 37.0196 16.2788 37.0196ZM16.2788 25.1398C13.0922 25.1398 10.5096 27.6997 10.5096 30.8583C10.5096 34.0169 13.0922 36.5769 16.2788 36.5769C19.4654 36.5769 22.048 34.0169 22.048 30.8583C22.048 27.6997 19.4654 25.1398 16.2788 25.1398ZM16.2788 36.1685C13.319 36.1685 10.9215 33.7898 10.9215 30.8583C10.9215 27.9245 13.319 25.5481 16.2788 25.5481C19.2386 25.5481 21.6361 27.9245 21.6361 30.8583C21.6361 33.7898 19.2386 36.1685 16.2788 36.1685ZM16.2788 26.3165C15.6632 26.3165 15.0754 26.4381 14.5385 26.6583C12.87 27.335 11.6967 28.9613 11.6967 30.8583C11.6967 32.7462 12.8608 34.3656 14.5154 35.0492C15.0592 35.2762 15.654 35.4001 16.2788 35.4001C18.8105 35.4001 20.8608 33.3655 20.8608 30.8583C20.8608 28.3489 18.8105 26.3165 16.2788 26.3165ZM17.5724 27.0597C17.6233 26.8969 17.7992 26.8074 17.9635 26.8579L18.6624 27.2387C18.7596 27.3189 18.7989 27.4497 18.7595 27.5713C18.7063 27.7341 18.5305 27.8236 18.3661 27.7731L17.6696 27.3923C17.5724 27.3121 17.5331 27.1813 17.5724 27.0597ZM14.6172 26.8487L15.3832 26.6285C15.5082 26.617 15.6308 26.6836 15.6887 26.7937C15.7673 26.9473 15.7072 27.1331 15.5544 27.2134L15.1749 27.3235L14.7908 27.4336C14.6635 27.4451 14.5432 27.3786 14.483 27.2662C14.4043 27.1148 14.4645 26.9267 14.6172 26.8487ZM12.2452 29.1861L12.627 28.4957C12.708 28.3993 12.8422 28.3603 12.9626 28.3993C13.1269 28.4498 13.2195 28.6241 13.1662 28.7893L12.7821 29.4797C12.7011 29.5761 12.5692 29.6151 12.4488 29.5761C12.2822 29.5256 12.192 29.349 12.2452 29.1861ZM12.6548 32.6361C12.5021 32.7163 12.3146 32.6567 12.2336 32.503L12.0115 31.746C11.9999 31.6199 12.067 31.5006 12.1804 31.4433C12.3331 31.3653 12.5229 31.4249 12.6016 31.5763L12.8237 32.3333C12.8353 32.4594 12.7682 32.5787 12.6548 32.6361ZM14.9875 34.6546C14.9342 34.8175 14.7584 34.9092 14.5941 34.8565L13.8952 34.478C13.798 34.3954 13.7587 34.2647 13.798 34.1454C13.8512 33.9825 14.0271 33.8908 14.1914 33.9435L14.4992 34.111L14.888 34.322C14.9875 34.4046 15.0245 34.5353 14.9875 34.6546ZM17.9403 34.8657L17.1767 35.0882C17.0494 35.0996 16.9267 35.0331 16.8689 34.9207C16.7902 34.7693 16.8504 34.5812 17.0031 34.5032L17.7668 34.283C17.8941 34.2716 18.0144 34.3358 18.0746 34.4482C18.1532 34.6019 18.0931 34.7877 17.9403 34.8657ZM20.3124 32.5282L19.9305 33.221C19.8495 33.3173 19.7153 33.354 19.595 33.3173C19.4307 33.2646 19.3404 33.0902 19.3913 32.9274L19.7755 32.2346C19.8565 32.1383 19.9884 32.1016 20.111 32.1383C20.2753 32.191 20.3656 32.3654 20.3124 32.5282ZM19.9027 29.0783C20.0555 29.0003 20.2452 29.06 20.3239 29.2113L20.5461 29.9683C20.5576 30.0945 20.4905 30.2138 20.3771 30.2734C20.2244 30.3514 20.0347 30.2918 19.956 30.1381L19.7338 29.3811C19.7222 29.2572 19.7893 29.1357 19.9027 29.0783ZM16.2788 34.2303C15.691 34.2303 15.1379 34.0835 14.6566 33.8243C13.5967 33.2531 12.877 32.1383 12.877 30.8583C12.877 29.3444 13.8813 28.0644 15.2675 27.6355C15.5868 27.5369 15.927 27.4841 16.2788 27.4841C18.1579 27.4841 19.6806 28.9957 19.6806 30.8583C19.6806 32.7209 18.1579 34.2303 16.2788 34.2303Z"
          stroke="url(#paint0_linear)" stroke-width="2" mask="url(#path-1-inside-1)"/>
    <defs>
        <linearGradient id="paint0_linear" x1="66.5" y1="2.5" x2="15.5" y2="36" gradientUnits="userSpaceOnUse">
            <stop stop-color="#0ACFCF"/>
            <stop offset="1" stop-color="#743498" stop-opacity="0.6"/>
        </linearGradient>
    </defs>
</svg>