<svg xmlns="http://www.w3.org/2000/svg" width="24" height="18" viewBox="0 0 24 18" fill="none">
    <path fill-rule="evenodd" clip-rule="evenodd" d="M2.57441 9.7085C2.39492 9.4305 2.25003 9.1898 2.14074 9.001C2.25003 8.8121 2.39492 8.5714 2.57441 8.2935C3.03543 7.5797 3.71817 6.63038 4.60454 5.68492C6.39552 3.77454 8.89951 2.00098 12 2.00098C15.1005 2.00098 17.6045 3.77454 19.3955 5.68492C20.2818 6.63038 20.9646 7.5797 21.4256 8.2935C21.6051 8.5714 21.75 8.8121 21.8593 9.001C21.75 9.1898 21.6051 9.4305 21.4256 9.7085C20.9646 10.4223 20.2818 11.3716 19.3955 12.317C17.6045 14.2274 15.1005 16.001 12 16.001C8.89951 16.001 6.39552 14.2274 4.60454 12.317C3.71817 11.3716 3.03543 10.4223 2.57441 9.7085ZM23.8941 8.5531C23.8943 8.5534 23.8944 8.5538 23 9.001C23.8944 9.4482 23.8943 9.4485 23.8941 9.4489L23.8936 9.4498L23.8925 9.4521L23.889 9.4589L23.8777 9.4812C23.8681 9.4997 23.8546 9.5257 23.8372 9.5585C23.8025 9.6243 23.752 9.7177 23.686 9.835C23.5542 10.0693 23.3601 10.3995 23.1057 10.7935C22.5979 11.5797 21.8432 12.6304 20.8545 13.6849C18.8955 15.7745 15.8995 18.001 12 18.001C8.10049 18.001 5.10448 15.7745 3.14546 13.6849C2.15683 12.6304 1.40207 11.5797 0.894336 10.7935C0.63985 10.3995 0.445792 10.0693 0.313971 9.835C0.248023 9.7177 0.19754 9.6243 0.162753 9.5585C0.145357 9.5257 0.131875 9.4997 0.122338 9.4812L0.11099 9.4589L0.107539 9.4521L0.10637 9.4498L0.105925 9.4489C0.105741 9.4485 0.105573 9.4482 1 9.001C0.105573 8.5538 0.105741 8.5534 0.105925 8.5531L0.10637 8.5522L0.107539 8.5498L0.11099 8.543L0.122338 8.5208C0.131875 8.5023 0.145357 8.4763 0.162753 8.4434C0.19754 8.3777 0.248023 8.2842 0.313971 8.167C0.445792 7.9326 0.63985 7.6025 0.894336 7.2085C1.40207 6.42229 2.15683 5.37157 3.14546 4.31704C5.10448 2.22742 8.10049 0.000976562 12 0.000976562C15.8995 0.000976562 18.8955 2.22742 20.8545 4.31704C21.8432 5.37157 22.5979 6.42229 23.1057 7.2085C23.3601 7.6025 23.5542 7.9326 23.686 8.167C23.752 8.2842 23.8025 8.3777 23.8372 8.4434C23.8546 8.4763 23.8681 8.5023 23.8777 8.5208L23.889 8.543L23.8925 8.5498L23.8936 8.5522L23.8941 8.5531ZM23 9.001L23.8944 8.5538C24.0352 8.8353 24.0352 9.1667 23.8944 9.4482L23 9.001ZM0.105573 8.5538L1 9.001L0.105573 9.4482C-0.035191 9.1667 -0.035191 8.8353 0.105573 8.5538ZM10 9.001C10 7.8964 10.8954 7.001 12 7.001C13.1046 7.001 14 7.8964 14 9.001C14 10.1055 13.1046 11.001 12 11.001C10.8954 11.001 10 10.1055 10 9.001ZM12 5.00098C9.79086 5.00098 8 6.79184 8 9.001C8 11.2101 9.79086 13.001 12 13.001C14.2091 13.001 16 11.2101 16 9.001C16 6.79184 14.2091 5.00098 12 5.00098Z" fill="url(#paint0_linear)"/>
    <defs>
        <linearGradient id="paint0_linear" x1="12" y1="0.5" x2="13" y2="16" gradientUnits="userSpaceOnUse">
            <stop stop-color="#0ACFCF"/>
            <stop offset="1" stop-color="#743498"/>
        </linearGradient>
    </defs>
</svg>