<svg viewBox="0 0 24 25" fill="none" xmlns="http://www.w3.org/2000/svg">
<path fill-rule="evenodd" clip-rule="evenodd" d="M7.5 3.00269C7.10218 3.00269 6.72064 3.16072 6.43934 3.44203C6.15804 3.72333 6 4.10486 6 4.50269C6 4.90051 6.15804 5.28204 6.43934 5.56335C6.72064 5.84465 7.10218 6.00269 7.5 6.00269H10.654C10.5319 5.6833 10.3774 5.3321 10.1863 4.9846C9.55732 3.84103 8.6939 3.00269 7.5 3.00269ZM4 4.50269C4 5.02653 4.11743 5.53826 4.33772 6.00269H2C1.44772 6.00269 1 6.4504 1 7.00269V12.0027C1 12.555 1.44772 13.0027 2 13.0027H3V22.0027C3 22.555 3.44772 23.0027 4 23.0027H20C20.5523 23.0027 21 22.555 21 22.0027V13.0027H22C22.5523 13.0027 23 12.555 23 12.0027V7.00269C23 6.4504 22.5523 6.00269 22 6.00269H19.6623C19.8826 5.53826 20 5.02653 20 4.50269C20 3.57443 19.6313 2.68419 18.9749 2.02781C18.3185 1.37143 17.4283 1.00269 16.5 1.00269C14.1939 1.00269 12.8073 2.66434 12.0613 4.02077C12.0405 4.05858 12.0201 4.09637 12 4.1341C11.9799 4.09637 11.9595 4.05858 11.9387 4.02077C11.1927 2.66434 9.8061 1.00269 7.5 1.00269C6.57174 1.00269 5.6815 1.37143 5.02513 2.02781C4.36875 2.68419 4 3.57443 4 4.50269ZM13.346 6.00269H16.5C16.8978 6.00269 17.2794 5.84465 17.5607 5.56335C17.842 5.28204 18 4.90051 18 4.50269C18 4.10486 17.842 3.72333 17.5607 3.44203C17.2794 3.16072 16.8978 3.00269 16.5 3.00269C15.3061 3.00269 14.4427 3.84103 13.8137 4.9846C13.6226 5.3321 13.4681 5.6833 13.346 6.00269ZM13 8.00269V11.0027H21V8.00269H16.5H13ZM7.5 8.00269H11V11.0027H3V8.00269H7.5ZM13 13.0027H19V21.0027H13V13.0027ZM11 13.0027V21.0027H5V13.0027H11Z" fill="#ffffff"/>
</svg>
