<svg viewBox="0 0 24 24" fill="none" xmlns="http://www.w3.org/2000/svg">
<path fill-rule="evenodd" clip-rule="evenodd" d="M9.37657 3.38835C5.99312 4.41775 3.45438 7.3865 3.05493 11H6.03929C6.27397 8.04893 7.54252 5.62345 9.37657 3.38835ZM6.03929 13H3.05493C3.45438 16.6135 5.99312 19.5822 9.37657 20.6116C7.54252 18.3765 6.27397 15.9511 6.03929 13ZM12.001 23C18.0757 22.9994 23 18.0748 23 12C23 5.92587 18.0768 1.00162 12.003 1C12.002 1 12.001 1 12 1C5.92487 1 1 5.92487 1 12C1 18.0741 5.92325 22.9984 11.997 23M14.6234 3.38835C16.4575 5.62345 17.726 8.04893 17.9607 11H20.9451C20.5456 7.3865 18.0069 4.41775 14.6234 3.38835ZM17.9607 13H20.9451C20.5456 16.6135 18.0069 19.5822 14.6234 20.6116C16.4575 18.3765 17.726 15.9511 17.9607 13ZM15.9529 11C15.7241 8.60612 14.67 6.57343 13 4.56309V11H15.9529ZM13 13H15.9529C15.7241 15.3939 14.67 17.4266 13 19.4369V13ZM11 13V19.4369C9.33002 17.4266 8.27594 15.3939 8.04707 13H11ZM11 11H8.04707C8.27594 8.60612 9.33002 6.57343 11 4.56309V11Z" fill="#188ED6"/>
</svg>
