<?xml version="1.0" encoding="UTF-8"?> <svg xmlns="http://www.w3.org/2000/svg" viewBox="0 0 98.78 63.2"><defs><style>.cls-1,.cls-3{fill:#3c4043}.cls-1{fill-rule:evenodd}</style></defs><g id="Слой_2" data-name="Слой 2"><g id="Слой_1-2" data-name="Слой 1"><g id="border"><path id="Fill-1" class="cls-1" d="M89.93 0H7a11.58 11.58 0 00-1.88.18 6.07 6.07 0 00-1.76.58 5.82 5.82 0 00-1.51 1.09 5.94 5.94 0 00-1.09 1.5 6.23 6.23 0 00-.58 1.77A12.86 12.86 0 000 7V56.22a12.86 12.86 0 00.17 1.86 6.07 6.07 0 00.58 1.76 5.84 5.84 0 002.6 2.6 6.07 6.07 0 001.77.56 12.86 12.86 0 001.88.19h84.8a13 13 0 001.86-.19 6.07 6.07 0 001.76-.58 6 6 0 001.51-1.09A5.82 5.82 0 0098 59.84a6.07 6.07 0 00.58-1.76 11.58 11.58 0 00.16-1.86V7.83v-.85a11.58 11.58 0 00-.16-1.86A6.23 6.23 0 0098 3.35 5.88 5.88 0 0095.42.76a6.07 6.07 0 00-1.76-.58A11.68 11.68 0 0091.8 0H90"></path><path id="wihit-fill" d="M89.93 2.11h1.81a10.33 10.33 0 011.54.13 4 4 0 011.19.39 4.13 4.13 0 011 .7 3.93 3.93 0 01.7 1 4.2 4.2 0 01.39 1.18A10.49 10.49 0 0196.65 7v49.17a9.24 9.24 0 01-.13 1.54 3.9 3.9 0 01-1.08 2.15 4.13 4.13 0 01-1 .7 4.31 4.31 0 01-1.18.39 11 11 0 01-1.54.13H7A11 11 0 015.49 61a4.31 4.31 0 01-1.18-.39 3.91 3.91 0 01-2.06-2.85 10.55 10.55 0 01-.13-1.54V7.84v-.81a10.55 10.55 0 01.13-1.54 4 4 0 01.39-1.18 3.75 3.75 0 011.67-1.67 4 4 0 011.18-.39A10.57 10.57 0 017 2.12h82.93" fill="#fffffe" fill-rule="evenodd"></path></g><g id="GPay-logo"><g id="Pay"><path id="Shape" class="cls-3" d="M47.56 33.06v9h-2.82V19.83h7.47A6.68 6.68 0 0157 21.76a6.49 6.49 0 01.32 9.08l-.32.32a6.7 6.7 0 01-4.82 1.9zm0-10.5v7.77h4.72a3.68 3.68 0 002.78-1.15 4 4 0 00-.06-5.52 3.81 3.81 0 00-2.69-1.1z"></path><path id="Shape1" class="cls-3" d="M65.54 26.36A7 7 0 0170.47 28a6 6 0 011.8 4.65v9.38h-2.69V40h-.12a5.37 5.37 0 01-4.65 2.6 6 6 0 01-4.14-1.49A4.68 4.68 0 0159 37.35a4.57 4.57 0 011.76-3.76 7.31 7.31 0 014.7-1.4 8.44 8.44 0 014.13.92v-.65a3.37 3.37 0 00-1.15-2.54 4.12 4.12 0 00-2.72-1.05 4.27 4.27 0 00-3.72 2l-2.48-1.58a6.78 6.78 0 016-3zm-3.63 11a2.31 2.31 0 00.92 1.86A3.39 3.39 0 0065 40a4.43 4.43 0 003.16-1.33 4.2 4.2 0 001.4-3.14 5.61 5.61 0 00-3.67-1 4.83 4.83 0 00-2.87.84 2.49 2.49 0 00-1.11 2.03z"></path><path id="Path" class="cls-1" d="M87.73 26.85l-9.41 21.9h-2.9l3.49-7.66-6.17-14.24h3.06l4.46 10.93h.06l4.35-10.93z"></path></g><g id="Super-G" fill-rule="evenodd"><path id="Path1" d="M36.18 31.11a16 16 0 00-.18-2.59H24.1v4.91h6.8a5.89 5.89 0 01-2.52 3.88v3.19h4.06a12.55 12.55 0 003.74-9.39z" fill="#4285f4"></path><path id="Path2" d="M24.1 43.59a11.91 11.91 0 008.34-3.09l-4.06-3.19a7.41 7.41 0 01-4.28 1.23 7.53 7.53 0 01-7.1-5.27h-4.14v3.3a12.55 12.55 0 0011.24 7.02z" fill="#34a853"></path><path id="Path3" d="M17 33.27a7.72 7.72 0 010-4.89V25.1h-4.14a12.81 12.81 0 000 11.45z" fill="#fbbc04"></path><path id="Path4" d="M24.1 23.11A6.73 6.73 0 0128.92 25l3.61-3.66a12.07 12.07 0 00-8.43-3.31 12.57 12.57 0 00-11.24 7L17 28.39a7.52 7.52 0 017.1-5.28z" fill="#ea4335"></path></g></g></g></g></svg> 