<svg width="15" height="15" viewBox="0 0 15 15" fill="#ccc" xmlns="http://www.w3.org/2000/svg">
    <path d="M14.5681 11.2615L12.4002 9.08285C12.109 8.79189 11.7191 8.63157 11.3025 8.63157C10.869 8.63157 10.4596 8.80304 10.1501 9.11414L9.30616 9.96167C8.65039 9.59553 7.7788 9.09195 6.87389 8.18297C5.97003 7.27473 5.46865 6.40178 5.10229 5.7395L5.94701 4.89161C6.57504 4.25944 6.58789 3.24524 5.97574 2.6309L3.80818 0.453525C3.51784 0.161065 3.12796 0 2.71029 0C2.28641 0 1.88542 0.163932 1.5777 0.462314C1.39155 0.612908 0.457346 1.4413 0.109169 3.14968C-0.378315 5.54091 0.741732 7.84164 3.97516 11.0909C7.58718 14.7181 10.6708 15 11.5298 15C11.7086 15 11.8166 14.9889 11.8453 14.9855C13.5299 14.7872 14.133 14.0357 14.5734 13.487C15.1441 12.7759 15.1421 11.8402 14.5681 11.2615ZM13.8488 12.9002C13.4348 13.4159 13.0439 13.903 11.7371 14.0569C11.7364 14.0569 11.6649 14.065 11.5298 14.065C10.7612 14.065 7.99232 13.8028 4.63336 10.4298C1.65155 7.4333 0.604969 5.37842 1.02103 3.33718C1.32472 1.84708 2.13096 1.21372 2.1623 1.18966L2.1901 1.16903L2.21449 1.14447C2.34908 1.0094 2.52512 0.934976 2.71022 0.934976C2.87876 0.934976 3.03464 0.998429 3.14956 1.11424L5.31761 3.29211C5.56706 3.54244 5.55378 3.96367 5.28838 4.23083L4.33308 5.18961L4.31738 5.20613C4.06843 5.48158 4.09772 5.85382 4.23486 6.09623C4.63056 6.81354 5.17259 7.79595 6.21557 8.84393C7.25507 9.88811 8.23166 10.4321 8.94377 10.8289C9.01507 10.8691 9.16226 10.9365 9.34649 10.9365C9.56405 10.9365 9.7638 10.844 9.91167 10.6754L10.8082 9.77511C10.942 9.6406 11.1175 9.56648 11.3024 9.56648C11.4713 9.56648 11.628 9.63012 11.7427 9.74469L13.9092 11.9219C14.1844 12.1994 14.0708 12.6235 13.8488 12.9002Z">

    </path>
    <path d="M9.08726 2.29075C9.88693 2.38319 10.8285 2.86975 11.486 3.53028C12.1497 4.19692 12.6352 5.15234 12.7229 5.96433C12.7488 6.20388 12.9505 6.3814 13.185 6.3814C13.2018 6.3814 13.2188 6.38046 13.2358 6.37865C13.4913 6.35079 13.676 6.12016 13.6482 5.86348C13.5374 4.83707 12.961 3.68973 12.1442 2.86919C11.3351 2.05632 10.2045 1.47882 9.19368 1.36195C8.93846 1.33222 8.70756 1.51647 8.67815 1.7729C8.64874 2.02933 8.83185 2.26121 9.08726 2.29075Z"></path>
    <path d="M8.65256 4.24909C9.08506 4.29914 9.68362 4.6214 10.0757 5.01527C10.4712 5.41257 10.7926 6.01956 10.84 6.45869C10.8658 6.69829 11.0675 6.87581 11.3021 6.87581C11.3188 6.87581 11.3358 6.87487 11.3528 6.87307C11.6083 6.8452 11.793 6.61458 11.7653 6.3579C11.6844 5.60817 11.1889 4.81126 10.7338 4.35412C10.2828 3.90103 9.49722 3.40568 8.75898 3.32022C8.50338 3.29037 8.2728 3.47468 8.24338 3.73111C8.21403 3.98761 8.39721 4.21954 8.65256 4.24909Z"></path>
</svg>