<svg viewBox="0 0 21 20" fill="none" xmlns="http://www.w3.org/2000/svg">
<path fill-rule="evenodd" clip-rule="evenodd" d="M3.63189 8.04801L4.04439 8.4605L4.51065 8.92677L4.26576 9.539C3.76228 10.7977 3.57023 12.1615 3.5191 12.9352L4.04439 13.4605L4.33728 13.7534V14.1676V15.0009C4.33728 15.5532 3.88957 16.0009 3.33728 16.0009C2.785 16.0009 2.33728 15.5532 2.33728 15.0009V14.5818L1.79684 14.0414L1.50395 13.7485V13.3343C1.50395 12.6381 1.64452 11.0399 2.17982 9.42436L1.79684 9.04138L1.39648 8.64102L1.53381 8.09174C2.13935 5.66954 4.83337 0.667603 10.8373 0.667603H13.3373H14.3479L14.3373 1.67097L14.3377 1.68709C14.3384 1.70679 14.3402 1.74225 14.3446 1.79126C14.3533 1.88962 14.3723 2.04045 14.4132 2.22676C14.4955 2.60113 14.6633 3.10385 15.0027 3.6129C15.1363 3.81329 15.3685 4.05617 15.6995 4.34429C15.9713 4.58086 16.2674 4.81254 16.5771 5.05494C16.6401 5.10421 16.7036 5.15392 16.7676 5.2042C17.1259 5.48576 17.5159 5.79794 17.8165 6.10646C17.9684 6.26235 18.1269 6.44654 18.2519 6.65435C18.3743 6.85797 18.5039 7.14923 18.5039 7.50094L18.504 7.51321C18.5041 7.74341 18.5044 8.42166 18.2241 9.12233C17.9191 9.88472 17.2794 10.6712 16.0798 10.9711L15.7973 11.0417L15.5211 10.9496C15.2059 10.8446 14.9206 10.6847 14.6922 10.5504C14.6138 10.5042 14.5416 10.4609 14.4724 10.4193C14.3167 10.3258 14.1761 10.2414 14.0125 10.1541C13.6314 9.95084 13.2245 9.79043 12.7046 9.75725C12.8978 10.6113 13.5587 11.3064 14.5486 12.2511C14.5931 12.2937 14.6383 12.3367 14.684 12.3802C15.8768 13.5153 17.4243 14.9881 17.6657 17.4014L17.7376 18.121L17.0768 18.4147C12.9221 20.2613 8.40061 18.8718 6.15612 17.5251L5.83891 17.3348L5.72193 16.9838C4.82018 14.2786 4.82018 10.7233 5.72193 8.01805C5.89658 7.4941 6.4629 7.21094 6.98684 7.38559C7.51079 7.56024 7.79395 8.12656 7.6193 8.6505C6.89344 10.8281 6.85638 13.741 7.50812 15.9937C9.3599 16.9923 12.5617 17.8539 15.5361 16.8686C15.1767 15.6201 14.2587 14.7393 13.1677 13.6979L13.1337 13.6655C12.1055 12.6843 10.8335 11.4705 10.6647 9.63513C10.4896 9.58932 10.3308 9.53888 10.1954 9.49165C10.0115 9.42749 9.85777 9.36463 9.74813 9.31691C9.69308 9.29296 9.64855 9.27256 9.6162 9.25736C9.60001 9.24976 9.58683 9.24343 9.57686 9.2386L9.56433 9.23247L9.55991 9.23028L9.55817 9.22942L9.55741 9.22904L9.55707 9.22887C9.5569 9.22879 9.55674 9.2287 10.0039 8.33428L9.55674 9.2287C9.06276 8.98172 8.86253 8.38105 9.10952 7.88707C9.3564 7.39329 9.95669 7.19302 10.4506 7.43954L10.45 7.43929L10.4492 7.43887L10.4484 7.43848C10.4485 7.43854 10.4491 7.43883 10.4502 7.43933L10.4666 7.44715C10.483 7.45489 10.5101 7.46734 10.5462 7.48305C10.6189 7.51467 10.7256 7.55839 10.8541 7.60324C11.1222 7.69675 11.4362 7.77768 11.717 7.79073L11.7766 7.7935L11.8281 7.8021C11.8334 7.80196 11.8669 7.80197 11.958 7.79206C11.9726 7.79048 11.9897 7.78848 12.0092 7.78621C12.1222 7.77304 12.3118 7.75094 12.5039 7.75094C13.5524 7.75094 14.3409 8.0626 14.9537 8.38942C15.1651 8.50216 15.3741 8.62767 15.5446 8.73004C15.6036 8.76546 15.658 8.79811 15.7063 8.8265C15.7722 8.86529 15.8303 8.89837 15.8821 8.92658C16.1486 8.79231 16.2818 8.59296 16.3671 8.37955C16.4725 8.11611 16.4969 7.83768 16.5024 7.63507C16.4774 7.60322 16.4396 7.55913 16.3841 7.50219C16.1899 7.30289 15.9028 7.06821 15.532 6.77684C15.4751 6.73219 15.4165 6.68632 15.3565 6.63941C15.0468 6.39718 14.7016 6.12712 14.3865 5.8529C14.0144 5.52904 13.6216 5.14692 13.3386 4.7223C12.835 3.96693 12.586 3.2246 12.4624 2.6676H10.8373C6.55476 2.6676 4.35403 5.94647 3.63189 8.04801ZM16.5416 7.69161C16.5415 7.69159 16.5408 7.69032 16.5395 7.68782C16.541 7.69037 16.5416 7.69162 16.5416 7.69161Z" fill="white"/>
</svg>
