<svg width="20" height="21" viewBox="0 0 20 21" fill="none" xmlns="http://www.w3.org/2000/svg">
<path fill-rule="evenodd" clip-rule="evenodd" d="M15.7071 5.71004C16.0976 5.31951 16.0976 4.68635 15.7071 4.29582C15.3166 3.9053 14.6834 3.9053 14.2929 4.29582L10 8.58872L5.70711 4.29582C5.31658 3.9053 4.68342 3.9053 4.29289 4.29582C3.90237 4.68635 3.90237 5.31951 4.29289 5.71004L8.58579 10.0029L4.29289 14.2958C3.90237 14.6863 3.90237 15.3195 4.29289 15.71C4.68342 16.1006 5.31658 16.1006 5.70711 15.71L10 11.4171L14.2929 15.71C14.6834 16.1006 15.3166 16.1006 15.7071 15.71C16.0976 15.3195 16.0976 14.6863 15.7071 14.2958L11.4142 10.0029L15.7071 5.71004Z" fill="#B0BEC5"/>
</svg>
