<svg viewBox="0 0 24 25" fill="none" xmlns="http://www.w3.org/2000/svg">
<path fill-rule="evenodd" clip-rule="evenodd" d="M12 3.00269C7.02944 3.00269 3 7.03212 3 12.0027C3 16.9732 7.02944 21.0027 12 21.0027C16.9706 21.0027 21 16.9732 21 12.0027C21 7.03212 16.9706 3.00269 12 3.00269ZM1 12.0027C1 5.92755 5.92487 1.00269 12 1.00269C18.0751 1.00269 23 5.92755 23 12.0027C23 18.0778 18.0751 23.0027 12 23.0027C5.92487 23.0027 1 18.0778 1 12.0027ZM9 11.0027C9 10.4504 9.44772 10.0027 10 10.0027H12H14C14.5523 10.0027 15 10.4504 15 11.0027C15 11.555 14.5523 12.0027 14 12.0027H13V15.0027H14C14.5523 15.0027 15 15.4504 15 16.0027C15 16.555 14.5523 17.0027 14 17.0027H12H10C9.44772 17.0027 9 16.555 9 16.0027C9 15.4504 9.44772 15.0027 10 15.0027H11V12.0027H10C9.44772 12.0027 9 11.555 9 11.0027ZM12 7.00269C11.4477 7.00269 11 7.4504 11 8.00269C11 8.55497 11.4477 9.00269 12 9.00269H12.01C12.5623 9.00269 13.01 8.55497 13.01 8.00269C13.01 7.4504 12.5623 7.00269 12.01 7.00269H12Z" fill="#B0BEC5"/>
</svg>
