<svg viewBox="0 0 48 48" fill="none" xmlns="http://www.w3.org/2000/svg">
<path fill-rule="evenodd" clip-rule="evenodd" d="M46 9.71429C46 7.63967 44.3652 6 42.4 6H36C35.4477 6 35 5.55228 35 5C35 4.44772 35.4477 4 36 4H42.4C45.5158 4 48 6.58165 48 9.71429V34.2857C48 37.4184 45.5158 40 42.4 40H36.4469C36.8219 40.771 37 41.7673 37 43C37 43.5523 36.5523 44 36 44H21C20.4477 44 20 43.5523 20 43C20 42.4477 20.4477 42 21 42H34.9455C34.8126 40.9095 34.4632 40.5106 34.1953 40.3321C33.7461 40.0326 33.0864 40 32 40H16C14.9136 40 14.2539 40.0326 13.8047 40.3321C13.5368 40.5106 13.1874 40.9095 13.0545 42H16C16.5523 42 17 42.4477 17 43C17 43.5523 16.5523 44 16 44H12C11.4477 44 11 43.5523 11 43C11 41.7673 11.1781 40.771 11.5531 40H5.6C2.48421 40 0 37.4184 0 34.2857V9.71429C0 6.58165 2.48421 4 5.6 4H31C31.5523 4 32 4.44772 32 5C32 5.55228 31.5523 6 31 6H5.6C3.63477 6 2 7.63967 2 9.71429V34.2857C2 36.3603 3.63477 38 5.6 38H15.6307C15.7175 37.9996 15.8018 37.9998 15.8832 37.9999L16 38H32L32.1168 37.9999C32.1982 37.9998 32.2825 37.9996 32.3693 38H42.4C44.3652 38 46 36.3603 46 34.2857V9.71429Z" fill="url(#paint0_linear)"/>
<defs>
<linearGradient id="paint0_linear" x1="24" y1="4" x2="24" y2="44" gradientUnits="userSpaceOnUse">
<stop stop-color="#18CED6"/>
<stop offset="1" stop-color="#18AED6"/>
</linearGradient>
</defs>
</svg>
