<svg viewBox="0 0 48 48" fill="none" xmlns="http://www.w3.org/2000/svg">
<path fill-rule="evenodd" clip-rule="evenodd" d="M35.3994 7.79957C32.2238 5.41428 28.2782 4 24 4C19.7218 4 15.7762 5.41428 12.6006 7.79957C12.159 8.13126 11.5321 8.04217 11.2004 7.60058C10.8687 7.15899 10.9578 6.53212 11.3994 6.20043C14.9091 3.56421 19.2734 2 24 2C28.7266 2 33.0909 3.56421 36.6006 6.20043C37.0422 6.53212 37.1313 7.15899 36.7996 7.60058C36.4679 8.04217 35.841 8.13126 35.3994 7.79957ZM24 10C26.337 10 28.5565 10.7418 30.4993 11.8656C30.9773 12.1421 31.5891 11.9788 31.8656 11.5007C32.1422 11.0227 31.9788 10.4109 31.5007 10.1344C29.3251 8.87584 26.763 8 24 8C21.237 8 18.6749 8.87584 16.4993 10.1344C16.0212 10.4109 15.8579 11.0227 16.1344 11.5007C16.4109 11.9788 17.0227 12.1421 17.5007 11.8656C19.4435 10.7418 21.663 10 24 10ZM41 17.5714C41 16.1588 39.8435 15 38.4 15H35C34.4477 15 34 14.5523 34 14C34 13.4477 34.4477 13 35 13H38.4C40.933 13 43 15.0392 43 17.5714V36C43 37.1362 42.7306 38.1665 42.1734 39H45C45.2652 39 45.5196 39.1054 45.7071 39.2929C45.8946 39.4804 46 39.7348 46 40L46 41.4286C46 43.9608 43.933 46 41.4 46L19 46C18.4477 46 18 45.5523 18 45C18 44.4477 18.4477 44 19 44L41.4 44C42.8435 44 44 42.8412 44 41.4286L44 41H38H10L4 41V41.4286C4 42.8412 5.15653 44 6.6 44H14.6087C15.161 44 15.6087 44.4477 15.6087 45C15.6087 45.5523 15.161 46 14.6087 46H6.6C4.06702 46 2 43.9608 2 41.4286V40C2 39.4477 2.44772 39 3 39H5.82661C5.26943 38.1665 5 37.1362 5 36V17.5714C5 15.0392 7.06702 13 9.60001 13H13C13.5523 13 14 13.4477 14 14C14 14.5523 13.5523 15 13 15H9.60001C8.15654 15 7 16.1588 7 17.5714V36C7 37.0495 7.31092 37.7717 7.76961 38.2304C8.2283 38.6891 8.95051 39 10 39H38C39.0495 39 39.7717 38.6891 40.2304 38.2304C40.6891 37.7717 41 37.0495 41 36V17.5714ZM24 16C25.2478 16 26.5246 16.3249 27.5148 16.8744C27.9977 17.1424 28.6065 16.9681 28.8744 16.4852C29.1424 16.0023 28.9682 15.3936 28.4852 15.1256C27.179 14.4008 25.5647 14 24 14C22.4353 14 20.8211 14.4008 19.5148 15.1256C19.0319 15.3936 18.8577 16.0023 19.1256 16.4852C19.3936 16.9681 20.0023 17.1424 20.4852 16.8744C21.4755 16.3249 22.7522 16 24 16ZM25 22C25 21.4477 24.5523 21 24 21C23.4477 21 23 21.4477 23 22C23 22.5523 23.4477 23 24 23C24.5523 23 25 22.5523 25 22ZM24 19C25.6569 19 27 20.3431 27 22C27 23.6569 25.6569 25 24 25C22.3431 25 21 23.6569 21 22C21 20.3431 22.3431 19 24 19Z" fill="url(#paint0_linear)"/>
<defs>
<linearGradient id="paint0_linear" x1="24" y1="2" x2="24" y2="46" gradientUnits="userSpaceOnUse">
<stop stop-color="#18CED6"/>
<stop offset="1" stop-color="#18AED6"/>
</linearGradient>
</defs>
</svg>
