<svg viewBox="0 0 64 64" fill="none" xmlns="http://www.w3.org/2000/svg">
<path fill-rule="evenodd" clip-rule="evenodd" d="M49.5238 19.217C49.404 18.6778 49.7439 18.1437 50.2831 18.0238L54.7831 17.0238C55.3222 16.904 55.8564 17.244 55.9762 17.7831C56.096 18.3222 55.7561 18.8564 55.2169 18.9762L50.7169 19.9762C50.1778 20.096 49.6436 19.7561 49.5238 19.217ZM53.5145 8.85752C53.0409 9.14167 52.4267 8.9881 52.1425 8.51452L51.157 6.87202L49.5145 7.85752C49.0409 8.14167 48.4267 7.9881 48.1425 7.51452C47.8584 7.04094 48.0119 6.42668 48.4855 6.14254L50.128 5.15703L49.1425 3.51452C48.8584 3.04094 49.0119 2.42668 49.4855 2.14254C49.9591 1.85839 50.5733 2.01195 50.8575 2.48553L51.843 4.12804L53.4855 3.14254C53.9591 2.85839 54.5733 3.01195 54.8575 3.48553C55.1416 3.95911 54.9881 4.57337 54.5145 4.85752L52.872 5.84302L53.8575 7.48553C54.1416 7.95911 53.9881 8.57337 53.5145 8.85752ZM26.6 2.20003C26.1582 1.86866 25.5314 1.9582 25.2 2.40003C24.8686 2.84186 24.9582 3.46866 25.4 3.80003L29.4 6.80003C29.8418 7.1314 30.4686 7.04186 30.8 6.60003C31.1314 6.1582 31.0418 5.5314 30.6 5.20003L26.6 2.20003ZM24.7071 12.7929C24.3166 12.4024 23.6834 12.4024 23.2929 12.7929L20.2929 15.7929C19.9024 16.1834 19.9024 16.8166 20.2929 17.2071L23.2929 20.2071C23.6834 20.5977 24.3166 20.5977 24.7071 20.2071L27.7071 17.2071C28.0976 16.8166 28.0976 16.1834 27.7071 15.7929L24.7071 12.7929ZM24 18.0858L22.4142 16.5L24 14.9142L25.5858 16.5L24 18.0858ZM34.0571 20.7908C35.6404 18.0023 36.8882 14.4049 37.8839 9.35507L42.7756 18.7955C42.5265 20.3748 42.0952 21.9854 41.6113 23.4761C40.9501 25.5132 40.2118 27.2663 39.7544 28.3524L39.7544 28.3524L39.7543 28.3525C39.6891 28.5073 39.6296 28.6485 39.5769 28.7751C39.431 29.1253 39.4958 29.5278 39.7441 29.8145C39.9925 30.1012 40.3817 30.2227 40.749 30.1282C42.8245 29.5945 45.4791 29.1915 48.0965 29.0641L56.0149 44.3456C56.0492 44.5423 56.1422 44.7274 56.2863 44.8743L56.287 44.8751L56.2987 44.8878L56.3101 44.9007C56.3341 44.9282 56.3736 44.9756 56.4227 45.0419C56.5214 45.1752 56.655 45.3804 56.7775 45.6492C57.0197 46.1806 57.2208 46.9626 57.0196 47.9627C56.8302 48.9047 56.257 49.598 55.6758 50.078C55.3882 50.3155 55.1126 50.4886 54.911 50.6012C54.8108 50.6571 54.7308 50.697 54.6791 50.7216C54.6533 50.7339 54.6347 50.7422 54.6244 50.7468L54.6191 50.7492L54.6184 50.7494L54.6179 50.7497L54.6169 50.7501L54.6156 50.7506C54.3073 50.879 54.0833 51.1529 54.0188 51.4807C53.9542 51.809 54.0581 52.1477 54.2954 52.3834L54.2963 52.3843L54.297 52.3849C54.2973 52.3853 54.2976 52.3856 55 51.6738L54.2976 52.3856L54.3045 52.3929C54.3117 52.4006 54.3224 52.412 54.3359 52.427L54.3616 52.4558C54.414 52.5156 54.4909 52.6081 54.5777 52.7283C54.7543 52.9726 54.9564 53.3096 55.0877 53.7001C55.2175 54.0861 55.2721 54.505 55.1846 54.9406C55.0984 55.3693 54.8605 55.8852 54.2929 56.4528C54.1192 56.6265 53.7024 56.8732 52.9318 57.1232C52.191 57.3635 51.2289 57.574 50.0794 57.744C47.7833 58.0835 44.832 58.2478 41.6035 58.2024C35.5402 58.1173 28.6316 57.2951 23.3812 55.591C23.6179 55.0396 23.9117 54.2839 24.2045 53.3471C24.8539 51.269 25.5 48.2926 25.5 44.6738C25.5 41.055 24.8539 38.0786 24.2045 36.0005C23.8797 34.9611 23.5535 34.1446 23.3055 33.5826C23.2295 33.4102 23.1607 33.2616 23.1016 33.1378L23.1251 33.0892C23.2687 32.7952 23.5101 32.353 23.8878 31.8009C24.6425 30.698 25.9464 29.149 28.1139 27.4631C30.4347 25.6581 32.4117 23.6884 34.0571 20.7908ZM56.0147 44.3447L56.0149 44.3456L56.2916 44.8796L56.2922 44.8802L56.0147 44.3447ZM48.0966 29.0641L48.0965 29.0641L47.0897 27.121L47.0898 27.121L48.0966 29.0641ZM44.2334 21.6086L47.0898 27.121C48.398 27.0279 49.7146 26.9965 50.974 27.0424C52.7839 27.1085 54.5238 27.3359 55.9682 27.7971C57.3873 28.2502 58.6849 28.9818 59.3682 30.1776C60.5305 32.2115 60.4019 34.0188 59.943 35.3191C59.8053 35.7094 59.6398 36.0495 59.4763 36.3339C59.202 36.1222 58.9381 35.9777 58.7291 35.8819C58.6008 35.8231 58.4905 35.7815 58.4072 35.7532C58.3655 35.739 58.3302 35.7281 58.3024 35.72C58.2886 35.716 58.2766 35.7126 58.2665 35.7099L58.253 35.7063L58.2474 35.7049L58.2448 35.7042L58.2437 35.7039C58.2431 35.7038 58.2425 35.7037 58 36.6738L57.2929 35.9667L57.2922 35.9674C57.2925 35.9671 57.2929 35.9667 58 36.6738C57.7575 37.644 57.7569 37.6438 57.7564 37.6437L57.7575 37.644L58 36.6738C58.7071 37.3809 58.7075 37.3805 58.7079 37.3801L58.7087 37.3793L58.7106 37.3774L58.715 37.3729L58.7266 37.361L58.7395 37.3475L58.7599 37.3259C58.7864 37.2974 58.8213 37.2587 58.8628 37.2103C58.9456 37.1137 59.0555 36.9771 59.1776 36.8034C59.2714 36.6699 59.3734 36.513 59.4763 36.3339C59.5367 36.3805 59.5976 36.4304 59.6585 36.4837C60.36 37.0975 61 38.1154 61 39.6738C61 41.7505 60.0955 43.1303 59.1757 43.9734C58.9302 44.1985 58.6851 44.3843 58.4581 44.5358C58.5051 44.6251 58.5519 44.7199 58.5975 44.8199C58.9803 45.66 59.2792 46.8711 58.9804 48.357C58.6698 49.9011 57.743 50.9647 56.9492 51.6202C56.7869 51.7542 56.6278 51.8732 56.4771 51.9779C56.6591 52.2798 56.8431 52.6456 56.9833 53.0626C57.1987 53.7029 57.3166 54.483 57.1453 55.3349C56.9726 56.1937 56.5202 57.0539 55.7071 57.867C55.1905 58.3836 54.402 58.7488 53.549 59.0256C52.6662 59.312 51.5863 59.5429 50.3719 59.7225C47.9404 60.082 44.8769 60.2486 41.5755 60.2022C35.2347 60.1132 27.878 59.2362 22.3004 57.3394C20.4287 59.3174 18.1986 60.2761 16.4119 60.7393C15.4415 60.9908 14.5908 61.0994 13.9787 61.1451C13.672 61.168 13.4237 61.1753 13.2481 61.1767C13.1603 61.1774 13.0905 61.1766 13.0406 61.1755C13.0157 61.175 12.9957 61.1744 12.9809 61.1739L12.9759 61.1737L12.9589 61.1735C12.9367 61.1732 12.906 61.1725 12.8675 61.1713C12.7904 61.1689 12.6817 61.1642 12.546 61.155C12.2748 61.1367 11.8934 61.1005 11.4382 61.0289C10.5328 60.8864 9.30936 60.5994 8.07299 60.0156C6.83404 59.4305 5.55637 58.5346 4.58928 57.1645C3.61573 55.7853 3 53.9859 3 51.6738C3 46.9564 3.92521 38.5978 5.02506 33.7776C5.14791 33.2391 5.68401 32.9022 6.22245 33.0251C6.7609 33.148 7.0978 33.6841 6.97494 34.2225C5.90856 38.8961 5 47.1054 5 51.6738C5 53.6117 5.50927 54.9997 6.22322 56.0112C6.94363 57.0318 7.91596 57.7296 8.92701 58.2071C9.94064 58.6858 10.9672 58.9301 11.7493 59.0532C12.1378 59.1144 12.4596 59.1446 12.6806 59.1595C12.7909 59.167 12.8756 59.1706 12.9304 59.1723C12.9578 59.1732 12.9776 59.1735 12.9894 59.1737L13 59.1739H13.0008C13.0157 59.1739 13.0305 59.1742 13.0454 59.1749L13.0456 59.1749L13.0464 59.175L13.047 59.175L13.0478 59.175L13.0505 59.1751L13.0831 59.176C13.1145 59.1766 13.1648 59.1773 13.2324 59.1767C13.3677 59.1757 13.5714 59.17 13.8296 59.1507C14.3471 59.112 15.0768 59.0192 15.9101 58.8033C17.557 58.3763 19.565 57.4804 21.1671 55.6099C21.1727 55.5991 21.1787 55.5873 21.1853 55.5745C21.1937 55.5579 21.203 55.5396 21.213 55.5195C21.2745 55.3964 21.3653 55.2078 21.4757 54.9576C21.6965 54.4571 21.9953 53.7111 22.2955 52.7505C22.8961 50.8286 23.5 48.055 23.5 44.6738C23.5 41.2926 22.8961 38.5189 22.2955 36.597C21.9953 35.6365 21.6965 34.8904 21.4757 34.3899C21.3653 34.1397 21.2745 33.9511 21.213 33.828C21.1882 33.7784 21.1681 33.7394 21.1534 33.7113C19.6449 31.7032 17.8145 30.8208 15.6609 30.431C13.8565 30.1044 11.8902 30.1295 9.69015 30.1576H9.69005H9.68994H9.68983C9.14253 30.1646 8.58077 30.1718 8.00344 30.1738C7.45116 30.1757 7.0019 29.7295 7.00001 29.1772C6.99811 28.6249 7.44428 28.1757 7.99656 28.1738C8.52006 28.172 9.04588 28.1649 9.57143 28.1579H9.57146H9.57149H9.57152C11.7902 28.1282 14.004 28.0986 16.0171 28.463C18.1394 28.8471 20.1046 29.674 21.7824 31.3794C21.9125 31.1626 22.0633 30.9258 22.2372 30.6716C23.1075 29.3995 24.5536 27.6985 26.8861 25.8844C29.0653 24.1894 30.8383 22.4091 32.3179 19.8032C33.8069 17.1809 35.0292 13.6687 36.0176 8.47302C36.076 8.16584 36.2748 7.90367 36.5548 7.76446C37.944 7.07371 39.2426 6.84459 40.418 7.1032C41.6015 7.3636 42.5149 8.08652 43.1862 9.01787C44.4924 10.8299 45 13.5789 45 16.1599C45 17.948 44.6809 19.8321 44.2334 21.6086ZM44.2334 21.6087C44.0164 22.4701 43.7692 23.3061 43.5136 24.0936C43.062 25.485 42.5749 26.7514 42.1643 27.7639C43.6946 27.4683 45.3849 27.2424 47.0897 27.121L44.2334 21.6087ZM44.2334 21.6087L44.2334 21.6086L42.7756 18.7953C42.9172 17.8975 43 17.0098 43 16.1599C43 13.7409 42.5076 11.4968 41.5638 10.1873C41.1101 9.55794 40.586 9.188 39.9882 9.05648C39.465 8.94134 38.7772 8.98523 37.8839 9.35507L42.7756 18.7953L42.7756 18.7955L44.2334 21.6087ZM48.0966 29.0641L56.0147 44.3447C55.992 44.2137 55.9952 44.0775 56.0267 43.9441C56.1058 43.6091 56.3515 43.3385 56.6769 43.2275L56.6781 43.2271L56.6781 43.227L56.6848 43.2245C56.6906 43.2224 56.6992 43.2192 56.7103 43.2147C56.7198 43.211 56.7312 43.2064 56.7443 43.2009C56.8016 43.1771 56.891 43.137 57.002 43.0785C57.2255 42.9605 57.5257 42.7728 57.8243 42.4991C58.4045 41.9672 59 41.0971 59 39.6738C59 38.7321 58.64 38.25 58.3415 37.9889C58.1792 37.8469 58.0159 37.7551 57.8959 37.7001C57.8367 37.6729 57.7907 37.656 57.7647 37.6472C57.754 37.6435 57.7469 37.6414 57.7439 37.6404C57.4008 37.5496 57.1312 37.2834 57.0363 36.9407C56.9407 36.5958 57.0369 36.2263 57.2879 35.9717L57.2886 35.9711L57.2886 35.971L57.2953 35.9639C57.3004 35.9584 57.308 35.9501 57.3177 35.9392C57.3253 35.9307 57.3342 35.9205 57.3442 35.9088C57.3903 35.855 57.4601 35.769 57.5412 35.6535C57.7045 35.4211 57.9064 35.0801 58.057 34.6535C58.3481 33.8288 58.4695 32.636 57.6318 31.1699C57.3151 30.6157 56.5918 30.0956 55.3599 29.7023C54.1533 29.3171 52.6119 29.1035 50.901 29.0411C49.9907 29.0079 49.0461 29.0178 48.0966 29.0641ZM11 52.1739C11 51.6216 11.4477 51.1739 12 51.1739C12.5523 51.1739 13 51.6216 13 52.1739C13 52.7261 12.5523 53.1739 12 53.1739C11.4477 53.1739 11 52.7261 11 52.1739ZM12 49.1739C10.3431 49.1739 9 50.517 9 52.1739C9 53.8307 10.3431 55.1739 12 55.1739C13.6569 55.1739 15 53.8307 15 52.1739C15 50.517 13.6569 49.1739 12 49.1739Z" fill="url(#paint0_linear)"/>
<defs>
<linearGradient id="paint0_linear" x1="32" y1="1.99988" x2="32" y2="61.1769" gradientUnits="userSpaceOnUse">
<stop stop-color="#18CED6"/>
<stop offset="1" stop-color="#18AED6"/>
</linearGradient>
</defs>
</svg>
