<svg viewBox="0 0 64 64" fill="none" xmlns="http://www.w3.org/2000/svg">
<path fill-rule="evenodd" clip-rule="evenodd" d="M3 40H5H6H12H13H19C19.5523 40 20 39.5523 20 39C20 38.4477 19.5523 38 19 38H13V10C13 7.79086 11.2091 6 9 6C6.79086 6 5 7.79086 5 10V38H2H1V39V43C1 51.2843 7.71573 58 16 58H42C42.5523 58 43 57.5523 43 57C43 56.4477 42.5523 56 42 56H16C8.8203 56 3 50.1797 3 43V40ZM11 10V38H7V10C7 8.89543 7.89543 8 9 8C10.1046 8 11 8.89543 11 10ZM20.6006 23.7996C23.7762 21.4143 27.7218 20 32 20C36.2782 20 40.2238 21.4143 43.3994 23.7996C43.841 24.1313 44.4679 24.0422 44.7996 23.6006C45.1313 23.159 45.0422 22.5321 44.6006 22.2004C41.0909 19.5642 36.7266 18 32 18C27.2734 18 22.9091 19.5642 19.3994 22.2004C18.9578 22.5321 18.8687 23.159 19.2004 23.6006C19.5321 24.0422 20.159 24.1313 20.6006 23.7996ZM32 26C29.663 26 27.4435 26.7418 25.5007 27.8656C25.0227 28.1421 24.4109 27.9788 24.1344 27.5007C23.8579 27.0227 24.0212 26.4109 24.4993 26.1344C26.6749 24.8758 29.237 24 32 24C34.763 24 37.3251 24.8758 39.5007 26.1344C39.9788 26.4109 40.1422 27.0227 39.8656 27.5007C39.5891 27.9788 38.9773 28.1421 38.4993 27.8656C36.5565 26.7418 34.337 26 32 26ZM28.4852 32.8744C29.4754 32.3249 30.7522 32 32 32C33.2478 32 34.5245 32.3249 35.5148 32.8744C35.9977 33.1424 36.6064 32.9681 36.8744 32.4852C37.1423 32.0023 36.9681 31.3936 36.4852 31.1256C35.1789 30.4008 33.5647 30 32 30C30.4353 30 28.821 30.4008 27.5148 31.1256C27.0318 31.3936 26.8576 32.0023 27.1256 32.4852C27.3935 32.9681 28.0023 33.1424 28.4852 32.8744ZM61 43C61 50.1797 55.1797 56 48 56H47C46.4477 56 46 56.4477 46 57C46 57.5523 46.4477 58 47 58H48C56.2843 58 63 51.2843 63 43V39V38H62H59V10C59 7.79086 57.2091 6 55 6C52.7909 6 51 7.79086 51 10V38H24C23.4477 38 23 38.4477 23 39C23 39.5523 23.4477 40 24 40H51H52H58H59H61V43ZM53 38H57V10C57 8.89543 56.1046 8 55 8C53.8954 8 53 8.89543 53 10V38ZM16 48C16 47.4477 16.4477 47 17 47C17.5523 47 18 47.4477 18 48C18 48.5523 17.5523 49 17 49C16.4477 49 16 48.5523 16 48ZM17 45C15.3431 45 14 46.3431 14 48C14 49.6569 15.3431 51 17 51C18.6569 51 20 49.6569 20 48C20 46.3431 18.6569 45 17 45ZM27 47C26.4477 47 26 47.4477 26 48C26 48.5523 26.4477 49 27 49C27.5523 49 28 48.5523 28 48C28 47.4477 27.5523 47 27 47ZM24 48C24 46.3431 25.3431 45 27 45C28.6569 45 30 46.3431 30 48C30 49.6569 28.6569 51 27 51C25.3431 51 24 49.6569 24 48ZM36 48C36 47.4477 36.4477 47 37 47C37.5523 47 38 47.4477 38 48C38 48.5523 37.5523 49 37 49C36.4477 49 36 48.5523 36 48ZM37 45C35.3431 45 34 46.3431 34 48C34 49.6569 35.3431 51 37 51C38.6569 51 40 49.6569 40 48C40 46.3431 38.6569 45 37 45ZM47 47C46.4477 47 46 47.4477 46 48C46 48.5523 46.4477 49 47 49C47.5523 49 48 48.5523 48 48C48 47.4477 47.5523 47 47 47ZM44 48C44 46.3431 45.3431 45 47 45C48.6569 45 50 46.3431 50 48C50 49.6569 48.6569 51 47 51C45.3431 51 44 49.6569 44 48Z" fill="url(#paint0_linear)"/>
<defs>
<linearGradient id="paint0_linear" x1="32" y1="6" x2="32" y2="58" gradientUnits="userSpaceOnUse">
<stop stop-color="#18CED6"/>
<stop offset="1" stop-color="#18AED6"/>
</linearGradient>
</defs>
</svg>
