<svg viewBox="0 0 62 62" fill="none" xmlns="http://www.w3.org/2000/svg">
<path fill-rule="evenodd" clip-rule="evenodd" d="M7 0C3.13401 0 0 3.13401 0 7V19V55C0 58.866 3.13401 62 7 62H55C58.866 62 62 58.866 62 55V19V7C62 3.13401 58.866 0 55 0H7ZM2 7C2 4.23858 4.23858 2 7 2H55C57.7614 2 60 4.23858 60 7V18H52C51.4477 18 51 18.4477 51 19C51 19.5523 51.4477 20 52 20H60V55C60 57.7614 57.7614 60 55 60H7C4.23858 60 2 57.7614 2 55V20H47C47.5523 20 48 19.5523 48 19C48 18.4477 47.5523 18 47 18H2V7ZM9 10C9 9.44772 9.44772 9 10 9C10.5523 9 11 9.44772 11 10C11 10.5523 10.5523 11 10 11C9.44772 11 9 10.5523 9 10ZM10 7C8.34315 7 7 8.34315 7 10C7 11.6569 8.34315 13 10 13C11.6569 13 13 11.6569 13 10C13 8.34315 11.6569 7 10 7ZM19 9C18.4477 9 18 9.44772 18 10C18 10.5523 18.4477 11 19 11C19.5523 11 20 10.5523 20 10C20 9.44772 19.5523 9 19 9ZM16 10C16 8.34315 17.3431 7 19 7C20.6569 7 22 8.34315 22 10C22 11.6569 20.6569 13 19 13C17.3431 13 16 11.6569 16 10ZM27 10C27 9.44772 27.4477 9 28 9C28.5523 9 29 9.44772 29 10C29 10.5523 28.5523 11 28 11C27.4477 11 27 10.5523 27 10ZM28 7C26.3431 7 25 8.34315 25 10C25 11.6569 26.3431 13 28 13C29.6569 13 31 11.6569 31 10C31 8.34315 29.6569 7 28 7ZM8 29C8 27.3431 9.34315 26 11 26H17C18.6569 26 20 27.3431 20 29V35C20 36.6569 18.6569 38 17 38H11C9.34315 38 8 36.6569 8 35V29ZM11 28C10.4477 28 10 28.4477 10 29V35C10 35.5523 10.4477 36 11 36H17C17.5523 36 18 35.5523 18 35V29C18 28.4477 17.5523 28 17 28H11ZM11 42C9.34315 42 8 43.3431 8 45V51C8 52.6569 9.34315 54 11 54H17C18.6569 54 20 52.6569 20 51V45C20 43.3431 18.6569 42 17 42H11ZM10 45C10 44.4477 10.4477 44 11 44H17C17.5523 44 18 44.4477 18 45V51C18 51.5523 17.5523 52 17 52H11C10.4477 52 10 51.5523 10 51V45ZM25 29C25 27.3431 26.3431 26 28 26H34C35.6569 26 37 27.3431 37 29V35C37 36.6569 35.6569 38 34 38H28C26.3431 38 25 36.6569 25 35V29ZM28 28C27.4477 28 27 28.4477 27 29V35C27 35.5523 27.4477 36 28 36H34C34.5523 36 35 35.5523 35 35V29C35 28.4477 34.5523 28 34 28H28ZM28 42C26.3431 42 25 43.3431 25 45V51C25 52.6569 26.3431 54 28 54H34C35.6569 54 37 52.6569 37 51V45C37 43.3431 35.6569 42 34 42H28ZM27 45C27 44.4477 27.4477 44 28 44H34C34.5523 44 35 44.4477 35 45V51C35 51.5523 34.5523 52 34 52H28C27.4477 52 27 51.5523 27 51V45ZM42 29C42 27.3431 43.3431 26 45 26H51C52.6569 26 54 27.3431 54 29V35C54 36.6569 52.6569 38 51 38H45C43.3431 38 42 36.6569 42 35V29ZM45 28C44.4477 28 44 28.4477 44 29V35C44 35.5523 44.4477 36 45 36H51C51.5523 36 52 35.5523 52 35V29C52 28.4477 51.5523 28 51 28H45ZM45 42C43.3431 42 42 43.3431 42 45V51C42 52.6569 43.3431 54 45 54H51C52.6569 54 54 52.6569 54 51V45C54 43.3431 52.6569 42 51 42H45ZM44 45C44 44.4477 44.4477 44 45 44H51C51.5523 44 52 44.4477 52 45V51C52 51.5523 51.5523 52 51 52H45C44.4477 52 44 51.5523 44 51V45Z" fill="url(#paint0_linear)"/>
<defs>
<linearGradient id="paint0_linear" x1="31" y1="0" x2="31" y2="62" gradientUnits="userSpaceOnUse">
<stop stop-color="#18CED6"/>
<stop offset="1" stop-color="#18AED6"/>
</linearGradient>
</defs>
</svg>
