<svg viewBox="0 0 24 24" fill="none" xmlns="http://www.w3.org/2000/svg">
<path fill-rule="evenodd" clip-rule="evenodd" d="M14.0001 3C14.0001 2.44772 14.4478 2 15.0001 2H19.0001C19.7958 2 20.5588 2.31607 21.1214 2.87868C21.6841 3.44129 22.0001 4.20435 22.0001 5V19C22.0001 19.7957 21.6841 20.5587 21.1214 21.1213C20.5588 21.6839 19.7958 22 19.0001 22H15.0001C14.4478 22 14.0001 21.5523 14.0001 21C14.0001 20.4477 14.4478 20 15.0001 20H19.0001C19.2653 20 19.5197 19.8946 19.7072 19.7071C19.8948 19.5196 20.0001 19.2652 20.0001 19V5C20.0001 4.73478 19.8948 4.48043 19.7072 4.29289C19.5197 4.10536 19.2653 4 19.0001 4H15.0001C14.4478 4 14.0001 3.55228 14.0001 3ZM9.29302 6.29289C9.68354 5.90237 10.3167 5.90237 10.7072 6.29289L15.7072 11.2929C16.0978 11.6834 16.0978 12.3166 15.7072 12.7071L10.7072 17.7071C10.3167 18.0976 9.68354 18.0976 9.29302 17.7071C8.90249 17.3166 8.90249 16.6834 9.29302 16.2929L12.5859 13H3.00012C2.44784 13 2.00012 12.5523 2.00012 12C2.00012 11.4477 2.44784 11 3.00012 11H12.5859L9.29302 7.70711C8.90249 7.31658 8.90249 6.68342 9.29302 6.29289Z" fill="#3955FE"/>
</svg>
