<svg width="106px" height="55px" viewBox="0 0 1238 657" version="1.1" xmlns="http://www.w3.org/2000/svg"
     xmlns:xlink="http://www.w3.org/1999/xlink" xml:space="preserve" xmlns:serif="http://www.serif.com/"
     style="fill-rule:evenodd;clip-rule:evenodd;stroke-miterlimit:10;">
    <g transform="matrix(3.125,0,0,3.125,0,0)">
        <g transform="matrix(1,0,0,1,-284.994,-121.95)">
            <path d="M646.89,132.88L603.2,132.76L561.32,132.64L536.9,132.57L477.28,132.4L452.85,132.33L436.41,132.28L411.36,132.21L353.38,132.05L329.17,132L322.79,156.16L318.6,172.03L316.9,178.48L314.26,188.46L312.16,196.42L394.22,196.42L390.32,211.41L387.3,223.04L384.8,232.48L326.82,232.32L302.7,232.25L296.32,256.41L320.41,256.48L378.39,256.64L403.37,256.71L415.5,211.21L415.54,211.06L415.96,209.49L418.01,201.75L418.02,201.75L419.44,196.42L423.69,180.49L423.72,180.49L425.95,172.17L342.76,172.17L342.8,172.03L346.99,156.22L384.17,156.32L404.97,156.38L430.02,156.45L446.45,156.5L437.88,188.81L431.85,211.54L426.26,232.61L419.85,256.77L444.28,256.84L450.69,232.68L456.28,211.61L462.31,188.88L470.87,156.64L481.42,188.94L488.86,211.7L495.76,232.81L503.67,257.01L503.9,257.01L528.33,257.08L534.74,232.92L540.33,211.85L546.36,189.13L554.93,156.82L572.38,156.87L563.81,189.18L557.78,211.91L552.19,232.98L545.78,257.14L570.21,257.21L613.9,257.33L614.07,257.33C614.06,257.36 614.05,257.39 614.05,257.42C608.46,278.95 602.87,300.48 597.28,322.02L621.32,322.02C626.93,300.49 632.54,278.95 638.15,257.42C638.15,257.41 638.15,257.4 638.16,257.4C642.22,241.83 646.27,226.26 650.33,210.68L650.33,210.76L655.09,192.42L613.22,192.42L608.02,211.95L625.8,212L625.9,212L625.88,212.08L621.45,228.79C621.45,228.8 621.44,228.82 621.44,228.83L620.29,233.15L576.6,233.03L582.19,211.96L588.22,189.23L596.79,156.92L640.48,157.04L640.46,157.13L635.27,176.7L659.41,176.78L664.6,157.13L664.6,157.11L670.98,132.95L646.89,132.88ZM521.92,189.05L515.89,211.78L515.68,211.78C513.24,204.19 510.81,196.6 508.37,189.02C504.91,178.23 501.44,167.44 497.98,156.66L530.49,156.75L521.92,189.05Z"
                  style="fill:url(#_Linear1);fill-rule:nonzero;stroke:rgb(230,230,230);stroke-width:2px;">

            </path>
        </g>
        <g transform="matrix(1.18575,0,0,1.21825,-374.128,-190.836)">
            <g>
                <path d="M326.36,303.01L326.36,311.42L332.29,311.42L332.29,303.01L334.7,303.01L334.7,322.63L332.29,322.63L332.29,313.46L326.36,313.46L326.36,322.63L323.95,322.63L323.95,303.01L326.36,303.01Z"
                      style="fill:rgb(169,166,166);fill-rule:nonzero;"></path>
                <path d="M356.68,316.75L355.27,322.63L352.95,322.63L357.78,303.01L360.45,303.01L365.15,322.63L362.77,322.63L361.36,316.75L356.68,316.75ZM361.04,314.95L359.94,309.97C359.63,308.57 359.34,306.94 359.09,305.49L358.96,305.49C358.71,306.98 358.4,308.66 358.11,309.97L357.01,314.95L361.04,314.95Z"
                      style="fill:rgb(169,166,166);fill-rule:nonzero;"></path>
                <path d="M383.45,322.63L383.45,303.01L385.74,303.01L389.63,312.21C390.51,314.31 391.61,316.93 392.33,319.05L392.39,319.05C392.2,315.96 392.11,313.43 392.11,310.02L392.11,303L394.27,303L394.27,322.62L391.98,322.62L387.97,313.19C387.12,311.21 386.21,308.97 385.46,306.52L385.4,306.52C385.59,309.14 385.65,311.64 385.65,315.84L385.65,322.62L383.45,322.62L383.45,322.63Z"
                      style="fill:rgb(169,166,166);fill-rule:nonzero;"></path>
                <path d="M413.71,303.3C414.65,303.04 415.75,302.92 416.97,302.92C419.2,302.92 420.76,303.44 421.92,304.4C423.55,305.71 424.77,308.24 424.77,312.35C424.77,316.83 423.58,319.28 422.23,320.62C420.85,322.08 418.84,322.74 416.4,322.74C415.43,322.74 414.42,322.68 413.7,322.54L413.7,303.3L413.71,303.3ZM416.12,320.8C416.46,320.86 416.81,320.86 417.03,320.86C419.7,320.86 422.27,319.08 422.27,312.42C422.27,307.47 420.64,304.76 417.25,304.76C416.87,304.76 416.43,304.79 416.12,304.88L416.12,320.8Z"
                      style="fill:rgb(169,166,166);fill-rule:nonzero;"></path>
                <path d="M476.72,314.19C476.56,311.6 476.41,308.72 476.5,306.5L476.38,306.5C475.91,308.68 475.34,311.01 474.69,313.31L472.09,322.51L470.55,322.51L468.07,313.69C467.38,311.19 466.75,308.77 466.35,306.5L466.26,306.5C466.26,308.8 466.13,311.54 466.01,314.33L465.6,322.63L463.44,322.63L464.69,303.01L467.29,303.01L469.77,311.98C470.49,314.57 471.02,316.49 471.46,318.73L471.55,318.73C471.96,316.49 472.43,314.63 473.12,311.98L475.5,303.01L478.2,303.01L479.42,322.63L477.16,322.63L476.72,314.19Z"
                      style="fill:rgb(169,166,166);fill-rule:nonzero;"></path>
                <path d="M500.71,316.75L499.3,322.63L496.98,322.63L501.81,303.01L504.48,303.01L509.18,322.63L506.8,322.63L505.39,316.75L500.71,316.75ZM505.07,314.95L503.97,309.97C503.66,308.57 503.37,306.94 503.12,305.49L503,305.49C502.75,306.98 502.44,308.66 502.15,309.97L501.05,314.95L505.07,314.95Z"
                      style="fill:rgb(169,166,166);fill-rule:nonzero;"></path>
                <path d="M527.48,303.3C528.42,303.04 529.52,302.92 530.74,302.92C532.97,302.92 534.53,303.44 535.69,304.4C537.32,305.71 538.54,308.24 538.54,312.35C538.54,316.83 537.35,319.28 536,320.62C534.62,322.08 532.61,322.74 530.17,322.74C529.2,322.74 528.19,322.68 527.47,322.54L527.47,303.3L527.48,303.3ZM529.9,320.8C530.24,320.86 530.59,320.86 530.81,320.86C533.48,320.86 536.05,319.08 536.05,312.42C536.05,307.47 534.42,304.76 531.03,304.76C530.65,304.76 530.21,304.79 529.9,304.88L529.9,320.8Z"
                      style="fill:rgb(169,166,166);fill-rule:nonzero;"></path>
                <path d="M564.83,313.31L559.52,313.31L559.52,320.68L565.54,320.68L565.54,322.63L557.11,322.63L557.11,303.01L565.17,303.01L565.17,304.96L559.53,304.96L559.53,311.42L564.83,311.42L564.83,313.31Z"
                      style="fill:rgb(169,166,166);fill-rule:nonzero;"></path>
            </g>
        </g>
        <g transform="matrix(0.991203,0,0,1,-282.399,-121.95)">
            <path d="M295,280L584,280"
                  style="fill:none;fill-rule:nonzero;stroke:rgb(230,230,230);stroke-width:2px;"></path>
        </g></g>
    <defs>
                        <linearGradient id="_Linear1" x1="0" y1="0" x2="1" y2="0" gradientUnits="userSpaceOnUse"
                                        gradientTransform="matrix(374.655,0,0,374.655,296.323,227)">
                            <stop offset="0" style="stop-color:rgb(241,90,36);stop-opacity:1"></stop>
                            <stop offset="0.09" style="stop-color:rgb(241,90,36);stop-opacity:1"></stop>
                            <stop offset="0.75" style="stop-color:rgb(244,232,6);stop-opacity:1"></stop>
                            <stop offset="1" style="stop-color:rgb(244,232,6);stop-opacity:1"></stop>
                        </linearGradient>
                    </defs>
                </svg>