<svg viewBox="0 0 64 64" fill="none" xmlns="http://www.w3.org/2000/svg">
<path fill-rule="evenodd" clip-rule="evenodd" d="M3 24.5C3 12.6259 12.6259 3 24.5 3C36.3741 3 46 12.6259 46 24.5C46 28.691 44.8019 32.599 42.7299 35.9039C41.018 38.6345 38.7094 40.9534 35.9872 42.6775C32.6647 44.7817 28.7262 46 24.5 46C12.6259 46 3 36.3741 3 24.5ZM24.5 1C11.5213 1 1 11.5213 1 24.5C1 37.4787 11.5213 48 24.5 48C28.8288 48 32.8867 46.8287 36.3711 44.7854L42.1498 50.564L46.7929 55.2071C47.1834 55.5976 47.8166 55.5976 48.2071 55.2071C48.5976 54.8166 48.5976 54.1834 48.2071 53.7929L44.2711 49.8569L49.9279 44.2001L59.9081 54.1803C61.4702 55.7424 61.4702 58.275 59.9081 59.8371C58.3461 61.3992 55.8134 61.3992 54.2513 59.8372L51.7071 57.2929C51.3166 56.9024 50.6834 56.9024 50.2929 57.2929C49.9024 57.6834 49.9024 58.3166 50.2929 58.7071L52.8371 61.2514L53.5442 60.5443L52.8371 61.2514C55.1802 63.5945 58.9792 63.5945 61.3224 61.2514C63.6655 58.9082 63.6655 55.1092 61.3224 52.7661L50.6351 42.0788L44.8377 36.2814C46.8487 32.8171 48 28.7917 48 24.5C48 11.5213 37.4787 1 24.5 1ZM42.8569 48.4427L38.089 43.6748C40.2779 42.1209 42.189 40.2017 43.7336 38.0058L48.5137 42.7859L42.8569 48.4427ZM24.5 11C23.0411 11 21.6617 11.3281 20.4291 11.9137C19.9302 12.1507 19.3337 11.9384 19.0967 11.4395C18.8598 10.9407 19.0721 10.3442 19.5709 10.1072C21.066 9.39693 22.7381 9 24.5 9C30.8513 9 36 14.1487 36 20.5C36 24.5042 34.1541 29.311 31.9226 33.0727C30.7994 34.966 29.5475 36.6479 28.3243 37.8712C27.7131 38.4824 27.0883 39 26.4701 39.3705C25.862 39.7349 25.1885 40 24.5 40C23.8115 40 23.138 39.7349 22.5299 39.3705C21.9117 39 21.2869 38.4824 20.6757 37.8712C19.4525 36.6479 18.2006 34.966 17.0774 33.0727C14.8459 29.311 13 24.5042 13 20.5C13 17.8128 13.9229 15.3385 15.4683 13.3805C15.8104 12.9469 16.4393 12.8729 16.8728 13.215C17.3063 13.5572 17.3804 14.186 17.0382 14.6195C15.7614 16.2372 15 18.2783 15 20.5C15 23.9958 16.6541 28.439 18.7976 32.0523C19.8619 33.8465 21.0163 35.3833 22.0899 36.457C22.6271 36.9942 23.1234 37.3945 23.558 37.6549C24.0026 37.9214 24.3135 38 24.5 38C24.6865 38 24.9974 37.9214 25.442 37.6549C25.8766 37.3945 26.3729 36.9942 26.9101 36.457C27.9837 35.3833 29.1381 33.8465 30.2024 32.0523C32.3459 28.439 34 23.9958 34 20.5C34 15.2533 29.7467 11 24.5 11ZM24.5 18C23.1193 18 22 19.1193 22 20.5C22 21.8807 23.1193 23 24.5 23C25.8807 23 27 21.8807 27 20.5C27 19.1193 25.8807 18 24.5 18ZM20 20.5C20 18.0147 22.0147 16 24.5 16C26.9853 16 29 18.0147 29 20.5C29 22.9853 26.9853 25 24.5 25C22.0147 25 20 22.9853 20 20.5Z" fill="url(#paint0_linear)"/>
<defs>
<linearGradient id="paint0_linear" x1="32.0399" y1="1" x2="32.0399" y2="63.0087" gradientUnits="userSpaceOnUse">
<stop stop-color="#18CED6"/>
<stop offset="1" stop-color="#18AED6"/>
</linearGradient>
</defs>
</svg>
