<svg viewBox="0 0 20 20" fill="none" xmlns="http://www.w3.org/2000/svg">
<path fill-rule="evenodd" clip-rule="evenodd" d="M7.07002 5.46102C7.07002 4.97618 7.47258 4.54102 8.03502 4.54102H10.9067C11.1881 4.54102 11.5018 4.61991 11.7135 4.90333C11.8968 5.14891 11.9284 5.457 11.9284 5.71268V9.20686C11.9984 9.1456 12.0863 9.06229 12.1996 8.94858C12.8145 8.25975 13.3505 7.37211 13.7381 6.63958C13.9312 6.27461 14.0842 5.9543 14.1888 5.72583C14.241 5.6117 14.2809 5.52076 14.3076 5.45895C14.321 5.42805 14.331 5.40445 14.3375 5.3889L14.3447 5.3717L14.3463 5.36781L14.3466 5.36714L14.3466 5.36707L14.3466 5.36705L14.3466 5.367L14.3501 5.35849L14.3502 5.35852C14.4294 5.17523 14.5566 4.96341 14.774 4.79895C14.9978 4.62956 15.2769 4.54102 15.6034 4.54102H17.4309C17.7699 4.54102 18.1445 4.62667 18.3671 4.94502C18.5774 5.24585 18.5372 5.59399 18.4668 5.8381C18.3883 6.1798 18.1759 6.62362 17.9399 7.05748C17.6907 7.51576 17.3836 8.01847 17.0878 8.48154C16.7914 8.94565 16.5027 9.37529 16.2884 9.6886C16.1812 9.84539 16.0923 9.97336 16.0302 10.0623C15.9991 10.1068 15.9747 10.1416 15.9579 10.1653L15.9411 10.1891C15.8987 10.2577 15.8743 10.2995 15.8586 10.3317C15.8693 10.3504 15.8879 10.3791 15.9193 10.4196L15.925 10.427L15.9305 10.4347C15.9953 10.5251 16.1605 10.6892 16.4161 10.9396C16.6484 11.1672 16.9297 11.4429 17.16 11.7139C17.5542 12.1572 17.9088 12.5761 18.1879 12.9539C18.4613 13.3239 18.6914 13.6927 18.7995 14.0302L18.8036 14.0428L18.8034 14.0429C18.9037 14.3872 18.903 14.7823 18.6377 15.0901C18.3879 15.38 18.0145 15.4585 17.6909 15.4585H15.8642C15.616 15.4585 15.3921 15.4071 15.1785 15.2952C14.9758 15.189 14.8041 15.0394 14.644 14.8789C14.5153 14.7499 14.3744 14.5931 14.2203 14.4217C14.1851 14.3825 14.1492 14.3426 14.1127 14.3021C13.9118 14.0796 13.6742 13.8208 13.3748 13.5212C12.405 12.5878 12.0355 12.494 11.9307 12.4846C11.9288 12.5183 11.9275 12.5597 11.9275 12.6102V14.2485C11.9275 14.5167 11.8867 14.9212 11.4894 15.1878C11.1707 15.4017 10.7039 15.4593 10.1234 15.4593C7.98842 15.4593 5.72337 14.1733 4.14223 11.905C2.98872 10.2881 2.2497 8.86215 1.79744 7.77014C1.57133 7.22416 1.416 6.75949 1.31642 6.39416C1.22074 6.04314 1.16669 5.74879 1.16669 5.55768C1.16669 5.37125 1.20041 5.08464 1.4233 4.85234C1.6479 4.61827 1.96487 4.54185 2.29335 4.54185H4.12002C4.42971 4.54185 4.7297 4.61181 4.97678 4.83939C5.19853 5.04364 5.31848 5.32488 5.40945 5.58907L5.40957 5.58943C5.84444 6.85554 6.42801 8.03952 6.97229 8.89944C7.24536 9.33085 7.49977 9.66674 7.71106 9.88813C7.74104 9.91955 7.76926 9.94771 7.79566 9.97283C7.79579 9.95991 7.79585 9.94653 7.79585 9.93268V7.2568C7.76618 6.75177 7.62467 6.51114 7.50473 6.34796C7.47066 6.30159 7.43661 6.25943 7.3971 6.21051L7.39288 6.20528L7.39238 6.20466C7.35437 6.1576 7.30613 6.09786 7.26268 6.03503C7.1699 5.90084 7.07002 5.71244 7.07002 5.46102ZM15.2696 5.75194L15.2683 5.75509L15.2594 5.77641C15.2516 5.79477 15.2404 5.82128 15.2258 5.85521C15.1965 5.92305 15.1536 6.02061 15.0981 6.14185C14.9873 6.38414 14.8257 6.72211 14.622 7.10725C14.2176 7.87152 13.6338 8.84655 12.9357 9.62555L12.9271 9.63519L12.9179 9.64436C12.5205 10.0442 12.1841 10.3543 11.7125 10.3543C11.165 10.3543 10.9284 9.80859 10.9284 9.33185V5.71268C10.9284 5.63454 10.9235 5.57918 10.9172 5.54111C10.9139 5.54105 10.9104 5.54102 10.9067 5.54102H8.14195C8.15063 5.5519 8.16022 5.56381 8.17088 5.57703L8.17821 5.5861C8.21539 5.63211 8.2625 5.69041 8.31051 5.75574C8.53559 6.06199 8.75559 6.48946 8.79511 7.21551L8.79585 7.22908V7.24268V9.93268C8.79585 10.2225 8.77625 10.5182 8.65125 10.744C8.57586 10.8803 8.46318 10.9917 8.31378 11.0591C8.17838 11.1202 8.04689 11.1293 7.95669 11.1293C7.73657 11.1293 7.54657 11.0335 7.41093 10.9442C7.26606 10.8488 7.12377 10.7212 6.98763 10.5785C6.71433 10.2922 6.4201 9.8968 6.12733 9.43426C5.54 8.50634 4.92321 7.25171 4.46393 5.91463M15.2696 5.75194C15.3066 5.66731 15.3434 5.62205 15.3773 5.59641C15.4051 5.57539 15.4648 5.54102 15.6034 5.54102H17.4309C17.4621 5.54102 17.4885 5.54234 17.5106 5.5444C17.5086 5.55197 17.5063 5.56002 17.5037 5.56854L17.4981 5.58732L17.4939 5.60648C17.4529 5.79522 17.3037 6.1343 17.0614 6.57969C16.828 7.00882 16.5349 7.4895 16.2451 7.9432C15.956 8.39587 15.6735 8.81637 15.463 9.12403C15.3579 9.27773 15.271 9.40294 15.2105 9.48954L15.1406 9.58915L15.1225 9.61481L15.1179 9.62118L15.1169 9.62271L15.1166 9.62305L15.1166 9.6231L15.1166 9.62311L15.1076 9.63574L15.0994 9.64892C15.0957 9.65498 15.0918 9.66124 15.0877 9.66768C15.0051 9.80025 14.8724 10.013 14.8521 10.2643C14.8276 10.5661 14.9613 10.8145 15.1238 11.0256C15.2472 11.1947 15.4731 11.4158 15.6787 11.6171C15.6913 11.6295 15.7038 11.6417 15.7162 11.6539C15.9566 11.8894 16.2054 12.1343 16.4011 12.3652L16.401 12.3653L16.4089 12.3742C16.7981 12.8117 17.1305 13.2055 17.3836 13.5481C17.6402 13.8955 17.7876 14.1539 17.8451 14.3289C17.8596 14.3802 17.8642 14.4158 17.8652 14.4379C17.8336 14.4479 17.7777 14.4585 17.6909 14.4585H15.8642C15.7645 14.4585 15.7018 14.4404 15.6425 14.4094C15.5725 14.3727 15.485 14.306 15.352 14.1727C15.2434 14.0638 15.1248 13.9319 14.9722 13.7623C14.9353 13.7212 14.8963 13.6778 14.855 13.6321C14.6482 13.403 14.3968 13.129 14.0786 12.8108L14.0786 12.8107L14.0719 12.8042C12.9793 11.7519 12.388 11.4835 11.9059 11.4835C11.7124 11.4835 11.3708 11.5004 11.1394 11.7876C11.0336 11.9191 10.9848 12.0677 10.9597 12.197C10.9347 12.3258 10.9275 12.4666 10.9275 12.6102V14.2485C10.9275 14.3112 10.9236 14.3462 10.9203 14.3644C10.8967 14.3766 10.841 14.3994 10.7291 14.4193C10.5924 14.4437 10.3979 14.4593 10.1234 14.4593C8.38569 14.4593 6.39991 13.3963 4.96111 11.331L4.96114 11.331L4.95786 11.3264C3.8473 9.77009 3.14472 8.40978 2.72135 7.38751C2.50955 6.8761 2.36852 6.45144 2.28122 6.13118C2.19003 5.7966 2.16669 5.60907 2.16669 5.55768C2.16669 5.5554 2.1667 5.55319 2.16673 5.55105C2.19423 5.5462 2.23524 5.54185 2.29335 5.54185H4.12002C4.27124 5.54185 4.29652 5.57166 4.2991 5.5747C4.2992 5.57482 4.29926 5.5749 4.2993 5.57493C4.32567 5.59922 4.38071 5.67296 4.46389 5.91453" fill="white"/>
</svg>
