<svg viewBox="0 0 20 20" fill="none" xmlns="http://www.w3.org/2000/svg">
<path fill-rule="evenodd" clip-rule="evenodd" d="M5.83329 2.1665C3.80825 2.1665 2.16663 3.80813 2.16663 5.83317V14.1665C2.16663 16.1915 3.80825 17.8332 5.83329 17.8332H14.1666C16.1917 17.8332 17.8333 16.1915 17.8333 14.1665V5.83317C17.8333 3.80813 16.1917 2.1665 14.1666 2.1665H5.83329ZM1.16663 5.83317C1.16663 3.25584 3.25596 1.1665 5.83329 1.1665H14.1666C16.744 1.1665 18.8333 3.25584 18.8333 5.83317V14.1665C18.8333 16.7438 16.744 18.8332 14.1666 18.8332H5.83329C3.25596 18.8332 1.16663 16.7438 1.16663 14.1665V5.83317ZM10.4516 7.16109C9.86211 7.07367 9.26005 7.17436 8.73106 7.44884C8.20208 7.72332 7.77311 8.15761 7.50518 8.68993C7.23724 9.22226 7.14398 9.82552 7.23866 10.4139C7.33334 11.0023 7.61114 11.5458 8.03254 11.9672C8.45395 12.3886 8.9975 12.6664 9.58588 12.7611C10.1743 12.8558 10.7775 12.7625 11.3099 12.4946C11.8422 12.2267 12.2765 11.7977 12.5509 11.2687C12.8254 10.7397 12.9261 10.1377 12.8387 9.54817C12.7495 8.94685 12.4693 8.39015 12.0395 7.9603C11.6096 7.53046 11.0529 7.25025 10.4516 7.16109ZM8.27049 6.56122C8.98617 6.18986 9.80073 6.05363 10.5983 6.1719C11.4118 6.29254 12.165 6.67164 12.7466 7.2532C13.3281 7.83475 13.7072 8.58793 13.8279 9.40149C13.9462 10.1991 13.8099 11.0136 13.4386 11.7293C13.0672 12.445 12.4796 13.0253 11.7594 13.3878C11.0392 13.7503 10.2231 13.8765 9.42701 13.7484C8.63096 13.6203 7.89557 13.2445 7.32544 12.6743C6.7553 12.1042 6.37946 11.3688 6.25136 10.5728C6.12327 9.77672 6.24944 8.96055 6.61194 8.24034C6.97444 7.52014 7.55481 6.93257 8.27049 6.56122ZM14.5833 4.9165C14.3072 4.9165 14.0833 5.14036 14.0833 5.4165C14.0833 5.69265 14.3072 5.9165 14.5833 5.9165H14.5916C14.8678 5.9165 15.0916 5.69265 15.0916 5.4165C15.0916 5.14036 14.8678 4.9165 14.5916 4.9165H14.5833Z" fill="white"/>
</svg>
