<svg viewBox="0 0 20 20" fill="none" xmlns="http://www.w3.org/2000/svg">
<path fill-rule="evenodd" clip-rule="evenodd" d="M18.653 2.11559C18.797 2.23538 18.862 2.42561 18.8214 2.60847L15.4881 17.6085C15.4506 17.777 15.3289 17.9142 15.1661 17.9716C15.0033 18.029 14.8224 17.9983 14.6876 17.8904L10.8704 14.8367L7.85351 17.8536C7.72712 17.9799 7.54288 18.0293 7.37026 17.9829C7.19764 17.9365 7.0629 17.8015 7.01684 17.6288L5.41478 11.6211L1.48093 10.0476C1.29291 9.97237 1.16882 9.79118 1.16665 9.58868C1.16449 9.38619 1.28468 9.20238 1.47106 9.12317L18.1377 2.03984C18.3101 1.96657 18.509 1.99581 18.653 2.11559ZM6.41941 11.5074L7.50538 15.5798L8.26758 12.7851C8.28894 12.7068 8.32904 12.6349 8.38443 12.5755L12.2144 8.47195L6.41941 11.5074ZM8.47773 15.8151L10.4797 13.8131C10.6599 13.633 10.9467 13.6171 11.1456 13.7762L14.6859 16.6084L17.6344 3.34034L2.9779 9.56933L5.80523 10.7003L14.3513 6.22376C14.5672 6.11065 14.8332 6.16973 14.981 6.36361C15.1287 6.55748 15.1151 6.82964 14.9488 7.00783L9.19982 13.1675L8.47773 15.8151Z" fill="white"/>
</svg>
