<svg width="19" height="15" viewBox="0 0 15 11" fill="#ccc" xmlns="http://www.w3.org/2000/svg">
    <path d="M1.31836 0.226562H13.6816C14.41 0.226562 15 0.820176 15 1.54492V9.45508C15 10.1841 14.4057 10.7734 13.6816 10.7734H1.31836C0.596045 10.7734 0 10.1866 0 9.45508V1.54492C0 0.821465 0.587607 0.226562 1.31836 0.226562ZM1.50299 1.10547C1.77234 1.37339 6.40772 5.98437 6.56777 6.14356C6.8168 6.39259 7.14785 6.5297 7.5 6.5297C7.85215 6.5297 8.1832 6.39256 8.43305 6.14274C8.54068 6.03566 13.1249 1.47561 13.497 1.10547H1.50299ZM14.1211 9.27619V1.72437L10.3231 5.50234L14.1211 9.27619ZM13.4965 9.89453L9.69996 6.12218L9.0537 6.76504C8.63868 7.18006 8.0869 7.4086 7.5 7.4086C6.9131 7.4086 6.36132 7.18006 5.94712 6.76586L5.30004 6.12218L1.50355 9.89453H13.4965ZM0.878906 9.27619L4.67689 5.50234L0.878906 1.72437V9.27619Z"></path>
</svg>