<svg viewBox="0 0 25 24" fill="none" xmlns="http://www.w3.org/2000/svg">
<path fill-rule="evenodd" clip-rule="evenodd" d="M6.84315 4.34314C8.34344 2.84285 10.3783 1.99999 12.5 1.99999C14.6217 1.99999 16.6566 2.84285 18.1569 4.34314C19.6571 5.84343 20.5 7.87826 20.5 9.99999C20.5 13.0981 18.4843 16.1042 16.274 18.4372C15.1894 19.5822 14.1013 20.5195 13.2833 21.1708C12.9789 21.4133 12.713 21.6152 12.5 21.7726C12.287 21.6152 12.0211 21.4133 11.7167 21.1708C10.8987 20.5195 9.81061 19.5822 8.72595 18.4372C6.51574 16.1042 4.5 13.0981 4.5 9.99999C4.5 7.87826 5.34285 5.84343 6.84315 4.34314ZM11.9448 23.8317C11.945 23.8319 11.9453 23.832 12.5 23L11.9453 23.832C12.2812 24.056 12.7188 24.056 13.0547 23.832L12.5 23C13.0547 23.832 13.055 23.8319 13.0552 23.8317L13.056 23.8312L13.0581 23.8298L13.0648 23.8253L13.0877 23.8098C13.1072 23.7966 13.1349 23.7776 13.1704 23.753C13.2415 23.7038 13.3435 23.6321 13.4722 23.5392C13.7295 23.3534 14.0936 23.0822 14.5292 22.7354C15.3987 22.043 16.5606 21.0428 17.726 19.8127C20.0157 17.3957 22.5 13.9019 22.5 9.99999C22.5 7.34783 21.4464 4.80429 19.5711 2.92892C17.6957 1.05356 15.1522 -7.62939e-06 12.5 -7.62939e-06C9.84784 -7.62939e-06 7.3043 1.05356 5.42893 2.92892C3.55357 4.80429 2.5 7.34783 2.5 9.99999C2.5 13.9019 4.98426 17.3957 7.27405 19.8127C8.43939 21.0428 9.60133 22.043 10.4708 22.7354C10.9064 23.0822 11.2705 23.3534 11.5278 23.5392C11.6565 23.6321 11.7585 23.7038 11.8296 23.753C11.8651 23.7776 11.8928 23.7966 11.9123 23.8098L11.9352 23.8253L11.9419 23.8298L11.944 23.8312L11.9448 23.8317ZM10.5 9.99999C10.5 8.89542 11.3954 7.99999 12.5 7.99999C13.6046 7.99999 14.5 8.89542 14.5 9.99999C14.5 11.1046 13.6046 12 12.5 12C11.3954 12 10.5 11.1046 10.5 9.99999ZM12.5 5.99999C10.2909 5.99999 8.5 7.79085 8.5 9.99999C8.5 12.2091 10.2909 14 12.5 14C14.7091 14 16.5 12.2091 16.5 9.99999C16.5 7.79085 14.7091 5.99999 12.5 5.99999Z" fill="#3955FE"/>
</svg>
