<svg width="90" height="60" viewBox="0 0 90 60" fill="none" xmlns="http://www.w3.org/2000/svg">
<path d="M6 46L85 46" stroke="#E9EFFF" stroke-width="2" stroke-linecap="round" stroke-linejoin="round"/>
<path d="M41 23L39 28L37 29L23 30L22 31C27.5 31.5 30.2285 33.9853 31 39C34.6316 39 38.7983 35.1783 40.5 30.5C41.2275 28.5 41 23 41 23Z" fill="#ADC6FE"/>
<path d="M45 23L46.4501 27L48.4501 29L69 30C69 30 69 32 67 32H50C48 32 46.3324 30.7663 45.5 29C45 27.939 45 23 45 23Z" fill="#ADC6FE"/>
<path d="M26.2966 21.4195L24.1729 23.1893C22.9423 24.2148 21.1327 24.1327 20 23L26.1333 18.4C27.345 17.4912 28.8187 17 30.3333 17H37C37 18.6569 35.6569 20 34 20H30.2173C28.7846 20 27.3972 20.5023 26.2966 21.4195Z" fill="#E9EFFF"/>
<path d="M70 20H46V17H73C73 18.6569 71.6569 20 70 20Z" fill="#E9EFFF"/>
<path d="M19 24L27 17H31.5M31.5 17H40V24.7889C40 25.5786 39.7662 26.3506 39.3282 27.0077L39.0998 27.3503C38.4068 28.3897 37.268 29.0457 36.0211 29.1237L22 30L20 27H16.2311C15.4134 27 14.5989 27.1003 13.8057 27.2986L7 29L9 31L6 33V37.2919C6 38.9275 6.9958 40.3983 8.51443 41.0058L11 42V41C11 41 11 33 19 33C27 33 27 41 27 41V42H66V40C66 40 66 33 74 33C82 33 82 40 82 40V42L83.6325 41.4558C84.4491 41.1836 85 40.4193 85 39.5585V36H84L83 33L84 32L83.4558 30.3675C83.1836 29.5509 82.4193 29 81.5585 29H80M31.5 17L28 14L28.8284 13.1716C29.5786 12.4214 30.596 12 31.6569 12H75.8179C77.6806 12 79.2967 13.2856 79.7155 15.1006L82 25H80.3197C78.3948 25 76.7429 23.629 76.3882 21.7372L75.5 17H46V24.7889C46 25.5786 46.2338 26.3506 46.6718 27.0077L46.8125 27.2188C47.5544 28.3316 48.8033 29 50.1407 29H56M56 29V23M56 29H67M72 29H67M67 29V23" stroke="#3955FE" stroke-width="2" stroke-linecap="round" stroke-linejoin="round"/>
<rect x="-1" y="1" width="10" height="10" rx="5" transform="matrix(-1 0 0 1 78 35)" stroke="#262425" stroke-width="2"/>
<mask id="path-8-inside-1" fill="white">
<path d="M76 41H72C72 42.1046 72.8954 43 74 43C75.1046 43 76 42.1046 76 41Z"/>
</mask>
<path d="M76 41V39H78V41H76ZM72 41H70V39H72V41ZM74 41H78C78 43.2091 76.2091 45 74 45V41ZM74 41V45C71.7909 45 70 43.2091 70 41H74ZM76 43H72V39H76V43Z" fill="#ADC6FE" mask="url(#path-8-inside-1)"/>
<mask id="path-10-inside-2" fill="white">
<path d="M21 41H17C17 42.1046 17.8954 43 19 43C20.1046 43 21 42.1046 21 41Z"/>
</mask>
<path d="M21 41V39H23V41H21ZM17 41H15V39H17V41ZM19 41H23C23 43.2091 21.2091 45 19 45V41ZM19 41V45C16.7909 45 15 43.2091 15 41H19ZM21 43H17V39H21V43Z" fill="#ADC6FE" mask="url(#path-10-inside-2)"/>
<rect x="-1" y="1" width="10" height="10" rx="5" transform="matrix(-1 0 0 1 23 35)" stroke="#262425" stroke-width="2"/>
</svg>
