<svg xmlns="http://www.w3.org/2000/svg" width="100" height="41" viewBox="0 0 100 41" fill="none">
    <mask id="path-1-inside-1" fill="white">
        <path d="M89.3571 0C86.1036 0 85.9389 0.00782926 85.5134 0.17657C85.1316 0.328028 84.9503 0.34668 84.228 0.309139C83.7655 0.285088 80.8143 0.271206 77.6697 0.278283C74.5251 0.285365 71.4227 0.276624 70.7753 0.259423C69.2678 0.218731 60.2277 0.218527 58.6258 0.259139C57.9552 0.276112 56.2618 0.288437 54.863 0.286281C53.4641 0.284069 51.9129 0.282908 51.4157 0.284013C50.9186 0.285174 47.8066 0.281249 44.5002 0.276014C35.6988 0.262086 33.9134 0.344032 30.5848 0.914007C28.9315 1.19712 27.6703 1.62628 26.268 2.38314C25.2131 2.95245 25.2906 2.88904 22.219 5.69453C19.6423 8.048 17.0987 10.5819 14.7414 13.1442C13.4366 14.5623 13.3604 14.6301 13.2477 14.469C13.0432 14.177 12.8323 14.2674 12.3689 14.8459C11.9571 15.3599 11.9102 15.3927 11.5835 15.3927C11.3124 15.3927 11.1862 15.4445 11.01 15.6284C10.8857 15.7582 10.7841 15.902 10.7841 15.9479C10.7841 16.1302 10.0704 16.6856 8.30361 17.8781C5.88195 19.5127 3.26317 21.5152 2.40365 22.3898C1.7735 23.0311 1.16345 23.939 1.07675 24.3638C1.04635 24.5126 0.680161 25.3784 0.526109 25.6661C0.480458 25.7514 0.498089 25.9758 0.572368 26.2549C0.645641 26.5302 0.672219 26.8609 0.640623 27.104C0.594254 27.4609 0.60807 27.5094 0.772573 27.5703L0.956216 27.6383L0.783423 27.7949C0.59217 27.968 0.551234 28.3124 0.715455 28.3672C0.773264 28.3865 0.650229 28.4589 0.442131 28.5283C0.0330145 28.6647 -0.0945813 28.8866 0.185093 28.9755C0.334409 29.0229 0.358163 29.0995 0.358163 29.5372C0.358163 29.9733 0.334619 30.0502 0.189946 30.088C0.044471 30.126 0.0217285 30.2028 0.0217285 30.6563C0.0217285 31.7025 0.122907 32.4794 0.265916 32.5326C0.339709 32.5599 0.53924 32.7393 0.709453 32.9308C1.11643 33.389 2.64963 34.0678 3.84365 34.3185C4.30404 34.4152 4.7305 34.5355 4.79127 34.586C4.92027 34.6931 8.75885 34.601 9.06816 34.4834C9.20997 34.4294 9.28208 34.2966 9.3609 33.9443L9.46543 33.4768H9.88355H10.3014L10.2537 33.772C10.1677 34.302 10.4765 35.7208 10.8535 36.5274C11.3844 37.6635 12.5721 38.9401 13.413 39.2785C13.4373 39.2883 13.5408 39.2976 13.698 39.3065C14.5769 39.7634 15.5525 40.0029 16.5429 40.0047C17.4915 40.0035 18.4271 39.7844 19.2776 39.3642L19.5909 39.3647L20.2112 38.9582C21.5096 38.1068 22.506 36.4667 22.7625 34.7585C22.8335 34.2856 22.8916 33.7891 22.8916 33.6551C22.8916 33.4392 22.9251 33.4072 23.1854 33.3768C23.5109 33.3388 23.5115 33.3398 23.6407 34.0236C23.6844 34.255 23.7599 34.5484 23.8083 34.6756L23.8963 34.9071H33.4788H43.0616L43.0873 35.3065L43.1127 35.7059L48.9356 35.7276L54.7579 35.7494V35.3325V34.9157L62.8087 34.9323C70.1738 34.9475 70.8857 34.9367 71.1691 34.8083C71.5242 34.6471 71.722 34.3211 71.7971 33.7728L71.8491 33.3928H72.2252H72.6014L72.5582 33.7083C72.5345 33.8817 72.5702 34.3833 72.6376 34.8228C72.8802 36.4067 73.9696 38.1689 75.2112 38.9854L75.7244 39.3228L76.0297 39.325C76.8986 39.7696 77.8601 40.0025 78.8361 40.0047C79.7815 40.0034 80.7141 39.7855 81.5624 39.3679L81.9237 39.3706L82.5006 38.9641C83.3199 38.3866 84.1318 37.3981 84.5804 36.4321C85.0365 35.4497 85.2554 34.1629 85.1141 33.2924C84.9827 32.4819 84.9862 32.4675 85.3098 32.4675C85.5891 32.4675 85.5936 32.474 85.7005 32.9933C85.9053 33.988 86.1084 34.519 86.3517 34.6964C86.5705 34.856 86.7153 34.8647 89.1888 34.8647C90.6224 34.8647 92.3155 34.8354 92.9513 34.7995C94.0777 34.736 94.1075 34.7387 94.1075 34.9047C94.1075 35.1226 94.2713 35.1237 95.6303 34.9149C96.267 34.8172 96.8641 34.6702 97.166 34.5367C97.4376 34.4165 97.7251 34.3178 97.8049 34.3178C98.2119 34.3178 98.9657 33.4851 98.8744 33.1361C98.8524 33.052 98.8813 32.9652 98.9384 32.9433C99.084 32.8873 99.1885 31.477 99.0586 31.3204C99.0057 31.2566 98.8143 31.1805 98.6334 31.1516L98.3044 31.099L98.3712 30.3744C98.4078 29.9758 98.4349 26.9056 98.4317 23.5516C98.4273 18.6903 98.3978 17.0865 98.2864 15.6448C98.2095 14.6502 98.1081 13.2119 98.061 12.4486C97.9495 10.642 97.7445 7.91823 97.6401 6.85522C97.5946 6.3926 97.5185 5.48405 97.471 4.83638C97.4235 4.18871 97.3426 3.33383 97.2913 2.9364C97.2295 2.45665 97.226 2.15959 97.2811 2.05298C97.3776 1.86577 97.3318 1.68212 97.1885 1.68212C97.1335 1.68212 97.0188 1.55259 96.9335 1.39413C96.5375 0.658454 95.7617 0.336423 94.3856 0.336423C93.8075 0.336423 93.5004 0.293437 93.1827 0.16814C92.781 0.00973874 92.5578 0.000142364 89.357 0.000142364L89.3571 0Z"/>
    </mask>
    <path d="M89.3571 0C86.1036 0 85.9389 0.00782926 85.5134 0.17657C85.1316 0.328028 84.9503 0.34668 84.228 0.309139C83.7655 0.285088 80.8143 0.271206 77.6697 0.278283C74.5251 0.285365 71.4227 0.276624 70.7753 0.259423C69.2678 0.218731 60.2277 0.218527 58.6258 0.259139C57.9552 0.276112 56.2618 0.288437 54.863 0.286281C53.4641 0.284069 51.9129 0.282908 51.4157 0.284013C50.9186 0.285174 47.8066 0.281249 44.5002 0.276014C35.6988 0.262086 33.9134 0.344032 30.5848 0.914007C28.9315 1.19712 27.6703 1.62628 26.268 2.38314C25.2131 2.95245 25.2906 2.88904 22.219 5.69453C19.6423 8.048 17.0987 10.5819 14.7414 13.1442C13.4366 14.5623 13.3604 14.6301 13.2477 14.469C13.0432 14.177 12.8323 14.2674 12.3689 14.8459C11.9571 15.3599 11.9102 15.3927 11.5835 15.3927C11.3124 15.3927 11.1862 15.4445 11.01 15.6284C10.8857 15.7582 10.7841 15.902 10.7841 15.9479C10.7841 16.1302 10.0704 16.6856 8.30361 17.8781C5.88195 19.5127 3.26317 21.5152 2.40365 22.3898C1.7735 23.0311 1.16345 23.939 1.07675 24.3638C1.04635 24.5126 0.680161 25.3784 0.526109 25.6661C0.480458 25.7514 0.498089 25.9758 0.572368 26.2549C0.645641 26.5302 0.672219 26.8609 0.640623 27.104C0.594254 27.4609 0.60807 27.5094 0.772573 27.5703L0.956216 27.6383L0.783423 27.7949C0.59217 27.968 0.551234 28.3124 0.715455 28.3672C0.773264 28.3865 0.650229 28.4589 0.442131 28.5283C0.0330145 28.6647 -0.0945813 28.8866 0.185093 28.9755C0.334409 29.0229 0.358163 29.0995 0.358163 29.5372C0.358163 29.9733 0.334619 30.0502 0.189946 30.088C0.044471 30.126 0.0217285 30.2028 0.0217285 30.6563C0.0217285 31.7025 0.122907 32.4794 0.265916 32.5326C0.339709 32.5599 0.53924 32.7393 0.709453 32.9308C1.11643 33.389 2.64963 34.0678 3.84365 34.3185C4.30404 34.4152 4.7305 34.5355 4.79127 34.586C4.92027 34.6931 8.75885 34.601 9.06816 34.4834C9.20997 34.4294 9.28208 34.2966 9.3609 33.9443L9.46543 33.4768H9.88355H10.3014L10.2537 33.772C10.1677 34.302 10.4765 35.7208 10.8535 36.5274C11.3844 37.6635 12.5721 38.9401 13.413 39.2785C13.4373 39.2883 13.5408 39.2976 13.698 39.3065C14.5769 39.7634 15.5525 40.0029 16.5429 40.0047C17.4915 40.0035 18.4271 39.7844 19.2776 39.3642L19.5909 39.3647L20.2112 38.9582C21.5096 38.1068 22.506 36.4667 22.7625 34.7585C22.8335 34.2856 22.8916 33.7891 22.8916 33.6551C22.8916 33.4392 22.9251 33.4072 23.1854 33.3768C23.5109 33.3388 23.5115 33.3398 23.6407 34.0236C23.6844 34.255 23.7599 34.5484 23.8083 34.6756L23.8963 34.9071H33.4788H43.0616L43.0873 35.3065L43.1127 35.7059L48.9356 35.7276L54.7579 35.7494V35.3325V34.9157L62.8087 34.9323C70.1738 34.9475 70.8857 34.9367 71.1691 34.8083C71.5242 34.6471 71.722 34.3211 71.7971 33.7728L71.8491 33.3928H72.2252H72.6014L72.5582 33.7083C72.5345 33.8817 72.5702 34.3833 72.6376 34.8228C72.8802 36.4067 73.9696 38.1689 75.2112 38.9854L75.7244 39.3228L76.0297 39.325C76.8986 39.7696 77.8601 40.0025 78.8361 40.0047C79.7815 40.0034 80.7141 39.7855 81.5624 39.3679L81.9237 39.3706L82.5006 38.9641C83.3199 38.3866 84.1318 37.3981 84.5804 36.4321C85.0365 35.4497 85.2554 34.1629 85.1141 33.2924C84.9827 32.4819 84.9862 32.4675 85.3098 32.4675C85.5891 32.4675 85.5936 32.474 85.7005 32.9933C85.9053 33.988 86.1084 34.519 86.3517 34.6964C86.5705 34.856 86.7153 34.8647 89.1888 34.8647C90.6224 34.8647 92.3155 34.8354 92.9513 34.7995C94.0777 34.736 94.1075 34.7387 94.1075 34.9047C94.1075 35.1226 94.2713 35.1237 95.6303 34.9149C96.267 34.8172 96.8641 34.6702 97.166 34.5367C97.4376 34.4165 97.7251 34.3178 97.8049 34.3178C98.2119 34.3178 98.9657 33.4851 98.8744 33.1361C98.8524 33.052 98.8813 32.9652 98.9384 32.9433C99.084 32.8873 99.1885 31.477 99.0586 31.3204C99.0057 31.2566 98.8143 31.1805 98.6334 31.1516L98.3044 31.099L98.3712 30.3744C98.4078 29.9758 98.4349 26.9056 98.4317 23.5516C98.4273 18.6903 98.3978 17.0865 98.2864 15.6448C98.2095 14.6502 98.1081 13.2119 98.061 12.4486C97.9495 10.642 97.7445 7.91823 97.6401 6.85522C97.5946 6.3926 97.5185 5.48405 97.471 4.83638C97.4235 4.18871 97.3426 3.33383 97.2913 2.9364C97.2295 2.45665 97.226 2.15959 97.2811 2.05298C97.3776 1.86577 97.3318 1.68212 97.1885 1.68212C97.1335 1.68212 97.0188 1.55259 96.9335 1.39413C96.5375 0.658454 95.7617 0.336423 94.3856 0.336423C93.8075 0.336423 93.5004 0.293437 93.1827 0.16814C92.781 0.00973874 92.5578 0.000142364 89.357 0.000142364L89.3571 0Z" stroke="url(#paint0_linear)" stroke-width="2" mask="url(#path-1-inside-1)"/>
    <path d="M7.98071 24.3748L8.05195 24.2364L21.0391 22.0006L89.3569 22.998L91.6721 24.4019L7.98071 24.3748Z" stroke="url(#paint1_linear)"/>
    <path d="M98 18C97.823 18.2091 95.888 19.1935 95 21H98V18Z" stroke="url(#paint2_linear)"/>
    <path d="M51.9841 5.29696V5.33107H46.5561C42.8035 5.33107 41.0063 5.36049 40.7335 5.42631C40.2521 5.54251 39.7404 6.00141 39.6237 6.42162C39.5135 6.81838 39.5137 14.6109 39.6237 15.0077C39.6692 15.1717 39.8309 15.4265 39.983 15.5739C40.5203 16.0949 40.5282 16.0956 46.5396 16.0966L51.9838 16.0977V16.1021L52.2435 16.0966L52.2468 16.0977H54.8743C57.7972 16.0977 58.0117 16.0667 58.5226 15.5713C58.674 15.4246 58.8364 15.1613 58.8835 14.9862C58.9773 14.6377 59.0025 6.83385 58.9111 6.4433C58.8816 6.31747 58.7211 6.07137 58.5543 5.89649C58.0528 5.37076 57.7925 5.33132 54.8276 5.33132H52.2363V5.29731L51.9841 5.29696Z" stroke="url(#paint3_linear)"/>
    <path d="M86.2326 5.65296C90.186 5.65573 91.9589 5.6764 92.0903 5.7174C92.2821 5.77726 92.4724 5.93363 92.6368 6.16626L92.889 6.52308L92.9124 10.5567C92.9274 13.1507 92.9047 14.7057 92.8486 14.9139C92.7942 15.116 92.6591 15.3149 92.489 15.4434C92.3391 15.5565 92.1029 15.6837 91.9642 15.7261C91.8132 15.7722 85.6468 15.7864 76.6031 15.7612L61.4944 15.7191L61.2092 15.4425C60.7543 15.0014 60.7283 14.7465 60.7283 10.7145C60.7283 6.68254 60.7543 6.42743 61.2092 5.98637L61.4944 5.70977L76.6452 5.66775C80.7037 5.65647 83.8606 5.65138 86.2326 5.65298L86.2326 5.65296Z" stroke="url(#paint4_linear)"/>
    <path d="M34.5747 6.00005C36.0823 6.00226 36.2805 6.10183 36.4782 6.43671C36.6143 6.66714 36.625 6.82854 36.5776 7.92277C36.5251 9.13401 36.3138 11.2153 36.06 13.0194C35.8194 14.7295 35.5975 15.3104 35.0693 15.6136C34.5155 15.9316 33.0774 16.1762 30.275 16.4293C28.7585 16.5662 27.5083 16.6783 27.4968 16.6783C27.4854 16.6783 27.1193 16.3147 27.1193 16.3147C27.1193 16.3147 21.0174 17.2442 20.5174 17.2442C18.2813 17.2442 24.0174 10.2442 24.0174 10.2442C24.0174 10.2442 27.8266 6.42705 27.8618 6.38854C28.0246 6.21034 29.7517 6.07732 32.582 6.02482C33.424 6.00923 34.0722 5.99922 34.5747 6.00005Z" stroke="url(#paint5_linear)"/>
    <path d="M2.44583 25.1549C2.46348 25.128 2.51409 25.0708 2.59443 24.9982C2.67072 24.9293 2.75915 24.8596 2.83927 24.8065L2.83928 24.8065C3.1138 24.6248 3.25898 24.5729 4.25667 24.3933L4.21842 24.1808L4.25667 24.3933C4.6658 24.3196 6.35712 24.1663 7.15353 24.1194C7.06651 24.2509 6.95575 24.4091 6.83201 24.5787C6.508 25.0229 6.10911 25.5263 5.83798 25.8145C5.45407 26.2225 5.0953 26.5002 4.6712 26.7009C4.2443 26.9028 3.73751 27.0332 3.04816 27.128L3.04816 27.128C2.41035 27.2157 2.03786 27.2566 1.82617 27.2572C1.81484 27.2572 1.80435 27.2572 1.79466 27.257C1.80961 27.1886 1.8307 27.1024 1.8567 27.0029C1.91228 26.7902 1.9882 26.5247 2.06863 26.2589C2.14905 25.9932 2.23325 25.7296 2.30518 25.521C2.34121 25.4165 2.37351 25.3277 2.40025 25.26C2.41364 25.2261 2.42495 25.1993 2.43407 25.1794C2.44245 25.1611 2.44652 25.154 2.44646 25.154C2.44645 25.154 2.44624 25.1543 2.44583 25.1549ZM2.44583 25.1549L2.23797 25.0188L2.44582 25.1549C2.44582 25.1549 2.44583 25.1549 2.44583 25.1549ZM7.52931 23.8562L7.52931 23.8561L7.52931 23.8562Z" stroke="url(#paint6_linear)" stroke-width="0.5"/>
    <path d="M4.88494 28.2503L4.88486 28.2503C3.9909 28.2517 3.30795 28.258 2.84403 28.2691C2.6116 28.2747 2.4369 28.2814 2.31907 28.2891C2.27269 28.2921 2.23782 28.2951 2.21302 28.2979C2.17118 28.3262 2.12722 28.3467 2.08883 28.3612C2.02956 28.3835 1.95834 28.4006 1.88601 28.4021C1.88085 28.4037 1.87247 28.4071 1.862 28.4128C1.85127 28.4186 1.84062 28.4256 1.83123 28.4331L4.88494 28.2503ZM4.88494 28.2503C5.4805 28.2492 6.16928 28.2509 6.94868 28.2542C6.9487 28.2542 6.94873 28.2542 6.94876 28.2542L11.2429 28.2738C11.0736 28.5263 10.792 29.0464 10.5444 29.5375C10.4179 29.7886 10.2978 30.0369 10.2032 30.245C10.1118 30.4461 10.0355 30.6282 10.0064 30.7371C9.75103 31.6919 9.45343 32.9609 9.40582 33.3095L9.65352 33.3433L9.40582 33.3095C9.40138 33.342 9.39721 33.3729 9.39325 33.4021C9.37034 33.5715 9.35466 33.6874 9.33464 33.7757C9.31144 33.8779 9.29207 33.893 9.29206 33.893L9.29204 33.893C9.29039 33.8945 9.26964 33.9134 9.1598 33.9298C9.06598 33.9438 8.94373 33.9519 8.76719 33.9635C8.73669 33.9655 8.70456 33.9676 8.67069 33.9699C7.85617 34.0246 7.04415 34.0604 6.43385 34.0732C6.12815 34.0797 5.87612 34.0803 5.70071 34.0749C5.61849 34.0723 5.55809 34.0686 5.51861 34.0644C5.50825 34.0578 5.49881 34.0525 5.4913 34.0485C5.46313 34.0334 5.43122 34.02 5.40138 34.0086C5.33991 33.985 5.25867 33.9588 5.1661 33.9317C4.97949 33.877 4.72923 33.8135 4.45939 33.7536C4.05382 33.6637 3.38768 33.4463 2.80447 33.2275C2.63962 33.1657 2.48314 33.1044 2.34275 33.0467C2.90823 32.9695 3.33504 32.8391 3.62575 32.5282C3.95306 32.1781 4.05862 31.6502 4.11935 30.9267L3.87022 30.9058L4.11935 30.9267L4.1203 30.9153C4.13973 30.6839 4.15717 30.4762 4.1403 30.3116C4.12151 30.1284 4.05547 29.9512 3.87326 29.8337C3.71873 29.734 3.51198 29.7012 3.28487 29.6853C3.04878 29.6687 2.73683 29.6685 2.33892 29.6685H1.29469L1.27736 29.269L1.27735 29.269L1.25729 28.8045L1.34852 28.7664C1.34854 28.7664 1.34856 28.7664 1.34858 28.7664C1.43515 28.7303 1.52526 28.6802 1.60272 28.6287C1.6761 28.5799 1.7573 28.5173 1.81235 28.4508L4.88494 28.2503Z" stroke="url(#paint7_linear)" stroke-width="0.5"/>
    <path d="M97.3718 29.2556L95.9419 29.272L95.9419 29.272L94.4898 29.2885L94.4789 31.7876C94.4789 31.7876 94.4789 31.7877 94.4789 31.7877C94.4755 32.604 94.4756 33.3499 94.4789 33.895C94.4798 34.0438 94.4807 34.1766 94.4818 34.2913C94.6674 34.2682 94.8936 34.2363 95.1371 34.1984C95.9556 34.0713 96.4054 33.954 96.7688 33.7946C97.2696 33.5749 97.4871 33.4113 97.6112 33.229L97.6112 33.229C97.7379 33.0429 97.8168 32.7653 97.8522 32.1932C97.8522 32.1932 97.8522 32.1932 97.8522 32.1932C97.8522 32.193 97.8522 32.1929 97.8522 32.1928L97.8702 31.8977C97.8569 31.8938 97.8438 31.8896 97.8309 31.8852L97.3718 29.2556ZM97.3718 29.2556L97.3587 30.0083C97.3587 30.0083 97.3587 30.0084 97.3587 30.0084C97.3526 30.3565 97.3536 30.6878 97.3611 30.9412C97.3648 31.0677 97.3704 31.1793 97.3777 31.2662L97.3777 31.2666C97.3779 31.2682 97.378 31.27 97.3782 31.2718C97.3807 31.302 97.385 31.3521 97.3927 31.3973C97.3986 31.4327 97.4063 31.4625 97.413 31.4848C97.4165 31.4965 97.4199 31.5068 97.4229 31.5155L97.4273 31.5274L97.4293 31.5327L97.4303 31.5353L97.431 31.5369L97.4316 31.5385L97.4324 31.5406L97.4338 31.544C97.435 31.5466 97.4434 31.5656 97.4514 31.5817L97.462 31.6021L97.4744 31.6214C97.5393 31.7229 97.6247 31.7813 97.666 31.8071C97.7189 31.8402 97.7753 31.866 97.8309 31.8851L97.3718 29.2556ZM97.8641 29.1328L97.8731 29.1812L97.872 29.25C97.8668 29.2501 97.8616 29.2502 97.8564 29.2501L97.8655 29.25L97.8641 29.1328Z" stroke="url(#paint8_linear)"/>
    <path d="M95 22L95.0606 25.0982C95.0662 25.4116 95.163 26.0222 95.4388 25.9994L98 25.8594V22H95Z" stroke="url(#paint9_linear)"/>
    <path d="M25.0689 27.578C25.0671 27.5597 25.0652 27.5414 25.0633 27.5231H72.9881C72.9036 27.6984 72.8059 27.8901 72.7025 28.0794C72.5579 28.3442 72.4076 28.5948 72.272 28.7868C72.2063 28.8798 72.1493 28.9515 72.103 29.0018L25.4449 29.4982C25.4265 29.4642 25.4046 29.4165 25.3808 29.3522C25.3033 29.1429 25.239 28.8501 25.1865 28.5208C25.1348 28.1967 25.0982 27.8624 25.0689 27.578ZM25.4841 29.5582C25.4841 29.5583 25.4836 29.5578 25.4825 29.5565C25.4836 29.5576 25.4841 29.5582 25.4841 29.5582Z" stroke="url(#paint10_linear)"/>
    <path d="M78.6795 35.1641C79.2453 35.1641 79.704 34.7052 79.704 34.1392C79.704 33.5731 79.2453 33.1142 78.6795 33.1142C78.1136 33.1142 77.6549 33.5731 77.6549 34.1392C77.6549 34.7052 78.1136 35.1641 78.6795 35.1641Z" fill="white"/>
    <path d="M78.6533 40.3725C82.0742 40.3725 84.8473 37.5984 84.8473 34.1762C84.8473 30.7541 82.0742 27.9799 78.6533 27.9799C75.2325 27.9799 72.4594 30.7541 72.4594 34.1762C72.4594 37.5984 75.2325 40.3725 78.6533 40.3725Z" stroke="url(#paint11_linear)" stroke-width="0.619748"/>
    <path d="M78.6534 37.958C80.8501 37.958 82.6308 36.1765 82.6308 33.979C82.6308 31.7815 80.8501 30 78.6534 30C76.4567 30 74.6759 31.7815 74.6759 33.979C74.6759 36.1765 76.4567 37.958 78.6534 37.958Z" stroke="url(#paint12_linear)" stroke-width="0.619748"/>
    <path d="M78.6533 35.2692C79.2567 35.2692 79.7459 34.7799 79.7459 34.1762C79.7459 33.5726 79.2567 33.0833 78.6533 33.0833C78.0499 33.0833 77.5608 33.5726 77.5608 34.1762C77.5608 34.7799 78.0499 35.2692 78.6533 35.2692Z" stroke="url(#paint13_linear)" stroke-width="0.619748"/>
    <path d="M16.3863 35.1641C16.9522 35.1641 17.4109 34.7052 17.4109 34.1392C17.4109 33.5731 16.9522 33.1142 16.3863 33.1142C15.8205 33.1142 15.3618 33.5731 15.3618 34.1392C15.3618 34.7052 15.8205 35.1641 16.3863 35.1641Z" fill="white"/>
    <path d="M16.3602 38.1552C18.5569 38.1552 20.3377 36.3738 20.3377 34.1762C20.3377 31.9787 18.5569 30.1972 16.3602 30.1972C14.1635 30.1972 12.3828 31.9787 12.3828 34.1762C12.3828 36.3738 14.1635 38.1552 16.3602 38.1552Z" stroke="url(#paint14_linear)"/>
    <path d="M16.3602 35.2692C16.9636 35.2692 17.4528 34.7799 17.4528 34.1762C17.4528 33.5726 16.9636 33.0833 16.3602 33.0833C15.7568 33.0833 15.2677 33.5726 15.2677 34.1762C15.2677 34.7799 15.7568 35.2692 16.3602 35.2692Z" stroke="url(#paint15_linear)"/>
    <mask id="path-19-inside-2" fill="white">
        <path d="M84.4461 28.2797H93.4581V29.2566H84.9712C84.5286 29.0457 84.5313 28.6439 84.4461 28.2797Z"/>
    </mask>
    <path d="M84.4461 28.2797V27.2797H83.1851L83.4724 28.5075L84.4461 28.2797ZM93.4581 28.2797H94.4581V27.2797H93.4581V28.2797ZM93.4581 29.2566V30.2566H94.4581V29.2566H93.4581ZM84.9712 29.2566L84.541 30.1594L84.7451 30.2566H84.9712V29.2566ZM84.4461 29.2797H93.4581V27.2797H84.4461V29.2797ZM92.4581 28.2797V29.2566H94.4581V28.2797H92.4581ZM93.4581 28.2566H84.9712V30.2566H93.4581V28.2566ZM85.4013 28.3539C85.4071 28.3566 85.4374 28.3736 85.4699 28.4111C85.5004 28.4463 85.5108 28.4742 85.5098 28.4714C85.5063 28.4624 85.4975 28.4349 85.482 28.3581C85.4737 28.3172 85.4677 28.2842 85.4568 28.2278C85.4471 28.1779 85.4349 28.1166 85.4198 28.0519L83.4724 28.5075C83.4898 28.582 83.4939 28.6172 83.5217 28.7545C83.5434 28.8621 83.5776 29.0166 83.6395 29.1799C83.7804 29.5518 84.0498 29.9253 84.541 30.1594L85.4013 28.3539Z" fill="url(#paint16_linear)" mask="url(#path-19-inside-2)"/>
    <defs>
        <linearGradient id="paint0_linear" x1="65.919" y1="1.96841" x2="14.093" y2="35.1097" gradientUnits="userSpaceOnUse">
            <stop stop-color="#0ACFCF"/>
            <stop offset="1" stop-color="#743498" stop-opacity="0.6"/>
        </linearGradient>
        <linearGradient id="paint1_linear" x1="64.5498" y1="21.6674" x2="63.1005" y2="31.1577" gradientUnits="userSpaceOnUse">
            <stop stop-color="#0ACFCF"/>
            <stop offset="1" stop-color="#743498" stop-opacity="0.6"/>
        </linearGradient>
        <linearGradient id="paint2_linear" x1="96.5" y1="18" x2="90.4585" y2="17.5356" gradientUnits="userSpaceOnUse">
            <stop stop-color="#0ACFCF"/>
            <stop offset="1" stop-color="#743498" stop-opacity="0.6"/>
        </linearGradient>
        <linearGradient id="paint3_linear" x1="52.4598" y1="5.82862" x2="40.6822" y2="11.2951" gradientUnits="userSpaceOnUse">
            <stop stop-color="#0ACFCF"/>
            <stop offset="1" stop-color="#743498" stop-opacity="0.6"/>
        </linearGradient>
        <linearGradient id="paint4_linear" x1="82.1333" y1="6.15069" x2="67.9655" y2="17.7829" gradientUnits="userSpaceOnUse">
            <stop stop-color="#0ACFCF"/>
            <stop offset="1" stop-color="#743498" stop-opacity="0.6"/>
        </linearGradient>
        <linearGradient id="paint5_linear" x1="31.0409" y1="6.55326" x2="20.3589" y2="10.6251" gradientUnits="userSpaceOnUse">
            <stop stop-color="#0ACFCF"/>
            <stop offset="1" stop-color="#743498" stop-opacity="0.6"/>
        </linearGradient>
        <linearGradient id="paint6_linear" x1="11.5" y1="19.5" x2="1.03839" y2="22.9319" gradientUnits="userSpaceOnUse">
            <stop stop-color="#0ACFCF"/>
            <stop offset="1" stop-color="#743498" stop-opacity="0.6"/>
        </linearGradient>
        <linearGradient id="paint7_linear" x1="13.5" y1="23" x2="0.409071" y2="28.7229" gradientUnits="userSpaceOnUse">
            <stop stop-color="#0ACFCF"/>
            <stop offset="0.197917" stop-color="#743498" stop-opacity="0.6"/>
        </linearGradient>
        <linearGradient id="paint8_linear" x1="96.9165" y1="29.0493" x2="90.64" y2="26.2424" gradientUnits="userSpaceOnUse">
            <stop stop-color="#0ACFCF"/>
            <stop offset="1" stop-color="#743498" stop-opacity="0.6"/>
        </linearGradient>
        <linearGradient id="paint9_linear" x1="96.995" y1="22.1968" x2="89.7009" y2="17.1312" gradientUnits="userSpaceOnUse">
            <stop stop-color="#0ACFCF"/>
            <stop offset="1" stop-color="#743498" stop-opacity="0.6"/>
        </linearGradient>
        <linearGradient id="paint10_linear" x1="57.2418" y1="27.1696" x2="55.3552" y2="35.2248" gradientUnits="userSpaceOnUse">
            <stop stop-color="#0ACFCF"/>
            <stop offset="1" stop-color="#743498" stop-opacity="0.6"/>
        </linearGradient>
        <linearGradient id="paint11_linear" x1="80.6971" y1="28.5897" x2="56.9366" y2="18.5301" gradientUnits="userSpaceOnUse">
            <stop stop-color="#0ACFCF"/>
            <stop offset="1" stop-color="#743498" stop-opacity="0.6"/>
        </linearGradient>
        <linearGradient id="paint12_linear" x1="79.9658" y1="30.3916" x2="75.7159" y2="24.6049" gradientUnits="userSpaceOnUse">
            <stop stop-color="#0ACFCF"/>
            <stop offset="1" stop-color="#743498" stop-opacity="0.6"/>
        </linearGradient>
        <linearGradient id="paint13_linear" x1="79.0138" y1="33.1908" x2="83.1329" y2="34.0687" gradientUnits="userSpaceOnUse">
            <stop stop-color="#0ACFCF"/>
            <stop offset="1" stop-color="#743498" stop-opacity="0.6"/>
        </linearGradient>
        <linearGradient id="paint14_linear" x1="32.5" y1="23" x2="15.7054" y2="20.8461" gradientUnits="userSpaceOnUse">
            <stop stop-color="#0ACFCF"/>
            <stop offset="1" stop-color="#743498" stop-opacity="0.6"/>
        </linearGradient>
        <linearGradient id="paint15_linear" x1="27" y1="28.5" x2="17.9423" y2="26.1246" gradientUnits="userSpaceOnUse">
            <stop stop-color="#0ACFCF"/>
            <stop offset="1" stop-color="#743498" stop-opacity="0.6"/>
        </linearGradient>
        <linearGradient id="paint16_linear" x1="90.4389" y1="28.3278" x2="88.2476" y2="33.3682" gradientUnits="userSpaceOnUse">
            <stop stop-color="#0ACFCF"/>
            <stop offset="1" stop-color="#743498" stop-opacity="0.6"/>
        </linearGradient>
    </defs>
</svg>