<svg viewBox="0 0 24 24" fill="none" xmlns="http://www.w3.org/2000/svg">
<path fill-rule="evenodd" clip-rule="evenodd" d="M20.0001 22C20.5524 22 21.0001 21.5523 21.0001 21V12H3.00012V18H5.00012V16C5.00012 14.8954 5.89555 14 7.00012 14H9.00012C10.1047 14 11.0001 14.8954 11.0001 16V18H13.0001V16C13.0001 14.8954 13.8956 14 15.0001 14H17.0001C18.1047 14 19.0001 14.8954 19.0001 16V18C19.0001 19.1046 18.1047 20 17.0001 20H15.0001V22H20.0001ZM15.0001 18H17.0001V16H15.0001V18ZM13.0001 20H11.0001V22H13.0001V20ZM9.00012 16V18H7.00012V16H9.00012ZM7.00012 20H9.00012V22H7.00012V20ZM6.00012 24H11.0001H13.0001H20.0001C21.657 24 23.0001 22.6569 23.0001 21V11V3C23.0001 1.34315 21.657 0 20.0001 0H13.0001C6.37271 0 1.00012 5.37258 1.00012 12V19V21C1.00012 22.6569 2.34327 24 4.00012 24H6.00012ZM5.00012 20H3.00012V21C3.00012 21.5523 3.44784 22 4.00012 22H5.00012V20ZM3.20016 10H21.0001V3C21.0001 2.44772 20.5524 2 20.0001 2H19.0001V7C19.0001 7.55228 18.5524 8 18.0001 8C17.4478 8 17.0001 7.55228 17.0001 7V2H13.0001C8.16221 2 4.1267 5.43552 3.20016 10Z" fill="white"/>
</svg>
