<svg viewBox="0 0 25 24" fill="none" xmlns="http://www.w3.org/2000/svg">
<path fill-rule="evenodd" clip-rule="evenodd" d="M17.7071 4.20733C17.9174 3.99705 18.2026 3.87891 18.5 3.87891C18.6472 3.87891 18.7931 3.90791 18.9291 3.96426C19.0651 4.02061 19.1888 4.10321 19.2929 4.20733C19.397 4.31146 19.4796 4.43507 19.536 4.57112C19.5923 4.70716 19.6213 4.85297 19.6213 5.00023C19.6213 5.14748 19.5923 5.29329 19.536 5.42934C19.4796 5.56538 19.397 5.689 19.2929 5.79312L6.98874 18.0973L4.87436 18.6259L5.40295 16.5115L17.7071 4.20733ZM18.5 1.87891C17.6722 1.87891 16.8782 2.20776 16.2929 2.79312L3.79288 15.2931C3.66473 15.4213 3.57381 15.5819 3.52985 15.7577L2.52985 19.7577C2.44465 20.0985 2.5445 20.459 2.79288 20.7073C3.04126 20.9557 3.40175 21.0556 3.74253 20.9704L7.74253 19.9704C7.91836 19.9264 8.07894 19.8355 8.2071 19.7073L20.7071 7.20733C20.9969 6.91749 21.2269 6.5734 21.3837 6.1947C21.5406 5.81601 21.6213 5.41012 21.6213 5.00023C21.6213 4.59033 21.5406 4.18444 21.3837 3.80575C21.2269 3.42705 20.9969 3.08296 20.7071 2.79312C20.4173 2.50328 20.0732 2.27336 19.6945 2.1165C19.3158 1.95964 18.9099 1.87891 18.5 1.87891ZM12.5 19.0002C11.9477 19.0002 11.5 19.4479 11.5 20.0002C11.5 20.5525 11.9477 21.0002 12.5 21.0002H21.5C22.0523 21.0002 22.5 20.5525 22.5 20.0002C22.5 19.4479 22.0523 19.0002 21.5 19.0002H12.5Z" fill="#3955FE"/>
</svg>
