<svg viewBox="0 0 25 24" fill="none" xmlns="http://www.w3.org/2000/svg">
<path fill-rule="evenodd" clip-rule="evenodd" d="M7.84168 2.29371C7.61869 2.10233 7.33325 1.99814 7.03851 2.00104L7.02869 2.00113V2.00108H3.71074C3.54229 2.0013 3.37578 2.03649 3.22181 2.10437C3.06772 2.1723 2.92963 2.27144 2.81628 2.39537C2.70293 2.51929 2.61679 2.66529 2.56322 2.82402C2.51038 2.98061 2.49035 3.14629 2.50431 3.3108C2.85182 6.56344 3.96145 9.68897 5.74366 12.4346L5.74844 12.442L5.7484 12.442C7.36781 14.9854 9.52857 17.142 12.0774 18.7584L12.0852 18.7633L12.0851 18.7633C14.8238 20.5358 17.9405 21.6432 21.1855 21.9967C21.3514 22.0106 21.5183 21.9903 21.676 21.9371C21.8361 21.8831 21.983 21.7963 22.1073 21.6825C22.2316 21.5686 22.3306 21.4303 22.3981 21.2763C22.4656 21.1223 22.5 20.9561 22.4993 20.7882L22.4993 20.7869L22.4993 20.7809L22.4992 20.7575L22.4988 20.6684L22.4974 20.3467C22.4964 20.0781 22.4951 19.7143 22.4943 19.3334C22.4926 18.5811 22.4925 17.7353 22.4996 17.4473C22.507 17.1517 22.4052 16.8634 22.2133 16.6373C22.0221 16.4121 21.7545 16.2642 21.461 16.2219C20.3262 16.0721 19.2119 15.7949 18.1394 15.3955L18.1372 15.3947C17.92 15.3132 17.6838 15.2955 17.4568 15.3438C17.2305 15.392 17.023 15.5036 16.8586 15.6653C16.858 15.6658 16.8574 15.6664 16.8569 15.6669L15.456 17.065C15.1379 17.3825 14.647 17.4488 14.2561 17.2269C11.3304 15.5666 8.90772 13.1488 7.24385 10.2285C7.02066 9.83673 7.0872 9.3441 7.40631 9.02562L8.80885 7.62586C8.97077 7.4618 9.08217 7.2552 9.1302 7.03047C9.17838 6.80497 9.1608 6.57042 9.07948 6.35451L9.07863 6.35225C8.67833 5.2816 8.40046 4.16923 8.25033 3.0363C8.20856 2.74808 8.06363 2.48421 7.84168 2.29371ZM7.02423 0.00108365C7.80124 -0.00525399 8.55454 0.269904 9.14427 0.776062C9.7354 1.28343 10.1219 1.98836 10.2311 2.75968L10.2324 2.76888L10.2324 2.76889C10.3625 3.75352 10.6038 4.72033 10.9516 5.65089C11.1675 6.22488 11.2142 6.84869 11.086 7.44842C10.9578 8.0486 10.6599 8.59926 10.2279 9.03524L10.2239 9.03921L10.2239 9.0392L9.37228 9.88918C10.7013 11.9929 12.4857 13.7734 14.5942 15.0995L15.4481 14.2474L15.452 14.2434L15.452 14.2434C15.8888 13.8123 16.4401 13.5154 17.0404 13.3877C17.6402 13.26 18.2641 13.3065 18.8384 13.5216C19.7711 13.8689 20.7402 14.1098 21.7272 14.2397L21.7362 14.2409L21.7362 14.2409C22.5158 14.3507 23.2283 14.7427 23.7379 15.3429C24.2475 15.9432 24.5186 16.7099 24.499 17.4971C24.4927 17.7505 24.4926 18.5607 24.4943 19.329C24.4951 19.7084 24.4964 20.071 24.4974 20.3388L24.4988 20.6595L24.4992 20.7482L24.4993 20.7714L24.4993 20.7773L24.4993 20.7787L24.4993 20.7791V20.7792L24.4993 20.78C24.5011 21.227 24.4094 21.6694 24.23 22.0789C24.0506 22.4883 23.7876 22.8557 23.4579 23.1576C23.1282 23.4594 22.7391 23.6891 22.3156 23.8321C21.892 23.9751 21.4433 24.0281 20.9981 23.988L20.9801 23.9862C17.4226 23.6004 14.0052 22.3875 11.0023 20.4448C8.20869 18.6724 5.83981 16.3082 4.06368 13.5198C2.11007 10.5088 0.894177 7.08092 0.514592 3.51353L0.513053 3.4979C0.472865 3.05406 0.525723 2.60677 0.668223 2.18451C0.810722 1.76226 1.03971 1.37438 1.3405 1.04553C1.64128 0.716685 2.00725 0.454072 2.41506 0.274299C2.82286 0.0945284 3.26361 0.00150297 3.70929 0.00108407L3.71023 0.00108317L7.02423 0.00108365Z" fill="#3955FE"/>
</svg>
