<svg viewBox="0 0 24 25" fill="none" xmlns="http://www.w3.org/2000/svg">
<path fill-rule="evenodd" clip-rule="evenodd" d="M14.5 2.00269C12.0147 2.00269 10 4.0174 10 6.50269C10 8.98797 12.0147 11.0027 14.5 11.0027C16.9853 11.0027 19 8.98797 19 6.50269C19 4.0174 16.9853 2.00269 14.5 2.00269ZM8 6.50269C8 2.91283 10.9101 0.00268555 14.5 0.00268555C18.0899 0.00268555 21 2.91283 21 6.50269C21 7.50834 20.7716 8.46065 20.3639 9.31059C22.4563 10.7541 24 12.9457 24 15.5727C24 16.8473 23.6357 18.1438 22.9723 19.2374L22.9723 19.2374C22.7484 19.6065 22.165 20.6547 21.6236 21.6369C21.356 22.1223 21.1032 22.5835 20.9172 22.9234L20.695 23.3299L20.6338 23.442L20.6178 23.4713L20.6138 23.4788L20.6128 23.4806L20.6125 23.4811L20.6125 23.4812L19.7344 23.0027L20.6124 23.4812C20.4373 23.8027 20.1004 24.0027 19.7344 24.0027H17.1562C16.7241 24.0027 16.3408 23.7251 16.2061 23.3145L15.8419 22.2045C14.6179 22.4413 13.2346 22.4314 11.8428 22.199C11.7974 22.3821 11.747 22.5491 11.6987 22.694C11.6259 22.9124 11.5529 23.0949 11.4973 23.2248C11.4693 23.29 11.4454 23.3427 11.4277 23.3807C11.4188 23.3998 11.4114 23.4152 11.4058 23.4268L11.3987 23.4414L11.3962 23.4464L11.3952 23.4484L11.3948 23.4492L11.3946 23.4496C11.3945 23.4498 11.3944 23.45 10.5 23.0028L11.3944 23.45C11.225 23.7888 10.8788 24.0028 10.5 24.0028L7.21588 24.0027C6.6636 24.0027 6.2159 23.555 6.2159 23.0027V21.9297C4.07123 21.3195 1.9363 20.2735 0.310785 18.7273C0.112337 18.5385 0 18.2766 0 18.0028V13.7356C0 13.1851 0.444798 12.7385 0.994596 12.7356L0.99555 12.7356L0.99862 12.7355L1.00038 12.7355C1.00838 12.7353 1.02394 12.7348 1.04628 12.7336C1.09108 12.7312 1.16245 12.7261 1.25441 12.7153C1.4397 12.6936 1.70076 12.6495 1.9927 12.5615C2.45757 12.4214 2.95911 12.1835 3.37268 11.783L2.55132 9.31895C2.51516 9.21047 2.49841 9.09852 2.50009 8.98769L2.50009 8.98768C2.50378 8.74474 2.59598 8.50716 2.76628 8.32327C3.01426 8.05547 3.38845 7.94405 3.74254 8.03258L7.30692 8.92368L8.24656 8.28207C8.08596 7.71656 8 7.11966 8 6.50269ZM14.5 13.0027C16.3649 13.0027 18.0464 12.2173 19.2317 10.9593C20.9527 12.1475 22 13.7894 22 15.5727C22 16.479 21.7373 17.417 21.2623 18.2002C21.0114 18.6138 20.4034 19.7075 19.872 20.6715C19.6032 21.1592 19.3493 21.6223 19.1627 21.9633L19.1412 22.0027H17.8806L17.4502 20.691C17.3672 20.4382 17.187 20.2289 16.9493 20.1094C16.7116 19.9899 16.4361 19.97 16.1838 20.0541C14.9114 20.4782 13.1131 20.5003 11.2425 20.0326C10.9438 19.9579 10.6273 20.025 10.3846 20.2146C10.1419 20.4041 10 20.6948 10 21.0028C10 21.3307 9.92013 21.6907 9.8205 22.0027L8.2159 22.0027V21.157C8.2159 20.6935 7.89738 20.2908 7.44634 20.1839C5.43149 19.7068 3.46656 18.8277 2 17.5599V14.6195C2.17525 14.584 2.3672 14.5375 2.5698 14.4764C3.41561 14.2215 4.51452 13.6919 5.31102 12.5877C5.49915 12.3269 5.55038 11.9915 5.44868 11.6865L5.02476 10.4147L7.25746 10.9729C7.53455 11.0421 7.82803 10.9896 8.06391 10.8286L9.09963 10.1213C10.2663 11.8591 12.2496 13.0027 14.5 13.0027ZM8 15.0027C8 15.555 7.55228 16.0027 7 16.0027C6.44772 16.0027 6 15.555 6 15.0027C6 14.4504 6.44772 14.0027 7 14.0027C7.55228 14.0027 8 14.4504 8 15.0027ZM13 7.00269C13 5.89812 13.8954 5.00269 15 5.00269C15.5523 5.00269 16 4.55497 16 4.00269C16 3.4504 15.5523 3.00269 15 3.00269C12.7909 3.00269 11 4.79355 11 7.00269C11 7.55497 11.4477 8.00269 12 8.00269C12.5523 8.00269 13 7.55497 13 7.00269Z" fill="#B0BEC5"/>
</svg>
