<svg viewBox="0 0 24 25" fill="none" xmlns="http://www.w3.org/2000/svg">
<path fill-rule="evenodd" clip-rule="evenodd" d="M12 3.00293C7.02944 3.00293 3 7.03237 3 12.0029C3 16.9735 7.02944 21.0029 12 21.0029C16.9706 21.0029 21 16.9735 21 12.0029C21 7.03237 16.9706 3.00293 12 3.00293ZM1 12.0029C1 5.9278 5.92487 1.00293 12 1.00293C18.0751 1.00293 23 5.9278 23 12.0029C23 18.0781 18.0751 23.0029 12 23.0029C5.92487 23.0029 1 18.0781 1 12.0029ZM12 7.00293C12.5523 7.00293 13 7.45064 13 8.00293V11.0029H16C16.5523 11.0029 17 11.4506 17 12.0029C17 12.5552 16.5523 13.0029 16 13.0029H13V16.0029C13 16.5552 12.5523 17.0029 12 17.0029C11.4477 17.0029 11 16.5552 11 16.0029V13.0029H8C7.44772 13.0029 7 12.5552 7 12.0029C7 11.4506 7.44772 11.0029 8 11.0029H11V8.00293C11 7.45064 11.4477 7.00293 12 7.00293Z" fill="#3955FE"/>
</svg>
