<svg viewBox="0 0 36 36" fill="none" xmlns="http://www.w3.org/2000/svg">
<path fill-rule="evenodd" clip-rule="evenodd" d="M31.1155 3.57694C31.4895 3.4211 31.9206 3.5064 32.2072 3.79292C32.4937 4.07945 32.579 4.51056 32.4231 4.88461L21.8181 30.3396C21.6582 30.7236 21.2772 30.9685 20.8614 30.9545C20.4456 30.9405 20.082 30.6705 19.9482 30.2766L16.7003 20.714L8.20715 29.2071C7.81663 29.5977 7.18346 29.5977 6.79294 29.2071C6.40241 28.8166 6.40241 28.1834 6.79294 27.7929L15.286 19.2998L5.72344 16.0519C5.32955 15.9181 5.05961 15.5544 5.04561 15.1387C5.03161 14.7229 5.27647 14.3419 5.66047 14.1819L31.1155 3.57694ZM20.9903 27.1261L29.6431 6.35698L8.87397 15.0098L17.4516 17.9232C17.7459 18.0231 17.977 18.2542 18.0769 18.5484L20.9903 27.1261Z" fill="url(#paint0_linear)"/>
<defs>
<linearGradient id="paint0_linear" x1="18.7726" y1="3.5" x2="18.7726" y2="30.955" gradientUnits="userSpaceOnUse">
<stop stop-color="#18CED6"/>
<stop offset="1" stop-color="#18AED6"/>
</linearGradient>
</defs>
</svg>
