<svg viewBox="0 0 24 24" fill="none" xmlns="http://www.w3.org/2000/svg">
<path d="M14.4828 2.00029L11.4176 2.03149C8.29119 2.06269 6.72797 3.74753 6.72797 6.93002V10.6429L4.03065 10.6741V13.1702L14.5134 13.139C17.5479 13.139 20 10.6429 20 7.58523C20 4.46515 17.5172 1.96909 14.4828 2.00029ZM14.1456 10.6117L10.0383 10.6429V6.93002C10.0383 5.55718 10.2222 5.40117 11.4483 5.40117L14.1762 5.36997C15.6169 5.36997 16.751 6.52441 16.751 7.99084C16.751 9.45728 15.6169 10.6117 14.1456 10.6117ZM14.3295 15.011L4.03 15.0422L4 17.5071H6.72797V22H10.0383V17.4759H14.33L14.3295 15.011Z" fill="#489d92"/>
</svg>
