<svg viewBox="0 0 14 14" fill="none" xmlns="http://www.w3.org/2000/svg">
<path fill-rule="evenodd" clip-rule="evenodd" d="M1.33337 2.33325C1.33337 1.78097 1.78109 1.33325 2.33337 1.33325C5.07394 1.33325 7.70227 2.42194 9.64014 4.35981C11.578 6.29769 12.6667 8.92601 12.6667 11.6666C12.6667 12.2189 12.219 12.6666 11.6667 12.6666C11.1144 12.6666 10.6667 12.2189 10.6667 11.6666C10.6667 9.45645 9.78873 7.33683 8.22593 5.77403C6.66313 4.21123 4.54351 3.33325 2.33337 3.33325C1.78109 3.33325 1.33337 2.88554 1.33337 2.33325ZM1.33337 6.41659C1.33337 5.8643 1.78109 5.41659 2.33337 5.41659C3.99098 5.41659 5.58069 6.07507 6.75279 7.24717C7.92489 8.41927 8.58337 10.009 8.58337 11.6666C8.58337 12.2189 8.13566 12.6666 7.58337 12.6666C7.03109 12.6666 6.58337 12.2189 6.58337 11.6666C6.58337 10.5394 6.13561 9.45841 5.33858 8.66138C4.54155 7.86435 3.46054 7.41659 2.33337 7.41659C1.78109 7.41659 1.33337 6.96887 1.33337 6.41659ZM3.33337 11.0833C3.33337 11.3134 3.14683 11.4999 2.91671 11.4999C2.68659 11.4999 2.50004 11.3134 2.50004 11.0833C2.50004 10.8531 2.68659 10.6666 2.91671 10.6666C3.14683 10.6666 3.33337 10.8531 3.33337 11.0833ZM2.91671 9.49992C2.04226 9.49992 1.33337 10.2088 1.33337 11.0833C1.33337 11.9577 2.04226 12.6666 2.91671 12.6666C3.79116 12.6666 4.50004 11.9577 4.50004 11.0833C4.50004 10.2088 3.79116 9.49992 2.91671 9.49992Z" fill="white"/>
</svg>
