<svg viewBox="0 0 24 24" fill="none" xmlns="http://www.w3.org/2000/svg">
<path fill-rule="evenodd" clip-rule="evenodd" d="M3.33211 2.33211C3.09745 2.56676 3 2.82523 3 3V7.5H21V3C21 2.82523 20.9025 2.56676 20.6679 2.33211C20.4332 2.09745 20.1748 2 20 2H4C3.82523 2 3.56676 2.09745 3.33211 2.33211ZM21 9.5H3V14.5H21V9.5ZM21 16.5H3V21C3 21.5523 3.44772 22 4 22H20C20.5523 22 21 21.5523 21 21V16.5ZM1.91789 0.917893C2.43324 0.402547 3.17477 0 4 0H20C20.8252 0 21.5668 0.402547 22.0821 0.917893C22.5975 1.43324 23 2.17477 23 3V21C23 22.6569 21.6569 24 20 24H4C2.34315 24 1 22.6569 1 21V3C1 2.17477 1.40255 1.43324 1.91789 0.917893ZM5 5C5 4.44772 5.44772 4 6 4H6.01C6.56228 4 7.01 4.44772 7.01 5C7.01 5.55228 6.56228 6 6.01 6H6C5.44772 6 5 5.55228 5 5ZM6 11C5.44772 11 5 11.4477 5 12C5 12.5523 5.44772 13 6 13H6.01C6.56228 13 7.01 12.5523 7.01 12C7.01 11.4477 6.56228 11 6.01 11H6ZM5 19C5 18.4477 5.44772 18 6 18H6.01C6.56228 18 7.01 18.4477 7.01 19C7.01 19.5523 6.56228 20 6.01 20H6C5.44772 20 5 19.5523 5 19Z" fill="#188ED6"/>
</svg>
