<svg viewBox="0 0 46 46" fill="none" xmlns="http://www.w3.org/2000/svg">
<path d="M4 23C4 12.5066 12.5066 4 23 4C33.4934 4 42 12.5066 42 23C42 33.4934 33.4934 42 23 42C12.5066 42 4 33.4934 4 23Z" fill="white"/>
<path d="M33 32V17C33 15.8954 32.1046 15 31 15H24C20 15 16.5 17 16 22H13V27.5V32C13 33.1046 13.8954 34 15 34H31C32.1046 34 33 33.1046 33 32Z" fill="#E9EFFF"/>
<path d="M37.5574 12.4111C37.2322 11.9648 36.6067 11.8665 36.1603 12.1918C35.714 12.517 35.6158 13.1425 35.941 13.5889L37.5574 12.4111ZM16.4194 37.5887C15.9161 37.3613 15.3238 37.585 15.0964 38.0883C14.869 38.5915 15.0926 39.1839 15.5959 39.4113L16.4194 37.5887ZM15.8555 39.5261C16.3623 39.7455 16.9511 39.5125 17.1705 39.0056C17.3899 38.4988 17.1568 37.9101 16.65 37.6907L15.8555 39.5261ZM20.1753 38.7516C19.6316 38.6548 19.1123 39.0171 19.0155 39.5608C18.9187 40.1046 19.281 40.6238 19.8247 40.7207L20.1753 38.7516ZM39 23C39 31.8366 31.8366 39 23 39V41C32.9411 41 41 32.9411 41 23H39ZM35.941 13.5889C37.8651 16.2298 39 19.4809 39 23H41C41 19.0436 39.7224 15.3827 37.5574 12.4111L35.941 13.5889ZM16.65 37.6907C16.5728 37.6573 16.496 37.6233 16.4194 37.5887L15.5959 39.4113C15.6821 39.4502 15.7686 39.4885 15.8555 39.5261L16.65 37.6907ZM23 39C22.0354 39 21.0915 38.9148 20.1753 38.7516L19.8247 40.7207C20.8561 40.9043 21.9173 41 23 41V39Z" fill="#ADC6FE"/>
<path d="M8.44256 33.5889C8.76778 34.0352 9.39328 34.1335 9.83965 33.8082C10.286 33.483 10.3843 32.8575 10.059 32.4111L8.44256 33.5889ZM29.5878 8.41457C30.091 8.64222 30.6834 8.41886 30.9111 7.91568C31.1387 7.4125 30.9154 6.82004 30.4122 6.59239L29.5878 8.41457ZM25.8247 7.24838C26.3684 7.34519 26.8877 6.98289 26.9845 6.43916C27.0813 5.89543 26.719 5.37616 26.1753 5.27935L25.8247 7.24838ZM30.1366 6.47048C29.6296 6.25132 29.041 6.48463 28.8219 6.99157C28.6027 7.49851 28.836 8.08713 29.343 8.30628L30.1366 6.47048ZM7 23C7 14.1634 14.1634 7 23 7V5C13.0589 5 5 13.0589 5 23H7ZM10.059 32.4111C8.13495 29.7702 7 26.5191 7 23H5C5 26.9564 6.27762 30.6174 8.44256 33.5889L10.059 32.4111ZM23 7C23.9646 7 24.9085 7.08525 25.8247 7.24838L26.1753 5.27935C25.1439 5.0957 24.0827 5 23 5V7ZM29.343 8.30628C29.4249 8.34171 29.5065 8.37781 29.5878 8.41457L30.4122 6.59239C30.3207 6.55101 30.2289 6.51037 30.1366 6.47048L29.343 8.30628Z" fill="#E9EFFF"/>
<path d="M32 32V19C30.8954 19 30 19.8954 30 21V27C30 29.2091 28.2091 31 26 31H13V32C13 33.1046 12.8954 34 14 34H30C31.1045 34 32 33.1046 32 32Z" fill="#ADC6FE"/>
<path d="M33 32V14C33 12.8954 32.1046 12 31 12H24C17.9249 12 13 16.9249 13 23V32C13 33.1046 13.8954 34 15 34H31C32.1046 34 33 33.1046 33 32Z" stroke="#3955FE" stroke-width="2"/>
<path d="M33 22H14" stroke="#3955FE" stroke-width="2" stroke-linecap="round"/>
<path d="M29 13V18" stroke="#3955FE" stroke-width="2" stroke-linecap="round"/>
<path d="M13 30H17V34" stroke="#3955FE" stroke-width="2" stroke-linecap="round"/>
<path d="M17 30V27C17 26.4477 17.4477 26 18 26H20C20.5523 26 21 26.4477 21 27V29C21 29.5523 20.5523 30 20 30H17Z" stroke="#3955FE" stroke-width="2" stroke-linecap="round"/>
<path d="M21 33V30H25V33C25 33.5523 24.5523 34 24 34H22C21.4477 34 21 33.5523 21 33Z" stroke="#3955FE" stroke-width="2" stroke-linecap="round"/>
<path d="M25 30V27C25 26.4477 25.4477 26 26 26H28C28.5523 26 29 26.4477 29 27V29C29 29.5523 28.5523 30 28 30H25Z" stroke="#3955FE" stroke-width="2" stroke-linecap="round"/>
<path d="M37 10.1546L37.2068 9.17622C36.684 9.06572 36.1667 9.38577 36.0322 9.90293L37 10.1546ZM32.4729 7.69126C32.9423 7.98235 33.5588 7.83783 33.8498 7.36848C34.1409 6.89913 33.9964 6.28268 33.5271 5.9916L32.4729 7.69126ZM13.5271 38.3087C13.0577 38.0177 12.4412 38.1622 12.1502 38.6315C11.8591 39.1009 12.0036 39.7173 12.4729 40.0084L13.5271 38.3087ZM9.14351 36L8.90891 36.9721C9.17108 37.0354 9.4477 36.9901 9.67599 36.8464C9.90428 36.7028 10.0649 36.4731 10.1213 36.2094L9.14351 36ZM10.9778 32.2094C11.0935 31.6693 10.7494 31.1378 10.2094 31.0222C9.66933 30.9065 9.1378 31.2506 9.02216 31.7906L10.9778 32.2094ZM5.23461 34.0279C4.69773 33.8983 4.15748 34.2285 4.02791 34.7654C3.89834 35.3023 4.22852 35.8425 4.76539 35.9721L5.23461 34.0279ZM35.0322 13.7483C34.8932 14.2828 35.2138 14.8288 35.7483 14.9678C36.2828 15.1068 36.8288 14.7862 36.9678 14.2517L35.0322 13.7483ZM40.7932 11.9784C41.3336 12.0926 41.8642 11.7471 41.9784 11.2068C42.0926 10.6664 41.7471 10.1358 41.2068 10.0216L40.7932 11.9784ZM41 23C41 32.9411 32.9411 41 23 41V43C34.0457 43 43 34.0457 43 23H41ZM5 23C5 13.0589 13.0589 5 23 5V3C11.9543 3 3 11.9543 3 23H5ZM36.2633 10.8309C39.2054 14.0357 41 18.3071 41 23H43C43 17.7869 41.0042 13.0376 37.7367 9.47834L36.2633 10.8309ZM23 5C26.4776 5 29.722 5.9852 32.4729 7.69126L33.5271 5.9916C30.4688 4.0949 26.8607 3 23 3V5ZM23 41C19.5224 41 16.278 40.0148 13.5271 38.3087L12.4729 40.0084C15.5312 41.9051 19.1393 43 23 43V41ZM9.87266 35.3156C6.84994 32.0951 5 27.7647 5 23H3C3 28.293 5.05748 33.1077 8.41436 36.6844L9.87266 35.3156ZM10.1213 36.2094L10.9778 32.2094L9.02216 31.7906L8.16568 35.7906L10.1213 36.2094ZM9.37812 35.0279L5.23461 34.0279L4.76539 35.9721L8.90891 36.9721L9.37812 35.0279ZM36.0322 9.90293L35.0322 13.7483L36.9678 14.2517L37.9678 10.4063L36.0322 9.90293ZM36.7932 11.133L40.7932 11.9784L41.2068 10.0216L37.2068 9.17622L36.7932 11.133Z" fill="#3955FE"/>
</svg>
