<svg viewBox="0 0 46 46" fill="none" xmlns="http://www.w3.org/2000/svg">
<rect x="1" y="1" width="44" height="44" rx="22" fill="white"/>
<rect x="3" y="5" width="40" height="40" rx="20" fill="#E9EFFF"/>
<path d="M9.57257 33.4275C12.683 37.427 17.541 40 23 40C32.3888 40 40 32.3889 40 23.0001C40 17.5411 37.4269 12.683 33.4274 9.57263C35.6665 12.4518 37 16.0702 37 20.0001C37 29.3889 29.3888 37 20 37C16.0701 37 12.4517 35.6666 9.57257 33.4275Z" fill="#ADC6FE"/>
<path d="M3 26C3.55228 26 4 25.5523 4 25C4 24.4477 3.55228 24 3 24V26ZM2 26H3V24H2V26Z" fill="#3955FE"/>
<path d="M6 14C6.55228 14 7 13.5523 7 13C7 12.4477 6.55228 12 6 12V14ZM5 14H6V12H5V14Z" fill="#3955FE"/>
<path d="M4 18C4.55228 18 5 17.5523 5 17C5 16.4477 4.55228 16 4 16V18ZM3 18H4V16H3V18Z" fill="#3955FE"/>
<path d="M3 22C3.55228 22 4 21.5523 4 21C4 20.4477 3.55228 20 3 20V22ZM2 22H3V20H2V22Z" fill="#3955FE"/>
<path d="M4 30C4.55228 30 5 29.5523 5 29C5 28.4477 4.55228 28 4 28V30ZM3 30H4V28H3V30Z" fill="#3955FE"/>
<path d="M6 34C6.55228 34 7 33.5523 7 33C7 32.4477 6.55228 32 6 32V34ZM5 34H6V32H5V34Z" fill="#3955FE"/>
<path d="M43 20C42.4477 20 42 20.4477 42 21C42 21.5523 42.4477 22 43 22L43 20ZM44 20L43 20L43 22L44 22L44 20Z" fill="#3955FE"/>
<path d="M40 32C39.4477 32 39 32.4477 39 33C39 33.5523 39.4477 34 40 34L40 32ZM41 32L40 32L40 34L41 34L41 32Z" fill="#3955FE"/>
<path d="M42 28C41.4477 28 41 28.4477 41 29C41 29.5523 41.4477 30 42 30L42 28ZM43 28L42 28L42 30L43 30L43 28Z" fill="#3955FE"/>
<path d="M43 24C42.4477 24 42 24.4477 42 25C42 25.5523 42.4477 26 43 26L43 24ZM44 24L43 24L43 26L44 26L44 24Z" fill="#3955FE"/>
<path d="M42 16C41.4477 16 41 16.4477 41 17C41 17.5523 41.4477 18 42 18L42 16ZM43 16L42 16L42 18L43 18L43 16Z" fill="#3955FE"/>
<path d="M40 12C39.4477 12 39 12.4477 39 13C39 13.5523 39.4477 14 40 14L40 12ZM41 12L40 12L40 14L41 14L41 12Z" fill="#3955FE"/>
<rect x="2" y="2" width="42" height="42" rx="21" stroke="#3955FE" stroke-width="2"/>
<path d="M35.2356 33.3102C34.8795 33.7324 34.9331 34.3633 35.3552 34.7194C35.7774 35.0755 36.4083 35.022 36.7644 34.5998L35.2356 33.3102ZM32.5301 38.2728C32.9984 37.98 33.1407 37.363 32.8479 36.8947C32.5551 36.4265 31.9381 36.2842 31.4699 36.577L32.5301 38.2728ZM23 39C14.1634 39 7 31.8366 7 23H5C5 32.9411 13.0589 41 23 41V39ZM23 7C31.8366 7 39 14.1634 39 23H41C41 13.0589 32.9411 5 23 5V7ZM23 5C13.0589 5 5 13.0589 5 23H7C7 14.1634 14.1634 7 23 7V5ZM39 23C39 26.9291 37.585 30.5252 35.2356 33.3102L36.7644 34.5998C39.4067 31.4675 41 27.4185 41 23H39ZM31.4699 36.577C29.0141 38.1124 26.1122 39 23 39V41C26.498 41 29.7658 40.0012 32.5301 38.2728L31.4699 36.577Z" fill="#3955FE"/>
<path d="M19 34C19 32.8954 19.8954 32 21 32H25C26.1046 32 27 32.8954 27 34C27 35.1046 26.1046 36 25 36H21C19.8954 36 19 35.1046 19 34Z" stroke="#3955FE" stroke-width="2"/>
<rect x="10" y="24" width="4" height="4" rx="2" stroke="#3955FE" stroke-width="2"/>
<path d="M12 20C12 15.2436 15.383 11.2336 20 10M34 20C34 15.2436 30.617 11.2336 26 10" stroke="#3955FE" stroke-width="2" stroke-linecap="round" stroke-linejoin="round"/>
<rect x="32" y="24" width="4" height="4" rx="2" stroke="#3955FE" stroke-width="2"/>
<path d="M21.9091 15L23 16.0909M23 16.0909L24.0909 15M23 16.0909V18.2727M23 18.2727L20.8182 19.3636M23 18.2727L25.1818 19.3636M20.8182 19.3636V22.6364M20.8182 19.3636L18.6364 18.2727M20.8182 22.6364L23 23.7273M20.8182 22.6364L18.6364 23.7273M23 23.7273L25.1818 22.6364M23 23.7273V25.9091M25.1818 22.6364V19.3636M25.1818 22.6364L27.2955 23.6932M25.1818 19.3636L27.3636 18.2727M27.3636 18.2727L27.9091 16.6364M27.3636 18.2727L29 18.8182M23 25.9091L21.9091 27M23 25.9091L24.0909 27M18.6364 23.7273L17 23.1818M18.6364 23.7273L18.0909 25.3636M18.6364 18.2727L18.0909 16.6364M18.6364 18.2727L17 18.8182M27.9091 25.3636L27.3636 23.7273L27.2955 23.6932M27.2955 23.6932L29 23.1818" stroke="#3955FE" stroke-width="2" stroke-linecap="round" stroke-linejoin="round"/>
</svg>
