<svg viewBox="0 0 46 46" fill="none" xmlns="http://www.w3.org/2000/svg">
<path d="M28 3H6C4.89543 3 4 3.89543 4 5V41C4 42.1046 4.89543 43 6 43H28C29.1046 43 30 42.1046 30 41V36C30 34.8954 30.8954 34 32 34H40C41.1046 34 42 33.1046 42 32V18C42 16.8954 41.1046 16 40 16H32C30.8954 16 30 15.1046 30 14V5C30 3.89543 29.1046 3 28 3Z" fill="white"/>
<path d="M7.60555 43H28C29.1046 43 30 42.1046 30 41V36C30 34.8954 30.8954 34 32 34H40C41.1046 34 42 33.1046 42 32V18C42 16.8954 41.1046 16 40 16H23C21.8954 16 21 16.8954 21 18V19.5C21 20.3284 20.3284 21 19.5 21C18.6716 21 18 20.3284 18 19.5V17C18 15.8954 18.8954 15 20 15H28C29.1046 15 30 14.1046 30 13V5C30 3.89543 29.1046 3 28 3H20.5C19.6716 3 19 3.67157 19 4.5C19 5.32843 18.3284 6 17.5 6H9C7.89543 6 7 6.89543 7 8V39.2251C7 40.5903 5.66261 41.5542 4.36754 41.1225L4 41L6.49615 42.6641C6.82469 42.8831 7.2107 43 7.60555 43Z" fill="#E9EFFF"/>
<path d="M14.5 43H28C29.1046 43 30 42.1046 30 41V35C30.5523 35 31 34.5523 31 34V33C31 31.8954 30.1046 31 29 31H23H19C18.4477 31 18 31.4477 18 32V32.4142C18 32.7893 18.149 33.149 18.4142 33.4142L19.5858 34.5858C19.851 34.851 20 35.2107 20 35.5858C20 36.3668 20.6332 37 21.4142 37H26.5C27.3284 37 28 37.6716 28 38.5C28 39.3284 27.3284 40 26.5 40H7C5.89543 40 5 40.8954 5 42V43H14.5Z" fill="#ADC6FE"/>
<path d="M30 16V5.41421C30 5.149 29.8946 4.89464 29.7071 4.70711C29.0771 4.07714 28 4.52331 28 5.41421V15H20.5C19.8705 15 19.2777 15.2964 18.9 15.8L18.4 16.4667C18.1404 16.8129 18 17.2339 18 17.6667V23.5C18 23.7761 18.2239 24 18.5 24C18.7761 24 19 23.7761 19 23.5V17.7071C19 17.2544 19.1799 16.8201 19.5 16.5C19.8201 16.1799 20.2544 16 20.7071 16H30Z" fill="#ADC6FE"/>
<path d="M22 3H26C28.2091 3 30 4.79086 30 7V12M22 3V4C22 5.10457 21.1046 6 20 6H14C12.8954 6 12 5.10457 12 4V3M22 3H12M12 3H8C5.79086 3 4 4.79086 4 7V39C4 41.2091 5.79086 43 8 43H26C28.2091 43 30 41.2091 30 39V38" stroke="#3955FE" stroke-width="2" stroke-linecap="round" stroke-linejoin="round"/>
<path d="M19 39H15" stroke="#3955FE" stroke-width="2" stroke-linecap="round"/>
<path d="M10 23H9" stroke="#3955FE" stroke-width="2" stroke-linecap="round"/>
<path d="M14 27H13" stroke="#3955FE" stroke-width="2" stroke-linecap="round"/>
<path d="M19 27H18" stroke="#3955FE" stroke-width="2" stroke-linecap="round"/>
<path d="M24 27H23" stroke="#3955FE" stroke-width="2" stroke-linecap="round"/>
<path d="M14 23H13" stroke="#3955FE" stroke-width="2" stroke-linecap="round"/>
<path d="M17 24C17 24.5523 17.4477 25 18 25C18.5523 25 19 24.5523 19 24H17ZM19 30C19 29.4477 18.5523 29 18 29C17.4477 29 17 29.4477 17 30H19ZM40 33H20V35H40V33ZM20 17H40V15L20 15V17ZM41 22V32H43V22H41ZM42 21H18V23H42V21ZM19 22V20H17V22H19ZM19 20V18H17V20H19ZM41 18V20H43V18H41ZM41 20V22H43V20H41ZM18 21H42V19H18V21ZM20 33C19.4477 33 19 32.5523 19 32H17C17 33.6569 18.3431 35 20 35V33ZM40 35C41.6569 35 43 33.6569 43 32H41C41 32.5523 40.5523 33 40 33V35ZM40 17C40.5523 17 41 17.4477 41 18H43C43 16.3431 41.6569 15 40 15V17ZM20 15C18.3431 15 17 16.3431 17 18H19C19 17.4477 19.4477 17 20 17V15ZM19 24V22H17V24H19ZM19 32V30H17V32H19Z" fill="#3955FE"/>
<circle cx="36" cy="28" r="3" fill="#ADC6FE"/>
<path d="M32 28C32 27.4477 32.4477 27 33 27C33.0565 27 33.1119 27.0047 33.1659 27.0137C33.4039 26.3299 33.8823 25.7587 34.5 25.4013C34.0587 25.1461 33.5464 25 33 25C31.3431 25 30 26.3431 30 28C30 29.6569 31.3431 31 33 31C33.5464 31 34.0587 30.8539 34.5 30.5987C33.8823 30.2413 33.4039 29.6701 33.1659 28.9863C33.1119 28.9953 33.0565 29 33 29C32.4477 29 32 28.5523 32 28Z" fill="#3955FE"/>
<path d="M35.8341 27.0137C35.9416 27.3226 36 27.6545 36 28C36 28.3455 35.9416 28.6774 35.8341 28.9863C35.3608 28.9073 35 28.4958 35 28C35 27.5042 35.3608 27.0927 35.8341 27.0137Z" fill="#3955FE"/>
</svg>
