<svg viewBox="0 0 46 46" fill="none" xmlns="http://www.w3.org/2000/svg">
<path fill-rule="evenodd" clip-rule="evenodd" d="M15.5333 1.0171C12.9209 1.23341 10.8667 3.47471 10.8667 6.20773V8.13043C10.8667 9.97939 12.3292 11.4783 14.1333 11.4783C14.9332 11.4783 15.6659 11.1837 16.2337 10.6946C16.3561 10.835 16.3787 10.8846 16.3979 10.9438C16.4174 11.0037 16.4405 12.1139 16.4534 12.3641C16.4552 12.4005 16.4568 12.4385 16.4582 12.4783C12.3384 12.4829 9 15.9071 9 20.1304V25.3913C9 27.4543 10.4162 29.1784 12.3066 29.5981C13.3184 30.3093 13.7516 31.9633 13.96 32.7157C13.7183 32.646 13.4634 32.6087 13.2 32.6087H12.7333C11.1869 32.6087 9.93333 33.8934 9.93333 35.4783V39.1371C9.93333 42.3519 12.4182 45 15.5333 45H30.4667C33.5818 45 36.0667 42.3519 36.0667 39.1371V35.4783C36.0667 33.8934 34.8131 32.6087 33.2667 32.6087H32.8C32.5366 32.6087 32.2817 32.646 32.04 32.7157C32.2484 31.9633 32.6816 30.3093 33.6934 29.5981C35.5838 29.1784 37 27.4543 37 25.3913V20.1304C37 15.9071 33.6616 12.4829 29.5418 12.4783C29.5432 12.4385 29.5448 12.4005 29.5466 12.3641C29.5595 12.1139 29.5826 11.0037 29.6021 10.9438C29.6213 10.8846 29.6439 10.835 29.7663 10.6946C30.3341 11.1837 31.0668 11.4783 31.8667 11.4783C33.6708 11.4783 35.1333 9.97939 35.1333 8.13043V6.20773C35.1333 3.47471 33.0791 1.23341 30.4667 1.0171V1H15.5333V1.0171Z" fill="white"/>
<path d="M36 38V34.5128C36 33.6773 35.2836 33 34.3999 33H33.6001C32.7164 33 32 33.6773 32 34.5128V37.5384L36 38Z" fill="#ADC6FE"/>
<path d="M36.5299 41.1441L36.9694 38.912C37.0622 38.4422 36.9432 37.9547 36.6449 37.5845C36.3466 37.2139 35.901 36.9993 35.4309 37H34.991C34.8236 37.2 34.6367 37.382 34.4336 37.5442C33.3267 38.4561 30.3747 40.2 24 40.2V45H31.9136C34.1576 45 36.0893 43.3861 36.5299 41.1441Z" fill="#ADC6FE"/>
<path d="M33.9704 39.2842C33.9704 39.2842 33.8685 40.6036 33.5646 41.3798C32.7686 43.4134 31.3741 45 29.3026 45H16.6977C14.6259 45 13.232 43.4133 12.4357 41.3798C12.1318 40.6036 12.0296 39.2842 12.0296 39.2842C11.938 38.8255 12.0618 38.349 12.363 38C13.385 38.8561 16.1104 40.4934 21.9963 40.4934C22.344 40.4934 22.6775 40.4859 23.0037 40.4787C23.3225 40.4859 23.656 40.4934 24.004 40.4934C29.8896 40.4934 32.615 38.8561 33.637 38C33.9382 38.349 34.062 38.8255 33.9704 39.2842Z" fill="#E9EFFF"/>
<path d="M33 38C33 38 30.8573 40 23.0002 40C15.143 40 13 38 13 38H33Z" fill="#E9EFFF"/>
<path d="M35 5.4661V7.73288C35.0011 8.33442 34.7484 8.91141 34.2979 9.33688C33.8478 9.76235 33.2366 10.0007 32.6001 10C31.7189 9.99412 31.0059 9.32097 31 8.4887V1C33.3095 1.36563 35.0011 3.25432 35 5.4661Z" fill="#ADC6FE"/>
<path d="M34 10L31 10C30 10 29.5 11 29.5 12V13H16.5V12C16.5 11 16 10 15 10H12.5C13.3525 9.9976 13.9975 9.32742 14 8.5V1H32V8.5C32.0025 9.32742 33.1475 9.9976 34 10Z" fill="#E9EFFF"/>
<path d="M37 19.2701V26.0458C36.9999 26.6165 36.2824 29.1931 34.6665 29.8099C33.7865 30.1457 33.0512 30.0611 32.2555 29.8778C31.1123 29.5765 30 28.6205 30 26.0458C30 20.8209 31.5245 20.7758 30.8011 14.1806L30.7779 14H31.5555C32.9999 13.999 34.3853 14.5538 35.4064 15.5426C36.4278 16.531 37.0011 17.8719 37 19.2701Z" fill="#ADC6FE"/>
<path d="M34 18.8843V25.3868C33.9999 25.9419 33.3571 28.9428 31.5922 28.999C29.788 29.0566 29 26.488 29 25.3868C29 20.3726 30.5731 20.3292 29.8266 14C32.2895 14.5847 34.004 16.5913 34 18.8843Z" fill="#E9EFFF"/>
<path d="M12 18.8843V25.3868C12.0001 25.9419 12.5143 28.9428 13.9262 28.999C15.3696 29.0566 16 26.488 16 25.3868C16 20.3726 14.7415 20.3292 15.3387 14C13.3684 14.5847 11.9968 16.5913 12 18.8843Z" fill="#E9EFFF"/>
<path d="M34 29.5156C33.9921 29.5156 33.9921 29.5235 33.9843 29.5235C33.7999 29.6379 33.6069 29.737 33.4064 29.8203C32.2732 30.3378 31.5552 31.4801 31.5799 32.7268V38H17L14 36V32.5C14 32.5 17.5 32.3203 18 33.8203C18.0247 32.5736 17.5844 31.4272 17 30C16.6691 29.1919 16 28 16 28C16.4378 27.4392 16.7466 26.8284 16.7466 25.5002C16.7466 20.0313 15.1852 20.0313 15.9661 13H30.0186C30.799 20.0313 29.2377 20.0313 29.2377 25.5002C29.2377 30.9687 33.9217 29.4062 33.9217 29.4062L34 29.5156Z" fill="#ADC6FE"/>
<path d="M11 5.44444C11 2.98985 12.9898 1 15.4444 1H16V8.5C16 9.88071 14.8807 11 13.5 11C12.1193 11 11 9.88071 11 8.5V5.44444Z" stroke="#3955FE" stroke-width="2"/>
<path d="M10 35C10 33.8954 10.8954 33 12 33H12.5C13.6046 33 14.5 33.8954 14.5 35V37H10V35Z" stroke="#3955FE" stroke-width="2"/>
<path d="M9 37.5134C9 37.1831 9.32005 36.9451 9.64802 37.011C9.69284 37.02 9.7315 37.0401 9.76988 37.0649C10.3756 37.457 15.8912 40.8965 23 40.8965C30.1088 40.8965 35.6244 37.457 36.2301 37.0649C36.2685 37.0401 36.3072 37.02 36.352 37.011C36.68 36.9451 37 37.1831 37 37.5134V39.8706C37 42.7035 34.5892 45 31.6154 45H14.3846C11.4108 45 9 42.7035 9 39.8706V37.5134Z" stroke="#3955FE" stroke-width="2"/>
<path d="M31.5 35C31.5 33.8954 32.3954 33 33.5 33H34C35.1046 33 36 33.8954 36 35V37H31.5V35Z" stroke="#3955FE" stroke-width="2"/>
<path d="M16 13L16.9701 13.2425L17.2808 12H16V13ZM10.4011 14.2858C10.0067 14.6723 10.0002 15.3054 10.3868 15.6999C10.7733 16.0944 11.4065 16.1008 11.8009 15.7142L10.4011 14.2858ZM10.2483 18.2852C10.4059 17.7559 10.1045 17.1991 9.57513 17.0415C9.04579 16.884 8.48896 17.1854 8.33143 17.7148L10.2483 18.2852ZM10 25.5V20H8V25.5H10ZM12.5 28C11.1193 28 10 26.8807 10 25.5H8C8 27.9853 10.0147 30 12.5 30V28ZM16 13C15.0299 12.7575 15.0298 12.7576 15.0298 12.7577C15.0298 12.7578 15.0297 12.7579 15.0297 12.758C15.0297 12.7582 15.0296 12.7585 15.0295 12.7587C15.0294 12.7593 15.0292 12.7599 15.029 12.7607C15.0287 12.7623 15.0281 12.7644 15.0275 12.7669C15.0263 12.772 15.0246 12.779 15.0224 12.7878C15.0181 12.8055 15.0121 12.8306 15.0047 12.8626C14.9897 12.9267 14.9689 13.0185 14.9441 13.1342C14.8945 13.3654 14.829 13.6931 14.7636 14.0856C14.6337 14.865 14.5 15.9244 14.5 17H16.5C16.5 16.0756 16.6163 15.135 16.7364 14.4144C16.796 14.0569 16.8555 13.7596 16.8997 13.5533C16.9218 13.4502 16.94 13.3702 16.9524 13.3171C16.9586 13.2905 16.9633 13.2707 16.9663 13.2581C16.9679 13.2518 16.969 13.2473 16.9696 13.2447C16.9699 13.2434 16.9701 13.2426 16.9702 13.2422C16.9703 13.242 16.9703 13.2419 16.9703 13.242C16.9703 13.242 16.9703 13.2421 16.9702 13.2422C16.9702 13.2422 16.9702 13.2423 16.9702 13.2423C16.9702 13.2424 16.9701 13.2425 16 13ZM14.5 17C14.5 18.6133 14.7702 19.9505 15.0238 21.0919C15.2851 22.2676 15.5 23.1371 15.5 24H17.5C17.5 22.8629 17.2149 21.7324 16.9762 20.6581C16.7298 19.5495 16.5 18.3867 16.5 17H14.5ZM15.5 24C15.5 25.8987 15.1076 26.8387 14.66 27.3158C14.2315 27.7726 13.5672 28 12.5 28V30C13.8043 30 15.14 29.7274 16.1186 28.6842C17.0782 27.6613 17.5 26.1013 17.5 24H15.5ZM16 12C13.8206 12 11.843 12.8728 10.4011 14.2858L11.8009 15.7142C12.8841 14.6528 14.3648 14 16 14V12ZM8.33143 17.7148C8.11557 18.4401 8 19.2074 8 20H10C10 19.4026 10.087 18.8274 10.2483 18.2852L8.33143 17.7148Z" fill="#3955FE"/>
<path d="M37 20C37 16.134 33.866 13 30 13C30 13 30.5 15 30.5 17C30.5 20 29.5 22 29.5 24C29.5 28 31.1285 29 33.5 29C35.433 29 37 27.433 37 25.5V20Z" stroke="#3955FE" stroke-width="2"/>
<path d="M30 1H30.5556C33.0102 1 35 2.98985 35 5.44444V8.5C35 9.88071 33.8807 11 32.5 11C31.1193 11 30 9.88071 30 8.5V1Z" stroke="#3955FE" stroke-width="2"/>
<path d="M12 29C15 31 14.5 33 14.5 37H31.5C31.5 33 31 31 34 29M16 1H30V10C29 11 29 11 29 13H17C17 11 17 11 16 10V1Z" stroke="#3955FE" stroke-width="2"/>
</svg>
