<svg viewBox="0 0 46 46" fill="none" xmlns="http://www.w3.org/2000/svg">
<path d="M38 20L35.1517 15.0154C34.4395 13.7691 33.1141 13 31.6787 13H14.3213C12.8859 13 11.5605 13.7691 10.8483 15.0154L8 20H7C7 18.2414 6.22683 18.0291 4.00064 18.0035C3.4484 17.9972 3 18.4477 3 19V20.4035C3 20.771 3.20152 21.1088 3.52485 21.2834L5 22.08C4.26178 22.6711 3.53156 23.3356 3 24C1.4 26 1 28 1 28V41C1 42.1046 1.89543 43 3 43H9C10.1046 43 11 42.1046 11 41V39H35V41C35 42.1046 35.8954 43 37 43H43C44.1046 43 45 42.1046 45 41V28C45 28 44.5 26 43 24C42.557 23.3356 41.8565 22.6711 41.1185 22.08L42.4978 21.2883C42.8085 21.11 43 20.7791 43 20.421V19C43 18.4477 42.5516 17.9972 41.9994 18.0035C39.7732 18.0291 39 18.2414 39 20H38Z" fill="white"/>
<path d="M38.4773 20L35.8788 15.12C35.1841 13.8153 33.8264 13 32.3482 13H29.625H19.375H17.8213C16.3859 13 15.0605 13.7691 14.3483 15.0154L11.5 20L9 22C9 22 11.5 25 10 27C8.89474 28.4737 4 28 4 28V32V39V41C4 42.1046 4.89543 43 6 43H8.31818C9.42275 43 10.3182 42.1046 10.3182 41V39H35.6818V41C35.6818 42.1046 36.5772 43 37.6818 43H43C44.1046 43 45 42.1046 45 41V39V32V28C45 28 44.5341 26 43.1364 24C42.7236 23.3356 42.0709 22.6711 41.3832 22.08L42.6609 21.2929C42.9564 21.1109 43.1364 20.7886 43.1364 20.4415V19C43.1364 18.4477 42.6879 17.9964 42.1357 18.0044C40.1137 18.034 39.4091 18.2608 39.4091 20H38.4773Z" fill="#ADC6FE"/>
<path d="M35 20L32.1517 15.0154C31.4395 13.7691 30.1141 13 28.6787 13H27.75H18.25H17.3213C15.8859 13 14.5605 13.7691 13.8483 15.0154L11 20L8.5 22C8.5 22 6.82084 23.0569 6 24C5.64416 24.4088 5 25 5 25L10 26.5C10 28 4.71585 26.16 4.64993 26.3097C4.24544 27.2285 4 28 4 28V32V39H1V41C1 42.1046 1.89543 43 3 43H6C7.10457 43 8 42.1046 8 41V40L10.6364 39H12.5C12.5 39 13 38 13.5 37.5C14 37 16 37 16 37H35L35.3636 39V41C35.3636 42.1046 36.2591 43 37.3636 43H40C41.1046 43 42 42.1046 42 41V39V32V28H37V27.5L42 27C42 27 40.7226 24.6946 40.2727 24C40.21 23.891 33.5 27 33 27.5C31 28 23.1218 29.1017 23 29C22.9252 28.9376 31.5 26 31.5 26C31.5 26 33.4062 24.2969 34 24C34.5938 23.7031 39.2756 23.0444 39.2148 23C38.7791 22.6813 38.3146 22.3717 38 22.08L35 20Z" fill="#E9EFFF"/>
<path d="M28 13C28 15.7614 25.7614 18 23 18C20.2386 18 18 15.7614 18 13C18 13 10 10 11.5 7C13.5 3.00003 19 0 23 0C27 0 32.5 3.00001 34.5 7C36 10 28 13 28 13Z" fill="white"/>
<path d="M38 20L35.1517 15.0154C34.4395 13.7691 33.1141 13 31.6787 13H28.5M38 20H39C39 18.2414 39.7732 18.0291 41.9994 18.0035C42.5516 17.9972 43 18.4477 43 19V20.421C43 20.7791 42.8085 21.11 42.4978 21.2883L41.1185 22.08M38 20C38 20 39.6351 20.8919 41.1185 22.08M38 20H8M8 20L10.8483 15.0154C11.5605 13.7691 12.8859 13 14.3213 13H17.5M8 20H7C7 18.2414 6.22683 18.0291 4.00064 18.0035C3.4484 17.9972 3 18.4477 3 19V20.4035C3 20.771 3.20153 21.1088 3.52485 21.2834L5 22.08M8 20C8 20 6.48385 20.8919 5 22.08M3 24C1.4 26 1 28 1 28M3 24C6.12419 24.781 11 26 11 26M3 24C3.53156 23.3356 4.26178 22.6711 5 22.08M43 24C44.5 26 45 28 45 28M43 24C39.8758 24.781 35 26 35 26M43 24C42.557 23.3356 41.8565 22.6711 41.1185 22.08M1 28L2.15542 28.5777C2.71084 28.8554 3.32329 29 3.94427 29H6.85926C8.19668 29 9.4456 28.3316 10.1875 27.2188L11 26M1 28V32M45 28L43.8446 28.5777C43.2892 28.8554 42.6767 29 42.0557 29H39.1407C37.8033 29 36.5544 28.3316 35.8125 27.2188L35 26M45 28V32M45 39V32M45 39V41C45 42.1046 44.1046 43 43 43H37C35.8954 43 35 42.1046 35 41V39M45 39H36M1 39V32M1 39V41C1 42.1046 1.89543 43 3 43H9C10.1046 43 11 42.1046 11 41V39M1 39H10M11 26L13 28L23 30L33 28L35 26M1 32H4M4 32H6.17157C6.70201 32 7.21071 32.2107 7.58579 32.5858V32.5858C8.36684 33.3668 8.36684 34.6332 7.58579 35.4142V35.4142C7.21071 35.7893 6.70201 36 6.17157 36H6.12132C4.94975 36 4 35.0503 4 33.8787V32ZM45 32H42M42 32H39.8284C39.298 32 38.7893 32.2107 38.4142 32.5858V32.5858C37.6332 33.3668 37.6332 34.6332 38.4142 35.4142V35.4142C38.7893 35.7893 39.298 36 39.8284 36H39.8787C41.0503 36 42 35.0503 42 33.8787V32ZM11 39H10M11 39H14M35 39H36M35 39H18M10 39L10.3416 38.3167C11.358 36.284 13.4356 35 15.7082 35H30.2918C32.5644 35 34.642 36.284 35.6584 38.3167L36 39" stroke="#3955FE" stroke-width="2" stroke-linecap="round" stroke-linejoin="round"/>
<circle cx="23" cy="13" r="2" stroke="#3955FE" stroke-width="2"/>
<path d="M28.1973 10C27.1599 8.2066 25.2208 7 23 7C20.7791 7 18.8401 8.2066 17.8027 10" stroke="#3955FE" stroke-width="2" stroke-linecap="round"/>
<path d="M31.6622 8C29.9331 5.01099 26.7014 3 23 3C19.2986 3 16.0669 5.01099 14.3378 8" stroke="#3955FE" stroke-width="2" stroke-linecap="round"/>
</svg>
