<svg viewBox="0 0 46 46" fill="none" xmlns="http://www.w3.org/2000/svg">
<path fill-rule="evenodd" clip-rule="evenodd" d="M41 20V8C41 5.37007 39.6414 3 37 3H5C2.35864 3 1 5.37007 1 8V27C1 29.6299 3.35864 31 6 31H10V36C10 36.5 10.5 36.5 11 36L17 31H21V35C21 37.6299 22.3586 39 25 39H32L39 42.5C39.6234 42.831 40 42.7088 40 42V39C42.6414 39 45 37.0585 45 34.4286V23.9524C45 21.6486 43 20 41 20Z" fill="white"/>
<path fill-rule="evenodd" clip-rule="evenodd" d="M41 20V8C41 5 39 3 36 3H9C6 3 4 5 4 8V27C4 30 6 31 9 31H10V36C10 36.5 10.5 36.5 11 36L17 31H21V35C21 37.6299 24.3586 39 27 39H32L39 42.5C39.6234 42.831 40 42.7088 40 42V39C42.6414 39 45 37.0585 45 34.4286V23.9524C45 21.6486 43 20 41 20Z" fill="#E9EFFF"/>
<path fill-rule="evenodd" clip-rule="evenodd" d="M41 20.0001V8.00006C41 5.73089 39.8558 4.03384 38 3.34167C38 3.34167 38 22.5146 38 25.9524C38 27.0001 37 28.0001 36 28.0001H16L10 36.0001L17 31.0001H23V35.0001C23 37.0001 24 39.0001 26.5 39.0001H31.8074C31.9346 39.0001 32.0607 39.0243 32.1788 39.0716L37 41.0001L40 43.0001V39.0001C42.6414 39.0001 45 37.0586 45 34.4286V23.9524C45 21.6487 43 20.0001 41 20.0001Z" fill="#ADC6FE"/>
<path d="M21 35C21 37.2091 22.7909 39 25 39H32.5L40 43V39H41C43.2091 39 45 37.2091 45 35L45 24C45 21.7909 43.2091 20 41 20" stroke="#3955FE" stroke-width="2" stroke-linecap="round" stroke-linejoin="round"/>
<path d="M17 3H25M17 3V14M17 3H6.45455M25 3V14M25 3H35.5455M17 14H1M17 14L6.45455 3M1 14V7C1 4.79086 2.79086 3 5 3H6.45455M1 14V19.8378M25 14L35.5455 3M25 14H31M41 14V20M41 14V7C41 4.79086 39.2091 3 37 3H35.5455M41 14H36M41 20H25M41 20V27C41 29.2091 39.2091 31 37 31H35.5455M25 20V31M25 20L35.5455 31M25 31H35.5455M25 31L17 30.9595M1 19.8378L17 20M1 19.8378V27C1 29.2091 2.79086 31 5 31H6.45455M17 20V30.9595M17 20L6.45455 31M17 30.9595L10 37V31H6.45455" stroke="#3955FE" stroke-width="2" stroke-linecap="round" stroke-linejoin="round"/>
</svg>
