<svg viewBox="0 0 24 24" fill="none" xmlns="http://www.w3.org/2000/svg">
<path fill-rule="evenodd" clip-rule="evenodd" d="M7.71429 3C7.45886 3 7 3.29754 7 4V20C7 20.7025 7.45886 21 7.71429 21H16.2857C16.5411 21 17 20.7025 17 20V4C17 3.29754 16.5411 3 16.2857 3H15C15 3.55228 14.5523 4 14 4H10C9.44772 4 9 3.55228 9 3H7.71429ZM5 4C5 2.49332 6.07616 1 7.71429 1H16.2857C17.9238 1 19 2.49332 19 4V20C19 21.5067 17.9238 23 16.2857 23H7.71429C6.07616 23 5 21.5067 5 20V4ZM11 18C11 17.4477 11.4477 17 12 17H12.01C12.5623 17 13.01 17.4477 13.01 18C13.01 18.5523 12.5623 19 12.01 19H12C11.4477 19 11 18.5523 11 18ZM2.46584 7.11513C2.95454 7.3724 3.14215 7.97713 2.88487 8.46584C2.31411 9.55002 2 10.7449 2 12C2 13.2551 2.31411 14.45 2.88487 15.5342C3.14215 16.0229 2.95454 16.6276 2.46584 16.8849C1.97713 17.1421 1.3724 16.9545 1.11513 16.4658C0.400948 15.1092 0 13.5961 0 12C0 10.4039 0.400949 8.89078 1.11513 7.53416C1.3724 7.04546 1.97713 6.85785 2.46584 7.11513ZM21.1151 15.5342C20.8579 16.0229 21.0455 16.6276 21.5342 16.8849C22.0229 17.1421 22.6276 16.9545 22.8849 16.4658C23.5991 15.1092 24 13.5961 24 12C24 10.4039 23.5991 8.89078 22.8849 7.53417C22.6276 7.04546 22.0229 6.85785 21.5342 7.11513C21.0455 7.3724 20.8579 7.97713 21.1151 8.46584C21.6859 9.55002 22 10.7449 22 12C22 13.2551 21.6859 14.45 21.1151 15.5342Z" fill="#3955FE"/>
</svg>
