<svg viewBox="0 0 24 24" fill="none" xmlns="http://www.w3.org/2000/svg">
<path fill-rule="evenodd" clip-rule="evenodd" d="M13.0748 20.9972C13.5047 20.9649 13.8656 20.6608 13.9701 20.2425L17.0877 7.77238L19.0422 14.2873C19.1691 14.7103 19.5584 15 20 15H23C23.5523 15 24 14.5523 24 14C24 13.4477 23.5523 13 23 13H20.744L17.9578 3.71265C17.8285 3.28142 17.4269 2.98981 16.9768 3.00027C16.5267 3.01073 16.1391 3.32069 16.0299 3.75747L12.762 16.8288L11.4231 13.6154C11.2678 13.2427 10.9037 13 10.5 13H8.72076L6.94868 7.68377C6.81257 7.27543 6.43043 7 6 7C5.56957 7 5.18743 7.27543 5.05132 7.68377L3.27924 13H1C0.447715 13 0 13.4477 0 14C0 14.5523 0.447715 15 1 15H4C4.43043 15 4.81257 14.7246 4.94868 14.3162L6 11.1623L7.05132 14.3162C7.18743 14.7246 7.56957 15 8 15H9.83333L12.0769 20.3846C12.2427 20.7826 12.6449 21.0295 13.0748 20.9972Z" fill="#18AED6"/>
</svg>
