<svg xmlns="http://www.w3.org/2000/svg" width="100" height="33" viewBox="0 0 100 33" fill="none">
    <mask id="path-1-inside-1" fill="white">
        <path d="M63.0484 0.699375C65.0904 0.912999 68.1535 1.52539 70.1458 2.10929C74.8525 3.49072 81.8378 6.06845 85.4612 7.7632L87.4535 8.6889L89.7446 8.53224C91.0022 8.43255 92.0605 8.38982 92.0854 8.43255C92.2349 8.60345 91.5625 8.78859 90.3298 8.931C88.8231 9.1019 88.4869 9.23008 89.5204 9.23008C91.2138 9.23008 94.4263 10.0418 95.7213 10.7824C96.954 11.5087 97.0287 11.7936 96.6054 14.4425C96.2692 16.593 96.1571 18.1311 96.3439 18.2592C96.4186 18.3162 96.8544 18.4301 97.3027 18.5013C98.3735 18.6722 99.0085 19.0568 99.27 19.6976C99.6809 20.6803 99.656 22.7453 99.2077 25.2091C99.0583 25.9639 98.9587 26.0351 97.4396 26.32C96.9167 26.4054 96.2941 26.6618 95.796 26.9751C95.161 27.3738 94.8248 27.4878 94.0902 27.5447C93.5921 27.5875 92.8325 27.7156 92.4216 27.8296C91.9983 27.9435 90.8527 28.0859 89.8815 28.1571C88.8978 28.2283 88.0636 28.3565 88.0262 28.4277C87.9889 28.5132 87.304 28.6271 86.532 28.6841L85.1126 28.7838L85.1997 28.442C85.897 25.5936 85.262 22.7453 83.4814 20.7942C81.2152 18.302 77.9156 17.9744 75.2758 19.9682C73.0719 21.6487 71.9637 24.9955 72.6361 27.9577C72.7482 28.4135 72.8104 28.8692 72.7731 28.9689C72.661 29.3107 71.4283 29.6525 70.4571 29.624C69.9465 29.6098 64.5924 29.5528 58.5658 29.5101C46.2512 29.4246 28.8688 29.6525 28.7318 29.9088C28.682 30.0085 28.3209 30.037 27.7233 29.9943C27.026 29.9373 26.64 29.8234 26.1544 29.5243C25.7933 29.3107 25.5069 29.0686 25.5069 29.0116C25.5069 28.9547 25.594 28.5274 25.6937 28.0717C25.9302 27.0463 25.9302 25.3373 25.6937 24.3404C25.096 21.7484 23.1162 19.5125 20.8998 18.9286C20.0531 18.7007 18.4219 18.7434 17.6499 18.9998C15.9316 19.5837 14.3378 21.0506 13.5783 22.7596C13.3542 23.2723 13.0802 24.2122 12.9682 24.8531C12.7814 25.85 12.7689 26.1775 12.9059 27.1745C12.9806 27.8011 13.1549 28.5986 13.2919 28.9404L13.5285 29.567L12.9557 29.681C12.0592 29.8376 5.4225 29.8519 5.23573 29.6952C5.14856 29.6098 5.08631 29.2252 5.08631 28.741V27.9293L3.86605 27.8296C2.60844 27.7299 1.27613 27.445 1.1018 27.2314C1.052 27.1602 0.977288 26.4339 0.939933 25.6079C0.877675 24.1268 0.877675 24.1268 1.06445 24.7819C1.16406 25.1664 1.28858 25.4655 1.35084 25.4655C1.53761 25.4655 1.73683 24.91 1.69948 24.497C1.67458 24.1837 1.58741 24.0983 1.27613 24.0698C0.665998 23.9986 0.0932261 22.9874 0.0185167 21.8339C-0.0686443 20.6803 0.118129 20.4382 1.31348 20.1961C2.14774 20.0252 2.19754 19.9967 2.53373 19.3701C3.30573 17.9886 5.04895 16.3793 6.74237 15.4964C8.92139 14.3713 12.7067 13.1608 16.7783 12.292C21.2609 11.3378 26.9139 10.3694 28.047 10.3694C28.5949 10.3552 28.8813 10.227 30.2385 9.35825C33.2767 7.39291 38.1452 4.77247 41.8807 3.09196C42.9017 2.62199 43.8854 2.16626 44.0597 2.08081C44.6574 1.76749 47.6831 1.15511 49.9742 0.884517C52.228 0.628169 61.218 0.499993 63.0484 0.699375ZM67.4687 1.96688C67.2944 2.3514 67.3815 2.47957 67.8671 2.59351C69.4485 2.94955 76.5583 5.88331 80.1693 7.67775C83.5561 9.34401 83.2946 9.25856 84.7764 9.20159C85.4986 9.17311 86.2457 9.05918 86.4573 8.95949L86.8309 8.77435L86.3577 8.50376C85.1126 7.7632 77.7412 4.78671 74.1925 3.57617C72.1256 2.87834 68.166 1.71053 67.8173 1.69629C67.6928 1.68205 67.5434 1.81022 67.4687 1.96688ZM51.5929 2.40837C47.5213 2.84985 43.3873 4.48763 39.5772 7.19353L38.3943 8.03379L38.3569 10.3409L38.332 12.6481H38.6682C40.1748 12.6338 47.7952 12.3063 52.0038 12.0784C54.8303 11.9217 57.6444 11.7936 58.2545 11.7936C59.2008 11.7936 59.3627 11.7508 59.425 11.5372C59.4623 11.409 59.8359 9.42946 60.2468 7.16505C60.6701 4.8864 61.0312 2.92106 61.0686 2.79289C61.1557 2.47957 60.8071 2.40837 58.3168 2.25171C56.1378 2.12353 53.7097 2.1805 51.5929 2.40837ZM42.5406 3.16317C37.174 5.65544 32.6541 8.10499 28.9435 10.5688C27.7606 11.3521 27.8353 11.4375 29.6782 11.3378C31.1973 11.2666 31.2844 11.2097 34.3475 9.05918C36.925 7.26474 39.7888 5.45606 42.4037 3.98918C43.6737 3.29134 44.5578 2.70744 44.5578 2.59351C44.5578 2.28019 44.3088 2.3514 42.5406 3.16317ZM62.1394 7.09384C61.7161 9.40098 61.3674 11.3806 61.3674 11.4945C61.3674 11.6654 61.6912 11.6796 63.3223 11.5942C65.5387 11.4802 70.3575 11.0388 72.6983 10.7254C73.5575 10.6115 74.3171 10.5118 74.4042 10.5118C74.4789 10.5118 74.7529 9.79974 75.0019 8.94525C75.6618 6.68084 75.7365 6.78053 72.0758 5.41334C68.5644 4.11735 63.1729 2.56502 62.9737 2.80713C62.9363 2.84985 62.5503 4.78671 62.1394 7.09384ZM35.493 9.18735C35.0448 9.55763 34.5716 10.6685 34.4969 11.5087C34.4471 12.1211 34.472 12.2208 34.7709 12.4344C35.0572 12.6481 35.3063 12.6765 36.4145 12.6053C37.1616 12.5626 37.7966 12.4629 37.8962 12.3632C38.1701 12.0926 38.1577 9.55763 37.8838 9.1019C37.6845 8.78859 37.6098 8.77435 36.7507 8.83131C36.1032 8.88828 35.7296 8.98797 35.493 9.18735ZM95.6217 13.4171C94.912 14.5279 94.7501 15.0549 94.7376 16.2654C94.7376 17.2338 94.7501 17.2481 95.2606 17.832L95.796 18.4159L95.8707 17.0629C95.9205 16.3224 96.0326 15.1261 96.1447 14.4283C96.4559 12.3063 96.4809 11.9645 96.319 12.2778C96.2318 12.4202 95.9205 12.9329 95.6217 13.4171ZM55.8016 13.9725C55.2163 14.3286 55.0918 14.6704 55.3907 15.1118C55.7269 15.5961 56.5736 15.8382 57.6817 15.7527C59.5121 15.6103 60.0475 14.471 58.5658 13.8443C57.9183 13.5738 56.3494 13.645 55.8016 13.9725ZM6.51824 17.5187C5.93301 17.7323 4.53844 19.1849 4.36412 19.7546C4.16489 20.3955 4.32676 20.5379 5.16102 20.424C7.68869 20.0964 10.0047 19.2989 10.2911 18.658C10.428 18.3874 10.3035 17.9174 10.0545 17.6753C9.54397 17.2054 7.60152 17.1057 6.51824 17.5187ZM3.19367 18.7292C3.01935 18.9571 2.78277 19.2989 2.65825 19.5125C2.44657 19.897 2.44657 19.9113 2.6707 19.9113C3.23102 19.9113 3.92831 19.5552 4.30186 19.0995C4.52599 18.8289 4.71276 18.5441 4.71276 18.4729C4.71276 18.4016 4.43883 18.3447 4.11508 18.3447C3.61702 18.3447 3.45515 18.4159 3.19367 18.7292ZM97.6638 21.0506C97.34 21.4493 97.34 22.6456 97.6638 23.0444C98.1618 23.671 98.7221 23.1583 98.7221 22.0475C98.7221 20.9366 98.1618 20.424 97.6638 21.0506ZM3.11896 23.315C3.0567 24.084 3.26838 24.8958 3.52986 24.8958C4.10263 24.8958 4.2645 22.9874 3.75399 22.3893C3.45515 22.0617 3.19367 22.432 3.11896 23.315ZM7.72604 23.3577C7.68869 23.5856 7.80075 23.6141 8.68481 23.6141C9.44436 23.6141 9.69339 23.5713 9.69339 23.4289C9.69339 23.0871 9.53152 23.0302 8.64746 23.0729C7.92527 23.1014 7.7634 23.1583 7.72604 23.3577Z"/>
    </mask>
    <path d="M63.0484 0.699375C65.0904 0.912999 68.1535 1.52539 70.1458 2.10929C74.8525 3.49072 81.8378 6.06845 85.4612 7.7632L87.4535 8.6889L89.7446 8.53224C91.0022 8.43255 92.0605 8.38982 92.0854 8.43255C92.2349 8.60345 91.5625 8.78859 90.3298 8.931C88.8231 9.1019 88.4869 9.23008 89.5204 9.23008C91.2138 9.23008 94.4263 10.0418 95.7213 10.7824C96.954 11.5087 97.0287 11.7936 96.6054 14.4425C96.2692 16.593 96.1571 18.1311 96.3439 18.2592C96.4186 18.3162 96.8544 18.4301 97.3027 18.5013C98.3735 18.6722 99.0085 19.0568 99.27 19.6976C99.6809 20.6803 99.656 22.7453 99.2077 25.2091C99.0583 25.9639 98.9587 26.0351 97.4396 26.32C96.9167 26.4054 96.2941 26.6618 95.796 26.9751C95.161 27.3738 94.8248 27.4878 94.0902 27.5447C93.5921 27.5875 92.8325 27.7156 92.4216 27.8296C91.9983 27.9435 90.8527 28.0859 89.8815 28.1571C88.8978 28.2283 88.0636 28.3565 88.0262 28.4277C87.9889 28.5132 87.304 28.6271 86.532 28.6841L85.1126 28.7838L85.1997 28.442C85.897 25.5936 85.262 22.7453 83.4814 20.7942C81.2152 18.302 77.9156 17.9744 75.2758 19.9682C73.0719 21.6487 71.9637 24.9955 72.6361 27.9577C72.7482 28.4135 72.8104 28.8692 72.7731 28.9689C72.661 29.3107 71.4283 29.6525 70.4571 29.624C69.9465 29.6098 64.5924 29.5528 58.5658 29.5101C46.2512 29.4246 28.8688 29.6525 28.7318 29.9088C28.682 30.0085 28.3209 30.037 27.7233 29.9943C27.026 29.9373 26.64 29.8234 26.1544 29.5243C25.7933 29.3107 25.5069 29.0686 25.5069 29.0116C25.5069 28.9547 25.594 28.5274 25.6937 28.0717C25.9302 27.0463 25.9302 25.3373 25.6937 24.3404C25.096 21.7484 23.1162 19.5125 20.8998 18.9286C20.0531 18.7007 18.4219 18.7434 17.6499 18.9998C15.9316 19.5837 14.3378 21.0506 13.5783 22.7596C13.3542 23.2723 13.0802 24.2122 12.9682 24.8531C12.7814 25.85 12.7689 26.1775 12.9059 27.1745C12.9806 27.8011 13.1549 28.5986 13.2919 28.9404L13.5285 29.567L12.9557 29.681C12.0592 29.8376 5.4225 29.8519 5.23573 29.6952C5.14856 29.6098 5.08631 29.2252 5.08631 28.741V27.9293L3.86605 27.8296C2.60844 27.7299 1.27613 27.445 1.1018 27.2314C1.052 27.1602 0.977288 26.4339 0.939933 25.6079C0.877675 24.1268 0.877675 24.1268 1.06445 24.7819C1.16406 25.1664 1.28858 25.4655 1.35084 25.4655C1.53761 25.4655 1.73683 24.91 1.69948 24.497C1.67458 24.1837 1.58741 24.0983 1.27613 24.0698C0.665998 23.9986 0.0932261 22.9874 0.0185167 21.8339C-0.0686443 20.6803 0.118129 20.4382 1.31348 20.1961C2.14774 20.0252 2.19754 19.9967 2.53373 19.3701C3.30573 17.9886 5.04895 16.3793 6.74237 15.4964C8.92139 14.3713 12.7067 13.1608 16.7783 12.292C21.2609 11.3378 26.9139 10.3694 28.047 10.3694C28.5949 10.3552 28.8813 10.227 30.2385 9.35825C33.2767 7.39291 38.1452 4.77247 41.8807 3.09196C42.9017 2.62199 43.8854 2.16626 44.0597 2.08081C44.6574 1.76749 47.6831 1.15511 49.9742 0.884517C52.228 0.628169 61.218 0.499993 63.0484 0.699375ZM67.4687 1.96688C67.2944 2.3514 67.3815 2.47957 67.8671 2.59351C69.4485 2.94955 76.5583 5.88331 80.1693 7.67775C83.5561 9.34401 83.2946 9.25856 84.7764 9.20159C85.4986 9.17311 86.2457 9.05918 86.4573 8.95949L86.8309 8.77435L86.3577 8.50376C85.1126 7.7632 77.7412 4.78671 74.1925 3.57617C72.1256 2.87834 68.166 1.71053 67.8173 1.69629C67.6928 1.68205 67.5434 1.81022 67.4687 1.96688ZM51.5929 2.40837C47.5213 2.84985 43.3873 4.48763 39.5772 7.19353L38.3943 8.03379L38.3569 10.3409L38.332 12.6481H38.6682C40.1748 12.6338 47.7952 12.3063 52.0038 12.0784C54.8303 11.9217 57.6444 11.7936 58.2545 11.7936C59.2008 11.7936 59.3627 11.7508 59.425 11.5372C59.4623 11.409 59.8359 9.42946 60.2468 7.16505C60.6701 4.8864 61.0312 2.92106 61.0686 2.79289C61.1557 2.47957 60.8071 2.40837 58.3168 2.25171C56.1378 2.12353 53.7097 2.1805 51.5929 2.40837ZM42.5406 3.16317C37.174 5.65544 32.6541 8.10499 28.9435 10.5688C27.7606 11.3521 27.8353 11.4375 29.6782 11.3378C31.1973 11.2666 31.2844 11.2097 34.3475 9.05918C36.925 7.26474 39.7888 5.45606 42.4037 3.98918C43.6737 3.29134 44.5578 2.70744 44.5578 2.59351C44.5578 2.28019 44.3088 2.3514 42.5406 3.16317ZM62.1394 7.09384C61.7161 9.40098 61.3674 11.3806 61.3674 11.4945C61.3674 11.6654 61.6912 11.6796 63.3223 11.5942C65.5387 11.4802 70.3575 11.0388 72.6983 10.7254C73.5575 10.6115 74.3171 10.5118 74.4042 10.5118C74.4789 10.5118 74.7529 9.79974 75.0019 8.94525C75.6618 6.68084 75.7365 6.78053 72.0758 5.41334C68.5644 4.11735 63.1729 2.56502 62.9737 2.80713C62.9363 2.84985 62.5503 4.78671 62.1394 7.09384ZM35.493 9.18735C35.0448 9.55763 34.5716 10.6685 34.4969 11.5087C34.4471 12.1211 34.472 12.2208 34.7709 12.4344C35.0572 12.6481 35.3063 12.6765 36.4145 12.6053C37.1616 12.5626 37.7966 12.4629 37.8962 12.3632C38.1701 12.0926 38.1577 9.55763 37.8838 9.1019C37.6845 8.78859 37.6098 8.77435 36.7507 8.83131C36.1032 8.88828 35.7296 8.98797 35.493 9.18735ZM95.6217 13.4171C94.912 14.5279 94.7501 15.0549 94.7376 16.2654C94.7376 17.2338 94.7501 17.2481 95.2606 17.832L95.796 18.4159L95.8707 17.0629C95.9205 16.3224 96.0326 15.1261 96.1447 14.4283C96.4559 12.3063 96.4809 11.9645 96.319 12.2778C96.2318 12.4202 95.9205 12.9329 95.6217 13.4171ZM55.8016 13.9725C55.2163 14.3286 55.0918 14.6704 55.3907 15.1118C55.7269 15.5961 56.5736 15.8382 57.6817 15.7527C59.5121 15.6103 60.0475 14.471 58.5658 13.8443C57.9183 13.5738 56.3494 13.645 55.8016 13.9725ZM6.51824 17.5187C5.93301 17.7323 4.53844 19.1849 4.36412 19.7546C4.16489 20.3955 4.32676 20.5379 5.16102 20.424C7.68869 20.0964 10.0047 19.2989 10.2911 18.658C10.428 18.3874 10.3035 17.9174 10.0545 17.6753C9.54397 17.2054 7.60152 17.1057 6.51824 17.5187ZM3.19367 18.7292C3.01935 18.9571 2.78277 19.2989 2.65825 19.5125C2.44657 19.897 2.44657 19.9113 2.6707 19.9113C3.23102 19.9113 3.92831 19.5552 4.30186 19.0995C4.52599 18.8289 4.71276 18.5441 4.71276 18.4729C4.71276 18.4016 4.43883 18.3447 4.11508 18.3447C3.61702 18.3447 3.45515 18.4159 3.19367 18.7292ZM97.6638 21.0506C97.34 21.4493 97.34 22.6456 97.6638 23.0444C98.1618 23.671 98.7221 23.1583 98.7221 22.0475C98.7221 20.9366 98.1618 20.424 97.6638 21.0506ZM3.11896 23.315C3.0567 24.084 3.26838 24.8958 3.52986 24.8958C4.10263 24.8958 4.2645 22.9874 3.75399 22.3893C3.45515 22.0617 3.19367 22.432 3.11896 23.315ZM7.72604 23.3577C7.68869 23.5856 7.80075 23.6141 8.68481 23.6141C9.44436 23.6141 9.69339 23.5713 9.69339 23.4289C9.69339 23.0871 9.53152 23.0302 8.64746 23.0729C7.92527 23.1014 7.7634 23.1583 7.72604 23.3577Z" stroke="url(#paint0_linear)" stroke-width="4" mask="url(#path-1-inside-1)"/>
    <path d="M56.3043 14.3282C56.2966 14.3229 56.2934 14.3202 56.2937 14.3202C56.2941 14.3201 56.298 14.3228 56.3043 14.3282Z" stroke="url(#paint1_linear)" stroke-width="2"/>
    <mask id="path-3-inside-2" fill="white">
        <path d="M80.0447 19.3558C81.7755 19.6834 83.5312 21.2072 84.3405 23.1014C86.5943 28.3992 82.4105 34.2383 77.4175 32.7571C74.0555 31.746 72.1255 27.5305 73.3334 23.7992C73.682 22.7311 74.3419 21.606 74.9894 20.9651C75.6992 20.253 77.0813 19.5267 78.0525 19.3416C78.9615 19.1849 79.086 19.1849 80.0447 19.3558ZM77.6416 21.4778C76.5957 21.8481 75.5995 22.845 75.1015 24.0128C74.7902 24.7249 74.7528 24.9812 74.7528 26.1775C74.7528 27.445 74.7777 27.5875 75.1762 28.4277C75.9482 30.0512 77.1062 30.8915 78.7373 30.9912C80.0572 31.0624 80.9537 30.6921 81.8751 29.6952C82.8464 28.6556 83.2074 27.7014 83.2199 26.1775C83.2199 25.1664 83.1701 24.8388 82.8962 24.1837C82.3109 22.7453 81.3273 21.7769 80.0572 21.3924C79.2229 21.136 78.5506 21.1503 77.6416 21.4778Z"/>
    </mask>
    <path d="M80.0447 19.3558L80.4167 17.3907L80.4062 17.3887L80.3957 17.3869L80.0447 19.3558ZM84.3405 23.1014L86.1809 22.3184L86.1797 22.3155L84.3405 23.1014ZM77.4175 32.7571L76.8414 34.6724L76.8487 34.6746L77.4175 32.7571ZM73.3334 23.7992L71.4321 23.1786L71.4306 23.1833L73.3334 23.7992ZM74.9894 20.9651L76.3964 22.3866L76.4059 22.377L74.9894 20.9651ZM78.0525 19.3416L77.7128 17.3706L77.6954 17.3736L77.678 17.377L78.0525 19.3416ZM77.6416 21.4778L78.3091 23.3632L78.3196 23.3594L77.6416 21.4778ZM75.1015 24.0128L76.934 24.8139L76.9376 24.8057L76.9411 24.7974L75.1015 24.0128ZM75.1762 28.4277L73.3691 29.2846L73.37 29.2866L75.1762 28.4277ZM78.7373 30.9912L78.6153 32.9875L78.6225 32.9879L78.6296 32.9883L78.7373 30.9912ZM81.8751 29.6952L80.4136 28.3299L80.4064 28.3377L81.8751 29.6952ZM83.2199 26.1775L85.2198 26.1939L85.2199 26.1857V26.1775H83.2199ZM82.8962 24.1837L81.0436 24.9374L81.0473 24.9464L81.051 24.9553L82.8962 24.1837ZM80.0572 21.3924L79.4697 23.3042L79.4777 23.3066L80.0572 21.3924ZM79.6728 21.3209C80.6359 21.5032 81.9055 22.4926 82.5014 23.8872L86.1797 22.3155C85.1569 19.9219 82.9152 17.8636 80.4167 17.3907L79.6728 21.3209ZM82.5001 23.8843C83.3415 25.862 82.9713 27.9107 81.971 29.3062C80.9829 30.6847 79.5179 31.2941 77.9862 30.8397L76.8487 34.6746C80.3101 35.7013 83.4335 34.1318 85.2221 31.6366C86.9985 29.1583 87.5933 25.6386 86.1809 22.3184L82.5001 23.8843ZM77.9935 30.8419C75.8986 30.2118 74.3079 27.2828 75.2361 24.4151L71.4306 23.1833C69.9432 27.7781 72.2125 33.2802 76.8414 34.6724L77.9935 30.8419ZM75.2346 24.4198C75.5057 23.5892 76.019 22.7601 76.3963 22.3866L73.5825 19.5437C72.6649 20.4519 71.8583 21.8729 71.4321 23.1786L75.2346 24.4198ZM76.4059 22.377C76.5736 22.2088 76.9119 21.9595 77.3576 21.7239C77.8033 21.4883 78.1987 21.3497 78.427 21.3062L77.678 17.377C76.9351 17.5186 76.1538 17.8358 75.4882 18.1876C74.8226 18.5394 74.115 19.0093 73.5729 19.5532L76.4059 22.377ZM78.3922 21.3125C78.8697 21.2302 78.9571 21.2254 79.0165 21.2258C79.0834 21.2263 79.1881 21.2346 79.6938 21.3248L80.3957 17.3869C79.9427 17.3061 79.5057 17.229 79.0434 17.2259C78.5736 17.2227 78.1442 17.2963 77.7128 17.3706L78.3922 21.3125ZM76.9741 19.5925C75.319 20.1784 73.943 21.6311 73.2618 23.2282L76.9411 24.7974C77.2561 24.0589 77.8723 23.5178 78.309 23.3632L76.9741 19.5925ZM73.2689 23.2117C73.0875 23.6268 72.9229 24.0495 72.8354 24.5987C72.7584 25.0817 72.7528 25.5997 72.7528 26.1775H76.7528C76.7528 25.5591 76.766 25.3508 76.7855 25.2285C76.7944 25.1725 76.8042 25.111 76.934 24.8139L73.2689 23.2117ZM72.7528 26.1775C72.7528 26.7616 72.7523 27.3135 72.8493 27.8311C72.9582 28.4124 73.1715 28.8681 73.3691 29.2846L76.9833 27.5708C76.7824 27.1471 76.7841 27.1115 76.7809 27.0945C76.7658 27.014 76.7528 26.861 76.7528 26.1775H72.7528ZM73.37 29.2866C73.8646 30.3268 74.5413 31.237 75.4646 31.903C76.3993 32.5772 77.4716 32.9176 78.6153 32.9875L78.8593 28.9949C78.3719 28.9651 78.0496 28.8356 77.8045 28.6588C77.5481 28.4738 77.2597 28.1521 76.9824 27.5688L73.37 29.2866ZM78.6296 32.9883C79.5061 33.0356 80.3727 32.9419 81.2191 32.5923C82.0621 32.2441 82.746 31.6995 83.3439 31.0527L80.4064 28.3377C80.0828 28.6878 79.8578 28.8268 79.6922 28.8952C79.53 28.9622 79.2884 29.018 78.8451 28.9941L78.6296 32.9883ZM83.3366 31.0605C83.9521 30.4017 84.4486 29.6883 84.7757 28.8308C85.0995 27.982 85.2124 27.1093 85.2198 26.1939L81.22 26.1612C81.215 26.7696 81.1411 27.136 81.0384 27.4051C80.939 27.6656 80.7694 27.9491 80.4136 28.3299L83.3366 31.0605ZM85.2199 26.1775C85.2199 25.6643 85.2096 25.1905 85.1354 24.7294C85.0543 24.2257 84.9116 23.8192 84.7413 23.4122L81.051 24.9553C81.1547 25.2033 81.1738 25.2882 81.1862 25.3649C81.2053 25.4841 81.2199 25.6796 81.2199 26.1775H85.2199ZM84.7487 23.43C83.9799 21.5404 82.5875 20.0688 80.6367 19.4782L79.4777 23.3066C80.0671 23.485 80.642 23.9503 81.0436 24.9374L84.7487 23.43ZM80.6446 19.4806C79.3741 19.0902 78.2575 19.13 76.9636 19.5963L78.3196 23.3594C78.8437 23.1705 79.0717 23.1818 79.4698 23.3041L80.6446 19.4806Z" fill="url(#paint2_linear)" mask="url(#path-3-inside-2)"/>
    <mask id="path-5-inside-3" fill="white">
        <path d="M80.0448 21.7484C81.1779 22.1472 82.3608 23.4004 82.7095 24.5682C82.9834 25.4939 82.9585 26.8469 82.6597 27.7868C82.0993 29.4816 80.6425 30.6494 79.0612 30.6494C77.8285 30.6636 77.0191 30.2791 76.1724 29.3249C73.6821 26.4624 75.4502 21.5775 78.9615 21.6345C79.3849 21.6345 79.8705 21.6914 80.0448 21.7484ZM79.4223 22.6599C79.4223 23.2723 79.7709 23.9986 80.2316 24.3261C80.7546 24.6964 81.6137 24.6964 82.0246 24.3404L82.3235 24.084L82.0495 23.5571C81.6884 22.902 81.1032 22.3893 80.3312 22.0475C79.7834 21.8054 79.7211 21.8054 79.5717 22.019C79.497 22.1472 79.4223 22.432 79.4223 22.6599ZM77.5919 22.076C76.9195 22.4178 76.3218 22.9305 75.9981 23.4716C75.6245 24.0983 75.6619 24.2692 76.2596 24.554C77.5047 25.1522 79.0238 23.4716 78.4261 22.1757C78.2767 21.8623 78.0775 21.8339 77.5919 22.076ZM79.5717 24.91C79.5966 24.9955 79.6713 25.0525 79.7335 25.0525C79.7958 25.0525 79.8705 24.9955 79.8954 24.91C79.9203 24.8246 79.8456 24.7534 79.7335 24.7534C79.6215 24.7534 79.5468 24.8246 79.5717 24.91ZM78.0775 24.91C78.1024 24.9955 78.1771 25.0525 78.2394 25.0525C78.3016 25.0525 78.3763 24.9955 78.4012 24.91C78.4261 24.8246 78.3514 24.7534 78.2394 24.7534C78.1273 24.7534 78.0526 24.8246 78.0775 24.91ZM78.4884 25.6079C78.0277 26.1918 78.588 27.0605 79.223 26.7187C79.3974 26.6333 79.5468 26.5051 79.5468 26.4481C79.5468 26.3912 79.5841 26.2488 79.6215 26.1348C79.7086 25.8642 79.2604 25.323 78.9491 25.323C78.8121 25.323 78.6129 25.4512 78.4884 25.6079ZM81.6013 25.7503C80.8417 26.2915 80.5678 27.5447 81.0285 28.4135C81.3398 28.9831 81.7382 29.1398 81.9873 28.7838C82.448 28.1286 82.697 27.3454 82.7593 26.4197L82.8215 25.4655H82.4106C82.1865 25.4655 81.8254 25.5936 81.6013 25.7503ZM75.388 25.5509C74.9646 25.7361 75.2136 27.3738 75.8362 28.4847C76.1599 29.0828 76.2347 29.1398 76.4837 29.0116C77.1685 28.6556 77.4051 27.2314 76.9319 26.3484C76.5958 25.7218 75.8611 25.3373 75.388 25.5509ZM80.0199 26.5336C80.0199 26.6048 80.0822 26.6902 80.1569 26.7187C80.2316 26.7472 80.2939 26.6618 80.2939 26.5336C80.2939 26.4054 80.2316 26.32 80.1569 26.3484C80.0822 26.3769 80.0199 26.4624 80.0199 26.5336ZM77.6541 26.5336C77.6541 26.6048 77.7164 26.6902 77.7911 26.7187C77.8658 26.7472 77.9281 26.6618 77.9281 26.5336C77.9281 26.4054 77.8658 26.32 77.7911 26.3484C77.7164 26.3769 77.6541 26.4624 77.6541 26.5336ZM78.7997 27.5447C78.7997 27.7868 79.0736 27.7441 79.1483 27.4878C79.1732 27.3881 79.111 27.3169 78.9989 27.3169C78.8868 27.3169 78.7997 27.4166 78.7997 27.5447ZM78.3763 28.5132C77.8783 28.7553 77.4051 29.4104 77.4549 29.7949C77.5047 30.1652 78.1273 30.4358 78.974 30.4358C79.6837 30.45 80.5429 30.1937 80.6301 29.9373C80.7421 29.5813 80.2814 28.855 79.7584 28.5844C79.1359 28.2711 78.9242 28.2568 78.3763 28.5132Z"/>
    </mask>
    <path d="M80.0448 21.7484L80.7088 19.8618L80.6875 19.8543L80.6661 19.8473L80.0448 21.7484ZM82.7095 24.5682L84.6273 24.0007L84.6259 23.9961L82.7095 24.5682ZM82.6597 27.7868L84.5586 28.4147L84.5622 28.4038L84.5657 28.3928L82.6597 27.7868ZM79.0612 30.6494V28.6494H79.0496L79.0381 28.6495L79.0612 30.6494ZM76.1724 29.3249L74.6635 30.6376L74.6699 30.645L74.6764 30.6524L76.1724 29.3249ZM78.9615 21.6345L78.9291 23.6342L78.9453 23.6345H78.9615V21.6345ZM80.2316 24.3261L79.0727 25.9561L79.0759 25.9584L80.2316 24.3261ZM82.0246 24.3404L80.7224 22.8224L80.7149 22.8289L82.0246 24.3404ZM82.3235 24.084L83.6256 25.602L84.8298 24.5691L84.098 23.1615L82.3235 24.084ZM82.0495 23.5571L83.8241 22.6346L83.8128 22.613L83.8011 22.5916L82.0495 23.5571ZM80.3312 22.0475L81.1409 20.2187L81.1396 20.2181L80.3312 22.0475ZM79.5717 22.019L77.9328 20.8727L77.8854 20.9404L77.8438 21.0119L79.5717 22.019ZM77.5919 22.076L76.6995 20.2861L76.6925 20.2896L76.6856 20.2931L77.5919 22.076ZM75.9981 23.4716L74.2817 22.4449L74.2802 22.4476L75.9981 23.4716ZM76.2596 24.554L77.1256 22.7512L77.12 22.7485L76.2596 24.554ZM78.4261 22.1757L80.2423 21.3381L80.2369 21.3264L80.2314 21.3148L78.4261 22.1757ZM78.4884 25.6079L76.9227 24.3634L76.9183 24.369L78.4884 25.6079ZM79.223 26.7187L78.3427 24.9229L78.3086 24.9396L78.2751 24.9576L79.223 26.7187ZM79.6215 26.1348L81.522 26.7579L81.5252 26.748L79.6215 26.1348ZM81.6013 25.7503L80.4555 24.111L80.4481 24.1162L80.4407 24.1215L81.6013 25.7503ZM81.0285 28.4135L79.2616 29.3505L79.2675 29.3615L79.2734 29.3725L81.0285 28.4135ZM81.9873 28.7838L80.3513 27.6333L80.3484 27.6374L81.9873 28.7838ZM82.7593 26.4197L84.7548 26.5539L84.755 26.5499L82.7593 26.4197ZM82.8215 25.4655L84.8173 25.5957L84.9563 23.4655H82.8215V25.4655ZM75.388 25.5509L76.1893 27.3834L76.2001 27.3786L76.2109 27.3737L75.388 25.5509ZM75.8362 28.4847L77.5951 27.5327L77.5881 27.5197L77.5809 27.5069L75.8362 28.4847ZM76.4837 29.0116L77.399 30.7899L77.4062 30.7861L76.4837 29.0116ZM76.9319 26.3484L78.6948 25.4038L78.6943 25.4029L76.9319 26.3484ZM79.1483 27.4878L81.0684 28.0474L81.0793 28.0101L81.0887 27.9725L79.1483 27.4878ZM78.3763 28.5132L77.5287 26.7017L77.5153 26.7079L77.502 26.7144L78.3763 28.5132ZM77.4549 29.7949L75.4715 30.0518L75.4728 30.0615L77.4549 29.7949ZM78.974 30.4358L79.0141 28.4362L78.9941 28.4358H78.974V30.4358ZM80.6301 29.9373L82.5236 30.5811L82.5309 30.5595L82.5378 30.5378L80.6301 29.9373ZM79.7584 28.5844L80.6775 26.8081L80.6676 26.8029L80.6575 26.7978L79.7584 28.5844ZM79.3809 23.635C79.5702 23.7016 79.8914 23.8982 80.2174 24.2433C80.542 24.587 80.7297 24.928 80.7931 25.1404L84.6259 23.9961C84.3406 23.0406 83.7625 22.1712 83.1252 21.4966C82.4893 20.8234 81.6525 20.194 80.7088 19.8618L79.3809 23.635ZM80.7917 25.1358C80.9472 25.6613 80.9367 26.6052 80.7537 27.1809L84.5657 28.3928C84.9803 27.0886 85.0196 25.3266 84.6273 24.0007L80.7917 25.1358ZM80.7608 27.159C80.4208 28.1873 79.6293 28.6494 79.0612 28.6494V32.6494C81.6557 32.6494 83.7779 30.7759 84.5586 28.4147L80.7608 27.159ZM79.0381 28.6495C78.6433 28.6541 78.4418 28.5953 78.311 28.5348C78.1719 28.4705 77.9708 28.3383 77.6684 27.9975L74.6764 30.6524C75.2207 31.2657 75.8476 31.8029 76.633 32.1658C77.4268 32.5326 78.2464 32.6589 79.0843 32.6493L79.0381 28.6495ZM77.6813 28.0122C76.9809 27.2072 76.837 26.0588 77.1967 25.0663C77.5567 24.0728 78.2434 23.6231 78.9291 23.6342L78.994 19.6347C76.1684 19.5889 74.2153 21.5532 73.436 23.7035C72.6564 25.8548 72.8736 28.5802 74.6635 30.6376L77.6813 28.0122ZM78.9615 23.6345C79.0918 23.6345 79.2462 23.6438 79.38 23.6583C79.4456 23.6655 79.4925 23.6724 79.5184 23.6769C79.531 23.6791 79.5314 23.6795 79.5216 23.6773C79.5154 23.6758 79.4788 23.6675 79.4236 23.6495L80.6661 19.8473C80.3655 19.7491 80.0207 19.7045 79.8132 19.6818C79.5547 19.6537 79.2546 19.6345 78.9615 19.6345V23.6345ZM77.4223 22.6599C77.4223 23.3199 77.6025 23.9515 77.8539 24.4711C78.1011 24.9818 78.496 25.5461 79.0727 25.9561L81.3905 22.6961C81.426 22.7214 81.4494 22.7425 81.4624 22.7552C81.4756 22.7681 81.4815 22.7756 81.4818 22.776C81.4822 22.7765 81.479 22.7725 81.4734 22.7635C81.4679 22.7546 81.4613 22.7428 81.4544 22.7285C81.4475 22.7143 81.4412 22.6994 81.4358 22.6846C81.4304 22.6697 81.4266 22.6569 81.4241 22.6468C81.4215 22.6367 81.4209 22.6317 81.421 22.6324C81.421 22.6329 81.4223 22.6421 81.4223 22.6599H77.4223ZM79.0759 25.9584C79.7348 26.4249 80.5014 26.6021 81.1594 26.6056C81.7887 26.609 82.6423 26.4515 83.3343 25.8519L80.7149 22.8289C80.8684 22.6959 81.0045 22.6446 81.066 22.626C81.1314 22.6062 81.17 22.6056 81.1809 22.6057C81.1934 22.6057 81.2082 22.607 81.2312 22.6137C81.2531 22.62 81.3105 22.6395 81.3873 22.6939L79.0759 25.9584ZM83.3268 25.8584L83.6256 25.602L81.0213 22.566L80.7225 22.8224L83.3268 25.8584ZM84.098 23.1615L83.8241 22.6346L80.275 24.4796L80.5489 25.0065L84.098 23.1615ZM83.8011 22.5916C83.2007 21.5024 82.2559 20.7124 81.1409 20.2187L79.5215 23.8763C79.9506 24.0662 80.1762 24.3016 80.298 24.5225L83.8011 22.5916ZM81.1396 20.2181C81.0042 20.1583 80.8393 20.0865 80.6805 20.0293C80.5445 19.9803 80.2425 19.8764 79.8713 19.8635C79.3965 19.8471 78.9068 19.98 78.485 20.2928C78.1648 20.5302 77.9745 20.813 77.9328 20.8727L81.2106 23.1653C81.2106 23.1653 81.2105 23.1653 81.2105 23.1654C81.2105 23.1654 81.2104 23.1655 81.2104 23.1656C81.2102 23.1658 81.21 23.1661 81.2097 23.1665C81.2092 23.1673 81.2083 23.1685 81.2072 23.1701C81.2049 23.1732 81.2011 23.1784 81.1961 23.185C81.1865 23.1978 81.1691 23.2203 81.145 23.2485C81.0991 23.3022 81.0073 23.4022 80.8676 23.5058C80.7189 23.6161 80.5316 23.7188 80.3081 23.7859C80.0883 23.8519 79.8892 23.8666 79.7328 23.8611C79.5839 23.856 79.4721 23.8326 79.415 23.8186C79.3843 23.8112 79.3613 23.8043 79.3474 23.8C79.3334 23.7957 79.3253 23.7927 79.3244 23.7924C79.3242 23.7924 79.3388 23.7977 79.376 23.8132C79.4124 23.8284 79.4593 23.8487 79.5228 23.8768L81.1396 20.2181ZM77.8438 21.0119C77.6673 21.3147 77.5741 21.6292 77.5251 21.8314C77.4698 22.0598 77.4223 22.3498 77.4223 22.6599H81.4223C81.4223 22.7082 81.4186 22.7382 81.4172 22.7482C81.4157 22.7598 81.4142 22.767 81.4128 22.7727C81.4116 22.7775 81.4075 22.794 81.397 22.823C81.3898 22.8429 81.3613 22.9203 81.2996 23.0262L77.8438 21.0119ZM76.6856 20.2931C75.7679 20.7596 74.8451 21.5031 74.2817 22.4449L77.7144 24.4984C77.7985 24.3578 78.0711 24.0759 78.4982 23.8588L76.6856 20.2931ZM74.2802 22.4476C74.1731 22.6272 74.0254 22.8869 73.9188 23.1785C73.8107 23.4744 73.6731 23.9926 73.8192 24.6049C73.9732 25.2507 74.3607 25.6696 74.6589 25.91C74.9292 26.1279 75.2174 26.2728 75.3991 26.3595L77.12 22.7485C77.0029 22.6928 77.0622 22.7095 77.1692 22.7957C77.304 22.9044 77.5934 23.1879 77.7101 23.6771C77.8187 24.1328 77.7045 24.4729 77.6758 24.5516C77.6486 24.626 77.6363 24.6294 77.716 24.4957L74.2802 22.4476ZM75.3935 26.3568C77.0987 27.1759 78.703 26.3134 79.5146 25.4196C80.3357 24.5154 80.9763 22.9297 80.2423 21.3381L76.61 23.0132C76.5471 22.8769 76.5584 22.7608 76.5681 22.7197C76.5749 22.6909 76.5767 22.7049 76.5533 22.7306C76.528 22.7584 76.5385 22.73 76.6257 22.7034C76.6745 22.6886 76.7494 22.6745 76.8443 22.6797C76.9424 22.6851 77.04 22.7101 77.1256 22.7512L75.3935 26.3568ZM80.2314 21.3148C80.0254 20.8829 79.4926 20.0706 78.3812 19.9327C77.5988 19.8357 76.941 20.1657 76.6995 20.2861L78.4842 23.8659C78.5544 23.8309 78.5418 23.8429 78.4747 23.8628C78.4118 23.8815 78.1936 23.9401 77.8889 23.9023C77.5371 23.8587 77.2092 23.704 76.9562 23.4742C76.7393 23.2772 76.6441 23.0852 76.6209 23.0366L80.2314 21.3148ZM77.6516 25.4696C77.8704 26.2205 78.6005 27.0525 79.7335 27.0525V23.0525C80.2861 23.0525 80.6924 23.2859 80.9275 23.484C81.1836 23.6999 81.3884 23.9956 81.4918 24.3505L77.6516 25.4696ZM79.7335 27.0525C80.8665 27.0525 81.5967 26.2205 81.8155 25.4696L77.9753 24.3505C78.0787 23.9956 78.2835 23.6999 78.5396 23.484C78.7747 23.2859 79.181 23.0525 79.7335 23.0525V27.0525ZM81.8155 25.4696C82.0478 24.6726 81.7874 23.8736 81.2533 23.3592C80.7733 22.8968 80.1879 22.7534 79.7335 22.7534V26.7534C79.3912 26.7534 78.8993 26.6455 78.4784 26.2402C78.0035 25.7827 77.7679 25.0621 77.9753 24.3505L81.8155 25.4696ZM79.7335 22.7534C79.2792 22.7534 78.6938 22.8968 78.2138 23.3592C77.6797 23.8736 77.4193 24.6726 77.6516 25.4696L81.4918 24.3505C81.6992 25.0621 81.4636 25.7827 80.9887 26.2402C80.5678 26.6455 80.0759 26.7534 79.7335 26.7534V22.7534ZM76.1574 25.4696C76.3762 26.2205 77.1064 27.0525 78.2394 27.0525V23.0525C78.7919 23.0525 79.1982 23.2859 79.4333 23.484C79.6894 23.6999 79.8942 23.9956 79.9976 24.3505L76.1574 25.4696ZM78.2394 27.0525C79.3724 27.0525 80.1025 26.2205 80.3213 25.4696L76.4811 24.3505C76.5845 23.9956 76.7893 23.6999 77.0454 23.484C77.2805 23.2859 77.6868 23.0525 78.2394 23.0525V27.0525ZM80.3213 25.4696C80.5536 24.6726 80.2932 23.8736 79.7591 23.3592C79.2791 22.8968 78.6937 22.7534 78.2394 22.7534V26.7534C77.897 26.7534 77.4051 26.6455 76.9842 26.2402C76.5093 25.7827 76.2737 25.0621 76.4811 24.3505L80.3213 25.4696ZM78.2394 22.7534C77.785 22.7534 77.1996 22.8968 76.7196 23.3592C76.1855 23.8736 75.9251 24.6726 76.1574 25.4696L79.9976 24.3505C80.205 25.0621 79.9694 25.7827 79.4945 26.2402C79.0736 26.6455 78.5817 26.7534 78.2394 26.7534V22.7534ZM76.9183 24.369C76.0965 25.4106 76.193 26.7216 76.7711 27.6053C77.0649 28.0545 77.5339 28.4768 78.1735 28.6787C78.8494 28.8921 79.5612 28.808 80.1709 28.4798L78.2751 24.9576C78.5674 24.8003 78.9709 24.7358 79.3776 24.8642C79.748 24.9812 79.9865 25.2138 80.1185 25.4156C80.3729 25.8044 80.4196 26.3891 80.0585 26.8467L76.9183 24.369ZM80.1033 28.5146C80.3278 28.4045 80.5475 28.2635 80.7391 28.1021C80.8313 28.0244 80.9652 27.9017 81.0952 27.7357C81.1444 27.6729 81.5468 27.1874 81.5468 26.4481H77.5468C77.5468 26.041 77.6725 25.74 77.7406 25.5996C77.8166 25.4429 77.8977 25.3311 77.9462 25.2692C78.0428 25.1459 78.1284 25.0713 78.1614 25.0434C78.2347 24.9817 78.2926 24.9475 78.3427 24.9229L80.1033 28.5146ZM81.5468 26.4481C81.5468 26.5419 81.5396 26.6141 81.5355 26.6503C81.5309 26.6908 81.5258 26.7215 81.5227 26.7389C81.5195 26.7573 81.5167 26.7706 81.5152 26.7776C81.5136 26.785 81.5125 26.7893 81.5123 26.7904C81.5119 26.792 81.5128 26.7881 81.5153 26.7796C81.5176 26.7715 81.5201 26.7637 81.5219 26.7579L77.721 25.5117C77.6889 25.6097 77.6557 25.7227 77.628 25.8353C77.618 25.8756 77.5468 26.1458 77.5468 26.4481H81.5468ZM81.5252 26.748C81.75 26.0501 81.5699 25.4483 81.4602 25.1671C81.332 24.8382 81.1501 24.5632 80.975 24.3517C80.7977 24.1377 80.5684 23.9177 80.2888 23.7357C80.0402 23.5738 79.5693 23.323 78.9491 23.323V27.323C78.4845 27.323 78.1864 27.1399 78.1067 27.088C77.9959 27.0159 77.9316 26.9481 77.8945 26.9032C77.8594 26.8609 77.7927 26.7718 77.7337 26.6206C77.6933 26.5169 77.5366 26.0842 77.7178 25.5216L81.5252 26.748ZM78.9491 23.323C78.3385 23.323 77.874 23.5731 77.6531 23.7114C77.3846 23.8793 77.1312 24.1011 76.9227 24.3634L80.0541 26.8523C79.9701 26.958 79.8785 27.0374 79.7751 27.1021C79.7198 27.1367 79.6346 27.1837 79.5187 27.2257C79.4112 27.2647 79.2127 27.323 78.9491 27.323V23.323ZM80.4407 24.1215C79.5702 24.7417 79.0892 25.6725 78.9025 26.5364C78.7144 27.4065 78.7744 28.4317 79.2616 29.3505L82.7954 27.4764C82.8115 27.5067 82.8077 27.5139 82.8049 27.4887C82.8021 27.4633 82.8028 27.4247 82.8121 27.3817C82.8215 27.3383 82.8347 27.3129 82.8379 27.3076C82.8411 27.3023 82.8223 27.336 82.7618 27.3791L80.4407 24.1215ZM79.2734 29.3725C79.5195 29.8227 79.9913 30.4933 80.8074 30.8102C81.2663 30.9884 81.8387 31.0491 82.4248 30.8481C82.9939 30.653 83.3829 30.2779 83.6262 29.9301L80.3484 27.6374C80.4672 27.4676 80.7129 27.2065 81.1276 27.0643C81.5592 26.9163 81.9658 26.969 82.2551 27.0813C82.7318 27.2664 82.8488 27.5739 82.7836 27.4544L79.2734 29.3725ZM83.6232 29.9342C84.3345 28.9228 84.6731 27.7687 84.7548 26.5539L80.7638 26.2854C80.721 26.922 80.5615 27.3345 80.3513 27.6333L83.6232 29.9342ZM84.755 26.5499L84.8173 25.5957L80.8258 25.3352L80.7635 26.2894L84.755 26.5499ZM82.8215 23.4655H82.4106V27.4655H82.8215V23.4655ZM82.4106 23.4655C81.9818 23.4655 81.5947 23.5734 81.3404 23.6631C81.0653 23.7602 80.748 23.9066 80.4555 24.111L82.7471 27.3896C82.7056 27.4186 82.6804 27.431 82.6771 27.4326C82.6737 27.4342 82.6722 27.4349 82.6722 27.4349C82.6721 27.4349 82.6721 27.435 82.6715 27.4352C82.6709 27.4354 82.6682 27.4363 82.6629 27.4378C82.6578 27.4393 82.6476 27.442 82.6322 27.4452C82.6108 27.4497 82.5321 27.4655 82.4106 27.4655V23.4655ZM74.5866 23.7185C73.9783 23.9845 73.6424 24.4495 73.473 24.7867C73.3068 25.1176 73.2402 25.4373 73.2096 25.6649C73.1482 26.1224 73.184 26.5871 73.2427 26.9722C73.3623 27.7561 73.6509 28.6763 74.0915 29.4625L77.5809 27.5069C77.3989 27.1822 77.2518 26.7281 77.197 26.3691C77.1686 26.1828 77.1826 26.1339 77.174 26.1975C77.1699 26.2282 77.1485 26.3809 77.0473 26.5824C76.9428 26.7903 76.6917 27.1636 76.1893 27.3834L74.5866 23.7185ZM74.0773 29.4367C74.1604 29.5902 74.2569 29.7645 74.3583 29.9216C74.4442 30.0547 74.6308 30.3334 74.9305 30.5758C75.3129 30.8849 75.844 31.1064 76.4644 31.0625C76.9432 31.0285 77.3022 30.8397 77.399 30.7899L75.5684 27.2333C75.5752 27.2298 75.6325 27.2001 75.7203 27.1685C75.8103 27.1361 75.9708 27.0874 76.1816 27.0725C76.4059 27.0566 76.653 27.0815 76.9013 27.1663C77.142 27.2485 77.3228 27.3661 77.4454 27.4653C77.6549 27.6346 77.7465 27.795 77.7195 27.7531C77.7081 27.7354 77.6739 27.6782 77.5951 27.5327L74.0773 29.4367ZM77.4062 30.7861C78.5765 30.1777 78.9888 28.9586 79.1146 28.2081C79.2558 27.3653 79.1856 26.3196 78.6948 25.4038L75.1691 27.2931C75.1522 27.2615 75.1654 27.2733 75.174 27.3407C75.1822 27.4053 75.1807 27.4804 75.1696 27.5471C75.1575 27.6189 75.1434 27.6291 75.1663 27.5885C75.1849 27.5553 75.292 27.377 75.5611 27.2371L77.4062 30.7861ZM78.6943 25.4029C78.3303 24.7244 77.7644 24.1872 77.1323 23.8592C76.5458 23.555 75.5678 23.2753 74.565 23.7281L76.2109 27.3737C75.9414 27.4954 75.703 27.501 75.5583 27.4848C75.416 27.4688 75.3274 27.4292 75.2903 27.4099C75.2279 27.3775 75.1974 27.3458 75.1696 27.294L78.6943 25.4029ZM78.0199 26.5336C78.0199 27.1138 78.2522 27.5595 78.4498 27.828C78.6566 28.1087 78.9824 28.4114 79.4444 28.5875L80.8694 24.8499C81.2567 24.9976 81.514 25.2433 81.671 25.4564C81.8188 25.6572 82.0199 26.0246 82.0199 26.5336H78.0199ZM79.4444 28.5875C79.888 28.7566 80.4047 28.7791 80.8999 28.597C81.3662 28.4256 81.6769 28.1247 81.864 27.8707C82.2189 27.3886 82.2939 26.8728 82.2939 26.5336H78.2939C78.2939 26.3225 78.3377 25.9136 78.6428 25.4991C78.8049 25.2789 79.0861 25.0021 79.5197 24.8427C79.9823 24.6726 80.4631 24.695 80.8694 24.8499L79.4444 28.5875ZM82.2939 26.5336C82.2939 26.1943 82.2189 25.6786 81.864 25.1965C81.6769 24.9425 81.3662 24.6416 80.8999 24.4702C80.4047 24.2881 79.888 24.3105 79.4444 24.4797L80.8694 28.2172C80.4631 28.3721 79.9823 28.3945 79.5197 28.2245C79.0861 28.0651 78.8049 27.7882 78.6428 27.5681C78.3377 27.1536 78.2939 26.7447 78.2939 26.5336H82.2939ZM79.4444 24.4797C78.9824 24.6558 78.6566 24.9584 78.4498 25.2392C78.2522 25.5076 78.0199 25.9533 78.0199 26.5336H82.0199C82.0199 27.0426 81.8188 27.41 81.671 27.6108C81.514 27.8239 81.2567 28.0696 80.8694 28.2172L79.4444 24.4797ZM75.6541 26.5336C75.6541 27.1138 75.8864 27.5595 76.084 27.828C76.2908 28.1087 76.6166 28.4114 77.0786 28.5875L78.5036 24.8499C78.8909 24.9976 79.1483 25.2433 79.3052 25.4564C79.453 25.6572 79.6541 26.0246 79.6541 26.5336H75.6541ZM77.0786 28.5875C77.5222 28.7566 78.0389 28.7791 78.5341 28.597C79.0004 28.4256 79.3111 28.1247 79.4982 27.8707C79.8531 27.3886 79.9281 26.8728 79.9281 26.5336H75.9281C75.9281 26.3225 75.9719 25.9136 76.277 25.4991C76.4392 25.2789 76.7203 25.0021 77.1539 24.8427C77.6165 24.6726 78.0973 24.695 78.5036 24.8499L77.0786 28.5875ZM79.9281 26.5336C79.9281 26.1943 79.8531 25.6786 79.4982 25.1965C79.3111 24.9425 79.0004 24.6416 78.5341 24.4702C78.0389 24.2881 77.5222 24.3105 77.0786 24.4797L78.5036 28.2172C78.0973 28.3721 77.6165 28.3945 77.1539 28.2245C76.7203 28.0651 76.4392 27.7882 76.277 27.5681C75.9719 27.1536 75.9281 26.7447 75.9281 26.5336H79.9281ZM77.0786 24.4797C76.6166 24.6558 76.2908 24.9584 76.084 25.2392C75.8864 25.5076 75.6541 25.9533 75.6541 26.5336H79.6541C79.6541 27.0426 79.453 27.41 79.3052 27.6108C79.1483 27.8239 78.8909 28.0696 78.5036 28.2172L77.0786 24.4797ZM76.7997 27.5447C76.7997 27.9633 76.9218 28.5963 77.4513 29.1098C78.0037 29.6455 78.7082 29.7667 79.2622 29.678C80.2912 29.5132 80.8737 28.7155 81.0684 28.0474L77.2282 26.9282C77.3482 26.5164 77.7564 25.8682 78.6298 25.7283C79.106 25.6521 79.7373 25.7546 80.2359 26.2382C80.7118 26.6997 80.7997 27.2472 80.7997 27.5447H76.7997ZM81.0887 27.9725C81.2281 27.4145 81.1678 26.6629 80.6306 26.0485C80.1234 25.4684 79.4584 25.3169 78.9989 25.3169V29.3169C78.6515 29.3169 78.0736 29.201 77.6193 28.6814C77.1351 28.1275 77.0935 27.4614 77.2079 27.0031L81.0887 27.9725ZM78.9989 25.3169C77.5384 25.3169 76.7997 26.5728 76.7997 27.5447H80.7997C80.7997 28.2604 80.2353 29.3169 78.9989 29.3169V25.3169ZM77.502 26.7144C76.8866 27.0135 76.405 27.4904 76.0871 27.932C75.9196 28.1647 75.7564 28.4438 75.6373 28.7586C75.5266 29.051 75.4016 29.512 75.4715 30.0518L79.4383 29.538C79.4622 29.7222 79.4487 29.8705 79.4329 29.9663C79.4167 30.0636 79.3936 30.134 79.3784 30.1743C79.3495 30.2505 79.3264 30.2787 79.3332 30.2693C79.3341 30.268 79.3368 30.2646 79.3407 30.2602C79.3425 30.2582 79.3441 30.2565 79.3455 30.2551C79.3468 30.2538 79.3475 30.2531 79.3474 30.2532C79.3473 30.2533 79.346 30.2545 79.3433 30.2566C79.3406 30.2588 79.3359 30.2624 79.3291 30.2671C79.3164 30.2758 79.2907 30.2925 79.2507 30.3119L77.502 26.7144ZM75.4728 30.0615C75.6423 31.322 76.6641 31.8952 77.1324 32.0945C77.7133 32.3417 78.3633 32.4358 78.974 32.4358V28.4358C78.738 28.4358 78.6533 28.3946 78.6988 28.4139C78.7227 28.4241 78.8484 28.4793 78.9979 28.6265C79.1558 28.7821 79.3771 29.0824 79.4371 29.5283L75.4728 30.0615ZM78.9339 32.4354C79.5142 32.447 80.1139 32.3526 80.6104 32.2036C80.8572 32.1295 81.1513 32.0205 81.4328 31.8583C81.6022 31.7607 82.2509 31.3832 82.5236 30.5811L78.7365 29.2935C78.8658 28.9132 79.0812 28.6818 79.1865 28.582C79.3015 28.4728 79.3985 28.414 79.4359 28.3924C79.5096 28.3499 79.5282 28.3521 79.4606 28.3724C79.3283 28.4121 79.1435 28.4388 79.0141 28.4362L78.9339 32.4354ZM82.5378 30.5378C82.7322 29.9201 82.6259 29.3674 82.5351 29.0551C82.4341 28.708 82.2772 28.4007 82.1163 28.1498C81.8105 27.6725 81.3239 27.1425 80.6775 26.8081L78.8394 30.3607C78.7971 30.3388 78.77 30.32 78.7567 30.3101C78.7496 30.3048 78.7447 30.3008 78.7419 30.2984C78.739 30.2959 78.7376 30.2945 78.7374 30.2944C78.7372 30.2942 78.7378 30.2948 78.7391 30.2961C78.7403 30.2975 78.7418 30.2992 78.7434 30.3011C78.7469 30.3054 78.7487 30.3082 78.7484 30.3078C78.7484 30.3078 78.7431 30.2997 78.7347 30.2819C78.7267 30.265 78.7106 30.2286 78.6943 30.1724C78.6786 30.1185 78.6559 30.0233 78.649 29.8942C78.6423 29.7666 78.6492 29.5693 78.7223 29.3369L82.5378 30.5378ZM80.6575 26.7978C80.3412 26.6387 79.8021 26.3732 79.1464 26.338C78.433 26.2998 77.8678 26.543 77.5287 26.7017L79.2239 30.3247C79.3211 30.2792 79.3227 30.2847 79.2745 30.2982C79.2066 30.3172 79.0842 30.3404 78.9323 30.3323C78.7888 30.3246 78.6963 30.2928 78.6845 30.2886C78.6843 30.2885 78.728 30.3048 78.8594 30.3709L80.6575 26.7978Z" fill="url(#paint3_linear)" mask="url(#path-5-inside-3)"/>
    <path d="M24.7748 25.1907L24.775 25.1926C25.2318 28.4743 23.2035 31.7141 20.4358 32.3703L20.4353 32.3704C17.4437 33.0828 14.4056 30.7504 13.8994 27.0648C13.442 23.6273 15.6014 20.3484 18.4951 19.8342C18.9607 19.7551 19.1793 19.7244 19.3929 19.7259C19.6074 19.7273 19.8332 19.7612 20.312 19.8477C20.7364 19.9257 21.2759 20.1513 21.8151 20.4765C22.3505 20.7994 22.8497 21.199 23.2018 21.5948C23.9653 22.469 24.6001 23.8984 24.7748 25.1907ZM14.9706 28.3745L14.9706 28.3745L14.9722 28.3785C15.4216 29.4531 16.2118 30.3924 17.179 30.9773C17.4867 31.1644 17.7429 31.2986 18.0818 31.3714C18.3987 31.4395 18.7657 31.4485 19.2811 31.4485C19.7912 31.4485 20.1567 31.4353 20.4767 31.371C20.8127 31.3036 21.0743 31.1852 21.3848 31.019L21.3848 31.019L21.3861 31.0183C22.3699 30.4878 23.2138 29.5118 23.6881 28.396C23.8432 28.0339 23.9478 27.7467 24.0073 27.402C24.0651 27.0672 24.0768 26.6979 24.0768 26.1775C24.0768 25.6701 24.0649 25.3006 24.0114 24.9677C23.9562 24.6248 23.8601 24.3394 23.7153 23.9929C22.6936 21.489 20.3622 20.1452 18.0001 20.9472C16.6268 21.4121 15.4912 22.5525 14.9199 23.9827C14.6796 24.575 14.5814 25.3862 14.5911 26.1625C14.6009 26.9418 14.7205 27.7615 14.9706 28.3745Z" stroke="#4DD1D1"/>
    <path d="M21.5244 25.1056C21.8928 25.1076 22.2987 25.0204 22.6151 24.7924C22.6306 24.8415 22.645 24.8908 22.6583 24.9402L22.6583 24.9403L22.66 24.9463C22.6621 24.9537 22.6642 24.9613 22.6662 24.9689C22.501 24.9815 22.3321 25.0265 22.1871 25.0788C22.0105 25.1425 21.8263 25.2325 21.6718 25.3405C21.4047 25.5272 21.1827 25.7995 21.0168 26.0911C21.0156 26.0893 21.0143 26.0876 21.013 26.0858C20.9569 26.0096 20.8681 25.9254 20.7393 25.878C20.6583 25.8482 20.5749 25.8382 20.4944 25.845C20.4667 25.7478 20.4258 25.6621 20.3868 25.5932C20.3697 25.5631 20.3514 25.5334 20.3321 25.5043C20.5353 25.4196 20.6785 25.235 20.7324 25.0499C20.7404 25.0227 20.7463 24.9955 20.7504 24.9684C21.0029 25.0609 21.2708 25.1043 21.5244 25.1056ZM21.2342 28.9996C21.3193 29.1019 21.4149 29.1943 21.5207 29.2681C21.4848 29.3016 21.4484 29.3342 21.4115 29.3659C21.3659 29.2389 21.3046 29.1153 21.2342 28.9996ZM17.3458 29.4513C17.311 29.4227 17.2766 29.3933 17.2426 29.3629C17.316 29.3047 17.3836 29.2414 17.4458 29.1739C17.4281 29.2121 17.4118 29.2507 17.3972 29.2895C17.378 29.3401 17.3603 29.3943 17.3458 29.4513ZM18.5147 28.0635C18.2415 28.1963 17.9927 28.4076 17.7965 28.6367C17.9946 28.1993 18.0567 27.6964 18.0225 27.2436C18.0215 27.2298 18.0203 27.216 18.0191 27.2022C18.1315 27.2341 18.255 27.2327 18.3735 27.1891C18.4788 27.1504 18.5573 27.0871 18.6131 27.0237C18.665 27.0668 18.7202 27.1039 18.7776 27.1353C18.6981 27.2603 18.6566 27.4066 18.6566 27.5447C18.6566 27.657 18.6786 27.812 18.7721 27.9524C18.6883 27.9844 18.6051 28.0211 18.5214 28.0603L18.5214 28.0602L18.5147 28.0635ZM17.9523 26.7796C17.9334 26.6972 17.911 26.615 17.885 26.5336C17.8702 26.4872 17.8542 26.441 17.837 26.3953C17.8386 26.3931 17.8402 26.3908 17.8419 26.3884C17.8731 26.3461 17.9323 26.2859 18.0285 26.2505C18.0533 26.2414 18.0782 26.2348 18.1031 26.2305C18.1338 26.2252 18.1643 26.2233 18.1941 26.2246C18.2 26.2703 18.2088 26.3145 18.2196 26.3572C18.1986 26.3424 18.1741 26.3385 18.1481 26.3484C18.0734 26.3769 18.0111 26.4624 18.0111 26.5336C18.0111 26.6048 18.0734 26.6902 18.1481 26.7187C18.1961 26.737 18.239 26.7082 18.2635 26.6512C18.2751 26.6243 18.2826 26.5911 18.2845 26.5536C18.288 26.5624 18.2915 26.5711 18.2951 26.5797C18.3241 26.6519 18.3583 26.7179 18.3967 26.778C18.3778 26.7917 18.3545 26.8048 18.3262 26.8156C18.2596 26.841 18.182 26.8503 18.1031 26.8367C18.0782 26.8323 18.0533 26.8257 18.0285 26.8166C17.9999 26.8061 17.9746 26.7934 17.9523 26.7796ZM20.0763 27.0119C20.1426 27.0813 20.2291 27.1453 20.3357 27.1859C20.4355 27.2239 20.5464 27.2352 20.6564 27.2127C20.6515 27.2713 20.6489 27.3299 20.6489 27.3881C20.6489 27.7553 20.7568 28.148 20.9088 28.4748C20.9479 28.5589 20.993 28.6452 21.044 28.73C20.8568 28.4984 20.6182 28.2855 20.3502 28.1429L20.3503 28.1428L20.3402 28.1377C20.1684 28.0513 20.0032 27.9738 19.8371 27.9187C19.9219 27.8069 19.9746 27.6764 19.9907 27.545C20.0053 27.4254 19.9929 27.2691 19.9064 27.1233C19.9654 27.0911 20.0224 27.0539 20.0763 27.0119ZM20.5044 26.3235C20.5108 26.2913 20.516 26.2584 20.5199 26.2248C20.5809 26.2216 20.6399 26.2316 20.692 26.2515C20.7608 26.2778 20.7995 26.3178 20.82 26.3457C20.8297 26.3588 20.845 26.3824 20.8573 26.4165C20.8412 26.4551 20.8259 26.4941 20.8114 26.5336C20.7795 26.6204 20.7515 26.7093 20.7281 26.7993C20.7171 26.8052 20.7051 26.8106 20.692 26.8156C20.6254 26.841 20.5477 26.8503 20.4689 26.8367C20.444 26.8323 20.419 26.8257 20.3943 26.8166C20.3612 26.8045 20.3325 26.7894 20.3079 26.7731C20.3429 26.7249 20.3745 26.6735 20.4022 26.619C20.4272 26.6627 20.4682 26.7013 20.5139 26.7187C20.5619 26.737 20.6048 26.7082 20.6293 26.6512C20.6429 26.6196 20.6508 26.5793 20.6508 26.5336C20.6508 26.4878 20.6429 26.4475 20.6293 26.4159C20.6048 26.3589 20.5619 26.3301 20.5139 26.3484C20.5083 26.3506 20.5028 26.353 20.4975 26.3557C20.4999 26.3451 20.5022 26.3343 20.5044 26.3235ZM19.1572 27.2602C19.2234 27.2696 19.29 27.2733 19.3559 27.2717C19.3884 27.2709 19.4207 27.2688 19.4527 27.2655C19.5032 27.2908 19.5442 27.3245 19.5751 27.3598C19.6573 27.4538 19.6567 27.5407 19.6566 27.5446L19.6566 27.5447C19.6566 27.5934 19.6398 27.6556 19.5907 27.7118C19.5397 27.7701 19.4561 27.8169 19.3559 27.8169C19.3522 27.8169 19.3484 27.8168 19.3446 27.8166C19.3427 27.8166 19.3409 27.8165 19.339 27.8164C19.2584 27.8115 19.1466 27.772 19.0672 27.6649C19.0364 27.6233 19.0183 27.582 19.0081 27.5447C18.994 27.4934 18.9949 27.4498 18.9981 27.4235C19.0081 27.3418 19.0534 27.2821 19.1158 27.2535C19.1208 27.2544 19.1259 27.2553 19.1309 27.2561L19.1912 27.4144C19.1693 27.4511 19.1566 27.4958 19.1566 27.5447C19.1566 27.6729 19.2189 27.7441 19.3061 27.7156C19.3239 27.7088 19.3405 27.7006 19.3559 27.6912C19.4158 27.6547 19.4575 27.6006 19.479 27.5447C19.5217 27.4341 19.4854 27.3169 19.3559 27.3169C19.2933 27.3169 19.2384 27.348 19.2022 27.3978L19.1572 27.2602ZM18.2178 25.8444C18.1322 25.8383 18.0477 25.8516 17.97 25.8812C17.8531 25.9258 17.7604 25.9983 17.692 26.0753C17.5019 25.7219 17.2267 25.4171 16.8535 25.2323C16.6033 25.1045 16.3559 25.004 16.1091 24.9833C16.0761 24.9805 16.0437 24.9791 16.0119 24.9792C16.0239 24.9316 16.0367 24.8843 16.0502 24.8373C16.0537 24.8396 16.0572 24.8419 16.0607 24.8441C16.2165 24.9439 16.4023 25.0158 16.5937 25.0745C17.0692 25.2221 17.5338 25.1693 17.9411 24.9953C17.9447 25.0135 17.9491 25.0317 17.9544 25.0499C18.0086 25.2357 18.1526 25.4209 18.357 25.5052C18.3003 25.6095 18.2491 25.7219 18.2178 25.8444ZM19.2812 24.823C19.2743 24.823 19.2675 24.8231 19.2607 24.8233C19.2473 24.6754 19.1796 24.5398 19.0755 24.4395C19.0092 24.3757 18.9345 24.331 18.8578 24.3014C19.0935 24.0155 19.2767 23.6646 19.3642 23.2864C19.4127 23.4708 19.4801 23.6503 19.5611 23.8176C19.6408 23.9825 19.7382 24.1444 19.8517 24.2931C19.7671 24.3224 19.6841 24.3695 19.6114 24.4395C19.5043 24.5427 19.4356 24.6833 19.4251 24.8363C19.379 24.8279 19.3309 24.823 19.2812 24.823ZM18.2666 24.8238C18.2869 24.8109 18.3071 24.7978 18.3269 24.7844C18.422 24.7202 18.512 24.6496 18.5963 24.574C18.604 24.567 18.6117 24.5601 18.6193 24.5531C18.7213 24.5589 18.7895 24.6022 18.8236 24.631C18.8655 24.6662 18.898 24.7135 18.9145 24.7701C18.9283 24.8175 18.9324 24.8654 18.9283 24.9116C18.9083 24.9216 18.8891 24.9321 18.8707 24.9428C18.819 24.973 18.7742 25.0051 18.7373 25.0343C18.6885 25.073 18.6411 25.1164 18.5963 25.1639C18.5723 25.1894 18.549 25.216 18.5266 25.2437C18.4837 25.2321 18.4319 25.208 18.3818 25.1598C18.3271 25.1071 18.2875 25.036 18.2711 24.9576C18.2621 24.9146 18.2602 24.8693 18.2666 24.8238ZM19.34 22.1844C19.3375 22.1946 19.3351 22.2049 19.3327 22.2153C19.3254 22.1915 19.3175 22.1677 19.3092 22.144C19.323 22.1436 19.3367 22.1433 19.3504 22.1431C19.3467 22.157 19.3433 22.1708 19.34 22.1844ZM19.8632 24.631C19.8989 24.6009 19.9718 24.5549 20.0817 24.5526C20.0846 24.5554 20.0876 24.5582 20.0905 24.561C20.1563 24.6238 20.2258 24.6817 20.2988 24.7336L20.2996 24.7342C20.3227 24.7505 20.3461 24.7663 20.3699 24.7814C20.3859 24.7917 20.402 24.8016 20.4182 24.8113C20.427 24.861 20.4255 24.9106 20.4157 24.9576C20.3993 25.036 20.3597 25.1071 20.3051 25.1598C20.2407 25.2218 20.1734 25.2439 20.1261 25.2507C20.1234 25.248 20.1208 25.2453 20.1181 25.2426C20.1091 25.2334 20.0999 25.2242 20.0905 25.2151C19.9958 25.123 19.8868 25.0365 19.77 24.9686C19.7691 24.9682 19.7683 24.9677 19.7674 24.9672C19.7667 24.964 19.766 24.9608 19.7653 24.9576C19.7528 24.8976 19.7539 24.8334 19.7724 24.7701C19.7889 24.7135 19.8214 24.6662 19.8632 24.631ZM19.9286 24.91C19.9535 24.9955 20.0283 25.0525 20.0905 25.0525C20.1528 25.0525 20.2275 24.9955 20.2524 24.91C20.2622 24.8765 20.2566 24.8452 20.2394 24.8195C20.2129 24.7797 20.1586 24.7534 20.0905 24.7534C20.0224 24.7534 19.9681 24.7797 19.9416 24.8195C19.9244 24.8452 19.9189 24.8765 19.9286 24.91ZM18.4345 24.91C18.4594 24.9955 18.5341 25.0525 18.5963 25.0525C18.6586 25.0525 18.7333 24.9955 18.7582 24.91C18.768 24.8765 18.7624 24.8452 18.7453 24.8195C18.7187 24.7797 18.6644 24.7534 18.5963 24.7534C18.5282 24.7534 18.4739 24.7797 18.4474 24.8195C18.4303 24.8452 18.4247 24.8765 18.4345 24.91Z" stroke="#53D1D1"/>
    <defs>
        <linearGradient id="paint0_linear" x1="33.3548" y1="28.5663" x2="49.0714" y2="-3.1736" gradientUnits="userSpaceOnUse">
            <stop stop-color="#0ACFCF"/>
            <stop offset="1" stop-color="#743498" stop-opacity="0.6"/>
        </linearGradient>
        <linearGradient id="paint1_linear" x1="56.703" y1="15.476" x2="58.7383" y2="14.2703" gradientUnits="userSpaceOnUse">
            <stop stop-color="#0ACFCF"/>
            <stop offset="1" stop-color="#743498" stop-opacity="0.6"/>
        </linearGradient>
        <linearGradient id="paint2_linear" x1="76.99" y1="32.3135" x2="91.3307" y2="26.9608" gradientUnits="userSpaceOnUse">
            <stop stop-color="#0ACFCF"/>
            <stop offset="1" stop-color="#743498" stop-opacity="0.6"/>
        </linearGradient>
        <linearGradient id="paint3_linear" x1="77.6516" y1="30.2062" x2="87.0895" y2="16.0973" gradientUnits="userSpaceOnUse">
            <stop stop-color="#0ACFCF"/>
            <stop offset="1" stop-color="#743498" stop-opacity="0.6"/>
        </linearGradient>
    </defs>
</svg>