<svg width="16" height="15" viewBox="0 0 13 12" fill="#ccc" xmlns="http://www.w3.org/2000/svg" >
    <path d="M12.7992 0.32853C12.6405 0.116652 12.4026 0 12.1295 0C11.981 0 11.8237 0.0340866 11.662 0.101502L0.657795 4.68458C0.0738117 4.92773 -0.0048395 5.29262 0.000218767 5.48848C0.00527704 5.68435 0.102773 6.04383 0.698459 6.25062C0.70203 6.25181 0.7056 6.253 0.709171 6.25408L2.99174 6.96676L4.22616 10.818C4.39447 11.343 4.77226 11.6692 5.21223 11.6692C5.48964 11.6692 5.76249 11.5424 6.00132 11.3026L7.41317 9.88425L9.46098 11.6833L9.48111 11.7009C9.4829 11.7024 9.48478 11.704 9.48657 11.7056C9.71419 11.8982 9.96264 11.9999 10.2053 12C10.6795 12 11.0572 11.617 11.1672 11.0245L12.9702 1.31098C13.0426 0.921096 12.9819 0.572222 12.7992 0.32853ZM3.75534 6.83139L8.15912 4.37683L5.41704 7.55576C5.37211 7.60781 5.34027 7.67154 5.3246 7.74091L4.79586 10.0776L3.75534 6.83139ZM5.48527 10.6912C5.46703 10.7095 5.44868 10.7258 5.43033 10.7409L5.92088 8.57316L6.81322 9.35715L5.48527 10.6912ZM12.2237 1.14596L10.4207 10.8596C10.4033 10.9525 10.3479 11.1688 10.2053 11.1688C10.1349 11.1688 10.0465 11.127 9.9559 11.0509L7.63544 9.01239L7.63435 9.01152L6.25364 7.79847L10.219 3.20133C10.346 3.05416 10.3575 2.82876 10.2463 2.66709C10.135 2.50542 9.93338 2.45456 9.76845 2.54654L3.24644 6.1818L0.932826 5.45959L11.9337 0.877919C12.0266 0.83918 12.0915 0.831064 12.1295 0.831064C12.1528 0.831064 12.1942 0.834094 12.2096 0.854762C12.2298 0.881707 12.2556 0.973578 12.2237 1.14596Z"></path>
</svg>