<svg viewBox="0 0 24 24" fill="none" xmlns="http://www.w3.org/2000/svg">
<path fill-rule="evenodd" clip-rule="evenodd" d="M16.5578 3.02799C16.0748 2.97342 15.5837 2.98923 15.1001 3.07736C14.1002 3.25955 13.1795 3.74214 12.4608 4.46084C11.7421 5.17953 11.2595 6.10019 11.0773 7.10012C10.8951 8.10004 11.022 9.13175 11.441 10.0577C11.6126 10.4369 11.5314 10.8828 11.2371 11.1771L3.20709 19.2071C2.9968 19.4174 2.87866 19.7026 2.87866 20C2.87866 20.2974 2.9968 20.5826 3.20709 20.7929C3.41738 21.0032 3.70259 21.1213 3.99998 21.1213C4.29737 21.1213 4.58259 21.0032 4.79288 20.7929L12.8229 12.7629C13.1172 12.4686 13.563 12.3874 13.9423 12.559C14.8682 12.978 15.9 13.1049 16.8999 12.9227C17.8998 12.7405 18.8205 12.2579 19.5392 11.5392C20.2579 10.8205 20.7405 9.89983 20.9226 8.89991C21.0108 8.41625 21.0266 7.92517 20.972 7.44221L18.4071 10.0071L18.4 10.0142L18.4 10.0142C18.0394 10.3676 17.5751 10.5859 17 10.5859C16.4249 10.5859 15.9606 10.3676 15.6 10.0142L15.5928 10.0072L15.5929 10.0071L13.9929 8.40712L13.9858 8.40005L13.9858 8.40001C13.6324 8.03946 13.4141 7.5751 13.4141 6.99998C13.4141 6.75159 13.4502 6.48875 13.5612 6.22415C13.6719 5.96044 13.8327 5.75311 14.0028 5.58298L14.0029 5.5829L16.5578 3.02799ZM14.7416 1.10975C16.1415 0.854686 17.5859 1.03231 18.8823 1.61895C19.1813 1.75429 19.3949 2.0278 19.4538 2.35076C19.5126 2.67372 19.4092 3.00499 19.1771 3.23712L15.4172 6.99705L15.4171 6.99712L15.4142 7.00002L17 8.5858L20.7629 4.8229C20.995 4.59078 21.3263 4.48736 21.6492 4.54621C21.9722 4.60505 22.2457 4.81866 22.381 5.11774C22.9677 6.41413 23.1453 7.85851 22.8902 9.25841C22.6352 10.6583 21.9595 11.9472 20.9534 12.9534C20.3804 13.5264 19.7157 13.9922 18.991 14.3342L21.0918 16.4351C22.2634 17.6066 22.2634 19.5061 21.0918 20.6777L19.6776 22.0919C18.5061 23.2635 16.6066 23.2635 15.435 22.0919L10.8786 17.5356L6.20709 22.2071C5.62173 22.7925 4.82781 23.1213 3.99998 23.1213C3.17216 23.1213 2.37824 22.7925 1.79288 22.2071C1.20751 21.6217 0.878662 20.8278 0.878662 20C0.878662 19.1722 1.20751 18.3782 1.79288 17.7929L8.58579 11L3.83189 6.24608L1.99998 5.00005L0.999979 3.00005L1.99998 2.00005L3.99997 2.99988L5.24605 4.83182L9.0232 8.60897C8.96873 7.98892 8.99689 7.36092 9.10972 6.74161C9.36479 5.34172 10.0404 4.0528 11.0466 3.04663C12.0528 2.04045 13.3417 1.36481 14.7416 1.10975ZM13.7749 14.6394C14.7429 14.9645 15.7714 15.0742 16.7879 14.9596L19.6776 17.8493C20.0682 18.2398 20.0682 18.873 19.6776 19.2635L18.2634 20.6777C17.8729 21.0682 17.2397 21.0682 16.8492 20.6777L12.2928 16.1214L13.7749 14.6394Z" fill="#188ED6"/>
</svg>
