<svg viewBox="0 0 24 25" fill="none" xmlns="http://www.w3.org/2000/svg">
<path fill-rule="evenodd" clip-rule="evenodd" d="M8.5 4.00269H10.5V2.00269H8.5H6.5H4.5V4.00269H6.5V6.00269V8.00269V10.0027H8.5V8.00269V6.00269V4.00269ZM19 20.0027C20.6569 20.0027 22 18.6595 22 17.0027C22 15.3458 20.6569 14.0027 19 14.0027H5C3.34315 14.0027 2 15.3458 2 17.0027C2 18.6595 3.34315 20.0027 5 20.0027H19ZM24 17.0027C24 19.7641 21.7614 22.0027 19 22.0027H5C2.23858 22.0027 0 19.7641 0 17.0027C0 14.2413 2.23858 12.0027 5 12.0027H19C21.7614 12.0027 24 14.2413 24 17.0027ZM6 18.0027C6.55228 18.0027 7 17.555 7 17.0027C7 16.4504 6.55228 16.0027 6 16.0027C5.44772 16.0027 5 16.4504 5 17.0027C5 17.555 5.44772 18.0027 6 18.0027ZM12 17.0027C12 16.4504 12.4477 16.0027 13 16.0027H19C19.5523 16.0027 20 16.4504 20 17.0027C20 17.555 19.5523 18.0027 19 18.0027H13C12.4477 18.0027 12 17.555 12 17.0027ZM13.9444 8.52121L12.25 4.00269L11.7222 2.59528L11.5 2.00269H13.5L14.4459 4.84042L15.3183 7.45775L15.5 8.00269L15.6816 7.45774L16.5541 4.84042L17.5 2.00269H19.5L19.2778 2.59528L18.75 4.00269L17.0555 8.5212L16.6316 9.65178L16.5 10.0027H15.5H14.5L14.3684 9.65178L13.9444 8.52121Z" fill="#B0BEC5"/>
</svg>
