<svg width="15" height="18" viewBox="0 0 10 13" fill="#F28402" xmlns="http://www.w3.org/2000/svg"> <path d="M4.91014 6.39958C5.70107 6.39958 6.38585 6.1212 6.94553 5.57198C7.50503 5.02284 7.78879 4.35094 7.78879 3.5747C7.78879 2.79873 7.50512 2.12674 6.94544 1.57742C6.38576 1.02837 5.70098 0.75 4.91014 0.75C4.11913 0.75 3.43444 1.02837 2.87485 1.57751C2.31526 2.12665 2.03149 2.79864 2.03149 3.5747C2.03149 4.35094 2.31526 5.02293 2.87485 5.57207C3.43462 6.12111 4.1194 6.39958 4.91014 6.39958ZM3.37015 2.06347C3.79953 1.64211 4.30323 1.43729 4.91014 1.43729C5.51697 1.43729 6.02075 1.64211 6.45023 2.06347C6.87961 2.48492 7.08842 2.9793 7.08842 3.5747C7.08842 4.17028 6.87961 4.66456 6.45023 5.08601C6.02075 5.50746 5.51697 5.71228 4.91014 5.71228C4.30341 5.71228 3.79972 5.50737 3.37015 5.08601C2.94068 4.66465 2.73187 4.17028 2.73187 3.5747C2.73187 2.9793 2.94068 2.48492 3.37015 2.06347Z"></path> <path d="M9.94707 9.76849C9.93093 9.53996 9.89829 9.29067 9.85024 9.02742C9.80173 8.7622 9.73927 8.51148 9.6645 8.28232C9.58717 8.04547 9.48222 7.81157 9.35229 7.58742C9.21761 7.35478 9.05931 7.15219 8.88169 6.98549C8.69595 6.8111 8.46854 6.67088 8.20557 6.56861C7.94351 6.46687 7.65309 6.41533 7.34243 6.41533C7.22042 6.41533 7.10243 6.46445 6.87457 6.61004C6.73433 6.69978 6.57029 6.80358 6.38719 6.91838C6.23063 7.01627 6.01854 7.10799 5.75657 7.19103C5.50098 7.27219 5.24148 7.31335 4.98525 7.31335C4.72921 7.31335 4.4697 7.27219 4.21394 7.19103C3.95224 7.10808 3.74006 7.01636 3.58377 6.91847C3.40241 6.80474 3.23828 6.70095 3.09594 6.60995C2.86826 6.46436 2.75026 6.41524 2.62826 6.41524C2.31751 6.41524 2.02718 6.46687 1.76521 6.5687C1.50242 6.67079 1.27492 6.81101 1.089 6.98558C0.911375 7.15237 0.753081 7.35487 0.618495 7.58742C0.488741 7.81157 0.383698 8.04538 0.306375 8.28241C0.231696 8.51157 0.169236 8.7622 0.120726 9.02742C0.0725817 9.29031 0.0400294 9.53969 0.02389 9.76876C0.00802411 9.99273 0 10.2258 0 10.4613C0 11.0736 0.198323 11.5692 0.589408 11.9347C0.975659 12.2954 1.48665 12.4783 2.10824 12.4783H7.86299C8.4844 12.4783 8.99539 12.2954 9.38174 11.9347C9.77291 11.5695 9.97124 11.0736 9.97124 10.4612C9.97114 10.2249 9.96303 9.99184 9.94707 9.76849ZM8.89883 11.4368C8.64361 11.6751 8.30477 11.791 7.8629 11.791H2.10824C1.66628 11.791 1.32744 11.6751 1.07231 11.4368C0.822016 11.203 0.700377 10.8839 0.700377 10.4613C0.700377 10.2416 0.707763 10.0246 0.722535 9.81628C0.736942 9.6119 0.766394 9.3874 0.810071 9.14885C0.8532 8.91325 0.908092 8.69214 0.97338 8.49197C1.03602 8.30004 1.12146 8.10999 1.22742 7.92691C1.32854 7.75242 1.44489 7.60272 1.57327 7.48211C1.69336 7.36927 1.84473 7.27693 2.02308 7.20767C2.18803 7.1436 2.3734 7.10853 2.57465 7.10325C2.59917 7.11604 2.64285 7.14047 2.71361 7.18575C2.85759 7.27782 3.02354 7.38287 3.207 7.49785C3.4138 7.62724 3.68024 7.7441 3.99856 7.84495C4.32399 7.94821 4.6559 8.00064 4.98534 8.00064C5.31479 8.00064 5.64679 7.94821 5.97204 7.84504C6.29063 7.74401 6.55698 7.62724 6.76405 7.49767C6.9518 7.37992 7.1131 7.27791 7.25708 7.18575C7.32784 7.14056 7.37151 7.11604 7.39604 7.10325C7.59738 7.10853 7.78275 7.1436 7.94779 7.20767C8.12605 7.27693 8.27742 7.36936 8.39751 7.48211C8.52589 7.60263 8.64224 7.75233 8.74336 7.927C8.84941 8.10999 8.93494 8.30013 8.99749 8.49189C9.06287 8.69232 9.11785 8.91334 9.16089 9.14876C9.20448 9.38776 9.23402 9.61235 9.24843 9.81637V9.81654C9.26329 10.024 9.27077 10.2409 9.27086 10.4613C9.27077 10.8839 9.14913 11.203 8.89883 11.4368Z"></path>
</svg>