<svg width="21" height="15" viewBox="0 0 18 12" fill="#ccc" xmlns="http://www.w3.org/2000/svg" >
    <path d="M9.10875 11.625C11.7127 11.625 10.7842 9.9765 10.9852 9.5025C10.9822 9.1485 10.9792 8.808 10.9912 8.601C11.1562 8.6475 11.5455 8.84475 12.3495 9.62625C13.5907 10.8787 13.908 11.625 14.9107 11.625H16.7565C17.3415 11.625 17.646 11.3828 17.7982 11.1795C17.9452 10.983 18.0892 10.638 17.9317 10.101C17.52 8.808 15.1185 6.57525 14.9692 6.33975C14.9917 6.29625 15.0277 6.2385 15.0465 6.2085H15.045C15.519 5.58225 17.328 2.87175 17.5942 1.78725C17.595 1.78575 17.5957 1.7835 17.5957 1.78125C17.7397 1.28625 17.6077 0.96525 17.4712 0.78375C17.2657 0.51225 16.9387 0.375 16.497 0.375H14.6512C14.0332 0.375 13.5645 0.68625 13.3275 1.254C12.9307 2.26275 11.8162 4.33725 10.9807 5.0715C10.9552 4.03125 10.9725 3.237 10.986 2.64675C11.013 1.4955 11.1 0.375 9.90525 0.375H7.00425C6.25575 0.375 5.5395 1.1925 6.315 2.163C6.993 3.0135 6.55875 3.4875 6.705 5.847C6.135 5.23575 5.121 3.585 4.404 1.47525C4.203 0.9045 3.8985 0.37575 3.04125 0.37575H1.1955C0.447 0.37575 0 0.78375 0 1.467C0 3.0015 3.39675 11.625 9.10875 11.625ZM3.04125 1.50075C3.204 1.50075 3.2205 1.50075 3.34125 1.8435C4.0755 4.00575 5.7225 7.20525 6.9255 7.20525C7.82925 7.20525 7.82925 6.279 7.82925 5.93025L7.8285 3.15375C7.779 2.235 7.4445 1.7775 7.22475 1.5L9.85575 1.503C9.85725 1.51575 9.84075 4.57425 9.86325 5.31525C9.86325 6.3675 10.6987 6.9705 12.003 5.6505C13.3792 4.09725 14.331 1.77525 14.3692 1.68075C14.4255 1.54575 14.4742 1.5 14.6512 1.5H16.497H16.5045C16.5037 1.50225 16.5037 1.5045 16.503 1.50675C16.3342 2.29425 14.6685 4.80375 14.1112 5.583C14.1022 5.595 14.094 5.60775 14.0857 5.6205C13.8405 6.021 13.641 6.4635 14.1195 7.086H14.1202C14.1637 7.1385 14.277 7.2615 14.442 7.4325C14.955 7.962 16.7145 9.7725 16.8705 10.4925C16.767 10.509 16.6545 10.497 14.9107 10.5008C14.5395 10.5008 14.2492 9.94575 13.1415 8.82825C12.1455 7.85925 11.499 7.46325 10.9102 7.46325C9.76725 7.46325 9.8505 8.391 9.861 9.513C9.86475 10.7295 9.85725 10.3448 9.8655 10.4213C9.79875 10.4475 9.6075 10.5 9.10875 10.5C4.35 10.5 1.251 2.94675 1.13175 1.503C1.173 1.49925 1.74075 1.5015 3.04125 1.50075Z"></path>
</svg>