<svg viewBox="0 0 24 24" fill="none" xmlns="http://www.w3.org/2000/svg">
<path fill-rule="evenodd" clip-rule="evenodd" d="M18.6158 4.63428C18.999 4.21632 19.499 4 20 4C20.501 4 21.001 4.21632 21.3842 4.63428C21.77 5.05516 22 5.64324 22 6.27273C22 7.17521 21.4499 8.12351 20.745 8.93522C20.485 9.23453 20.2235 9.493 20 9.69755C19.7765 9.493 19.515 9.23453 19.255 8.93522C18.5501 8.12351 18 7.17521 18 6.27273C18 5.64324 18.23 5.05516 18.6158 4.63428ZM19.4114 11.8084C19.4116 11.8086 19.4118 11.8087 20 11L19.4118 11.8087C19.7625 12.0638 20.2375 12.0638 20.5882 11.8087L20 11C20.5882 11.8087 20.5884 11.8086 20.5886 11.8084L20.5892 11.808L20.5905 11.8071L20.5939 11.8046L20.6039 11.7971L20.6365 11.7727C20.6636 11.7523 20.7012 11.7235 20.7478 11.6868C20.8409 11.6134 20.9705 11.5081 21.1246 11.3743C21.4312 11.1079 21.8417 10.7225 22.255 10.2466C23.0501 9.33103 24 7.9157 24 6.27273C24 5.16625 23.5979 4.08947 22.8585 3.28284C22.1164 2.47329 21.0903 2 20 2C18.9097 2 17.8836 2.47329 17.1415 3.28284C16.4021 4.08947 16 5.16625 16 6.27273C16 7.9157 16.9499 9.33103 17.745 10.2466C18.1583 10.7225 18.5688 11.1079 18.8754 11.3743C19.0295 11.5081 19.1591 11.6134 19.2522 11.6868C19.2988 11.7235 19.3364 11.7523 19.3635 11.7727L19.3961 11.7971L19.4061 11.8046L19.4095 11.8071L19.4108 11.808L19.4114 11.8084ZM4 10C3.49903 10 2.99897 10.2163 2.61583 10.6343C2.23003 11.0552 2 11.6432 2 12.2727C2 13.1752 2.55013 14.1235 3.25503 14.9352C3.51496 15.2345 3.77653 15.493 4 15.6976C4.22347 15.493 4.48504 15.2345 4.74497 14.9352C5.44987 14.1235 6 13.1752 6 12.2727C6 11.6432 5.76997 11.0552 5.38417 10.6343C5.00103 10.2163 4.50097 10 4 10ZM4 17C3.41183 17.8087 3.4116 17.8086 3.41136 17.8084L3.41081 17.808L3.40952 17.8071L3.40611 17.8046L3.39605 17.7971L3.36348 17.7727C3.33641 17.7523 3.29882 17.7235 3.25222 17.6868C3.15912 17.6134 3.02948 17.5081 2.87545 17.3743C2.56879 17.1079 2.15825 16.7225 1.74497 16.2466C0.949872 15.331 0 13.9157 0 12.2727C0 11.1663 0.402114 10.0895 1.14153 9.28284C1.88361 8.47329 2.90967 8 4 8C5.09033 8 6.11639 8.47329 6.85847 9.28284C7.59789 10.0895 8 11.1663 8 12.2727C8 13.9157 7.05013 15.331 6.25503 16.2466C5.84175 16.7225 5.43121 17.1079 5.12455 17.3743C4.97052 17.5081 4.84088 17.6134 4.74778 17.6868C4.70118 17.7235 4.66359 17.7523 4.63652 17.7727L4.60395 17.7971L4.59389 17.8046L4.59048 17.8071L4.58919 17.808L4.58864 17.8084C4.5884 17.8086 4.58817 17.8087 4 17ZM4 17L4.58817 17.8087C4.23752 18.0638 3.76248 18.0638 3.41183 17.8087L4 17ZM10.1183 14.5281C10.2923 14.203 10.6312 14 11 14H20C20.5523 14 21 14.4477 21 15C21 15.5523 20.5523 16 20 16H12.8685L15.8321 20.4453C16.0366 20.7522 16.0557 21.1467 15.8817 21.4719C15.7077 21.797 15.3688 22 15 22H4C3.44772 22 3 21.5523 3 21C3 20.4477 3.44772 20 4 20H13.1315L10.1679 15.5547C9.96338 15.2478 9.94431 14.8533 10.1183 14.5281Z" fill="#262425"/>
</svg>
