<svg viewBox="0 0 24 25" fill="none" xmlns="http://www.w3.org/2000/svg">
<path fill-rule="evenodd" clip-rule="evenodd" d="M2.86561 8.50188C2.33737 7.58872 2 6.56465 2 5.50261C2 4.44057 2.33737 3.4165 2.86561 2.50333C3.14215 2.02527 2.97879 1.41354 2.50073 1.137C2.02267 0.860459 1.41094 1.02382 1.13439 1.50188C0.47144 2.64793 0 4.01464 0 5.50261C0 6.99058 0.47144 8.35728 1.13439 9.50333C1.41094 9.98139 2.02266 10.1448 2.50073 9.86821C2.97879 9.59167 3.14215 8.97994 2.86561 8.50188ZM22 18.0026C22 19.6595 20.6569 21.0026 19 21.0026H5C3.34315 21.0026 2 19.6595 2 18.0026V15.0026H4.99889H5.999H6H7H22V18.0026ZM1 13.0026H4.99911L5 5.00261V5.0025C5.00006 4.45023 5.44779 4.00258 6.00006 4.00261C6.55232 4.00264 7 4.45034 7 5.00261V5.00272V13.0026H23H24V14.0026V18.0026C24 20.764 21.7614 23.0026 19 23.0026H5C2.23858 23.0026 4.76837e-07 20.764 4.76837e-07 18.0026V14.0026V13.0026H1ZM7 18.0026C7 18.5549 6.55229 19.0026 6 19.0026C5.44772 19.0026 5 18.5549 5 18.0026C5 17.4503 5.44772 17.0026 6 17.0026C6.55229 17.0026 7 17.4503 7 18.0026ZM10 19.0026C10.5523 19.0026 11 18.5549 11 18.0026C11 17.4503 10.5523 17.0026 10 17.0026C9.44772 17.0026 9 17.4503 9 18.0026C9 18.5549 9.44772 19.0026 10 19.0026ZM15 18.0026C15 18.5549 14.5523 19.0026 14 19.0026C13.4477 19.0026 13 18.5549 13 18.0026C13 17.4503 13.4477 17.0026 14 17.0026C14.5523 17.0026 15 17.4503 15 18.0026ZM18 19.0026C18.5523 19.0026 19 18.5549 19 18.0026C19 17.4503 18.5523 17.0026 18 17.0026C17.4477 17.0026 17 17.4503 17 18.0026C17 18.5549 17.4477 19.0026 18 19.0026ZM10.8656 1.50188C10.5891 1.02382 9.97734 0.860458 9.49927 1.137C9.02121 1.41354 8.85785 2.02527 9.13439 2.50333C9.66263 3.4165 10 4.44057 10 5.50261C10 6.56465 9.66263 7.58872 9.13439 8.50188C8.85785 8.97994 9.02121 9.59167 9.49927 9.86821C9.97734 10.1448 10.5891 9.98139 10.8656 9.50333C11.5286 8.35728 12 6.99058 12 5.50261C12 4.01464 11.5286 2.64793 10.8656 1.50188Z" fill="#B0BEC5"/>
</svg>
