<svg viewBox="0 0 24 24" fill="none" xmlns="http://www.w3.org/2000/svg">
<path fill-rule="evenodd" clip-rule="evenodd" d="M2.08131 9.75017C4.82108 7.33514 8.34783 6.00266 12.0001 6.00266C15.6523 6.00266 19.179 7.33514 21.9188 9.75017C22.3331 10.1154 22.965 10.0756 23.3302 9.66126C23.6954 9.24695 23.6556 8.61504 23.2413 8.24984C20.1362 5.5128 16.1392 4.00266 12.0001 4.00266C7.86087 4.00266 3.86388 5.5128 0.758806 8.24984C0.344501 8.61504 0.304692 9.24695 0.669891 9.66126C1.03509 10.0756 1.667 10.1154 2.08131 9.75017ZM5.64006 13.3184C7.43693 11.8217 9.70152 11.0021 12.0401 11.0021C14.3786 11.0021 16.6432 11.8217 18.4401 13.3184C18.8644 13.6718 19.495 13.6144 19.8484 13.19C20.2019 12.7656 20.1444 12.1351 19.7201 11.7816C17.5638 9.98563 14.8463 9.00213 12.0401 9.00213C9.23381 9.00213 6.51631 9.98563 4.36006 11.7816C3.93569 12.1351 3.87822 12.7656 4.23168 13.19C4.58514 13.6144 5.21569 13.6718 5.64006 13.3184ZM12.0051 16.0013C10.9673 16.0013 9.95522 16.3242 9.10922 16.9252C8.659 17.2451 8.03471 17.1394 7.71485 16.6892C7.39498 16.2389 7.50066 15.6147 7.95089 15.2948C9.13529 14.4533 10.5522 14.0013 12.0051 14.0013C13.4579 14.0013 14.8748 14.4533 16.0592 15.2948C16.5094 15.6147 16.6151 16.2389 16.2953 16.6892C15.9754 17.1394 15.3511 17.2451 14.9009 16.9252C14.0549 16.3242 13.0428 16.0013 12.0051 16.0013ZM12.0001 19C11.4478 19 11.0001 19.4477 11.0001 20C11.0001 20.5523 11.4478 21 12.0001 21H12.0101C12.5623 21 13.0101 20.5523 13.0101 20C13.0101 19.4477 12.5623 19 12.0101 19H12.0001Z" fill="#18AED6"/>
</svg>
